<svg width="70" height="70" viewBox="0 0 70 70" fill="none" xmlns="http://www.w3.org/2000/svg">
<rect width="70" height="70" rx="35" fill="#50AF95"/>
<g clip-path="url(#clip0_316_35)">
<path d="M49.7744 31.7582C49.7744 33.1253 44.8788 34.2694 38.3163 34.5582L38.3207 34.5603C37.228 34.6195 36.1337 34.6435 35.0394 34.6325C33.3354 34.6325 32.13 34.5822 31.7057 34.5603C25.13 34.2716 20.2213 33.1275 20.2213 31.7582C20.2213 30.3888 25.13 29.2425 31.7057 28.9494V33.4207C32.1344 33.4535 33.366 33.5257 35.0679 33.5257C37.1088 33.5257 38.1304 33.4382 38.3163 33.4228V28.9538C44.8788 29.2447 49.7744 30.391 49.7744 31.7582ZM61.1275 32.9525L35.2713 57.7282C35.198 57.7984 35.1004 57.8375 34.9989 57.8375C34.8975 57.8375 34.7999 57.7984 34.7266 57.7282L8.87254 32.9525C8.81187 32.8955 8.77106 32.8206 8.7561 32.7387C8.74114 32.6568 8.75281 32.5723 8.78941 32.4975L18.3619 12.3878C18.3935 12.3202 18.444 12.2632 18.5073 12.2236C18.5705 12.1841 18.6439 12.1636 18.7185 12.1647H51.286C51.3597 12.165 51.4318 12.1864 51.4938 12.2263C51.5558 12.2663 51.6051 12.323 51.636 12.39L61.2107 32.4975C61.2473 32.5723 61.2589 32.6568 61.244 32.7387C61.229 32.8206 61.1882 32.8955 61.1275 32.9525ZM51.3319 32.0688C51.3319 30.3057 45.7494 28.8313 38.3228 28.4878V24.4891H47.4797V18.386H22.5488V24.4891H31.7035V28.49C24.2616 28.8313 18.666 30.3057 18.666 32.071C18.666 33.8385 24.2616 35.3085 31.7035 35.6541V48.4772H38.3207V35.6497C45.745 35.3063 51.3319 33.8341 51.3319 32.0688Z" fill="white"/>
</g>
<g clip-path="url(#clip1_316_35)">
<path d="M68.125 13.125C68.125 6.9118 63.0882 1.875 56.875 1.875C50.6618 1.875 45.625 6.9118 45.625 13.125C45.625 19.3382 50.6618 24.375 56.875 24.375C63.0882 24.375 68.125 19.3382 68.125 13.125Z" fill="white"/>
<path d="M56.875 0C49.6277 0 43.75 5.87771 43.75 13.125C43.75 20.3723 49.6277 26.25 56.875 26.25C64.1223 26.25 70 20.3723 70 13.125C70 5.87771 64.1223 0 56.875 0ZM56.875 20.8288L52.1956 14.3804L56.875 17.2337L61.3831 14.4946L56.875 20.8288ZM56.875 15.9212L52.0245 13.3533L56.875 5.36411L61.3831 13.2392L56.875 15.9212Z" fill="url(#paint0_radial_316_35)"/>
</g>
<defs>
<radialGradient id="paint0_radial_316_35" cx="0" cy="0" r="1" gradientUnits="userSpaceOnUse" gradientTransform="translate(56.875 13.125) rotate(90) scale(13.125)">
<stop stop-color="#7180E6"/>
<stop offset="1" stop-color="#20285F"/>
</radialGradient>
<clipPath id="clip0_316_35">
<rect width="52.5" height="52.5" fill="white" transform="translate(8.75 8.75)"/>
</clipPath>
<clipPath id="clip1_316_35">
<rect width="26.25" height="26.25" fill="white" transform="translate(43.75)"/>
</clipPath>
</defs>
</svg>
