<svg width="70" height="70" viewBox="0 0 70 70" fill="none" xmlns="http://www.w3.org/2000/svg">
<rect width="70" height="70" rx="35" fill="#50AF95"/>
<g clip-path="url(#clip0_316_23)">
<path d="M49.7744 31.7583C49.7744 33.1255 44.8787 34.2695 38.3162 34.5583L38.3206 34.5605C37.2279 34.6196 36.1336 34.6437 35.0394 34.6327C33.3353 34.6327 32.13 34.5823 31.7056 34.5605C25.13 34.2717 20.2212 33.1277 20.2212 31.7583C20.2212 30.3889 25.13 29.2427 31.7056 28.9495V33.4208C32.1344 33.4536 33.3659 33.5258 35.0678 33.5258C37.1087 33.5258 38.1303 33.4383 38.3162 33.423V28.9539C44.8787 29.2448 49.7744 30.3911 49.7744 31.7583ZM61.1275 32.9527L35.2712 57.7283C35.1979 57.7985 35.1004 57.8377 34.9989 57.8377C34.8974 57.8377 34.7998 57.7985 34.7265 57.7283L8.87248 32.9527C8.81181 32.8957 8.771 32.8207 8.75603 32.7388C8.74107 32.6569 8.75275 32.5724 8.78935 32.4977L18.3619 12.388C18.3935 12.3204 18.4439 12.2633 18.5072 12.2238C18.5705 12.1842 18.6438 12.1637 18.7184 12.1648H51.2859C51.3597 12.1652 51.4318 12.1865 51.4938 12.2265C51.5558 12.2664 51.6051 12.3232 51.6359 12.3902L61.2106 32.4977C61.2472 32.5724 61.2589 32.6569 61.2439 32.7388C61.229 32.8207 61.1882 32.8957 61.1275 32.9527ZM51.3319 32.0689C51.3319 30.3058 45.7494 28.8314 38.3228 28.488V24.4892H47.4797V18.3861H22.5487V24.4892H31.7034V28.4902C24.2615 28.8314 18.6659 30.3058 18.6659 32.0711C18.6659 33.8386 24.2615 35.3086 31.7034 35.6542V48.4773H38.3206V35.6498C45.745 35.3064 51.3319 33.8342 51.3319 32.0689Z" fill="white"/>
</g>
<rect x="43.75" width="26.25" height="26.25" rx="13.125" fill="#F71817"/>
<path d="M65.4988 9.2391C64.7543 8.71841 63.9582 8.16328 63.1793 7.61246C63.1621 7.59955 63.1449 7.58664 63.1234 7.57373C63.0373 7.50919 62.9384 7.44033 62.8179 7.4016L62.8093 7.3973C60.7265 6.89382 58.6093 6.37742 56.5609 5.87824C54.7019 5.4264 52.8472 4.97455 50.9882 4.52271C50.9408 4.5098 50.8935 4.49689 50.8419 4.48398C50.674 4.43664 50.4804 4.38501 50.2738 4.41083C50.2136 4.41943 50.1619 4.44095 50.1146 4.47107L50.063 4.5141C49.9812 4.59156 49.9382 4.69054 49.9167 4.74648L49.9037 4.78091V4.97886L49.9124 5.00898C51.0871 8.30099 52.2921 11.6403 53.4539 14.8721C54.349 17.3594 55.2785 19.9371 56.1865 22.4674C56.2425 22.6395 56.4017 22.7514 56.5996 22.7686H56.6427C56.8277 22.7686 56.9912 22.6782 57.073 22.5319L60.4812 17.5616C61.3117 16.3524 62.1423 15.1389 62.9728 13.9297C63.3128 13.4348 63.6527 12.9356 63.9927 12.4407C64.5521 11.6231 65.1287 10.7797 65.7011 9.95775L65.7312 9.91472V9.86308C65.7441 9.71246 65.7484 9.40263 65.4988 9.2391ZM61.5054 11.0508C60.705 11.4682 59.8873 11.8985 59.0654 12.3246C59.5431 11.8125 60.025 11.2961 60.5027 10.784C61.1009 10.1385 61.7248 9.47148 62.3359 8.81738L62.3488 8.80447C62.4005 8.73562 62.465 8.67107 62.5339 8.60222C62.5812 8.55488 62.6328 8.50755 62.6802 8.4516C62.9986 8.67107 63.3214 8.89484 63.6312 9.11431C63.855 9.27353 64.083 9.43275 64.3154 9.59197C63.3687 10.0739 62.422 10.5688 61.5054 11.0508ZM59.4484 10.8442C58.833 11.5112 58.1962 12.1955 57.5636 12.8711C56.3371 11.3821 55.0849 9.87169 53.8714 8.41287C53.3205 7.75017 52.7654 7.08316 52.2146 6.42046L52.2103 6.41615C52.0855 6.27414 51.965 6.11923 51.8445 5.97292C51.7671 5.87394 51.6853 5.77927 51.6035 5.68029C52.1027 5.80939 52.6062 5.92988 53.1011 6.04607C53.5357 6.14935 53.9876 6.25693 54.4308 6.36882C56.9267 6.97558 59.4269 7.58234 61.9228 8.1891C61.0923 9.07558 60.2574 9.97496 59.4484 10.8442ZM57.2839 19.2313C57.3312 18.7795 57.3828 18.3147 57.4259 17.8586C57.4646 17.4928 57.5033 17.1184 57.5421 16.7612C57.6023 16.1889 57.6669 15.595 57.7185 15.0141L57.7314 14.9108C57.7744 14.5407 57.8175 14.1578 57.8433 13.7748C57.8906 13.7489 57.9423 13.7231 57.9982 13.7016C58.0628 13.6715 58.1273 13.6457 58.1919 13.6069C59.1859 13.0862 60.18 12.5655 61.1783 12.0491C62.1724 11.5328 63.1923 10.9991 64.2035 10.4698C63.2826 11.8039 62.3574 13.1508 61.4623 14.4633C60.6921 15.5864 59.9003 16.744 59.1128 17.8844C58.8029 18.3405 58.4802 18.8053 58.1746 19.2528C57.8304 19.752 57.4775 20.2641 57.1332 20.7762C57.1763 20.2598 57.2279 19.7391 57.2839 19.2313ZM51.2851 6.69587C51.2292 6.54095 51.1689 6.38173 51.1173 6.23111C52.2792 7.63398 53.4496 9.04546 54.59 10.4139C55.1796 11.1239 55.7691 11.8297 56.3587 12.544C56.4748 12.6774 56.591 12.8194 56.7029 12.9571C56.8492 13.1336 56.9955 13.3186 57.1548 13.495C57.1031 13.9383 57.0601 14.3858 57.0128 14.8162C56.9826 15.1174 56.9525 15.4186 56.9181 15.7241V15.7284C56.9052 15.9221 56.8794 16.1157 56.8578 16.3051C56.8277 16.5676 56.7589 17.1614 56.7589 17.1614L56.7546 17.1916C56.6771 18.0608 56.5824 18.9387 56.4921 19.7907C56.4533 20.1436 56.4189 20.5051 56.3802 20.8666C56.3587 20.802 56.3328 20.7375 56.3113 20.6772C56.2468 20.5051 56.1822 20.3243 56.122 20.1479L55.6615 18.8698C54.2027 14.8118 52.7439 10.7582 51.2851 6.69587Z" fill="white"/>
<defs>
<clipPath id="clip0_316_23">
<rect width="52.5" height="52.5" fill="white" transform="translate(8.75 8.75)"/>
</clipPath>
</defs>
</svg>
