<svg width="347" height="40" viewBox="0 0 347 40" fill="none" xmlns="http://www.w3.org/2000/svg">
<path d="M306.281 26.0813C305.935 20.4168 308.317 14.1153 313.206 9.22645C323.856 -1.42382 346.043 0.0719272 346.168 0.0719272C346.112 0.155024 329.895 23.6715 310.672 25.8735C309.19 26.0536 307.722 26.109 306.281 26.0813Z" fill="#03CA9B"/>
<path d="M308.525 33.3246C309.079 34.1971 309.73 35.0142 310.478 35.7621C317.056 42.3406 328.939 41.1219 337.013 33.0338C347.691 22.3558 346.168 0.0719272 346.168 0.0719272C346.112 0.196573 334.479 26.2614 316.018 31.9396C313.497 32.7152 310.976 33.1723 308.525 33.3246Z" fill="#03CA9B"/>
<path d="M24.015 34.114H7.24328V24.2531H24.015C28.2114 24.2531 30.3442 26.469 30.3442 29.3359C30.3442 32.0919 28.2529 34.114 24.015 34.114ZM23.4749 18.9626H7.24328V10.6529H23.461C27.879 10.6529 29.6102 12.3703 29.6102 14.7247C29.624 16.899 27.6159 18.9626 23.4749 18.9626ZM27.7544 21.4832C34.8176 21.2339 37.3659 17.3561 37.3659 13.132C37.3659 8.50624 34.042 4.66993 25.9262 4.66993H0V40H26.7018C33.3496 40 38.3215 36.9254 38.3215 30.3331C38.3215 25.6519 35.5516 21.6771 27.7544 21.4832ZM46.8805 4.66993V40H54.1238V4.66993H46.8805ZM83.5124 11.3592H99.467V4.66993H60.3145V11.3592H76.2691V40H83.5124V11.3592ZM105.644 4.66993V40H112.887V26.2059H129.88V20.4168H112.901V10.7499H140.517V4.65608L105.644 4.66993ZM146.375 4.66993V40H153.618V4.66993H146.375ZM170.612 13.2705L194.627 40H202.826V4.66993H195.666V30.1392L172.62 4.66993H163.41V40H170.612V13.2705ZM212.617 4.66993V40H248.072V34.0586H219.861V24.3501H236.771V18.8657H219.861V10.7499H248.072V4.65608L212.617 4.66993ZM296.601 4.66993H287.031L274.815 17.1068L262.697 4.66993H252.989L270.037 22.0788L252.351 40H261.921L274.732 26.9676L287.488 40H297.238L279.51 22.0372L296.601 4.66993Z" fill="#102331"/>
</svg>
