<?xml version="1.0" encoding="utf-8"?>
<!-- Generator: Adobe Illustrator 25.4.1, SVG Export Plug-In . SVG Version: 6.00 Build 0)  -->
<svg version="1.1" id="layer" xmlns="http://www.w3.org/2000/svg" xmlns:xlink="http://www.w3.org/1999/xlink" x="0px" y="0px"
	 viewBox="0 0 600 108.1" style="enable-background:new 0 0 600 108.1;" xml:space="preserve">
<style type="text/css">
	.st0{fill:#18222F;}
	.st1{fill:#1CBCFF;}
</style>
<path class="st0" d="M210.8,57.7c-1.4-1.5-3.1-2.7-4.9-3.6c-0.9-0.5-1.8-0.9-2.8-1.2l0.6-0.3c1.2-0.6,2.3-1.4,3.2-2.3
	c1.6-1.6,2.8-3.6,3.5-5.8c0.8-2.3,1.1-4.8,1.1-7.3c0-2.4-0.4-4.7-1.1-6.9c-0.7-2-1.9-3.8-3.4-5.3c-3.3-3.2-8.9-5.4-16.4-5.4h-39.3
	v69.8h42.1c3.3,0.1,6.6-0.5,9.7-1.6c2.5-1,4.9-2.4,6.8-4.4c1.6-1.7,2.9-3.7,3.6-5.9c0.9-2.4,1.3-5,1.3-7.5c0-2.4-0.3-4.7-1-7
	C213.2,61.1,212.2,59.2,210.8,57.7z M195.3,73.9c-0.8,0.6-1.7,1-2.6,1.2c-1.2,0.3-2.5,0.4-3.7,0.4h-21.4V61.3h21.6
	c2.6,0,4.7,0.7,6,1.8l0,0c0.8,0.6,1.3,1.4,1.6,2.4c0.4,1.1,0.5,2.2,0.5,3.4c0,1-0.1,2-0.5,3C196.5,72.6,196,73.3,195.3,73.9z
	 M193.5,37.2c0.4,1,0.6,2.1,0.6,3.2c0,1.2-0.2,2.5-0.6,3.6c-0.3,0.9-0.8,1.7-1.5,2.4c-0.6,0.5-1.2,0.9-2,1.2
	c-0.8,0.3-1.6,0.4-2.5,0.4h-20V33.4h18.6c1.2,0,2.4,0.1,3.6,0.4c0.9,0.2,1.7,0.6,2.4,1.2C192.7,35.6,193.2,36.4,193.5,37.2
	L193.5,37.2z M227.8,89.4h0.9h16.1V19.6h-17L227.8,89.4L227.8,89.4z M255,34h22.1v55.4h17V34h22.2V19.6H255L255,34L255,34z
	 M322.4,34h22.1v55.4h17V34h22.2V19.6h-61.3L322.4,34L322.4,34z M450.9,53.1c1.7-2.9,2.6-7.1,2.6-12.3c0-2.5-0.2-5-0.8-7.5
	c-0.5-2-1.3-3.9-2.4-5.7l0,0c-1.5-2.6-3.8-4.7-6.6-6c-2.9-1.4-6.6-2.1-11-2.1h-38.8v69.8h16.5V62.9h16.4L440,89.3h18.8l-16-29.7
	C446.2,58.6,449.2,56.3,450.9,53.1z M436.2,46.8c-0.2,0.4-0.4,0.7-0.8,0.9c-0.6,0.5-1.3,0.8-2.1,1c-1,0.3-2.1,0.4-3.1,0.4h-19.7
	V33.9h18.9c1.6-0.1,3.1,0.2,4.6,0.8c0.5,0.2,1,0.5,1.4,0.9s0.7,0.8,0.9,1.3c0.1,0.3,0.2,0.6,0.3,0.9c0.3,1.4,0.4,2.8,0.4,4.2
	c0,0.9-0.1,1.8-0.2,2.6C436.7,45.4,436.5,46.1,436.2,46.8z M485.8,61.8h36V47.1h-36V34.2h37.3V19.6h-53.7v69.8h0.9h53.2V74.8h-37.8
	v-13H485.8z M574.5,53l-7.4-10.5l-15.4-22.9h-19.6l24.1,34.5l-25.6,35.3h19.2l0.4-0.5L565.4,67l15.1,22.4H600L574.5,53z"/>
<path class="st1" d="M108.2,76.8V0H31.4v22.7h14V14h48.7v48.7H76.7V31.3H0v76.8h76.8V85.4h-14v8.7H14V45.4h17.4v31.4L108.2,76.8
	L108.2,76.8z M45.4,45.4h17.4v17.4H45.4V45.4z M578.2,31.6h9.7v9.5h12V19.6h-21.5v12H578.2z"/>
</svg>
