
<svg id="Layer_1" data-name="Layer 1" xmlns="http://www.w3.org/2000/svg" viewBox="0 0 335.12 97.39"><defs><style>.cls-1{fill:#5fc4b4;}.cls-2{fill:#032b38;}.cls-3{fill:#154556;}.cls-4{fill:#231f20;}</style></defs><path class="cls-1" d="M254.54,77.71v49l-42-24.32V53.94c-.79.39-1.22.57-1.62.8Q201.42,60.2,192,65.68q-10.59,6.16-21.17,12.37l-.33,0q0-18.45-.08-36.89c0-3.82,0-7.64,0-11.8l3.27,1.85,37.1,21.42a3.91,3.91,0,0,0,2,.88c.46.76,1.28,1,2,1.41q11.56,6.7,23.16,13.38C243.45,71.43,249,74.56,254.54,77.71Z" transform="translate(-170.36 -29.32)"/><path class="cls-2" d="M170.45,78l.33,0c.74,1.1,2,1.37,3.08,2,9.36,5.46,18.78,10.8,28.12,16.3,3.41,2,7.05,3.67,10.17,6.17l-34.66,20.13-6.71,3.86c-.56-.17-.4-.57-.4-.87q0-23.4,0-46.79C170.38,78.55,170.43,78.28,170.45,78Z" transform="translate(-170.36 -29.32)"/><path class="cls-2" d="M254.54,77.71c-5.54-3.15-11.09-6.28-16.62-9.45q-11.59-6.66-23.16-13.38c-.7-.41-1.52-.65-2-1.41l41.47-24c.17.18.32.27.32.36Q254.57,53.77,254.54,77.71Z" transform="translate(-170.36 -29.32)"/><path class="cls-3" d="M212.15,102.5C209,100,205.39,98.34,202,96.33c-9.34-5.5-18.76-10.84-28.12-16.3-1.05-.61-2.34-.88-3.08-2Q181.37,71.86,192,65.68q9.45-5.49,18.93-10.94c.4-.23.83-.41,1.62-.8v48.45A.49.49,0,0,1,212.15,102.5Z" transform="translate(-170.36 -29.32)"/><path class="cls-4" d="M281.77,64.12h12.11c6.72,0,9.71,4.83,9.71,9.67s-3,9.62-9.71,9.62h-5.82V93.6h-6.29Zm6.29,5.52v8.3h5.52c2.44,0,3.72-2.27,3.72-4.15s-1.15-4.15-3.55-4.15Z" transform="translate(-170.36 -29.32)"/><path class="cls-4" d="M323.84,63.78A15.12,15.12,0,1,1,308.9,78.92,15,15,0,0,1,323.84,63.78Zm0,24a8.92,8.92,0,1,0-8.69-8.9A8.77,8.77,0,0,0,323.84,87.82Z" transform="translate(-170.36 -29.32)"/><path class="cls-4" d="M346.6,64.12h6.29v24h11V93.6H346.6Z" transform="translate(-170.36 -29.32)"/><path class="cls-4" d="M383.57,63.78a15.12,15.12,0,1,1-14.93,15.14A15,15,0,0,1,383.57,63.78Zm0,24a8.92,8.92,0,1,0-8.69-8.9A8.78,8.78,0,0,0,383.57,87.82Z" transform="translate(-170.36 -29.32)"/><path class="cls-4" d="M428.46,93.6h-5.61L412.58,75.76V93.6h-6.24V64.12h5.73l10.1,17.63V64.12h6.29Z" transform="translate(-170.36 -29.32)"/><path class="cls-4" d="M444.2,64.12V93.6H438V64.12Z" transform="translate(-170.36 -29.32)"/><path class="cls-4" d="M453.7,64.12h18.66v5.52H460v6.71h10.87v5.44H460v6.29h12.79V93.6h-19Z" transform="translate(-170.36 -29.32)"/><path class="cls-4" d="M495.25,77.89,505.48,93.6h-7.41l-6.54-10.7L485,93.6h-7.36l10.19-15.71-9.29-13.77h7.53l5.48,8.81,5.52-8.81h7.48Z" transform="translate(-170.36 -29.32)"/></svg>