<?xml version="1.0" encoding="utf-8"?>
<!-- Generator: Adobe Illustrator 25.4.1, SVG Export Plug-In . SVG Version: 6.00 Build 0)  -->
<svg version="1.1" id="Слой_1" xmlns="http://www.w3.org/2000/svg" xmlns:xlink="http://www.w3.org/1999/xlink" x="0px" y="0px"
	 viewBox="0 0 210 71" style="enable-background:new 0 0 210 71;" xml:space="preserve">
<style type="text/css">
	.st0{fill:#F7A600;}
	.st1{fill:#000008;}
</style>
<path class="st0" d="M140.7,48.3V6.7h8.4v41.6H140.7z"/>
<path class="st1" d="M43.2,60.6H25.3V19h17.2c8.4,0,13.2,4.6,13.2,11.7c0,4.6-3.1,7.6-5.3,8.6c2.6,1.2,5.9,3.8,5.9,9.4
	C56.3,56.4,50.9,60.6,43.2,60.6z M41.8,26.3h-8.2v9.6h8.2c3.5,0,5.5-1.9,5.5-4.8C47.4,28.2,45.4,26.3,41.8,26.3z M42.4,43.2h-8.7
	v10.2h8.7c3.8,0,5.6-2.3,5.6-5.1C48,45.4,46.2,43.2,42.4,43.2z"/>
<path class="st1" d="M81.8,43.6v17.1h-8.3V43.6L60.7,19h9.1l8,16.8L85.6,19h9.1L81.8,43.6z"/>
<path class="st1" d="M118.4,60.6h-17.9V19h17.2c8.4,0,13.2,4.6,13.2,11.7c0,4.6-3.1,7.6-5.3,8.6c2.6,1.2,5.9,3.8,5.9,9.4
	C131.5,56.4,126.1,60.6,118.4,60.6z M117,26.3h-8.2v9.6h8.2c3.5,0,5.5-1.9,5.5-4.8C122.6,28.2,120.6,26.3,117,26.3z M117.6,43.2
	h-8.7v10.2h8.7c3.8,0,5.6-2.3,5.6-5.1C123.2,45.4,121.4,43.2,117.6,43.2z"/>
<path class="st1" d="M176,26.3v34.4h-8.4V26.3h-11.2V19h30.7v7.2H176z"/>
</svg>
