<svg width="299" height="60" viewBox="0 0 299 60" fill="none" xmlns="http://www.w3.org/2000/svg">
<path d="M13.558 30L6.77608 36.7761L0 30L6.77608 23.2239L13.558 30ZM30 13.5463L41.612 25.1641L48.388 18.388L30 0L11.612 18.388L18.388 25.1641L30 13.5463ZM53.2298 23.2239L46.4537 30L53.2298 36.7761L60 30L53.2298 23.2239ZM30 46.4537L18.388 34.8417L11.612 41.612L30 60L48.388 41.612L41.612 34.8417L30 46.4537ZM30 36.7761L36.7761 30L30 23.2239L23.2239 30L30 36.7761ZM101.512 37.4267V37.3329C101.512 32.9132 99.1676 30.7034 95.3517 29.2497C97.6964 27.9308 99.6776 25.8617 99.6776 22.1512V22.0574C99.6776 16.8875 95.5393 13.5463 88.8159 13.5463H73.5522V46.4537H89.2028C96.6295 46.4537 101.524 43.4467 101.524 37.4267H101.512ZM92.4853 23.3587C92.4853 25.803 90.4631 26.8406 87.2685 26.8406H80.6037V19.8945H87.7491C90.803 19.8945 92.4971 21.1137 92.4971 23.2767L92.4853 23.3587ZM94.32 36.524C94.32 38.9683 92.3915 40.0938 89.1911 40.0938H80.6037V32.8663H88.9683C92.6846 32.8663 94.3318 34.2321 94.3318 36.442L94.32 36.524ZM116.723 46.4537V13.5463H109.461V46.4537H116.723ZM155.639 46.4537V13.5463H148.47V33.8101L133.054 13.5463H126.377V46.4537H133.523V25.5334L149.455 46.4537H155.639ZM195.739 46.4537L181.612 13.3118H174.936L160.838 46.4537H168.218L171.237 39.0739H185.152L188.159 46.4537H195.739ZM182.579 32.6788H173.81L178.183 22.0105L182.579 32.6788ZM230.246 46.4537V13.5463H223.077V33.8101L207.655 13.5463H200.985V46.4537H208.124V25.5334L224.062 46.4537H230.246ZM267.614 41.143L263.013 36.4889C260.428 38.8335 258.124 40.34 254.361 40.34C248.722 40.34 244.818 35.6506 244.818 30V29.9062C244.818 24.2673 248.816 19.66 254.361 19.66C257.649 19.66 260.223 21.0668 262.778 23.3705L267.368 18.0598C264.314 15.0528 260.604 12.9836 254.396 12.9836C244.291 12.9836 237.239 20.6448 237.239 29.9824V30.0762C237.239 39.5252 244.431 46.9988 254.115 46.9988C260.451 47.0164 264.209 44.7597 267.591 41.143H267.614ZM298.505 46.4537V40.0059H280.615V33.0832H296.131V26.6354H280.615V19.9883H298.247V13.5404H273.423V46.4478L298.505 46.4537Z" fill="#F0B90B"/>
</svg>
