<svg width="200" height="60" viewBox="0 0 200 60" fill="none" xmlns="http://www.w3.org/2000/svg">
<path d="M74.2326 31.8849H57.4135V17.1417C57.4135 15.9301 56.4307 14.9472 55.219 14.9472H49.5251V55.474C49.5251 56.6857 50.508 57.6685 51.7196 57.6685H57.4135V38.7651H74.2411V55.4655C74.2242 56.6772 75.1901 57.677 76.4018 57.694H82.1296V17.1417C82.1296 15.9301 81.1467 14.9472 79.935 14.9472H74.2326V31.8849ZM107.634 25.547V45.857C107.651 47.7042 106.685 49.4242 105.092 50.3732C100.635 52.949 96.017 49.7208 96.017 45.4842V27.7416C96.017 26.5299 95.0341 25.547 93.8224 25.547H88.1285V46.2129C88.1455 52.8728 93.5344 58.2617 100.194 58.2956H103.431C110.099 58.2786 115.505 52.8728 115.522 46.2044V27.7416C115.522 26.5299 114.539 25.547 113.328 25.547H107.634Z" fill="#1B2143"/>
<path d="M199.474 57.694V28.9193C199.474 27.7077 198.491 26.7248 197.279 26.7248H191.585V55.4825C191.577 56.6941 192.551 57.6855 193.763 57.694H199.474Z" fill="#2CA6E0"/>
<path d="M199.594 20.9695C200.523 18.7256 199.458 16.1531 197.214 15.2236C194.97 14.2942 192.397 15.3597 191.468 17.6036C190.539 19.8475 191.604 22.4199 193.848 23.3494C196.092 24.2789 198.664 23.2133 199.594 20.9695Z" fill="#2CA6E0"/>
<path d="M135.874 25.5301C127.613 25.5301 120.852 31.4358 120.852 39.6971V44.1624C120.852 52.4237 127.613 58.2955 135.874 58.2955C144.136 58.2955 150.897 52.4237 150.897 44.1624V39.6971C150.906 31.4358 144.144 25.5301 135.874 25.5301ZM142.975 44.6962C142.975 48.6023 139.781 51.2036 135.866 51.2036C131.951 51.2036 128.766 48.6023 128.766 44.6962V39.1209C128.766 35.2148 131.96 32.6136 135.866 32.6136C139.772 32.6136 142.975 35.2148 142.975 39.1209V44.6962Z" fill="#1B2143"/>
<path d="M171.25 25.5301C168.775 25.5131 166.335 26.0724 164.107 27.1484V17.1841C164.107 15.9724 163.124 14.9895 161.912 14.9895H156.218V44.1624C156.218 52.4237 162.98 58.2956 171.241 58.2956C179.502 58.2956 186.264 52.4237 186.264 44.1624V39.6971C186.272 31.4358 179.528 25.5301 171.25 25.5301ZM178.359 44.6962C178.359 48.6023 175.164 51.2036 171.25 51.2036C167.344 51.2036 164.149 48.6023 164.149 44.6962V39.1209C164.149 35.2148 167.344 32.6136 171.25 32.6136C175.156 32.6136 178.359 35.2148 178.359 39.1209V44.6962Z" fill="#2CA6E0"/>
<path d="M25.6818 18.455C25.6818 9.84637 21.4876 2.43241 18.2932 0.0260505C18.2932 0.0260505 18.0475 -0.109519 18.0729 0.237878C17.8103 16.8706 9.31173 21.3783 4.64305 27.445C-6.13473 41.4595 3.88048 56.8212 14.099 59.6597C19.793 61.2527 12.7772 56.8466 11.8706 47.5517C10.7606 36.3333 25.6818 27.7585 25.6818 18.455Z" fill="#1B2143"/>
<path d="M30.5792 24.1235C30.5114 24.0812 30.4182 24.0473 30.3589 24.1574C30.181 26.2503 28.0458 30.7241 25.3344 34.842C16.1411 48.7887 21.3774 55.5164 24.3261 59.1344C26.0377 61.2272 24.3261 59.1344 28.5965 56.9907C33.8753 53.7879 37.2984 48.2464 37.8068 42.095C38.6456 32.1815 32.6975 25.9368 30.5792 24.1235Z" fill="#2CA6E0"/>
</svg>
