<?xml version="1.0" encoding="utf-8"?>
<!-- Generator: Adobe Illustrator 25.4.1, SVG Export Plug-In . SVG Version: 6.00 Build 0)  -->
<svg version="1.1" id="Слой_1" xmlns="http://www.w3.org/2000/svg" xmlns:xlink="http://www.w3.org/1999/xlink" x="0px" y="0px"
	 viewBox="0 0 124 24" style="enable-background:new 0 0 124 24;" xml:space="preserve">
<style type="text/css">
	.st0{fill:#0052FF;}
</style>
<path class="st0" d="M26.3,7.3c-4.4,0-7.8,3.3-7.8,7.7c0,4.4,3.3,7.7,7.8,7.7c4.5,0,7.8-3.3,7.8-7.7C34.2,10.6,30.8,7.3,26.3,7.3z
	 M26.4,19.5c-2.5,0-4.3-1.9-4.3-4.5c0-2.6,1.8-4.5,4.3-4.5c2.5,0,4.3,2,4.3,4.5C30.7,17.6,28.8,19.5,26.4,19.5z M35.1,10.6h2.2v11.8
	h3.5V7.5h-5.6V10.6z M9.9,10.4c1.8,0,3.3,1.1,3.8,2.8h3.7c-0.7-3.6-3.6-6-7.4-6c-4.4,0-7.8,3.3-7.8,7.8c0,4.4,3.3,7.7,7.8,7.7
	c3.8,0,6.8-2.4,7.4-6h-3.6c-0.5,1.7-2,2.8-3.8,2.8c-2.5,0-4.3-1.9-4.3-4.5C5.6,12.4,7.3,10.4,9.9,10.4z M101,13.6l-2.5-0.4
	c-1.2-0.2-2.1-0.6-2.1-1.5c0-1,1.1-1.6,2.7-1.6c1.7,0,2.7,0.7,3,1.9h3.3c-0.4-3-2.7-4.7-6.2-4.7c-3.7,0-6.1,1.9-6.1,4.5
	c0,2.5,1.6,4,4.8,4.5l2.5,0.4c1.3,0.2,1.9,0.7,1.9,1.6c0,1.2-1.2,1.7-2.9,1.7c-2.1,0-3.2-0.8-3.4-2.1h-3.4c0.3,2.9,2.6,4.9,6.8,4.9
	c3.8,0,6.3-1.7,6.3-4.7C105.6,15.4,103.8,14,101,13.6z M39,1.4c-1.3,0-2.2,0.9-2.2,2.2c0,1.3,0.9,2.2,2.2,2.2c1.3,0,2.2-0.9,2.2-2.2
	S40.3,1.4,39,1.4z M89.9,12.6c0-3.2-2-5.4-6.1-5.4c-3.9,0-6.1,2-6.6,5h3.4c0.2-1.2,1.1-2.2,3.1-2.2c1.8,0,2.6,0.8,2.6,1.7
	c0,1.2-1.6,1.6-3.5,1.8c-2.7,0.3-5.9,1.2-5.9,4.7c0,2.7,2,4.4,5.2,4.4c2.5,0,4-1,4.8-2.7c0.1,1.5,1.2,2.4,2.7,2.4h2v-3.1h-1.7
	L89.9,12.6z M86.5,16.4c0,2-1.7,3.4-3.8,3.4c-1.3,0-2.4-0.5-2.4-1.7c0-1.5,1.8-1.9,3.4-2c1.6-0.1,2.4-0.5,2.9-1.1
	C86.5,14.9,86.5,16.4,86.5,16.4z M68.1,7.3c-1.9,0-3.5,0.8-4.7,2.2V1.3h-3.5v21.2h3.4v-2c1.1,1.4,2.8,2.2,4.8,2.2
	c4.2,0,7.3-3.3,7.3-7.7C75.4,10.5,72.2,7.3,68.1,7.3z M67.5,19.5c-2.5,0-4.3-1.9-4.3-4.5c0-2.6,1.9-4.5,4.3-4.5
	c2.5,0,4.3,1.9,4.3,4.5C71.8,17.6,70,19.5,67.5,19.5z M51.6,7.3c-2.3,0-3.7,0.9-4.6,2.2V7.5h-3.4v14.9H47v-8.1
	c0-2.3,1.5-3.9,3.6-3.9c2,0,3.2,1.4,3.2,3.4v8.5h3.5v-8.8C57.3,9.9,55.4,7.3,51.6,7.3z M122.1,14.5c0-4.3-3.1-7.3-7.3-7.3
	c-4.5,0-7.7,3.3-7.7,7.7c0,4.6,3.5,7.7,7.8,7.7c3.6,0,6.4-2.1,7.2-5.1h-3.6c-0.5,1.3-1.8,2.1-3.5,2.1c-2.2,0-3.9-1.4-4.3-3.8h11.5
	L122.1,14.5z M110.9,13.4c0.5-2.1,2.1-3.1,3.9-3.1c2,0,3.5,1.1,3.8,3.1H110.9z"/>
</svg>
