<?xml version="1.0" encoding="utf-8"?>
<!-- Generator: Adobe Illustrator 25.4.1, SVG Export Plug-In . SVG Version: 6.00 Build 0)  -->
<svg version="1.1" id="Слой_1" xmlns="http://www.w3.org/2000/svg" xmlns:xlink="http://www.w3.org/1999/xlink" x="0px" y="0px"
	 viewBox="0 0 88 29" style="enable-background:new 0 0 88 29;" xml:space="preserve">
<style type="text/css">
	.st0{fill-rule:evenodd;clip-rule:evenodd;fill:#030306;}
	.st1{fill:#030306;}
</style>
<path class="st0" d="M28.4,2.9H6.9C6.8,2.9,6.6,3,6.5,3.1C6.4,3.2,6.4,3.3,6.4,3.5V25c0,0.1,0.1,0.3,0.2,0.4s0.2,0.2,0.4,0.2h21.5
	c0.1,0,0.3-0.1,0.4-0.2s0.2-0.2,0.2-0.4V3.5c0-0.1-0.1-0.3-0.2-0.4C28.7,3,28.6,2.9,28.4,2.9z M21.4,17.4c0,0.1-0.1,0.3-0.2,0.4
	S21.1,18,20.9,18h-6.5c-0.1,0-0.3-0.1-0.4-0.2c-0.1-0.1-0.2-0.2-0.2-0.4v-6.5c0-0.1,0.1-0.3,0.2-0.4c0.1-0.1,0.2-0.2,0.4-0.2H21
	c0.1,0,0.3,0.1,0.4,0.2c0.1,0.1,0.2,0.2,0.2,0.4L21.4,17.4L21.4,17.4z"/>
<path class="st1" d="M73.6,10.5H67c-0.3,0-0.5,0.2-0.5,0.5v6.5c0,0.3,0.2,0.5,0.5,0.5h6.5c0.3,0,0.5-0.2,0.5-0.5v-6.5
	C74.1,10.6,73.8,10.5,73.6,10.5z"/>
<path class="st1" d="M59.6,2.9h6.5c0.3,0,0.5,0.2,0.5,0.5v6.5c0,0.3-0.2,0.5-0.5,0.5h-6.5c-0.3,0-0.5-0.2-0.5-0.5V3.5
	C59,3.2,59.3,2.9,59.6,2.9z"/>
<path class="st1" d="M81.1,2.9h-6.5c-0.3,0-0.5,0.2-0.5,0.5v6.5c0,0.3,0.2,0.5,0.5,0.5h6.5c0.3,0,0.5-0.2,0.5-0.5V3.5
	C81.6,3.2,81.4,2.9,81.1,2.9z"/>
<path class="st1" d="M59.6,17.9h6.5c0.3,0,0.5,0.2,0.5,0.5v6.5c0,0.3-0.2,0.5-0.5,0.5h-6.5c-0.3,0-0.5-0.2-0.5-0.5v-6.5
	C59,18.2,59.3,17.9,59.6,17.9z"/>
<path class="st1" d="M81.1,17.9h-6.5c-0.3,0-0.5,0.2-0.5,0.5v6.5c0,0.3,0.2,0.5,0.5,0.5h6.5c0.3,0,0.5-0.2,0.5-0.5v-6.5
	C81.6,18.2,81.4,17.9,81.1,17.9z"/>
<path class="st1" d="M48.2,2.9h6.5c0.3,0,0.5,0.2,0.5,0.5v6.5c0,0.3-0.2,0.5-0.5,0.5h-6.5c-0.3,0-0.5-0.2-0.5-0.5V3.5
	C47.8,3.2,48,2.9,48.2,2.9z"/>
<path class="st1" d="M54.8,17.9h-6.5c-0.3,0-0.5,0.2-0.5,0.5v6.5c0,0.3,0.2,0.5,0.5,0.5h6.5c0.3,0,0.5-0.2,0.5-0.5v-6.5
	C55.2,18.2,55,17.9,54.8,17.9z"/>
<path class="st1" d="M47.6,10.5c0.1,0.1,0.2,0.2,0.2,0.4v6.5c0,0.1-0.1,0.3-0.2,0.4S47.4,18,47.2,18h-7v7c0,0.1-0.1,0.3-0.2,0.4
	c-0.1,0.1-0.2,0.2-0.4,0.2h-6.5c-0.1,0-0.3-0.1-0.4-0.2s-0.2-0.2-0.2-0.4V3.5c0-0.1,0.1-0.3,0.2-0.4C33,3,33,2.9,33.2,2.9h6.5
	c0.1,0,0.3,0.1,0.4,0.2c0.1,0.1,0.2,0.2,0.2,0.4v7h7C47.4,10.5,47.5,10.5,47.6,10.5z"/>
</svg>
