<svg width="260" height="60" viewBox="0 0 260 60" fill="none" xmlns="http://www.w3.org/2000/svg">
<path d="M35.0473 47.7333L17.3142 30.0001L35.107 12.2667L46.3108 23.4697C48.2871 25.4469 51.5225 25.4469 53.5 23.4697C55.4763 21.4928 55.4763 18.2577 53.5 16.2805L38.7016 1.48291C36.7252 -0.494302 33.4899 -0.494302 31.5124 1.48291L10.1847 22.8109V10.2298C10.1847 7.41394 7.90764 5.13748 5.09234 5.13748C2.27704 5.13748 0 7.41394 0 10.2298V49.8901C0 52.706 2.27704 54.9825 5.09234 54.9825C7.90764 54.9825 10.1847 52.646 10.1847 49.8901V37.1894L31.4527 58.5171C33.4302 60.4943 36.6644 60.4943 38.6419 58.5171L53.4392 43.7195C55.4167 41.7423 55.4167 38.5072 53.4392 36.5303C51.4628 34.5531 48.2275 34.5531 46.25 36.5303L35.0473 47.7333Z" fill="#28CD96"/>
<path d="M30.0146 30.0001C30.0146 27.1843 32.2917 24.9078 35.107 24.9078C37.8626 24.9078 40.1396 27.1843 40.1993 30.0001C40.1993 32.8157 37.9234 35.0925 35.107 35.0925C32.2917 35.0925 30.0146 32.8157 30.0146 30.0001Z" fill="#28CD96"/>
<path d="M152.77 30.0001C152.77 28.3225 152.77 26.8847 152.831 25.7465C152.891 24.6082 152.95 23.7096 153.07 22.9906C153.609 19.9351 155.946 18.1378 158.941 18.1378C160.919 18.1378 162.655 18.8568 163.794 20.5342C164.274 21.2532 164.633 22.0919 164.873 23.0505C164.873 23.1705 164.932 23.2301 165.052 23.2301H171.762C171.817 23.2301 171.847 23.2176 171.863 23.1921C171.882 23.1623 171.882 23.1152 171.882 23.0505C171.163 18.9168 168.946 15.1423 164.992 13.2853C163.195 12.4463 161.098 11.9672 158.822 11.9672C155.047 11.9672 151.812 13.2853 149.236 15.8613C147.739 17.3591 146.779 19.1564 146.36 21.1933C145.941 23.1705 145.761 26.106 145.761 30.0001C145.761 33.8943 145.941 36.8298 146.36 38.8067C146.779 40.8439 147.798 42.6412 149.236 44.139C151.812 46.715 155.047 48.0331 158.822 48.0331C161.098 48.0331 163.135 47.6136 164.992 46.715C168.886 44.8577 171.163 41.1435 171.882 36.9498C171.882 36.8298 171.882 36.7699 171.762 36.7699H165.052C164.996 36.7699 164.952 36.7833 164.923 36.8102C164.889 36.8401 164.873 36.8866 164.873 36.9498C164.633 37.9081 164.274 38.7471 163.794 39.4658C162.655 41.0835 160.919 41.8022 158.941 41.8622C155.946 41.8622 153.609 40.0649 153.07 37.0094C152.95 36.2907 152.831 35.3921 152.831 34.2538C152.77 33.1153 152.77 31.6775 152.77 30.0001Z" fill="#28CD96"/>
<path fill-rule="evenodd" clip-rule="evenodd" d="M204.233 30.0001C204.233 28.4424 204.233 27.0046 204.172 25.6865C204.113 24.3687 203.993 23.1105 203.813 21.9723C203.634 20.8337 203.274 19.7555 202.795 18.7369C202.315 17.7186 201.597 16.76 200.698 15.8613C199.44 14.6031 198.062 13.6445 196.504 12.9858C194.947 12.3267 193.15 11.9672 191.113 11.9672C190.89 11.9672 190.671 11.9716 190.455 11.98C190.05 11.9958 189.655 12.0265 189.27 12.0713C188.766 12.1295 188.281 12.212 187.813 12.3176C187.073 12.4841 186.376 12.7084 185.721 12.9858C184.163 13.6445 182.725 14.6031 181.467 15.8613C180.569 16.76 179.909 17.7186 179.43 18.7369C178.95 19.7555 178.591 20.8337 178.411 21.9723C178.232 23.1105 178.111 24.3687 178.052 25.6865C177.992 27.0046 177.992 28.4424 177.992 30.0001C177.992 31.5579 177.992 32.9357 178.052 34.3135C178.111 35.6316 178.232 36.8898 178.411 38.028C178.591 39.1663 178.95 40.2448 179.43 41.2631C179.909 42.2817 180.628 43.2403 181.467 44.139C182.725 45.3969 184.102 46.3555 185.721 47.0145C187.278 47.6736 189.075 48.0331 191.113 48.0331C193.15 48.0331 194.886 47.6736 196.504 47.0145C198.062 46.3555 199.5 45.3969 200.698 44.139C201.132 43.7046 201.51 43.2561 201.846 42.7936C202.205 42.2995 202.517 41.7894 202.795 41.2631C203.274 40.2448 203.634 39.1663 203.813 38.028C203.993 36.8898 204.172 35.6316 204.172 34.3135C204.233 32.9357 204.233 31.5579 204.233 30.0001ZM197.343 30.0001C197.343 31.6775 197.343 33.1153 197.283 34.2538C197.223 35.3921 197.163 36.2907 196.983 37.0094C196.899 37.5167 196.784 37.9643 196.64 38.3311C196.581 38.4844 196.515 38.6236 196.445 38.7471C196.335 38.9676 196.225 39.1753 196.103 39.3705L196.002 39.5234L195.923 39.6358C195.827 39.7651 195.723 39.8882 195.606 40.0049C195.126 40.604 194.467 41.0235 193.749 41.3831C192.97 41.7426 192.131 41.8622 191.172 41.9222C190.817 41.9222 190.477 41.8973 190.151 41.8479C189.6 41.7639 189.086 41.6089 188.596 41.3831C187.818 41.0235 187.218 40.604 186.679 40.0049C186.507 39.8332 186.363 39.6478 186.233 39.4486L186.155 39.3234L186.018 39.089L185.943 38.9477L185.84 38.7471C185.6 38.2676 185.421 37.7285 185.301 37.0094C185.263 36.7865 185.226 36.5461 185.192 36.2866L185.158 36.0061L185.126 35.6843C185.088 35.2549 185.062 34.7798 185.062 34.2538C185.001 33.1153 185.001 31.7375 185.001 30.0001C185.001 28.3225 185.001 26.8847 185.062 25.7465C185.122 24.6082 185.181 23.7096 185.301 22.9906C185.328 22.8282 185.358 22.672 185.391 22.5222L185.426 22.3739L185.496 22.1068C185.537 21.9664 185.58 21.8342 185.627 21.7107C185.691 21.5411 185.763 21.3878 185.84 21.2532C185.947 21.04 186.053 20.8387 186.171 20.6491C186.317 20.4125 186.48 20.1946 186.679 19.9951C187.159 19.396 187.818 18.9768 188.596 18.6172C189.375 18.2577 190.214 18.1378 191.172 18.0781C192.131 18.0781 192.97 18.2577 193.749 18.6172C194.169 18.8273 194.568 19.0581 194.924 19.3331C195.176 19.5285 195.407 19.7461 195.606 19.9951C195.965 20.3546 196.205 20.7741 196.445 21.2532C196.683 21.7324 196.864 22.2718 196.983 22.9906C197.104 23.7096 197.223 24.6082 197.283 25.7465C197.283 26.0367 197.287 26.3465 197.293 26.6747L197.307 27.4045L197.314 27.743C197.329 28.4348 197.343 29.1895 197.343 30.0001Z" fill="#28CD96"/>
<path d="M259.471 12.8658C259.471 12.5063 259.171 12.2667 258.872 12.2667H253.18C252.82 12.2667 252.581 12.5663 252.581 12.8658V34.0139L238.622 12.4463C238.502 12.3267 238.441 12.2667 238.262 12.2667H232.93C232.631 12.2667 232.331 12.5663 232.331 12.8658V47.1345C232.331 47.4937 232.631 47.7336 232.93 47.7336H238.622C238.981 47.7336 239.221 47.434 239.221 47.1345V25.9261L253.18 47.5537L253.267 47.6373C253.303 47.6692 253.338 47.6932 253.38 47.7093C253.398 47.7163 253.418 47.7216 253.439 47.7257C253.468 47.7309 253.502 47.7336 253.539 47.7336H258.872C259.231 47.7336 259.471 47.434 259.471 47.1345V12.8658Z" fill="#28CD96"/>
<path d="M221.051 12.5715C221.068 12.6014 221.082 12.633 221.093 12.6663L221.104 12.6982C221.119 12.7506 221.127 12.8064 221.127 12.8658V47.1345C221.127 47.434 220.887 47.7336 220.528 47.7336H214.837C214.537 47.7336 214.238 47.4937 214.238 47.1345V12.8658C214.238 12.5663 214.477 12.2667 214.837 12.2667H220.528C220.735 12.2667 220.942 12.3817 221.051 12.5715Z" fill="#28CD96"/>
<path d="M81.1182 12.2667C81.4178 12.2667 81.7173 12.5063 81.7173 12.8658V27.2442L94.1791 12.3267C94.2387 12.2067 94.2984 12.2067 94.4178 12.2067H102.027C102.386 12.2067 102.506 12.4463 102.267 12.7459L90.9437 26.3456L103.285 47.2541C103.404 47.5537 103.345 47.7333 103.045 47.7333H96.0957C95.9155 47.7333 95.7962 47.6736 95.7365 47.5537L86.3299 31.5576L81.7173 37.0694V47.1342C81.7173 47.4337 81.4775 47.7333 81.1182 47.7333H75.4268C75.2946 47.7333 75.1623 47.6868 75.0559 47.6037C74.9213 47.4987 74.8277 47.3352 74.8277 47.1342V12.8658C74.8277 12.5663 75.0676 12.2667 75.4268 12.2667H81.1182Z" fill="#28CD96"/>
<path d="M123.355 41.8622C120.121 41.8622 117.244 38.8667 117.244 35.3321V12.8658C117.244 12.6897 117.173 12.5426 117.064 12.4381C116.952 12.329 116.799 12.2667 116.645 12.2667H110.954C110.595 12.2667 110.355 12.5663 110.355 12.8658V35.2721C110.355 43.1204 116.226 48.0928 123.416 48.0928C130.605 48.0928 136.475 43.1204 136.475 35.2721V12.8658C136.475 12.5063 136.176 12.2667 135.876 12.2667H130.185C129.825 12.2667 129.586 12.5663 129.586 12.8658V35.3321C129.466 38.8667 126.53 41.8622 123.355 41.8622Z" fill="#28CD96"/>
</svg>
