<svg width="263" height="60" viewBox="0 0 263 60" fill="none" xmlns="http://www.w3.org/2000/svg">
<path fill-rule="evenodd" clip-rule="evenodd" d="M216.912 17.8376H224.353V10.3965H216.912V17.8376ZM177.359 30.2358C178.784 26.4629 182.421 23.7799 186.686 23.7799C190.952 23.7799 194.599 26.4629 196.014 30.2358H177.359ZM186.686 16.8524C177.359 16.8524 169.792 24.4192 169.792 33.7467C169.792 43.0742 177.359 50.641 186.686 50.641C193.09 50.641 198.655 47.0777 201.516 41.8376L195.28 38.8087C193.541 41.7537 190.344 43.724 186.686 43.724C182.065 43.724 178.176 40.5799 177.045 36.3039H196.328V36.3144H203.392C203.518 35.476 203.581 34.6166 203.581 33.7467C203.581 24.4192 196.024 16.8524 186.686 16.8524ZM205.551 49.7397H212.992V42.2987H205.551V49.7397ZM216.912 49.7397H224.353V21.1074H216.912V49.7397ZM245.114 43.724C239.602 43.724 235.137 39.2594 235.137 33.7467C235.137 28.2341 239.602 23.7694 245.114 23.7694C250.627 23.7694 255.092 28.2341 255.092 33.7467C255.092 39.2594 250.627 43.724 245.114 43.724ZM245.114 16.8524C235.787 16.8524 228.22 24.4192 228.22 33.7467C228.22 43.0742 235.787 50.641 245.114 50.641C254.442 50.641 262.009 43.0742 262.009 33.7467C262.009 24.4192 254.442 16.8524 245.114 16.8524ZM89.5441 27.5214V35.214H99.9511C99.4061 37.4148 98.3371 39.3852 96.7965 40.9572C94.4699 43.3362 91.2524 44.6358 87.731 44.6358C80.4157 44.6358 74.4629 38.683 74.4629 31.3572C74.4629 24.0419 80.4157 18.0786 87.731 18.0786C91.6507 18.0786 95.2559 19.7555 97.7502 22.648L103.703 17.7747C99.752 13.1424 93.8934 10.3755 87.731 10.3755C76.1712 10.3755 66.7703 19.7869 66.7703 31.3467C66.7703 42.9065 76.1712 52.3179 87.731 52.3179C93.3485 52.3179 98.5153 50.2952 102.299 46.4279C105.474 43.179 107.581 38.6515 107.979 34.124C108.178 31.9127 108.199 29.7118 108.073 27.5004L89.5441 27.5214ZM127.441 43.724C121.939 43.724 117.464 39.2594 117.464 33.7467C117.464 28.2341 121.928 23.7694 127.441 23.7694C132.954 23.7694 137.418 28.2341 137.418 33.7467C137.418 39.2594 132.954 43.724 127.441 43.724ZM137.418 20.1432C134.62 18.0891 131.172 16.8838 127.441 16.8838C118.114 16.8838 110.557 24.4507 110.557 33.7782C110.557 43.1057 118.124 50.6725 127.441 50.6725C131.172 50.6725 134.62 49.4568 137.418 47.4131V49.7502H144.335V17.8061H137.418V20.1432ZM159.176 10.3965H152.259V17.8376H148.119V24.3668H152.259V41.4498C152.259 43.2105 152.479 44.6987 152.919 45.862C153.348 47.0148 154.019 47.9162 154.805 48.6183C155.602 49.331 156.534 49.8865 157.645 50.2114C158.777 50.5258 160.014 50.6515 161.334 50.6515C162.697 50.6515 163.913 50.5153 164.94 50.2323C165.904 49.9703 166.826 49.6035 167.675 49.1424V43.8812C166.313 44.4681 165.034 44.6882 163.577 44.7511C162.037 44.8245 161.135 44.3843 160.381 43.6611C159.584 42.9065 159.165 41.9214 159.165 40.276V24.3668H167.675V17.8376H159.165V10.3965H159.176Z" fill="#000008"/>
<path fill-rule="evenodd" clip-rule="evenodd" d="M29.9948 46.5013C20.8873 46.5013 13.4987 39.1127 13.4987 30.0052C13.4987 20.8978 20.8873 13.5092 29.9948 13.5092V0C13.4253 0 0 13.4358 0 30.0052C0 46.5747 13.4253 60 29.9948 60C46.5537 60 59.9895 46.5642 59.9895 30.0052H46.4908C46.4908 39.1231 39.1022 46.5013 29.9948 46.5013Z" fill="#2354E6"/>
<path fill-rule="evenodd" clip-rule="evenodd" d="M29.9948 30.0052L46.4908 30.0052V13.5092L29.9948 13.5092V30.0052Z" fill="#17E6A1"/>
</svg>
