<svg width="271" height="60" viewBox="0 0 271 60" fill="none" xmlns="http://www.w3.org/2000/svg">
<path d="M54.3223 5.12616C54.3223 2.14129 52.1809 0 49.1961 0C46.2653 0 44.1348 2.13052 44.1348 5.12616C44.1348 8.11103 46.2113 10.2523 49.1961 10.2523C52.1809 10.2523 54.3223 8.11103 54.3223 5.12616Z" fill="#003B2F"/>
<path d="M53.4463 14.4593H44.9243V47.0872H53.4463V14.4593Z" fill="#003B2F"/>
<path fill-rule="evenodd" clip-rule="evenodd" d="M31.752 23.7599C36.5645 25.4254 39.5494 29.5457 39.5494 34.6719L39.5061 34.7368C39.5061 42.0584 33.3201 47.1196 24.7981 47.1196H0V40.6416C3.7419 40.6416 6.75919 37.6243 6.75919 33.8824C6.75919 30.1405 3.7419 27.1233 0 27.1233V21.7808C3.7419 21.7808 6.75919 18.7635 6.75919 15.0216C6.75919 11.2797 3.7419 8.26242 0 8.26242V2.32516L23.7707 2.31434C32.0656 2.31434 37.9488 7.19178 37.9488 14.1673C37.9488 18.6337 35.3965 22.0944 31.752 23.7599ZM22.5378 8.77073H12.7613V21.2184H22.5378C26.5284 21.2184 29.3943 18.6662 29.3943 15.0216C29.3943 11.377 26.5284 8.77073 22.5378 8.77073ZM12.7613 27.0908V40.6092H23.4138C27.8154 40.6092 30.8003 37.8082 30.8003 33.8175C30.8003 29.8269 27.8154 27.0908 23.4138 27.0908H12.7613Z" fill="#003B2F"/>
<path d="M69.9495 14.4268H78.9906V20.9048H69.9387V36.4996C69.9387 38.987 71.9178 41.0526 74.4052 41.085C75.6921 41.085 77.1413 40.9012 78.7419 40.4902L79.8774 46.8709C77.271 47.5306 74.8161 47.8767 72.4909 47.8767C65.948 47.8767 61.4275 43.6049 61.4275 37.3431V6.97548C61.4275 5.80752 62.3684 4.86662 63.5364 4.86662H69.9495V14.4268Z" fill="#003B2F"/>
<path d="M108.223 15.8976C104.113 14.4268 100.058 13.6374 96.2509 13.6374L96.2941 13.5725C88.7563 13.5725 83.5652 17.7253 83.5652 23.4463C83.5652 30.7063 89.5288 32.2217 94.4692 33.4771C97.9626 34.3648 100.944 35.1224 100.944 37.6892C100.944 39.9603 98.7491 41.496 95.602 41.496C92.4549 41.496 88.8752 40.7065 85.0685 39.1709L83.2732 45.2379C87.8586 46.9682 92.2602 47.8442 96.2509 47.8442C103.951 47.8442 109.293 43.659 109.293 37.7217C109.293 30.2117 103.138 28.6818 98.14 27.4395C94.7243 26.5905 91.8493 25.8759 91.8493 23.4787C91.8493 21.3374 93.9906 19.9531 96.9106 19.9531C99.8305 19.9531 103.107 20.7751 106.373 22.0296L108.223 15.8976Z" fill="#003B2F"/>
<path d="M122.877 14.4269H131.929V20.9049H122.877V36.4996C122.877 38.987 124.856 41.0526 127.343 41.0851C128.63 41.0851 130.079 40.9012 131.68 40.4903L132.815 46.871C130.209 47.5306 127.754 47.8767 125.429 47.8767C118.886 47.8767 114.365 43.6049 114.365 37.3432V6.97548C114.365 5.78587 115.339 4.83419 116.507 4.83419H122.887L122.877 14.4269Z" fill="#003B2F"/>
<path d="M183.763 14.4269H177.037V47.0656H185.559V28.5508C185.559 23.8897 188.608 20.6237 193.01 20.6237C196.655 20.6237 199.261 23.23 199.261 26.8745V47.0656H207.783V28.5508C207.783 23.8897 210.833 20.6237 215.169 20.6237C218.879 20.6237 221.485 23.23 221.485 26.8745V47.0656H230.007V25.566C230.007 18.5797 224.946 13.6482 217.808 13.6482C213.093 13.6482 209.005 15.7895 206.02 19.6503C204.138 15.9084 200.267 13.6482 195.551 13.6482C191.215 13.6482 187.44 15.4975 184.834 18.8933L183.763 14.4269Z" fill="#003B2F"/>
<path fill-rule="evenodd" clip-rule="evenodd" d="M243.839 14.4268L244.91 18.6338C247.3 15.4218 251.042 13.6374 255.378 13.6374C264.182 13.6374 270.368 20.7102 270.368 30.7678C270.368 40.8255 264.171 47.8659 255.378 47.8659C251.388 47.8659 247.927 46.2653 245.569 43.3345V57.8587C245.569 59.0267 244.629 60 243.428 60H237.015V14.4268H243.839ZM253.172 20.3641C248.641 20.3641 245.44 23.7599 245.44 28.5725V32.974C245.44 37.6892 248.652 41.1824 253.172 41.1824C258.169 41.1824 261.694 36.8457 261.694 30.8111C261.694 24.7765 258.169 20.4074 253.172 20.4074V20.3641Z" fill="#003B2F"/>
<path fill-rule="evenodd" clip-rule="evenodd" d="M169.304 14.4268V47.0764H162.512L161.442 42.8695C159.311 45.6597 156.164 47.39 152.487 47.7686C151.979 47.8659 151.471 47.8659 150.973 47.8659C142.17 47.8659 135.973 40.8255 135.973 30.7678C135.973 20.7102 142.17 13.6374 150.973 13.6374C155.31 13.6374 159.052 15.4218 161.442 18.6338L162.512 14.4268H169.304ZM153.179 41.1499C157.7 41.1499 160.912 37.6568 160.912 32.9416V28.5833C160.912 23.7707 157.711 20.3749 153.179 20.3749C148.172 20.3749 144.657 24.7441 144.657 30.7787C144.657 36.8132 148.183 41.1499 153.179 41.1499Z" fill="#003B2F"/>
</svg>
