<?xml version="1.0" encoding="utf-8"?>
<!-- Generator: Adobe Illustrator 25.4.1, SVG Export Plug-In . SVG Version: 6.00 Build 0)  -->
<svg version="1.1" id="Слой_1" xmlns="http://www.w3.org/2000/svg" xmlns:xlink="http://www.w3.org/1999/xlink" x="0px" y="0px"
	 viewBox="0 0 373 387" style="enable-background:new 0 0 373 387;" xml:space="preserve">
<style type="text/css">
	.st0{fill:#FFFFFF;}
	.st1{fill:#07E6A3;}
	.st2{fill:none;stroke:#EBEFF6;}
	.st3{fill:#ECEFF0;}
	.st4{fill:#343535;}
	.st5{fill:#2F3030;}
	.st6{fill:#828384;}
	.st7{fill:#131313;}
	.st8{fill:#393939;}
	.st9{fill:#67699D;}
	.st10{fill:#102331;}
	.st11{fill-rule:evenodd;clip-rule:evenodd;fill:#102331;}
	.st12{fill:#03CA9B;}
	.st13{fill:#1C2043;}
	.st14{fill:#028BD3;}
</style>
<g>
	<path class="st0" d="M116,88h141c8.8,0,16,7.2,16,16v155c0,8.8-7.2,16-16,16H116c-8.8,0-16-7.2-16-16V104C100,95.2,107.2,88,116,88
		z"/>
</g>
<path class="st1" d="M163.1,262h45.6c4.4,0,8,3.6,8,8v9c0,4.4-3.6,8-8,8h-45.6c-4.4,0-8-3.6-8-8v-9C155.1,265.6,158.7,262,163.1,262
	z"/>
<path d="M172.6,277.6v-5.9h1.3v5.9H172.6z M170.3,275.3V274h5.9v1.3H170.3z M183.7,279.1c-0.6,0-1.2-0.1-1.6-0.3
	c-0.5-0.2-0.8-0.5-1.1-0.9s-0.4-0.8-0.4-1.3h1.6c0,0.2,0.1,0.4,0.2,0.6c0.1,0.2,0.3,0.3,0.6,0.4c0.2,0.1,0.5,0.1,0.8,0.1
	s0.6-0.1,0.8-0.2s0.4-0.3,0.6-0.5c0.1-0.2,0.2-0.4,0.2-0.7c0-0.3-0.1-0.5-0.2-0.7c-0.1-0.2-0.3-0.4-0.6-0.5s-0.6-0.2-0.9-0.2h-0.8
	v-1.2h0.8c0.3,0,0.6-0.1,0.8-0.2s0.4-0.3,0.5-0.4c0.1-0.2,0.2-0.4,0.2-0.7c0-0.2-0.1-0.5-0.2-0.6c-0.1-0.2-0.3-0.3-0.5-0.4
	s-0.4-0.2-0.7-0.2s-0.5,0-0.7,0.1s-0.4,0.2-0.5,0.4c-0.1,0.2-0.2,0.4-0.2,0.6h-1.5c0-0.5,0.2-0.9,0.4-1.3c0.3-0.4,0.6-0.7,1.1-0.9
	c0.5-0.2,1-0.3,1.5-0.3c0.6,0,1.1,0.1,1.5,0.3c0.4,0.2,0.8,0.5,1,0.9s0.4,0.8,0.4,1.2c0,0.5-0.1,0.9-0.4,1.2
	c-0.3,0.3-0.7,0.6-1.1,0.7v0.1c0.6,0.1,1.1,0.3,1.4,0.7c0.3,0.4,0.5,0.8,0.5,1.4c0,0.5-0.1,0.9-0.4,1.3c-0.3,0.4-0.7,0.7-1.1,0.9
	C184.8,279,184.3,279.1,183.7,279.1z M188.8,279.1c-0.3,0-0.5-0.1-0.7-0.3c-0.2-0.2-0.3-0.4-0.3-0.7c0-0.3,0.1-0.5,0.3-0.7
	s0.4-0.3,0.7-0.3c0.2,0,0.5,0.1,0.7,0.3c0.2,0.2,0.3,0.4,0.3,0.7c0,0.2,0,0.3-0.1,0.5c-0.1,0.1-0.2,0.3-0.3,0.3
	C189.1,279.1,189,279.1,188.8,279.1z M193.6,270.3v8.7H192v-7.2h-0.1l-2,1.3v-1.4l2.2-1.4H193.6z M200.2,277.4v-0.5
	c0-0.3,0.1-0.6,0.2-0.9c0.1-0.3,0.4-0.5,0.6-0.7c0.3-0.2,0.6-0.3,1-0.3s0.7,0.1,1,0.3c0.3,0.2,0.5,0.4,0.6,0.7
	c0.1,0.3,0.2,0.6,0.2,0.9v0.5c0,0.3-0.1,0.6-0.2,0.9s-0.4,0.5-0.6,0.7c-0.3,0.2-0.6,0.3-1,0.3s-0.7-0.1-1-0.3
	c-0.3-0.2-0.5-0.4-0.6-0.7C200.3,278,200.2,277.7,200.2,277.4z M201.3,276.9v0.5c0,0.2,0.1,0.4,0.2,0.6c0.1,0.2,0.3,0.3,0.6,0.3
	s0.5-0.1,0.6-0.3c0.1-0.2,0.2-0.4,0.2-0.6v-0.5c0-0.2-0.1-0.4-0.1-0.6c-0.1-0.2-0.3-0.3-0.6-0.3s-0.5,0.1-0.6,0.3
	C201.4,276.5,201.3,276.7,201.3,276.9z M195.8,272.4v-0.5c0-0.3,0.1-0.7,0.2-0.9c0.1-0.3,0.4-0.5,0.6-0.7c0.3-0.2,0.6-0.3,1-0.3
	s0.7,0.1,1,0.3c0.3,0.2,0.5,0.4,0.6,0.7c0.1,0.3,0.2,0.6,0.2,0.9v0.5c0,0.3-0.1,0.7-0.2,0.9c-0.1,0.3-0.3,0.5-0.6,0.7
	s-0.6,0.3-1,0.3s-0.7-0.1-1-0.3c-0.3-0.2-0.5-0.4-0.6-0.7C195.8,273,195.8,272.7,195.8,272.4z M196.9,271.9v0.5
	c0,0.2,0.1,0.4,0.2,0.6c0.1,0.2,0.3,0.3,0.6,0.3s0.5-0.1,0.6-0.3c0.1-0.2,0.2-0.4,0.2-0.6v-0.5c0-0.2,0-0.4-0.1-0.6
	s-0.3-0.3-0.6-0.3s-0.5,0.1-0.6,0.3C196.9,271.5,196.9,271.7,196.9,271.9z M196.3,279l6-8.7h1.1l-6,8.7H196.3z"/>
<g>
	<path class="st0" d="M136,118h101c8.8,0,16,7.2,16,16v17c0,8.8-7.2,16-16,16H136c-8.8,0-16-7.2-16-16v-17
		C120,125.2,127.2,118,136,118z"/>
	<path class="st2" d="M136,118h101c8.8,0,16,7.2,16,16v17c0,8.8-7.2,16-16,16H136c-8.8,0-16-7.2-16-16v-17
		C120,125.2,127.2,118,136,118z"/>
</g>
<path class="st3" d="M241.6,146.3c-2.1,8.3-10.5,13.4-18.9,11.3c-8.3-2.1-13.4-10.5-11.3-18.8c2.1-8.3,10.5-13.4,18.8-11.3
	C238.6,129.5,243.7,137.9,241.6,146.3z"/>
<path class="st4" d="M226.7,146.3c-0.1,0-0.1,0-0.1-0.1c-2-1.2-4-2.4-6-3.6c0,0,0,0-0.1,0l0,0l0,0c0.1,0,0.1,0,0.1,0l4.7-2.2
	c0.4-0.2,0.8-0.4,1.3-0.6l0,0c0,0.1,0,0.1,0,0.2C226.7,142.1,226.7,144.2,226.7,146.3z"/>
<path class="st5" d="M226.7,139.8L226.7,139.8c0-0.1,0-0.1,0-0.2c0-2.4,0-4.7,0-7.1c0-0.1,0-0.1,0-0.2l0,0c0.2,0.4,0.5,0.8,0.7,1.1
	c1.8,3,3.6,6,5.4,9v0.1c-0.1,0-0.1,0-0.2,0c-0.3-0.2-0.7-0.3-1-0.5c-0.5-0.2-1-0.5-1.5-0.7l-2.5-1.1
	C227.4,140.1,227,139.9,226.7,139.8z"/>
<path class="st6" d="M226.7,132.3c0,0.1,0,0.1,0,0.2c0,2.4,0,4.7,0,7.1c0,0.1,0,0.1,0,0.2c-0.4,0.2-0.8,0.4-1.3,0.6l-4.7,2.2
	c0,0-0.1,0-0.2,0c0.1-0.3,0.3-0.5,0.5-0.8C222.9,138.6,224.8,135.5,226.7,132.3C226.6,132.3,226.7,132.3,226.7,132.3L226.7,132.3z"
	/>
<path class="st7" d="M226.7,139.8c0.3,0.1,0.7,0.3,1,0.4l2.5,1.1c0.5,0.2,1,0.5,1.5,0.7c0.3,0.2,0.7,0.3,1,0.5c0,0,0.1,0,0.2,0
	c0.1,0.1,0,0.1-0.1,0.1c-0.5,0.3-1,0.6-1.6,0.9c-1.5,0.9-3,1.8-4.4,2.6c0,0-0.1,0-0.1,0.1c0-2.1,0-4.2,0-6.3
	C226.7,139.9,226.7,139.9,226.7,139.8z"/>
<path class="st5" d="M226.7,147.5l3.9-2.3c0.7-0.4,1.5-0.9,2.2-1.3h0.1c0,0.1,0,0.1-0.1,0.1c-1.7,2.4-3.4,4.8-5.1,7.2
	c-0.3,0.5-0.6,0.9-1,1.4c0,0,0,0.1-0.1,0v-0.1C226.7,150.7,226.7,149.1,226.7,147.5z"/>
<path class="st6" d="M226.7,147.5c0,1.6,0,3.3,0,4.9v0.1c-0.1-0.1-0.1-0.1-0.2-0.2c-2-2.8-3.9-5.5-5.9-8.3c0,0,0-0.1-0.1-0.1
	c0.1,0,0.1,0,0.1,0c2,1.2,4,2.3,6,3.5C226.6,147.4,226.6,147.4,226.7,147.5z"/>
<path class="st8" d="M226.7,132.3L226.7,132.3L226.7,132.3L226.7,132.3z"/>
<path class="st9" d="M142.3,149.5V135h0.9v14.5H142.3z M145,139.6c-0.1-0.5-0.3-0.9-0.7-1.2s-0.9-0.4-1.5-0.4
	c-0.4,0-0.8,0.1-1.1,0.2c-0.3,0.1-0.6,0.3-0.7,0.5c-0.2,0.2-0.3,0.5-0.3,0.8c0,0.2,0.1,0.5,0.2,0.6c0.1,0.2,0.3,0.3,0.5,0.5
	c0.2,0.1,0.4,0.2,0.6,0.3c0.2,0.1,0.5,0.2,0.7,0.2l1.1,0.3c0.4,0.1,0.9,0.2,1.3,0.4c0.4,0.2,0.8,0.4,1.1,0.7s0.6,0.6,0.8,1
	s0.3,0.8,0.3,1.3c0,0.7-0.2,1.3-0.5,1.8s-0.9,0.9-1.5,1.2c-0.7,0.3-1.4,0.4-2.4,0.4c-0.9,0-1.7-0.1-2.4-0.4
	c-0.7-0.3-1.2-0.7-1.6-1.2c-0.4-0.5-0.6-1.2-0.6-2h2.1c0,0.4,0.2,0.7,0.4,1s0.5,0.5,0.9,0.6s0.8,0.2,1.2,0.2c0.5,0,0.9-0.1,1.2-0.2
	c0.3-0.1,0.6-0.3,0.8-0.6c0.2-0.2,0.3-0.5,0.3-0.9c0-0.3-0.1-0.6-0.3-0.8s-0.4-0.4-0.7-0.5s-0.7-0.3-1.1-0.4l-1.3-0.3
	c-1-0.2-1.7-0.6-2.3-1.1s-0.8-1.2-0.8-2c0-0.7,0.2-1.3,0.6-1.8c0.4-0.5,0.9-0.9,1.5-1.2s1.4-0.4,2.2-0.4s1.5,0.1,2.2,0.4
	c0.6,0.3,1.1,0.7,1.5,1.2s0.5,1.1,0.6,1.7L145,139.6L145,139.6z M153.4,136.4V148h-2.1v-9.6h-0.1l-2.7,1.7v-1.9l2.9-1.9L153.4,136.4
	L153.4,136.4z M160.2,148.2c-0.8,0-1.6-0.1-2.2-0.4c-0.7-0.3-1.2-0.7-1.5-1.2c-0.4-0.5-0.5-1.1-0.5-1.7c0-0.5,0.1-0.9,0.3-1.3
	c0.2-0.4,0.5-0.8,0.9-1c0.4-0.3,0.8-0.5,1.2-0.5V142c-0.6-0.1-1.1-0.4-1.5-0.9s-0.6-1-0.5-1.7c0-0.6,0.2-1.1,0.5-1.6
	s0.8-0.8,1.4-1.1c0.6-0.3,1.3-0.4,2-0.4s1.4,0.1,2,0.4c0.6,0.3,1.1,0.6,1.4,1.1c0.3,0.5,0.5,1,0.5,1.6s-0.2,1.2-0.6,1.7
	c-0.4,0.5-0.9,0.8-1.4,0.9v0.1c0.5,0.1,0.9,0.3,1.2,0.5c0.4,0.3,0.7,0.6,0.9,1s0.3,0.9,0.3,1.3c0,0.6-0.2,1.2-0.6,1.7
	c-0.4,0.5-0.9,0.9-1.5,1.2C161.7,148,161,148.2,160.2,148.2z M160.2,146.5c0.4,0,0.8-0.1,1.1-0.2c0.3-0.2,0.6-0.4,0.8-0.6
	c0.2-0.3,0.3-0.6,0.3-0.9c0-0.4-0.1-0.7-0.3-1s-0.4-0.5-0.8-0.7c-0.3-0.2-0.7-0.2-1.1-0.2c-0.4,0-0.8,0.1-1.1,0.2
	c-0.3,0.2-0.6,0.4-0.8,0.7s-0.3,0.6-0.3,1s0.1,0.7,0.3,0.9c0.2,0.3,0.4,0.5,0.8,0.6C159.3,146.5,159.7,146.5,160.2,146.5z
	 M160.2,141.2c0.4,0,0.7-0.1,0.9-0.2c0.3-0.1,0.5-0.3,0.7-0.6s0.2-0.6,0.2-0.9c0-0.3-0.1-0.6-0.2-0.9c-0.2-0.3-0.4-0.4-0.6-0.6
	c-0.3-0.1-0.6-0.2-1-0.2s-0.7,0.1-1,0.2c-0.3,0.1-0.5,0.3-0.6,0.6c-0.2,0.2-0.2,0.5-0.2,0.9c0,0.3,0.1,0.6,0.2,0.9
	c0.2,0.3,0.4,0.5,0.7,0.6C159.5,141.2,159.8,141.2,160.2,141.2z M170.1,148.2c-0.8,0-1.4-0.1-2-0.4c-0.6-0.3-1.1-0.7-1.4-1.2
	c-0.3-0.5-0.5-1.1-0.6-1.7h2c0,0.5,0.2,0.9,0.6,1.2c0.4,0.3,0.8,0.4,1.4,0.4c0.4,0,0.8-0.1,1.1-0.3s0.6-0.5,0.8-0.8s0.3-0.7,0.3-1.2
	c0-0.4-0.1-0.8-0.3-1.2c-0.2-0.3-0.4-0.6-0.8-0.8c-0.3-0.2-0.7-0.3-1.1-0.3c-0.3,0-0.7,0.1-1,0.2c-0.3,0.1-0.6,0.3-0.8,0.5l-1.9-0.3
	l0.6-6h6.8v1.8h-5l-0.3,3.1h0.1c0.2-0.3,0.5-0.5,0.9-0.6c0.4-0.2,0.8-0.3,1.3-0.3c0.7,0,1.3,0.2,1.9,0.5c0.6,0.3,1,0.8,1.3,1.4
	c0.3,0.6,0.5,1.2,0.5,2s-0.2,1.5-0.5,2.1c-0.4,0.6-0.8,1.1-1.5,1.4C171.6,148,170.9,148.2,170.1,148.2z M175.8,148v-1.5l4-4
	c0.4-0.4,0.7-0.7,1-1s0.5-0.6,0.6-0.9c0.1-0.3,0.2-0.6,0.2-0.9c0-0.4-0.1-0.7-0.2-0.9c-0.2-0.3-0.4-0.5-0.7-0.6s-0.6-0.2-1-0.2
	s-0.7,0.1-1,0.2c-0.3,0.2-0.5,0.4-0.7,0.7s-0.2,0.6-0.2,1h-2c0-0.7,0.2-1.4,0.5-1.9s0.8-1,1.4-1.3c0.6-0.3,1.3-0.4,2-0.4
	c0.8,0,1.5,0.1,2.1,0.4c0.6,0.3,1,0.7,1.4,1.2c0.3,0.5,0.5,1.1,0.5,1.7c0,0.4-0.1,0.9-0.2,1.3c-0.2,0.4-0.5,0.9-0.9,1.4
	s-1,1.1-1.8,1.9l-2,2v0.1h5.1v1.8h-8.1V148z"/>
<g>
	<path class="st0" d="M136,199h101c8.8,0,16,7.2,16,16v17c0,8.8-7.2,16-16,16H136c-8.8,0-16-7.2-16-16v-17
		C120,206.2,127.2,199,136,199z"/>
	<path class="st2" d="M136,199h101c8.8,0,16,7.2,16,16v17c0,8.8-7.2,16-16,16H136c-8.8,0-16-7.2-16-16v-17
		C120,206.2,127.2,199,136,199z"/>
</g>
<path class="st3" d="M242.6,227.3c-2.1,8.3-10.5,13.4-18.9,11.3c-8.3-2.1-13.4-10.5-11.3-18.8c2.1-8.3,10.5-13.4,18.8-11.3
	C239.6,210.5,244.7,218.9,242.6,227.3z"/>
<path class="st4" d="M227.7,227.3c-0.1,0-0.1,0-0.1-0.1c-2-1.2-4-2.4-6-3.6c0,0,0,0-0.1,0l0,0l0,0c0.1,0,0.1,0,0.1,0l4.7-2.2
	c0.4-0.2,0.8-0.4,1.3-0.6l0,0c0,0.1,0,0.1,0,0.2C227.7,223.1,227.7,225.2,227.7,227.3z"/>
<path class="st5" d="M227.7,220.8L227.7,220.8c0-0.1,0-0.1,0-0.2c0-2.4,0-4.7,0-7.1c0-0.1,0-0.1,0-0.2l0,0c0.2,0.4,0.5,0.8,0.7,1.1
	c1.8,3,3.6,6,5.4,9v0.1c-0.1,0-0.1,0-0.2,0c-0.3-0.2-0.7-0.3-1-0.5c-0.5-0.2-1-0.5-1.5-0.7l-2.5-1.1
	C228.4,221.1,228,220.9,227.7,220.8z"/>
<path class="st6" d="M227.7,213.3c0,0.1,0,0.1,0,0.2c0,2.4,0,4.7,0,7.1c0,0.1,0,0.1,0,0.2c-0.4,0.2-0.8,0.4-1.3,0.6l-4.7,2.2
	c0,0-0.1,0-0.2,0c0.1-0.3,0.3-0.5,0.5-0.8C223.9,219.6,225.8,216.5,227.7,213.3C227.6,213.3,227.7,213.3,227.7,213.3L227.7,213.3z"
	/>
<path class="st7" d="M227.7,220.8c0.3,0.1,0.7,0.3,1,0.4l2.5,1.1c0.5,0.2,1,0.5,1.5,0.7c0.3,0.2,0.7,0.3,1,0.5c0,0,0.1,0,0.2,0
	c0.1,0.1,0,0.1-0.1,0.1c-0.5,0.3-1,0.6-1.6,0.9c-1.5,0.9-3,1.8-4.4,2.6c0,0-0.1,0-0.1,0.1c0-2.1,0-4.2,0-6.3
	C227.7,220.9,227.7,220.9,227.7,220.8z"/>
<path class="st5" d="M227.7,228.5l3.9-2.3c0.7-0.4,1.5-0.9,2.2-1.3h0.1c0,0.1,0,0.1-0.1,0.1c-1.7,2.4-3.4,4.8-5.1,7.2
	c-0.3,0.5-0.6,0.9-1,1.4c0,0,0,0.1-0.1,0v-0.1C227.7,231.7,227.7,230.1,227.7,228.5z"/>
<path class="st6" d="M227.7,228.5c0,1.6,0,3.3,0,4.9v0.1c-0.1-0.1-0.1-0.1-0.2-0.2c-2-2.8-3.9-5.5-5.9-8.3c0,0,0-0.1-0.1-0.1
	c0.1,0,0.1,0,0.1,0c2,1.2,4,2.3,6,3.5C227.6,228.4,227.6,228.4,227.7,228.5z"/>
<path class="st8" d="M227.7,213.3L227.7,213.3L227.7,213.3L227.7,213.3z"/>
<path class="st9" d="M141.8,229.5V215h0.9v14.5H141.8z M144.5,219.6c-0.1-0.5-0.3-0.9-0.7-1.2s-0.9-0.4-1.5-0.4
	c-0.4,0-0.8,0.1-1.1,0.2c-0.3,0.1-0.6,0.3-0.7,0.5c-0.2,0.2-0.3,0.5-0.3,0.8c0,0.2,0.1,0.5,0.2,0.6c0.1,0.2,0.3,0.3,0.5,0.5
	c0.2,0.1,0.4,0.2,0.6,0.3c0.2,0.1,0.5,0.2,0.7,0.2l1.1,0.3c0.4,0.1,0.9,0.2,1.3,0.4c0.4,0.2,0.8,0.4,1.1,0.7s0.6,0.6,0.8,1
	s0.3,0.8,0.3,1.3c0,0.7-0.2,1.3-0.5,1.8s-0.9,0.9-1.5,1.2c-0.7,0.3-1.4,0.4-2.4,0.4c-0.9,0-1.7-0.1-2.4-0.4
	c-0.7-0.3-1.2-0.7-1.6-1.2c-0.4-0.5-0.6-1.2-0.6-2h2.1c0,0.4,0.2,0.7,0.4,1s0.5,0.5,0.9,0.6s0.8,0.2,1.2,0.2c0.5,0,0.9-0.1,1.2-0.2
	c0.3-0.1,0.6-0.3,0.8-0.6c0.2-0.2,0.3-0.5,0.3-0.9c0-0.3-0.1-0.6-0.3-0.8s-0.4-0.4-0.7-0.5s-0.7-0.3-1.1-0.4l-1.3-0.3
	c-1-0.2-1.7-0.6-2.3-1.1s-0.8-1.2-0.8-2c0-0.7,0.2-1.3,0.6-1.8c0.4-0.5,0.9-0.9,1.5-1.2s1.4-0.4,2.2-0.4s1.5,0.1,2.2,0.4
	c0.6,0.3,1.1,0.7,1.5,1.2s0.5,1.1,0.6,1.7L144.5,219.6L144.5,219.6z M152.9,216.4V228h-2.1v-9.6h-0.1l-2.7,1.7v-1.9l2.9-1.9
	L152.9,216.4L152.9,216.4z M159.6,216.2c0.6,0,1.1,0.1,1.6,0.3s1,0.5,1.4,0.9s0.8,1,1,1.7s0.4,1.6,0.4,2.7c0,1-0.1,1.9-0.3,2.7
	s-0.5,1.4-0.9,2c-0.4,0.5-0.9,1-1.4,1.2c-0.6,0.3-1.2,0.4-1.9,0.4s-1.4-0.1-2-0.4c-0.6-0.3-1-0.7-1.4-1.2c-0.3-0.5-0.6-1.1-0.6-1.7
	h2.1c0.1,0.5,0.3,0.8,0.6,1.1s0.7,0.4,1.2,0.4c0.8,0,1.4-0.4,1.9-1.1s0.7-1.7,0.7-2.9h-0.1c-0.2,0.3-0.4,0.6-0.7,0.9
	c-0.3,0.2-0.6,0.4-1,0.6c-0.4,0.1-0.8,0.2-1.2,0.2c-0.7,0-1.3-0.2-1.8-0.5s-1-0.8-1.3-1.3c-0.3-0.6-0.5-1.2-0.5-1.9
	c0-0.8,0.2-1.4,0.5-2c0.4-0.6,0.8-1.1,1.5-1.4C158,216.4,158.7,216.2,159.6,216.2z M159.6,217.9c-0.4,0-0.8,0.1-1.1,0.3
	s-0.6,0.5-0.8,0.8s-0.3,0.7-0.3,1.1c0,0.4,0.1,0.8,0.3,1.1s0.4,0.6,0.8,0.8c0.3,0.2,0.7,0.3,1.1,0.3c0.3,0,0.6-0.1,0.9-0.2
	c0.3-0.1,0.5-0.3,0.7-0.5s0.4-0.5,0.5-0.7c0.1-0.3,0.2-0.6,0.2-0.9c0-0.4-0.1-0.8-0.3-1.1s-0.4-0.6-0.8-0.8
	C160.3,218,160,217.9,159.6,217.9z M169.9,228.2c-0.9,0-1.7-0.2-2.4-0.7s-1.2-1.2-1.5-2.1c-0.4-0.9-0.5-2-0.5-3.3s0.2-2.3,0.5-3.2
	c0.4-0.9,0.9-1.6,1.5-2c0.7-0.5,1.5-0.7,2.4-0.7s1.7,0.2,2.4,0.7s1.2,1.2,1.5,2c0.4,0.9,0.5,2,0.5,3.2c0,1.3-0.2,2.4-0.5,3.3
	c-0.4,0.9-0.9,1.6-1.5,2.1C171.6,228,170.8,228.2,169.9,228.2z M169.9,226.4c0.7,0,1.3-0.4,1.7-1.1c0.4-0.7,0.6-1.8,0.6-3.2
	c0-0.9-0.1-1.7-0.3-2.3s-0.5-1.1-0.8-1.4c-0.4-0.3-0.8-0.5-1.2-0.5c-0.7,0-1.3,0.4-1.7,1.1c-0.4,0.7-0.6,1.8-0.6,3.2
	c0,0.9,0.1,1.7,0.3,2.3s0.5,1.1,0.8,1.4C169,226.3,169.4,226.4,169.9,226.4z M180,216.2c0.6,0,1.1,0.1,1.6,0.3s1,0.5,1.4,0.9
	s0.8,1,1,1.7s0.4,1.6,0.4,2.7c0,1-0.1,1.9-0.3,2.7s-0.5,1.4-0.9,2c-0.4,0.5-0.9,1-1.4,1.2c-0.6,0.3-1.2,0.4-1.9,0.4s-1.4-0.1-2-0.4
	c-0.6-0.3-1-0.7-1.4-1.2c-0.3-0.5-0.6-1.1-0.6-1.7h2.1c0.1,0.5,0.3,0.8,0.6,1.1s0.7,0.4,1.2,0.4c0.8,0,1.4-0.4,1.9-1.1
	c0.4-0.7,0.7-1.7,0.7-2.9h-0.1c-0.2,0.3-0.4,0.6-0.7,0.9c-0.3,0.2-0.6,0.4-1,0.6c-0.4,0.1-0.8,0.2-1.2,0.2c-0.7,0-1.3-0.2-1.8-0.5
	s-1-0.8-1.3-1.3c-0.3-0.6-0.5-1.2-0.5-1.9c0-0.8,0.2-1.4,0.5-2c0.4-0.6,0.8-1.1,1.5-1.4C178.4,216.4,179.1,216.2,180,216.2z
	 M180,217.9c-0.4,0-0.8,0.1-1.1,0.3s-0.6,0.5-0.8,0.8s-0.3,0.7-0.3,1.1c0,0.4,0.1,0.8,0.3,1.1s0.4,0.6,0.8,0.8
	c0.3,0.2,0.7,0.3,1.1,0.3c0.3,0,0.6-0.1,0.9-0.2c0.3-0.1,0.5-0.3,0.7-0.5s0.4-0.5,0.5-0.7c0.1-0.3,0.2-0.6,0.2-0.9
	c0-0.4-0.1-0.8-0.3-1.1s-0.4-0.6-0.8-0.8C180.7,218,180.4,217.9,180,217.9z"/>
<path class="st10" d="M243.2,110L243.2,110l-1.6,0.1l0,0l-2.1-2.2l-2.1,2.2l0,0h-1.6c-0.1,0-0.1-0.1,0-0.1l2.9-3.1l-2.8-3v-0.1h1.6
	l0,0l2,2.2l2-2.2l0,0h1.6c0.1,0,0.1,0.1,0,0.1l-2.8,3L243.2,110z M228.1,110.1C228,110.1,228,110.1,228.1,110.1L228,104
	c0-0.1,0-0.1,0.1-0.1h6c0.1,0,0.1,0,0.1,0.1v0.9c0,0,0,0.1-0.1,0.1h-4.7v1.4h2.8c0.1,0,0.1,0,0.1,0.1v0.9c0,0.1,0,0.1-0.1,0.1h-2.8
	v1.6h4.7c0,0,0.1,0,0.1,0.1v1c0,0.1,0,0.1-0.1,0.1h-6V110.1z M217.4,110.1C217.4,110.1,217.3,110.1,217.4,110.1l-0.1-6.2
	c0-0.1,0-0.1,0.1-0.1h1.3c0.1,0,0.1,0,0.1,0.1v6.1c0,0.1,0,0.1-0.1,0.1H217.4z M210.3,110.1C210.2,110.1,210.2,110.1,210.3,110.1
	l-0.1-6.2c0-0.1,0-0.1,0.1-0.1h5.9c0.1,0,0.1,0,0.1,0.1v0.9c0,0,0,0.1-0.1,0.1h-4.6v1.7h2.5c0.1,0,0.1,0,0.1,0.1v0.9
	c0,0.1,0,0.1-0.1,0.1h-2.5v2.3c0,0.1,0,0.1-0.1,0.1H210.3z M206.4,105v5.1c0,0.1,0,0.1-0.1,0.1H205c0,0-0.1,0-0.1-0.1V105h-2.7
	c-0.1,0-0.1,0-0.1-0.1V104c0-0.1,0-0.1,0.1-0.1h6.8c0,0,0.1,0,0.1,0.1v0.9c0,0.1,0,0.1-0.1,0.1H206.4z M199.8,110.1
	C199.7,110.1,199.7,110.1,199.8,110.1l-0.1-6.2c0-0.1,0-0.1,0.1-0.1h1.3c0.1,0,0.1,0,0.1,0.1v6.1c0,0.1,0,0.1-0.1,0.1H199.8z"/>
<path class="st11" d="M191.8,104C191.8,103.9,191.9,103.9,191.8,104l5.5-0.1c0.7,0,1.3,0.6,1.3,1.3v0.4c0,0.7-0.6,1.3-1.3,1.3l0,0
	c0.7,0,1.3,0.6,1.3,1.3v0.6c0,0.7-0.6,1.3-1.3,1.3h-5.4c-0.1,0-0.1,0-0.1-0.1V104z M193.2,104.9h3.4c0.3,0,0.6,0.3,0.6,0.6v0.3
	c0,0.3-0.3,0.6-0.6,0.6h-3.4V104.9z M193.2,107.4h3.4c0.3,0,0.6,0.3,0.6,0.6v0.4c0,0.3-0.3,0.6-0.6,0.6h-3.4V107.4z"/>
<path class="st10" d="M219.8,110v-6c0-0.1,0-0.1,0.1-0.1h0.9c0,0,0,0,0.1,0l4.8,4.3V104c0-0.1,0-0.1,0.1-0.1h1.1
	c0.1,0,0.1,0,0.1,0.1v6.1c0,0.1,0,0.1-0.1,0.1H226c0,0,0,0-0.1,0l-4.8-4.3v4.2c0,0.1,0,0.1-0.1,0.1h-1.1
	C219.8,110.1,219.8,110.1,219.8,110L219.8,110z"/>
<path class="st12" d="M244.4,107.6c-0.1-1,0.4-2.2,1.3-3.1c1.9-1.9,6-1.7,6-1.7s-3,4.3-6.4,4.7C244.9,107.6,244.6,107.6,244.4,107.6
	L244.4,107.6z"/>
<path class="st12" d="M244.8,108.9c0.1,0.2,0.2,0.3,0.4,0.4c1.2,1.2,3.3,1,4.8-0.5c1.9-1.9,1.7-6,1.7-6s-2.1,4.8-5.5,5.8
	C245.7,108.8,245.2,108.9,244.8,108.9L244.8,108.9z"/>
<g id="huobi-1">
	<g>
		<path id="Shape" class="st13" d="M220.7,182.3v4.1h-4.1v-3.6c0-0.3-0.2-0.5-0.5-0.5h-1.4v9.9c0,0.3,0.2,0.5,0.5,0.5h1.4v-4.6h4.1
			v4.1c0,0.3,0.2,0.5,0.5,0.5l0,0h1.4v-9.9c0-0.3-0.2-0.5-0.5-0.5H220.7L220.7,182.3z M228.8,184.9v5c0,0.4-0.2,0.9-0.6,1.1
			c-1.1,0.6-2.2-0.2-2.2-1.2v-4.3c0-0.3-0.2-0.5-0.5-0.5h-1.4v5.1c0,1.6,1.3,3,3,3h0.8c1.6,0,3-1.3,3-3v-4.5c0-0.3-0.2-0.5-0.5-0.5
			L228.8,184.9L228.8,184.9z"/>
		<path id="Path" class="st14" d="M250,192.8h1.4v-7c0-0.3-0.2-0.5-0.5-0.5h-1.4v7C249.4,192.5,249.7,192.8,250,192.8L250,192.8z"/>
		<ellipse id="Oval" class="st14" cx="250.4" cy="183.4" rx="1.1" ry="1.1"/>
		<path id="Shape_1_" class="st13" d="M235.8,184.9c-2,0-3.7,1.4-3.7,3.5v1.1c0,2,1.7,3.5,3.7,3.5s3.7-1.4,3.7-3.5v-1.1
			C239.5,186.4,237.8,184.9,235.8,184.9z M237.5,189.6c0,1-0.8,1.6-1.7,1.6c-1,0-1.7-0.6-1.7-1.6v-1.4c0-1,0.8-1.6,1.7-1.6
			c1,0,1.7,0.6,1.7,1.6V189.6z"/>
		<path id="Shape_2_" class="st14" d="M244.4,184.9c-0.6,0-1.2,0.1-1.7,0.4v-2.4c0-0.3-0.2-0.5-0.5-0.5h-1.4v7.1
			c0,2,1.7,3.5,3.7,3.5s3.7-1.4,3.7-3.5v-1.1C248.1,186.4,246.5,184.9,244.4,184.9z M246.2,189.6c0,1-0.8,1.6-1.7,1.6
			c-1,0-1.7-0.6-1.7-1.6v-1.4c0-1,0.8-1.6,1.7-1.6c1,0,1.7,0.6,1.7,1.6V189.6z"/>
		<path id="Path_1_" class="st13" d="M208.7,183.2c0-2.1-1-3.9-1.8-4.5h-0.1c-0.1,4.1-2.1,5.2-3.3,6.7c-2.6,3.4-0.2,7.2,2.3,7.9
			c1.4,0.4-0.3-0.7-0.5-3C205.1,187.6,208.7,185.5,208.7,183.2z"/>
		<path id="Path_2_" class="st14" d="M209.9,184.6C209.9,184.6,209.9,184.5,209.9,184.6c-0.1,0.5-0.6,1.6-1.3,2.6
			c-2.3,3.4-1,5.1-0.2,5.9c0.4,0.5,0,0,1-0.5c1.3-0.8,2.1-2.1,2.3-3.6C211.9,186.5,210.5,185,209.9,184.6L209.9,184.6z"/>
	</g>
</g>
<g>
	<path class="st9" d="M120.9,110.7v-9.4h3.7c0.6,0,1.1,0.1,1.5,0.4s0.7,0.6,0.9,0.9c0.2,0.4,0.3,0.8,0.3,1.2c0,0.5-0.1,1-0.4,1.3
		c-0.3,0.4-0.6,0.6-1,0.8l0-0.3c0.6,0.1,1.1,0.4,1.4,0.9c0.3,0.4,0.5,0.9,0.5,1.5c0,0.6-0.1,1-0.3,1.4s-0.5,0.7-1,1
		c-0.4,0.2-0.9,0.3-1.5,0.3H120.9z M122.3,105.2h2.3c0.3,0,0.5-0.1,0.7-0.2c0.2-0.1,0.4-0.2,0.5-0.4c0.1-0.2,0.2-0.4,0.2-0.7
		c0-0.4-0.1-0.7-0.4-0.9s-0.6-0.4-1-0.4h-2.3V105.2z M122.3,109.4h2.4c0.3,0,0.6-0.1,0.8-0.2c0.2-0.1,0.4-0.3,0.6-0.5
		s0.2-0.5,0.2-0.8c0-0.3-0.1-0.5-0.2-0.8c-0.1-0.2-0.3-0.4-0.5-0.5c-0.2-0.1-0.5-0.2-0.8-0.2h-2.5V109.4z"/>
	<path class="st9" d="M131.7,110.9c-0.5,0-0.9-0.1-1.2-0.2c-0.3-0.2-0.6-0.4-0.8-0.6c-0.2-0.3-0.4-0.5-0.5-0.8
		c-0.1-0.3-0.2-0.6-0.2-0.9c0-0.3-0.1-0.5-0.1-0.8v-3.9h1.4v3.5c0,0.3,0,0.6,0.1,0.8c0,0.3,0.1,0.6,0.3,0.8s0.3,0.4,0.5,0.6
		c0.2,0.2,0.5,0.2,0.9,0.2c0.2,0,0.5,0,0.7-0.1c0.2-0.1,0.4-0.2,0.6-0.4c0.2-0.2,0.3-0.4,0.4-0.7c0.1-0.3,0.1-0.6,0.1-1.1l0.8,0.3
		c0,0.6-0.1,1.2-0.4,1.7c-0.2,0.5-0.6,0.9-1,1.1S132.3,110.9,131.7,110.9z M134,110.7v-2h-0.2v-5h1.4v7H134z"/>
	<path class="st9" d="M138,113.8l1.4-3.7l0,1.1l-3.1-7.5h1.4l2.3,5.8h-0.4l2.2-5.8h1.4l-3.9,10.1H138z"/>
	<path class="st9" d="M149.5,110.9c-0.5,0-0.9-0.1-1.3-0.3c-0.4-0.2-0.8-0.5-1.1-0.8c-0.3-0.3-0.5-0.8-0.6-1.2l1.3-0.4
		c0.1,0.3,0.2,0.5,0.4,0.7c0.2,0.2,0.4,0.4,0.6,0.5c0.2,0.1,0.5,0.2,0.8,0.2c0.3,0,0.7-0.1,0.9-0.2c0.3-0.2,0.5-0.4,0.7-0.7
		s0.2-0.6,0.2-0.9c0-0.3-0.1-0.7-0.2-0.9c-0.2-0.3-0.4-0.5-0.7-0.7c-0.3-0.2-0.6-0.2-0.9-0.2c-0.4,0-0.7,0.1-1,0.2
		c-0.3,0.2-0.5,0.3-0.6,0.5l-1.2-0.4l0.3-4.9h5.1v1.3h-4.4l0.6-0.5l-0.2,3.7l-0.3-0.3c0.2-0.2,0.5-0.4,0.9-0.6s0.7-0.2,1-0.2
		c0.6,0,1.1,0.1,1.6,0.4c0.5,0.3,0.8,0.6,1.1,1.1c0.3,0.5,0.4,1,0.4,1.6c0,0.6-0.1,1.1-0.4,1.6c-0.3,0.5-0.7,0.9-1.2,1.1
		C150.7,110.8,150.1,110.9,149.5,110.9z"/>
	<path class="st9" d="M156.9,110.7v-9.4h6v1.3h-4.6v2.6h3.8v1.3h-3.8v2.9h4.6v1.3H156.9z"/>
	<path class="st9" d="M166.8,110.7v-8.1h-3.1v-1.3h7.6v1.3h-3.1v8.1H166.8z"/>
	<path class="st9" d="M172.3,110.7v-9.4h1.4v4h4.7v-4h1.4v9.4h-1.4v-4h-4.7v4H172.3z"/>
</g>
<g>
	<path class="st9" d="M125.6,192.1c-0.7,0-1.3-0.1-1.8-0.3c-0.5-0.2-1-0.6-1.3-1c-0.3-0.4-0.6-0.9-0.7-1.5l1.4-0.2
		c0.1,0.6,0.4,1,0.9,1.3c0.5,0.3,1,0.5,1.6,0.5c0.4,0,0.7-0.1,1-0.2s0.6-0.3,0.8-0.5s0.3-0.5,0.3-0.8c0-0.2,0-0.3-0.1-0.4
		c-0.1-0.1-0.1-0.2-0.2-0.3c-0.1-0.1-0.2-0.2-0.4-0.3c-0.1-0.1-0.3-0.1-0.5-0.2l-2.4-0.7c-0.2-0.1-0.5-0.2-0.7-0.3
		c-0.2-0.1-0.5-0.3-0.7-0.4c-0.2-0.2-0.4-0.4-0.5-0.7c-0.1-0.3-0.2-0.6-0.2-1c0-0.6,0.1-1.1,0.4-1.5s0.7-0.7,1.2-0.9
		c0.5-0.2,1.1-0.3,1.7-0.3c0.6,0,1.2,0.1,1.7,0.3s0.9,0.5,1.2,0.9s0.6,0.9,0.7,1.5l-1.5,0.2c-0.1-0.4-0.2-0.7-0.4-0.9
		s-0.5-0.4-0.8-0.6c-0.3-0.1-0.6-0.2-1-0.2c-0.3,0-0.7,0-1,0.2s-0.5,0.3-0.7,0.5s-0.3,0.4-0.3,0.7c0,0.3,0.1,0.5,0.2,0.6
		c0.2,0.2,0.3,0.3,0.6,0.4c0.2,0.1,0.4,0.2,0.7,0.2l1.7,0.5c0.2,0.1,0.5,0.1,0.7,0.2c0.3,0.1,0.5,0.2,0.8,0.4
		c0.3,0.2,0.5,0.4,0.6,0.7c0.2,0.3,0.3,0.7,0.3,1.1c0,0.5-0.1,0.9-0.3,1.2c-0.2,0.4-0.5,0.7-0.8,0.9c-0.3,0.2-0.7,0.4-1.1,0.5
		C126.6,192.1,126.1,192.1,125.6,192.1z"/>
	<path class="st9" d="M133.7,192.1c-0.7,0-1.3-0.2-1.8-0.5c-0.5-0.3-0.9-0.7-1.2-1.3c-0.3-0.5-0.4-1.2-0.4-1.9c0-0.8,0.1-1.4,0.4-2
		c0.3-0.6,0.7-1,1.2-1.3c0.5-0.3,1.1-0.5,1.8-0.5c0.7,0,1.3,0.2,1.8,0.5c0.5,0.3,0.9,0.8,1.1,1.4c0.2,0.6,0.3,1.3,0.3,2.2h-1.4v-0.5
		c0-0.8-0.2-1.4-0.5-1.8c-0.3-0.4-0.8-0.6-1.4-0.6c-0.7,0-1.2,0.2-1.5,0.6c-0.3,0.4-0.5,1-0.5,1.9c0,0.8,0.2,1.4,0.5,1.8
		s0.8,0.6,1.5,0.6c0.4,0,0.8-0.1,1.1-0.3c0.3-0.2,0.6-0.5,0.7-0.8l1.3,0.4c-0.3,0.6-0.7,1.1-1.2,1.5
		C135,192,134.4,192.1,133.7,192.1z M131.2,188.8v-1.1h5v1.1H131.2z"/>
	<path class="st9" d="M138.5,191.9v-9.6h1.4v9.6H138.5z"/>
	<path class="st9" d="M141.9,191.9v-9.6h1.4v9.6H141.9z"/>
	<path class="st9" d="M150.6,192.1c-0.5,0-0.9-0.1-1.3-0.3c-0.4-0.2-0.8-0.5-1.1-0.8c-0.3-0.3-0.5-0.8-0.6-1.2l1.3-0.4
		c0.1,0.3,0.2,0.5,0.4,0.7c0.2,0.2,0.4,0.4,0.6,0.5c0.2,0.1,0.5,0.2,0.8,0.2c0.3,0,0.7-0.1,0.9-0.2c0.3-0.2,0.5-0.4,0.7-0.7
		s0.2-0.6,0.2-0.9c0-0.3-0.1-0.7-0.2-0.9c-0.2-0.3-0.4-0.5-0.7-0.7c-0.3-0.2-0.6-0.2-0.9-0.2c-0.4,0-0.7,0.1-1,0.2
		c-0.3,0.2-0.5,0.3-0.6,0.5l-1.2-0.4l0.3-4.9h5.1v1.3h-4.4l0.6-0.5l-0.2,3.7l-0.3-0.3c0.2-0.2,0.5-0.4,0.9-0.6s0.7-0.2,1-0.2
		c0.6,0,1.1,0.1,1.6,0.4c0.5,0.3,0.8,0.6,1.1,1.1c0.3,0.5,0.4,1,0.4,1.6c0,0.6-0.1,1.1-0.4,1.6c-0.3,0.5-0.7,0.9-1.2,1.1
		C151.7,192,151.2,192.1,150.6,192.1z"/>
	<path class="st9" d="M158,191.9v-9.4h6v1.3h-4.6v2.6h3.8v1.3h-3.8v2.9h4.6v1.3H158z"/>
	<path class="st9" d="M167.9,191.9v-8.1h-3.1v-1.3h7.6v1.3h-3.1v8.1H167.9z"/>
	<path class="st9" d="M173.4,191.9v-9.4h1.4v4h4.7v-4h1.4v9.4h-1.4v-4h-4.7v4H173.4z"/>
</g>
</svg>
