<?xml version="1.0" encoding="utf-8"?>
<!-- Generator: Adobe Illustrator 25.4.1, SVG Export Plug-In . SVG Version: 6.00 Build 0)  -->
<svg version="1.1" id="Слой_1" xmlns="http://www.w3.org/2000/svg" xmlns:xlink="http://www.w3.org/1999/xlink" x="0px" y="0px"
	 viewBox="0 0 508 308" style="enable-background:new 0 0 508 308;" xml:space="preserve">
<style type="text/css">
	.st0{fill:#67699D;}
	.st1{fill:#9197B3;}
	.st2{fill:#FFFFFF;}
	.st3{fill:#F9F9F9;stroke:#B5B7C0;stroke-width:0.5;}
	.st4{fill:#FF070B;}
	.st5{fill:#07E6A3;}
	.st6{fill:#F3BA2F;}
</style>
<g>
	<path class="st0" d="M116,88h276c8.8,0,16,7.2,16,16v76c0,8.8-7.2,16-16,16H116c-8.8,0-16-7.2-16-16v-76C100,95.2,107.2,88,116,88z
		"/>
</g>
<g>
	<path class="st1" d="M141,127h91c8.8,0,16,7.2,16,16v15c0,8.8-7.2,16-16,16h-91c-8.8,0-16-7.2-16-16v-15
		C125,134.2,132.2,127,141,127z"/>
</g>
<path class="st2" d="M140.3,164.3v-12.7h0.8v12.7H140.3z M142.7,155.6c0-0.4-0.2-0.8-0.6-1c-0.3-0.2-0.8-0.4-1.3-0.4
	c-0.4,0-0.7,0.1-1,0.2c-0.3,0.1-0.5,0.3-0.6,0.5s-0.2,0.4-0.2,0.7c0,0.2,0,0.4,0.1,0.6c0.1,0.2,0.2,0.3,0.4,0.4
	c0.2,0.1,0.4,0.2,0.6,0.3c0.2,0.1,0.4,0.1,0.6,0.2l1,0.2c0.4,0.1,0.8,0.2,1.1,0.4c0.4,0.2,0.7,0.3,1,0.6c0.3,0.2,0.5,0.5,0.7,0.8
	s0.2,0.7,0.2,1.2c0,0.6-0.2,1.1-0.5,1.6s-0.7,0.8-1.3,1.1s-1.3,0.4-2.1,0.4s-1.5-0.1-2.1-0.4c-0.6-0.2-1-0.6-1.4-1.1
	c-0.3-0.5-0.5-1-0.5-1.7h1.8c0,0.4,0.1,0.6,0.3,0.9s0.4,0.4,0.8,0.5c0.3,0.1,0.7,0.2,1,0.2c0.4,0,0.8-0.1,1.1-0.2
	c0.3-0.1,0.5-0.3,0.7-0.5s0.3-0.5,0.3-0.8s-0.1-0.5-0.2-0.7c-0.2-0.2-0.4-0.3-0.6-0.4c-0.3-0.1-0.6-0.2-1-0.3l-1.2-0.3
	c-0.8-0.2-1.5-0.5-2-1c-0.5-0.4-0.7-1-0.7-1.8c0-0.6,0.2-1.1,0.5-1.6s0.8-0.8,1.3-1c0.6-0.3,1.2-0.4,1.9-0.4s1.4,0.1,1.9,0.4
	c0.5,0.2,1,0.6,1.3,1s0.5,0.9,0.5,1.5L142.7,155.6L142.7,155.6z M149.6,163.2c-0.8,0-1.5-0.2-2.1-0.6c-0.6-0.4-1-1-1.3-1.8
	s-0.5-1.7-0.5-2.8s0.2-2.1,0.5-2.8c0.3-0.8,0.8-1.4,1.3-1.8c0.6-0.4,1.3-0.6,2.1-0.6s1.5,0.2,2.1,0.6c0.6,0.4,1,1,1.3,1.8
	s0.5,1.7,0.5,2.8s-0.2,2.1-0.5,2.9c-0.3,0.8-0.8,1.4-1.3,1.8C151.1,163,150.4,163.2,149.6,163.2z M149.6,161.6
	c0.6,0,1.1-0.3,1.5-0.9c0.4-0.6,0.6-1.6,0.6-2.8c0-0.8-0.1-1.5-0.3-2c-0.2-0.6-0.4-1-0.7-1.2c-0.3-0.3-0.7-0.4-1.1-0.4
	c-0.6,0-1.1,0.3-1.5,0.9c-0.4,0.6-0.6,1.5-0.6,2.8c0,0.8,0.1,1.5,0.2,2c0.2,0.6,0.4,1,0.7,1.3C148.8,161.5,149.2,161.6,149.6,161.6z
	 M155.6,163.1c-0.3,0-0.6-0.1-0.8-0.3s-0.3-0.5-0.3-0.8s0.1-0.6,0.3-0.8s0.5-0.3,0.8-0.3s0.5,0.1,0.8,0.3c0.2,0.2,0.3,0.5,0.3,0.8
	c0,0.2-0.1,0.4-0.2,0.6c-0.1,0.2-0.2,0.3-0.4,0.4C156,163.1,155.8,163.1,155.6,163.1z M161.7,163.2c-0.8,0-1.5-0.2-2.1-0.6
	c-0.6-0.4-1-1-1.3-1.8s-0.5-1.7-0.5-2.8s0.2-2.1,0.5-2.8c0.3-0.8,0.8-1.4,1.3-1.8c0.6-0.4,1.3-0.6,2.1-0.6s1.5,0.2,2.1,0.6
	c0.6,0.4,1,1,1.3,1.8s0.5,1.7,0.5,2.8s-0.2,2.1-0.5,2.9c-0.3,0.8-0.8,1.4-1.3,1.8C163.2,163,162.5,163.2,161.7,163.2z M161.7,161.6
	c0.6,0,1.1-0.3,1.5-0.9c0.4-0.6,0.6-1.6,0.6-2.8c0-0.8-0.1-1.5-0.3-2c-0.2-0.6-0.4-1-0.7-1.2c-0.3-0.3-0.7-0.4-1.1-0.4
	c-0.6,0-1.1,0.3-1.5,0.9c-0.4,0.6-0.6,1.5-0.6,2.8c0,0.8,0.1,1.5,0.2,2c0.2,0.6,0.4,1,0.7,1.3C160.9,161.5,161.2,161.6,161.7,161.6z
	 M167,163l4.3-8.6v-0.1h-5v-1.5h6.9v1.6L169,163H167z M178,152.7c0.5,0,1,0.1,1.4,0.3c0.5,0.2,0.9,0.4,1.3,0.8
	c0.4,0.4,0.7,0.9,0.9,1.5s0.3,1.4,0.3,2.3c0,0.9-0.1,1.7-0.3,2.3c-0.2,0.7-0.5,1.3-0.8,1.7c-0.3,0.5-0.8,0.8-1.3,1.1
	c-0.5,0.2-1,0.4-1.7,0.4c-0.6,0-1.2-0.1-1.7-0.4c-0.5-0.3-0.9-0.6-1.2-1s-0.5-0.9-0.6-1.5h1.8c0.1,0.4,0.3,0.7,0.6,1
	c0.3,0.2,0.7,0.4,1.1,0.4c0.7,0,1.2-0.3,1.6-0.9c0.4-0.6,0.6-1.5,0.6-2.6h0c-0.2,0.3-0.4,0.5-0.6,0.8c-0.3,0.2-0.6,0.4-0.9,0.5
	c-0.3,0.1-0.7,0.2-1,0.2c-0.6,0-1.1-0.1-1.6-0.4c-0.5-0.3-0.9-0.7-1.1-1.2c-0.3-0.5-0.4-1.1-0.4-1.7c0-0.7,0.2-1.3,0.5-1.8
	s0.7-0.9,1.3-1.3C176.6,152.8,177.3,152.7,178,152.7z M178,154.2c-0.4,0-0.7,0.1-1,0.3s-0.5,0.4-0.7,0.7s-0.2,0.6-0.2,1
	s0.1,0.7,0.2,1c0.2,0.3,0.4,0.5,0.7,0.7s0.6,0.3,1,0.3c0.3,0,0.5-0.1,0.8-0.2c0.2-0.1,0.4-0.2,0.6-0.4c0.2-0.2,0.3-0.4,0.4-0.6
	c0.1-0.2,0.1-0.5,0.1-0.7c0-0.3-0.1-0.7-0.2-1c-0.2-0.3-0.4-0.5-0.7-0.7C178.7,154.3,178.4,154.2,178,154.2z M183.3,163v-1.3
	l3.5-3.5c0.3-0.3,0.6-0.6,0.8-0.9c0.2-0.3,0.4-0.5,0.5-0.8c0.1-0.2,0.2-0.5,0.2-0.8s-0.1-0.6-0.2-0.8c-0.1-0.2-0.3-0.4-0.6-0.5
	s-0.5-0.2-0.9-0.2c-0.3,0-0.6,0.1-0.9,0.2c-0.3,0.1-0.4,0.3-0.6,0.6c-0.1,0.3-0.2,0.6-0.2,0.9h-1.8c0-0.6,0.1-1.2,0.4-1.7
	c0.3-0.5,0.7-0.8,1.2-1.1s1.1-0.4,1.8-0.4s1.3,0.1,1.8,0.4c0.5,0.3,0.9,0.6,1.2,1s0.4,1,0.4,1.5c0,0.4-0.1,0.8-0.2,1.1
	s-0.4,0.8-0.8,1.2c-0.4,0.4-0.9,1-1.5,1.6l-1.8,1.8v0.1h4.4v1.5L183.3,163L183.3,163z"/>
<path class="st3" d="M238.8,154.3L238.8,154.3c2.1-8.5-3.1-17.1-11.5-19.1c-8.5-2.1-17,3.1-19.1,11.5c-2.1,8.5,3.1,17,11.5,19.1l0,0
	C228.2,167.9,236.7,162.8,238.8,154.3z"/>
<path class="st4" d="M232.8,148.4c-0.9-0.8-2.2-2.1-3.2-3h-0.1c-0.1-0.1-0.2-0.1-0.3-0.2c-2.5-0.5-14-2.6-14.2-2.6
	c-0.1,0-0.1,0-0.2,0.1h-0.1c-0.1,0.1-0.1,0.2-0.2,0.3l0,0v0.2l0,0c1.3,3.6,6.4,15.4,7.4,18.2c0.1,0.2,0.2,0.5,0.4,0.6l0,0
	c0.1,0,0.6-0.6,0.6-0.6s8.8-10.7,9.7-11.8c0.1-0.1,0.2-0.3,0.3-0.4c0-0.1,0-0.3,0-0.4C233,148.6,232.9,148.5,232.8,148.4z
	 M225.3,149.6l3.8-3.1l2.2,2L225.3,149.6z M223.8,149.4l-6.5-5.3l10.5,1.9L223.8,149.4z M224.4,150.8l6.6-1.1l-7.6,9.1L224.4,150.8z
	 M216.5,144.7l6.8,5.8l-1,8.4L216.5,144.7z"/>
<g>
	<path class="st1" d="M279,127h91c8.8,0,16,7.2,16,16v15c0,8.8-7.2,16-16,16h-91c-8.8,0-16-7.2-16-16v-15
		C263,134.2,270.2,127,279,127z"/>
</g>
<path class="st3" d="M376.8,154.3L376.8,154.3c2.1-8.5-3.1-17.1-11.5-19.1c-8.5-2.1-17,3.1-19.1,11.5c-2.1,8.5,3.1,17,11.5,19.1l0,0
	C366.2,167.9,374.7,162.8,376.8,154.3z"/>
<path class="st4" d="M370.8,148.4c-0.9-0.8-2.2-2.1-3.2-3h-0.1c-0.1-0.1-0.2-0.1-0.3-0.2c-2.5-0.5-14-2.6-14.2-2.6
	c-0.1,0-0.1,0-0.2,0.1h-0.1c-0.1,0.1-0.1,0.2-0.2,0.3l0,0v0.2l0,0c1.3,3.6,6.4,15.4,7.4,18.2c0.1,0.2,0.2,0.5,0.4,0.6l0,0
	c0.1,0,0.6-0.6,0.6-0.6s8.8-10.7,9.7-11.8c0.1-0.1,0.2-0.3,0.3-0.4c0-0.1,0-0.3,0-0.4C371,148.6,370.9,148.5,370.8,148.4z
	 M363.3,149.6l3.8-3.1l2.2,2L363.3,149.6z M361.8,149.4l-6.5-5.3l10.5,1.9L361.8,149.4z M362.4,150.8l6.6-1.1l-7.6,9.1L362.4,150.8z
	 M354.5,144.7l6.8,5.8l-1,8.4L354.5,144.7z"/>
<path class="st5" d="M400,127h41c4.4,0,8,3.6,8,8v9c0,4.4-3.6,8-8,8h-41c-4.4,0-8-3.6-8-8v-9C392,130.6,395.6,127,400,127z"/>
<path d="M405.7,142.6v-5.9h1.3v5.9H405.7z M403.4,140.3V139h5.9v1.3H403.4z M413.7,144v-1.1l3-3c0.3-0.3,0.5-0.6,0.7-0.8
	s0.3-0.4,0.4-0.7c0.1-0.2,0.1-0.4,0.1-0.7s-0.1-0.5-0.2-0.7s-0.3-0.4-0.5-0.5s-0.5-0.2-0.7-0.2c-0.3,0-0.5,0.1-0.8,0.2
	c-0.2,0.1-0.4,0.3-0.5,0.5s-0.2,0.5-0.2,0.8h-1.5c0-0.6,0.1-1,0.4-1.4s0.6-0.7,1-0.9s1-0.3,1.5-0.3c0.6,0,1.1,0.1,1.5,0.3
	s0.8,0.5,1,0.9s0.4,0.8,0.4,1.3c0,0.3-0.1,0.6-0.2,1c-0.1,0.3-0.3,0.7-0.7,1c-0.3,0.4-0.8,0.8-1.3,1.4l-1.5,1.5v0.1h3.8v1.3
	L413.7,144L413.7,144z M421.9,144.1c-0.3,0-0.5-0.1-0.7-0.3s-0.3-0.4-0.3-0.7s0.1-0.5,0.3-0.7c0.2-0.2,0.4-0.3,0.7-0.3
	c0.2,0,0.5,0.1,0.7,0.3s0.3,0.4,0.3,0.7c0,0.2,0,0.3-0.1,0.5c-0.1,0.1-0.2,0.3-0.3,0.3C422.2,144.1,422,144.1,421.9,144.1z
	 M426.9,144.1c-0.6,0-1.2-0.1-1.7-0.3s-0.9-0.5-1.2-0.9c-0.3-0.4-0.4-0.8-0.4-1.3c0-0.4,0.1-0.7,0.2-1c0.2-0.3,0.4-0.6,0.7-0.8
	c0.3-0.2,0.6-0.3,0.9-0.4v-0.1c-0.4-0.1-0.8-0.3-1.1-0.7c-0.3-0.4-0.4-0.8-0.4-1.2s0.1-0.8,0.4-1.2s0.6-0.6,1-0.8s0.9-0.3,1.5-0.3
	s1.1,0.1,1.5,0.3s0.8,0.5,1,0.8c0.3,0.4,0.4,0.8,0.4,1.2c0,0.5-0.1,0.9-0.4,1.2c-0.3,0.4-0.6,0.6-1.1,0.7v0.1
	c0.3,0.1,0.6,0.2,0.9,0.4s0.5,0.5,0.7,0.8s0.2,0.6,0.2,1c0,0.5-0.1,0.9-0.4,1.3c-0.3,0.4-0.7,0.7-1.2,0.9
	C428.1,144,427.5,144.1,426.9,144.1z M426.9,142.9c0.3,0,0.6-0.1,0.9-0.2c0.2-0.1,0.4-0.3,0.6-0.5c0.1-0.2,0.2-0.4,0.2-0.7
	s-0.1-0.5-0.2-0.7s-0.3-0.4-0.6-0.5c-0.2-0.1-0.5-0.2-0.8-0.2s-0.6,0.1-0.8,0.2c-0.2,0.1-0.4,0.3-0.6,0.5c-0.1,0.2-0.2,0.5-0.2,0.7
	c0,0.3,0.1,0.5,0.2,0.7s0.3,0.4,0.6,0.5C426.3,142.8,426.6,142.9,426.9,142.9z M426.9,138.9c0.3,0,0.5-0.1,0.7-0.2
	c0.2-0.1,0.4-0.3,0.5-0.5s0.2-0.4,0.2-0.7c0-0.2-0.1-0.5-0.2-0.7s-0.3-0.3-0.5-0.4c-0.2-0.1-0.4-0.2-0.7-0.2c-0.3,0-0.5,0.1-0.7,0.2
	c-0.2,0.1-0.4,0.2-0.5,0.4s-0.2,0.4-0.2,0.7s0.1,0.5,0.2,0.7s0.3,0.3,0.5,0.5S426.6,138.9,426.9,138.9z M436,142.4v-0.5
	c0-0.3,0.1-0.6,0.2-0.9c0.1-0.3,0.4-0.5,0.6-0.7c0.3-0.2,0.6-0.3,1-0.3s0.7,0.1,1,0.3s0.5,0.4,0.6,0.7s0.2,0.6,0.2,0.9v0.5
	c0,0.3-0.1,0.6-0.2,0.9s-0.4,0.5-0.6,0.7c-0.3,0.2-0.6,0.3-1,0.3s-0.7-0.1-1-0.3s-0.5-0.4-0.6-0.7C436,143,436,142.7,436,142.4z
	 M437.1,141.9v0.5c0,0.2,0.1,0.4,0.2,0.6c0.1,0.2,0.3,0.3,0.6,0.3c0.3,0,0.5-0.1,0.6-0.3s0.2-0.4,0.2-0.6v-0.5c0-0.2,0-0.4-0.1-0.6
	c-0.1-0.2-0.3-0.3-0.6-0.3c-0.3,0-0.5,0.1-0.6,0.3C437.1,141.5,437.1,141.7,437.1,141.9z M431.5,137.4v-0.5c0-0.3,0.1-0.7,0.2-0.9
	c0.1-0.3,0.4-0.5,0.6-0.7c0.3-0.2,0.6-0.3,1-0.3s0.7,0.1,1,0.3s0.5,0.4,0.6,0.7s0.2,0.6,0.2,0.9v0.5c0,0.3-0.1,0.7-0.2,0.9
	c-0.1,0.3-0.3,0.5-0.6,0.7c-0.3,0.2-0.6,0.3-1,0.3s-0.7-0.1-1-0.3s-0.5-0.4-0.6-0.7C431.6,138,431.5,137.7,431.5,137.4z
	 M432.7,136.9v0.5c0,0.2,0.1,0.4,0.2,0.6c0.1,0.2,0.3,0.3,0.6,0.3c0.3,0,0.5-0.1,0.6-0.3s0.2-0.4,0.2-0.6v-0.5
	c0-0.2-0.1-0.4-0.1-0.6c-0.1-0.2-0.3-0.3-0.6-0.3c-0.3,0-0.5,0.1-0.6,0.3S432.7,136.7,432.7,136.9z M432,144l6-8.7h1.1l-6,8.7H432z"
	/>
<path class="st2" d="M278.6,164.3v-12.7h0.8v12.7H278.6z M280.9,155.6c0-0.4-0.2-0.8-0.6-1c-0.3-0.2-0.8-0.4-1.3-0.4
	c-0.4,0-0.7,0.1-1,0.2s-0.5,0.3-0.6,0.5s-0.2,0.4-0.2,0.7c0,0.2,0,0.4,0.1,0.6c0.1,0.2,0.2,0.3,0.4,0.4c0.2,0.1,0.4,0.2,0.6,0.3
	s0.4,0.1,0.6,0.2l1,0.2c0.4,0.1,0.8,0.2,1.1,0.4c0.4,0.2,0.7,0.3,1,0.6c0.3,0.2,0.5,0.5,0.7,0.8s0.2,0.7,0.2,1.2
	c0,0.6-0.2,1.1-0.5,1.6s-0.7,0.8-1.3,1.1c-0.6,0.3-1.3,0.4-2.1,0.4c-0.8,0-1.5-0.1-2.1-0.4c-0.6-0.2-1-0.6-1.4-1.1
	c-0.3-0.5-0.5-1-0.5-1.7h1.8c0,0.4,0.1,0.6,0.3,0.9c0.2,0.2,0.4,0.4,0.8,0.5c0.3,0.1,0.7,0.2,1,0.2c0.4,0,0.8-0.1,1.1-0.2
	c0.3-0.1,0.5-0.3,0.7-0.5s0.3-0.5,0.3-0.8s-0.1-0.5-0.2-0.7c-0.2-0.2-0.4-0.3-0.6-0.4c-0.3-0.1-0.6-0.2-1-0.3l-1.2-0.3
	c-0.8-0.2-1.5-0.5-2-1c-0.5-0.4-0.7-1-0.7-1.8c0-0.6,0.2-1.1,0.5-1.6s0.8-0.8,1.3-1c0.6-0.3,1.2-0.4,1.9-0.4c0.7,0,1.4,0.1,1.9,0.4
	c0.5,0.2,1,0.6,1.3,1s0.5,0.9,0.5,1.5L280.9,155.6L280.9,155.6z M287.9,163.2c-0.8,0-1.5-0.2-2.1-0.6c-0.6-0.4-1-1-1.3-1.8
	s-0.5-1.7-0.5-2.8s0.2-2.1,0.5-2.8c0.3-0.8,0.8-1.4,1.3-1.8c0.6-0.4,1.3-0.6,2.1-0.6s1.5,0.2,2.1,0.6s1,1,1.3,1.8s0.5,1.7,0.5,2.8
	s-0.2,2.1-0.5,2.9c-0.3,0.8-0.8,1.4-1.3,1.8C289.4,163,288.7,163.2,287.9,163.2z M287.9,161.6c0.6,0,1.1-0.3,1.5-0.9
	c0.4-0.6,0.6-1.6,0.6-2.8c0-0.8-0.1-1.5-0.3-2c-0.2-0.6-0.4-1-0.7-1.2c-0.3-0.3-0.7-0.4-1.1-0.4c-0.6,0-1.1,0.3-1.5,0.9
	c-0.4,0.6-0.6,1.5-0.6,2.8c0,0.8,0.1,1.5,0.2,2c0.2,0.6,0.4,1,0.7,1.3C287.1,161.5,287.4,161.6,287.9,161.6z M293.9,163.1
	c-0.3,0-0.6-0.1-0.8-0.3c-0.2-0.2-0.3-0.5-0.3-0.8s0.1-0.6,0.3-0.8c0.2-0.2,0.5-0.3,0.8-0.3s0.5,0.1,0.8,0.3
	c0.2,0.2,0.3,0.5,0.3,0.8c0,0.2-0.1,0.4-0.2,0.6c-0.1,0.2-0.2,0.3-0.4,0.4C294.3,163.1,294.1,163.1,293.9,163.1z M299.9,163.2
	c-0.8,0-1.5-0.2-2.1-0.6c-0.6-0.4-1-1-1.3-1.8s-0.5-1.7-0.5-2.8s0.2-2.1,0.5-2.8c0.3-0.8,0.8-1.4,1.3-1.8c0.6-0.4,1.3-0.6,2.1-0.6
	c0.8,0,1.5,0.2,2.1,0.6c0.6,0.4,1,1,1.3,1.8s0.5,1.7,0.5,2.8s-0.2,2.1-0.5,2.9c-0.3,0.8-0.8,1.4-1.3,1.8
	C301.4,163,300.7,163.2,299.9,163.2z M299.9,161.6c0.6,0,1.1-0.3,1.5-0.9c0.4-0.6,0.6-1.6,0.6-2.8c0-0.8-0.1-1.5-0.3-2
	c-0.2-0.6-0.4-1-0.7-1.2c-0.3-0.3-0.7-0.4-1.1-0.4c-0.6,0-1.1,0.3-1.5,0.9c-0.4,0.6-0.6,1.5-0.6,2.8c0,0.8,0.1,1.5,0.2,2
	c0.2,0.6,0.4,1,0.7,1.3C299.1,161.5,299.5,161.6,299.9,161.6z M308.8,163.1c-0.7,0-1.4-0.1-2-0.4c-0.6-0.2-1-0.6-1.3-1
	s-0.5-0.9-0.5-1.5c0-0.4,0.1-0.8,0.3-1.2c0.2-0.4,0.4-0.7,0.8-0.9c0.3-0.2,0.7-0.4,1.1-0.5v-0.1c-0.5-0.1-0.9-0.4-1.3-0.8
	c-0.3-0.4-0.5-0.9-0.5-1.5c0-0.5,0.1-1,0.4-1.4s0.7-0.7,1.2-1c0.5-0.2,1.1-0.4,1.8-0.4c0.7,0,1.2,0.1,1.7,0.4c0.5,0.2,0.9,0.6,1.2,1
	c0.3,0.4,0.4,0.9,0.4,1.4c0,0.6-0.2,1-0.5,1.5c-0.3,0.4-0.7,0.7-1.3,0.8v0.1c0.4,0.1,0.8,0.2,1.1,0.5c0.3,0.2,0.6,0.5,0.8,0.9
	c0.2,0.4,0.3,0.8,0.3,1.2c0,0.6-0.2,1-0.5,1.5c-0.3,0.4-0.8,0.8-1.3,1C310.2,163,309.5,163.1,308.8,163.1z M308.8,161.7
	c0.4,0,0.7-0.1,1-0.2c0.3-0.1,0.5-0.3,0.7-0.6c0.2-0.2,0.2-0.5,0.2-0.8s-0.1-0.6-0.3-0.9c-0.2-0.3-0.4-0.4-0.7-0.6
	c-0.3-0.1-0.6-0.2-1-0.2s-0.7,0.1-1,0.2c-0.3,0.1-0.5,0.3-0.7,0.6c-0.2,0.2-0.2,0.5-0.2,0.9c0,0.3,0.1,0.6,0.2,0.8
	c0.2,0.2,0.4,0.4,0.7,0.6C308.1,161.7,308.4,161.7,308.8,161.7z M308.8,157.1c0.3,0,0.6-0.1,0.8-0.2c0.2-0.1,0.4-0.3,0.6-0.5
	c0.1-0.2,0.2-0.5,0.2-0.8s-0.1-0.5-0.2-0.8c-0.1-0.2-0.3-0.4-0.6-0.5c-0.2-0.1-0.5-0.2-0.8-0.2s-0.6,0.1-0.9,0.2
	c-0.2,0.1-0.4,0.3-0.6,0.5c-0.1,0.2-0.2,0.5-0.2,0.8s0.1,0.6,0.2,0.8s0.3,0.4,0.6,0.5C308.2,157,308.5,157.1,308.8,157.1z
	 M318.1,152.8V163h-1.8v-8.4h-0.1l-2.4,1.5v-1.7l2.5-1.6H318.1z M320.2,161.1v-1.5l4.3-6.8h1.2v2.1H325l-2.9,4.6v0.1h6v1.5
	L320.2,161.1L320.2,161.1z M325.1,163v-2.3V160v-7.2h1.7V163H325.1z"/>
<polygon class="st6" points="186.4,112.8 188.9,110.3 191.4,112.8 192.8,111.3 188.9,107.4 184.9,111.3 "/>
<rect x="182.9" y="112.8" transform="matrix(0.7071 -0.7071 0.7071 0.7071 -26.6028 163.3755)" class="st6" width="2" height="2"/>
<polygon class="st6" points="186.4,114.8 188.9,117.3 191.4,114.8 192.8,116.3 192.8,116.3 188.9,120.2 184.9,116.3 184.9,116.3 "/>
<rect x="192.8" y="112.8" transform="matrix(0.7071 -0.7071 0.7071 0.7071 -23.7149 170.3868)" class="st6" width="2" height="2"/>
<polygon class="st6" points="190.3,113.8 190.3,113.8 188.9,112.3 187.8,113.4 187.8,113.4 187.7,113.5 187.4,113.8 187.4,113.8 
	187.4,113.8 187.4,113.8 188.9,115.3 190.3,113.8 "/>
<path class="st6" d="M197.5,110.5h3.2c0.8,0,1.4,0.2,1.8,0.6c0.3,0.3,0.5,0.7,0.5,1.2l0,0c0,0.2,0,0.4-0.1,0.5
	c0,0.1-0.1,0.3-0.2,0.4c-0.1,0.1-0.2,0.2-0.3,0.3c-0.1,0.1-0.2,0.2-0.3,0.2c0.4,0.1,0.7,0.4,0.9,0.6c0.2,0.3,0.3,0.6,0.3,1.1l0,0
	c0,0.3-0.1,0.6-0.2,0.8c-0.1,0.2-0.3,0.4-0.5,0.6s-0.5,0.3-0.8,0.3c-0.3,0.1-0.7,0.1-1,0.1h-3.2L197.5,110.5L197.5,110.5z
	 M200.4,113.2c0.3,0,0.6-0.1,0.8-0.2s0.3-0.3,0.3-0.5l0,0c0-0.2-0.1-0.4-0.3-0.5s-0.4-0.2-0.7-0.2H199v1.4
	C199,113.2,200.4,113.2,200.4,113.2z M200.8,116c0.3,0,0.6-0.1,0.8-0.2s0.3-0.3,0.3-0.6l0,0c0-0.2-0.1-0.4-0.3-0.5s-0.5-0.2-0.8-0.2
	H199v1.5L200.8,116L200.8,116z"/>
<path class="st6" d="M205.2,110.5h1.5v6.8h-1.5V110.5z"/>
<path class="st6" d="M209,110.5h1.4l3.2,4.2v-4.2h1.5v6.8h-1.3l-3.3-4.3v4.3H209V110.5z"/>
<path class="st6" d="M219.5,110.4h1.4l2.9,6.8h-1.6l-0.6-1.5h-2.9l-0.6,1.5h-1.5L219.5,110.4z M221.1,114.4l-0.9-2.2l-0.9,2.2H221.1
	z"/>
<path class="st6" d="M225.4,110.5h1.4l3.2,4.2v-4.2h1.5v6.8h-1.3l-3.3-4.3v4.3h-1.5L225.4,110.5L225.4,110.5z"/>
<path class="st6" d="M236.9,117.4c-0.5,0-1-0.1-1.4-0.3c-0.4-0.2-0.8-0.4-1.1-0.7c-0.3-0.3-0.6-0.7-0.7-1.1
	c-0.2-0.4-0.3-0.9-0.3-1.4l0,0c0-0.5,0.1-0.9,0.3-1.4c0.2-0.4,0.4-0.8,0.7-1.1c0.3-0.3,0.7-0.6,1.1-0.8c0.4-0.2,0.9-0.3,1.4-0.3
	c0.3,0,0.6,0,0.9,0.1c0.3,0.1,0.5,0.1,0.7,0.2s0.4,0.2,0.6,0.3c0.2,0.1,0.3,0.3,0.5,0.4l-1,1.1c-0.3-0.2-0.5-0.4-0.8-0.6
	c-0.3-0.1-0.6-0.2-0.9-0.2c-0.3,0-0.5,0.1-0.8,0.2c-0.2,0.1-0.5,0.3-0.6,0.5c-0.2,0.2-0.3,0.4-0.4,0.7c-0.1,0.3-0.1,0.5-0.1,0.8l0,0
	c0,0.3,0,0.6,0.1,0.8c0.1,0.3,0.2,0.5,0.4,0.7s0.4,0.3,0.6,0.5c0.2,0.1,0.5,0.2,0.8,0.2c0.4,0,0.7-0.1,1-0.2s0.5-0.3,0.8-0.6l1,1
	c-0.2,0.2-0.4,0.4-0.5,0.5c-0.2,0.1-0.4,0.3-0.6,0.4c-0.2,0.1-0.5,0.2-0.7,0.2C237.5,117.4,237.2,117.4,236.9,117.4z"/>
<path class="st6" d="M241.4,110.5h5.1v1.3h-3.6v1.4h3.2v1.3h-3.2v1.4h3.7v1.3h-5.2V110.5z"/>
<g>
	<path class="st2" d="M126,117v-9.4h3.7c0.6,0,1.2,0.1,1.6,0.4c0.4,0.3,0.7,0.6,0.9,1c0.2,0.4,0.3,0.8,0.3,1.2c0,0.5-0.1,1-0.4,1.3
		c-0.2,0.4-0.6,0.6-1,0.7v-0.3c0.6,0.1,1,0.4,1.3,0.8c0.3,0.4,0.5,0.9,0.5,1.4c0,0.6-0.1,1-0.3,1.5c-0.2,0.4-0.5,0.7-0.9,1
		c-0.4,0.2-0.9,0.4-1.6,0.4H126z M127.6,111.3h2.1c0.2,0,0.4,0,0.6-0.1s0.3-0.2,0.4-0.4c0.1-0.2,0.2-0.4,0.2-0.6
		c0-0.3-0.1-0.6-0.3-0.8c-0.2-0.2-0.5-0.3-0.9-0.3h-2.1V111.3z M127.6,115.5h2.3c0.3,0,0.5-0.1,0.7-0.2c0.2-0.1,0.4-0.3,0.5-0.5
		c0.1-0.2,0.2-0.4,0.2-0.7c0-0.3-0.1-0.5-0.2-0.7s-0.3-0.4-0.5-0.5c-0.2-0.1-0.5-0.2-0.7-0.2h-2.4V115.5z"/>
	<path class="st2" d="M136.8,117.2c-0.5,0-0.9-0.1-1.3-0.3s-0.6-0.4-0.8-0.7c-0.2-0.3-0.3-0.6-0.4-0.9s-0.2-0.6-0.2-0.9
		c0-0.3,0-0.5,0-0.7v-3.9h1.6v3.4c0,0.2,0,0.5,0,0.7s0.1,0.5,0.2,0.8c0.1,0.2,0.3,0.5,0.5,0.6c0.2,0.2,0.5,0.2,0.9,0.2
		c0.2,0,0.4,0,0.6-0.1c0.2-0.1,0.4-0.2,0.5-0.3c0.2-0.2,0.3-0.4,0.4-0.7s0.1-0.6,0.1-1.1l0.9,0.4c0,0.6-0.1,1.1-0.3,1.6
		c-0.2,0.5-0.6,0.9-1,1.2C138,117,137.5,117.2,136.8,117.2z M139.1,117v-2.2h-0.2v-4.8h1.6v7H139.1z"/>
	<path class="st2" d="M143.2,120.1l1.4-3.7l0,1.1l-3.1-7.5h1.6l2.2,5.6h-0.4l2.1-5.6h1.6l-3.9,10.1H143.2z"/>
	<path class="st2" d="M152.2,117v-9.4h3.9c0.1,0,0.2,0,0.4,0c0.1,0,0.3,0,0.4,0c0.5,0.1,1,0.3,1.3,0.5s0.6,0.6,0.8,1
		c0.2,0.4,0.3,0.9,0.3,1.4c0,0.5-0.1,1-0.3,1.4s-0.4,0.8-0.8,1c-0.4,0.3-0.8,0.5-1.3,0.5c-0.1,0-0.3,0-0.4,0c-0.1,0-0.3,0-0.3,0
		h-2.3v3.3H152.2z M153.8,112.2h2.2c0.1,0,0.2,0,0.3,0c0.1,0,0.2,0,0.3-0.1c0.3-0.1,0.5-0.2,0.6-0.3c0.1-0.2,0.3-0.4,0.3-0.6
		c0.1-0.2,0.1-0.4,0.1-0.6s0-0.4-0.1-0.6c-0.1-0.2-0.2-0.4-0.3-0.6c-0.1-0.2-0.4-0.3-0.6-0.3c-0.1,0-0.2,0-0.3,0c-0.1,0-0.2,0-0.3,0
		h-2.2V112.2z"/>
	<path class="st2" d="M160.2,117v-1.4l4-3.6c0.3-0.3,0.5-0.5,0.7-0.8c0.1-0.2,0.2-0.5,0.2-0.7c0-0.3-0.1-0.6-0.2-0.8
		c-0.1-0.2-0.3-0.4-0.6-0.6c-0.2-0.1-0.5-0.2-0.8-0.2c-0.3,0-0.6,0.1-0.9,0.2c-0.2,0.1-0.4,0.3-0.6,0.6c-0.1,0.2-0.2,0.5-0.2,0.8
		h-1.6c0-0.6,0.1-1.2,0.4-1.6c0.3-0.5,0.7-0.8,1.2-1.1s1.1-0.4,1.7-0.4c0.6,0,1.1,0.1,1.6,0.4c0.5,0.3,0.9,0.6,1.1,1.1
		s0.4,1,0.4,1.6c0,0.4-0.1,0.8-0.2,1.1c-0.1,0.3-0.3,0.6-0.5,0.8c-0.2,0.3-0.5,0.5-0.9,0.9l-2.8,2.5l-0.1-0.4h4.6v1.5H160.2z"/>
	<path class="st2" d="M168.2,117v-9.4h3.9c0.1,0,0.2,0,0.4,0c0.1,0,0.3,0,0.4,0c0.5,0.1,1,0.3,1.3,0.5s0.6,0.6,0.8,1
		c0.2,0.4,0.3,0.9,0.3,1.4c0,0.5-0.1,1-0.3,1.4s-0.4,0.8-0.8,1c-0.4,0.3-0.8,0.5-1.3,0.5c-0.1,0-0.3,0-0.4,0c-0.1,0-0.3,0-0.3,0
		h-2.3v3.3H168.2z M169.8,112.2h2.2c0.1,0,0.2,0,0.3,0c0.1,0,0.2,0,0.3-0.1c0.3-0.1,0.5-0.2,0.6-0.3c0.1-0.2,0.3-0.4,0.3-0.6
		c0.1-0.2,0.1-0.4,0.1-0.6s0-0.4-0.1-0.6c-0.1-0.2-0.2-0.4-0.3-0.6c-0.1-0.2-0.4-0.3-0.6-0.3c-0.1,0-0.2,0-0.3,0c-0.1,0-0.2,0-0.3,0
		h-2.2V112.2z"/>
</g>
<g>
	<path class="st2" d="M267.4,117.3c-0.7,0-1.3-0.1-1.8-0.4c-0.5-0.2-1-0.6-1.4-1c-0.4-0.4-0.6-1-0.7-1.6l1.6-0.2
		c0.1,0.6,0.4,1,0.9,1.3c0.4,0.3,0.9,0.5,1.5,0.5c0.3,0,0.6-0.1,0.9-0.2s0.5-0.3,0.7-0.5c0.2-0.2,0.3-0.4,0.3-0.7
		c0-0.1,0-0.2-0.1-0.4c0-0.1-0.1-0.2-0.2-0.3c-0.1-0.1-0.2-0.2-0.3-0.2c-0.1-0.1-0.3-0.1-0.5-0.2l-2.4-0.7c-0.2-0.1-0.4-0.1-0.7-0.2
		c-0.2-0.1-0.5-0.2-0.7-0.4c-0.2-0.2-0.4-0.4-0.5-0.7c-0.1-0.3-0.2-0.6-0.2-1c0-0.6,0.2-1.1,0.5-1.5s0.7-0.7,1.2-0.9
		c0.5-0.2,1.1-0.3,1.7-0.3c0.6,0,1.2,0.1,1.7,0.3c0.5,0.2,0.9,0.5,1.3,0.9c0.3,0.4,0.6,0.9,0.7,1.5l-1.7,0.3
		c-0.1-0.3-0.2-0.6-0.4-0.8c-0.2-0.2-0.4-0.4-0.7-0.5c-0.3-0.1-0.6-0.2-0.9-0.2c-0.3,0-0.6,0-0.9,0.1c-0.3,0.1-0.5,0.2-0.6,0.4
		c-0.2,0.2-0.2,0.4-0.2,0.6c0,0.2,0.1,0.4,0.2,0.6c0.1,0.1,0.3,0.3,0.5,0.3s0.4,0.2,0.6,0.2l1.7,0.5c0.2,0.1,0.5,0.1,0.8,0.2
		s0.6,0.2,0.8,0.4c0.3,0.2,0.5,0.4,0.7,0.7s0.3,0.7,0.3,1.2c0,0.5-0.1,0.9-0.3,1.3c-0.2,0.4-0.5,0.7-0.8,0.9
		c-0.3,0.2-0.7,0.4-1.2,0.5C268.3,117.3,267.9,117.3,267.4,117.3z"/>
	<path class="st2" d="M275.6,117.3c-0.7,0-1.3-0.2-1.9-0.5s-1-0.7-1.3-1.3c-0.3-0.5-0.5-1.2-0.5-1.9c0-0.8,0.1-1.4,0.4-2
		c0.3-0.6,0.7-1,1.2-1.3s1.1-0.5,1.8-0.5c0.7,0,1.3,0.2,1.9,0.5c0.5,0.3,0.9,0.8,1.1,1.4s0.3,1.4,0.3,2.2h-1.6v-0.6
		c0-0.8-0.1-1.3-0.4-1.7c-0.3-0.4-0.7-0.5-1.2-0.5c-0.6,0-1.1,0.2-1.4,0.6c-0.3,0.4-0.5,1-0.5,1.7c0,0.7,0.2,1.3,0.5,1.7
		c0.3,0.4,0.8,0.6,1.4,0.6c0.4,0,0.7-0.1,1-0.3c0.3-0.2,0.5-0.4,0.6-0.7l1.5,0.5c-0.3,0.6-0.7,1.1-1.2,1.5
		C276.9,117.1,276.3,117.3,275.6,117.3z M273.2,114.1v-1.2h4.8v1.2H273.2z"/>
	<path class="st2" d="M280.4,117.1v-9.6h1.6v9.6H280.4z"/>
	<path class="st2" d="M284.1,117.1v-9.6h1.6v9.6H284.1z"/>
	<path class="st2" d="M290.2,117.1v-9.4h3.9c0.1,0,0.2,0,0.4,0c0.1,0,0.3,0,0.4,0c0.5,0.1,1,0.3,1.3,0.5c0.4,0.3,0.6,0.6,0.8,1
		s0.3,0.9,0.3,1.4c0,0.5-0.1,1-0.3,1.4c-0.2,0.4-0.4,0.8-0.8,1s-0.8,0.5-1.3,0.5c-0.1,0-0.3,0-0.4,0c-0.1,0-0.3,0-0.3,0h-2.3v3.3
		H290.2z M291.7,112.4h2.2c0.1,0,0.2,0,0.3,0c0.1,0,0.2,0,0.3-0.1c0.3-0.1,0.5-0.2,0.6-0.3c0.1-0.2,0.3-0.4,0.3-0.6s0.1-0.4,0.1-0.6
		s0-0.4-0.1-0.6c-0.1-0.2-0.2-0.4-0.3-0.6c-0.1-0.2-0.4-0.3-0.6-0.3c-0.1,0-0.2,0-0.3,0c-0.1,0-0.2,0-0.3,0h-2.2V112.4z"/>
	<path class="st2" d="M298.2,117.1v-1.4l4-3.6c0.3-0.3,0.5-0.5,0.7-0.8s0.2-0.5,0.2-0.7c0-0.3-0.1-0.6-0.2-0.8s-0.3-0.4-0.6-0.6
		c-0.2-0.1-0.5-0.2-0.8-0.2c-0.3,0-0.6,0.1-0.9,0.2c-0.2,0.1-0.4,0.3-0.6,0.6c-0.1,0.2-0.2,0.5-0.2,0.8h-1.6c0-0.6,0.1-1.2,0.4-1.6
		c0.3-0.5,0.7-0.8,1.2-1.1c0.5-0.3,1.1-0.4,1.7-0.4c0.6,0,1.1,0.1,1.6,0.4c0.5,0.3,0.9,0.6,1.1,1.1c0.3,0.5,0.4,1,0.4,1.6
		c0,0.4-0.1,0.8-0.2,1.1c-0.1,0.3-0.3,0.6-0.5,0.8c-0.2,0.3-0.5,0.5-0.9,0.9l-2.8,2.5l-0.1-0.4h4.6v1.5H298.2z"/>
	<path class="st2" d="M306.2,117.1v-9.4h3.9c0.1,0,0.2,0,0.4,0c0.1,0,0.3,0,0.4,0c0.5,0.1,1,0.3,1.3,0.5c0.4,0.3,0.6,0.6,0.8,1
		s0.3,0.9,0.3,1.4c0,0.5-0.1,1-0.3,1.4c-0.2,0.4-0.4,0.8-0.8,1s-0.8,0.5-1.3,0.5c-0.1,0-0.3,0-0.4,0c-0.1,0-0.3,0-0.3,0h-2.3v3.3
		H306.2z M307.8,112.4h2.2c0.1,0,0.2,0,0.3,0c0.1,0,0.2,0,0.3-0.1c0.3-0.1,0.5-0.2,0.6-0.3c0.1-0.2,0.3-0.4,0.3-0.6s0.1-0.4,0.1-0.6
		s0-0.4-0.1-0.6c-0.1-0.2-0.2-0.4-0.3-0.6c-0.1-0.2-0.4-0.3-0.6-0.3c-0.1,0-0.2,0-0.3,0c-0.1,0-0.2,0-0.3,0h-2.2V112.4z"/>
</g>
<g>
	<path class="st2" d="M277.6,145.9c-0.6,0-1.1-0.1-1.5-0.3c-0.4-0.2-0.8-0.5-1-0.9c-0.2-0.4-0.4-0.9-0.4-1.4c0-0.5,0.1-1,0.3-1.4
		c0.2-0.4,0.6-0.7,1-1l0,0.4c-0.4-0.2-0.7-0.5-0.8-0.9c-0.2-0.3-0.3-0.7-0.3-1.1c0-0.5,0.1-0.9,0.3-1.3c0.2-0.4,0.5-0.6,0.9-0.8
		c0.4-0.2,0.9-0.3,1.4-0.3c0.5,0,1,0.1,1.4,0.3c0.4,0.2,0.7,0.5,0.9,0.8c0.2,0.4,0.3,0.8,0.3,1.3c0,0.4-0.1,0.8-0.3,1.1
		c-0.2,0.3-0.5,0.6-0.9,0.9l0-0.4c0.5,0.2,0.8,0.5,1,1c0.2,0.4,0.4,0.9,0.4,1.4c0,0.5-0.1,1-0.4,1.4c-0.2,0.4-0.6,0.7-1,0.9
		C278.6,145.8,278.1,145.9,277.6,145.9z M277.6,144.7c0.5,0,0.8-0.1,1.1-0.4s0.4-0.6,0.4-1.1c0-0.5-0.1-0.9-0.4-1.1
		c-0.3-0.3-0.7-0.4-1.1-0.4c-0.5,0-0.8,0.1-1.1,0.4c-0.3,0.3-0.4,0.6-0.4,1.1c0,0.5,0.1,0.9,0.4,1.1
		C276.7,144.6,277.1,144.7,277.6,144.7z M277.6,140.5c0.4,0,0.7-0.1,1-0.3c0.2-0.2,0.4-0.5,0.4-0.9c0-0.4-0.1-0.7-0.4-0.9
		c-0.2-0.2-0.6-0.3-1-0.3c-0.4,0-0.7,0.1-1,0.3c-0.2,0.2-0.4,0.5-0.4,0.9c0,0.4,0.1,0.7,0.4,0.9
		C276.8,140.4,277.2,140.5,277.6,140.5z"/>
	<path class="st2" d="M285,145.9c-0.6,0-1.1-0.1-1.6-0.4s-0.8-0.6-1.1-1.1c-0.3-0.5-0.4-1-0.4-1.6v-3c0-0.6,0.1-1.1,0.4-1.6
		c0.3-0.5,0.6-0.8,1.1-1.1c0.5-0.3,1-0.4,1.6-0.4c0.6,0,1.1,0.1,1.6,0.4c0.5,0.3,0.8,0.6,1.1,1.1c0.3,0.5,0.4,1,0.4,1.6v3
		c0,0.6-0.1,1.1-0.4,1.6c-0.3,0.5-0.6,0.8-1.1,1.1S285.6,145.9,285,145.9z M285,144.7c0.3,0,0.6-0.1,0.9-0.2
		c0.3-0.2,0.5-0.4,0.6-0.6c0.2-0.3,0.2-0.6,0.2-0.9v-3.1c0-0.3-0.1-0.6-0.2-0.9c-0.2-0.3-0.4-0.5-0.6-0.6c-0.3-0.2-0.6-0.2-0.9-0.2
		c-0.3,0-0.6,0.1-0.9,0.2c-0.3,0.2-0.5,0.4-0.6,0.6c-0.2,0.3-0.2,0.6-0.2,0.9v3.1c0,0.3,0.1,0.6,0.2,0.9c0.2,0.3,0.4,0.5,0.6,0.6
		C284.4,144.6,284.7,144.7,285,144.7z"/>
	<path class="st2" d="M292.7,145.9c-0.6,0-1.1-0.1-1.6-0.4s-0.8-0.6-1.1-1.1c-0.3-0.5-0.4-1-0.4-1.6v-3c0-0.6,0.1-1.1,0.4-1.6
		c0.3-0.5,0.6-0.8,1.1-1.1c0.5-0.3,1-0.4,1.6-0.4c0.6,0,1.1,0.1,1.6,0.4c0.5,0.3,0.8,0.6,1.1,1.1c0.3,0.5,0.4,1,0.4,1.6v3
		c0,0.6-0.1,1.1-0.4,1.6c-0.3,0.5-0.6,0.8-1.1,1.1S293.3,145.9,292.7,145.9z M292.7,144.7c0.3,0,0.6-0.1,0.9-0.2
		c0.3-0.2,0.5-0.4,0.6-0.6c0.2-0.3,0.2-0.6,0.2-0.9v-3.1c0-0.3-0.1-0.6-0.2-0.9c-0.2-0.3-0.4-0.5-0.6-0.6c-0.3-0.2-0.6-0.2-0.9-0.2
		c-0.3,0-0.6,0.1-0.9,0.2c-0.3,0.2-0.5,0.4-0.6,0.6c-0.2,0.3-0.2,0.6-0.2,0.9v3.1c0,0.3,0.1,0.6,0.2,0.9c0.2,0.3,0.4,0.5,0.6,0.6
		C292.1,144.6,292.4,144.7,292.7,144.7z"/>
	<path class="st2" d="M300.4,145.9c-0.6,0-1.1-0.1-1.6-0.4s-0.8-0.6-1.1-1.1c-0.3-0.5-0.4-1-0.4-1.6v-3c0-0.6,0.1-1.1,0.4-1.6
		c0.3-0.5,0.6-0.8,1.1-1.1c0.5-0.3,1-0.4,1.6-0.4c0.6,0,1.1,0.1,1.6,0.4c0.5,0.3,0.8,0.6,1.1,1.1c0.3,0.5,0.4,1,0.4,1.6v3
		c0,0.6-0.1,1.1-0.4,1.6c-0.3,0.5-0.6,0.8-1.1,1.1S301,145.9,300.4,145.9z M300.4,144.7c0.3,0,0.6-0.1,0.9-0.2
		c0.3-0.2,0.5-0.4,0.6-0.6c0.2-0.3,0.2-0.6,0.2-0.9v-3.1c0-0.3-0.1-0.6-0.2-0.9c-0.2-0.3-0.4-0.5-0.6-0.6c-0.3-0.2-0.6-0.2-0.9-0.2
		c-0.3,0-0.6,0.1-0.9,0.2c-0.3,0.2-0.5,0.4-0.6,0.6c-0.2,0.3-0.2,0.6-0.2,0.9v3.1c0,0.3,0.1,0.6,0.2,0.9c0.2,0.3,0.4,0.5,0.6,0.6
		C299.8,144.6,300.1,144.7,300.4,144.7z"/>
	<path class="st2" d="M308.1,145.9c-0.6,0-1.1-0.1-1.6-0.4s-0.8-0.6-1.1-1.1c-0.3-0.5-0.4-1-0.4-1.6v-3c0-0.6,0.1-1.1,0.4-1.6
		c0.3-0.5,0.6-0.8,1.1-1.1c0.5-0.3,1-0.4,1.6-0.4c0.6,0,1.1,0.1,1.6,0.4c0.5,0.3,0.8,0.6,1.1,1.1c0.3,0.5,0.4,1,0.4,1.6v3
		c0,0.6-0.1,1.1-0.4,1.6c-0.3,0.5-0.6,0.8-1.1,1.1S308.7,145.9,308.1,145.9z M308.1,144.7c0.3,0,0.6-0.1,0.9-0.2
		c0.3-0.2,0.5-0.4,0.6-0.6c0.2-0.3,0.2-0.6,0.2-0.9v-3.1c0-0.3-0.1-0.6-0.2-0.9c-0.2-0.3-0.4-0.5-0.6-0.6c-0.3-0.2-0.6-0.2-0.9-0.2
		c-0.3,0-0.6,0.1-0.9,0.2c-0.3,0.2-0.5,0.4-0.6,0.6c-0.2,0.3-0.2,0.6-0.2,0.9v3.1c0,0.3,0.1,0.6,0.2,0.9c0.2,0.3,0.4,0.5,0.6,0.6
		C307.5,144.6,307.8,144.7,308.1,144.7z"/>
	<path class="st2" d="M317.4,145.7v-7.5h-2.9v-1.2h7v1.2h-2.9v7.5H317.4z"/>
	<path class="st2" d="M322.5,145.7v-8.6h3.5c0.1,0,0.2,0,0.3,0c0.1,0,0.2,0,0.4,0c0.5,0.1,0.9,0.2,1.2,0.5c0.3,0.3,0.6,0.6,0.7,1
		s0.2,0.8,0.2,1.3c0,0.7-0.2,1.3-0.5,1.8c-0.4,0.5-0.9,0.8-1.6,0.9l-0.5,0.1h-2.4v3.1H322.5z M323.7,141.4h2.2c0.1,0,0.2,0,0.3,0
		c0.1,0,0.2,0,0.3,0c0.3-0.1,0.5-0.2,0.6-0.3c0.2-0.2,0.3-0.3,0.3-0.6c0.1-0.2,0.1-0.4,0.1-0.6s0-0.4-0.1-0.6
		c-0.1-0.2-0.2-0.4-0.3-0.6c-0.2-0.2-0.4-0.3-0.6-0.3c-0.1,0-0.2,0-0.3,0c-0.1,0-0.2,0-0.3,0h-2.2V141.4z M327.5,145.7l-1.7-3.5
		l1.3-0.3l1.9,3.8H327.5z"/>
	<path class="st2" d="M329.6,145.7l2.9-4.4l-2.9-4.3h1.5l2.1,3.2l2.1-3.2h1.5l-2.9,4.3l2.9,4.4h-1.5l-2.2-3.3l-2.2,3.3H329.6z"/>
</g>
<g>
	<path class="st2" d="M139.5,145.4c-0.6,0-1.1-0.1-1.5-0.3c-0.4-0.2-0.8-0.5-1-0.9c-0.2-0.4-0.4-0.9-0.4-1.4c0-0.5,0.1-1,0.3-1.4
		c0.2-0.4,0.6-0.7,1-1l0,0.4c-0.4-0.2-0.7-0.5-0.8-0.9c-0.2-0.3-0.3-0.7-0.3-1.1c0-0.5,0.1-0.9,0.3-1.3c0.2-0.4,0.5-0.6,0.9-0.8
		c0.4-0.2,0.9-0.3,1.4-0.3c0.5,0,1,0.1,1.4,0.3c0.4,0.2,0.7,0.5,0.9,0.8c0.2,0.4,0.3,0.8,0.3,1.3c0,0.4-0.1,0.8-0.3,1.1
		c-0.2,0.3-0.5,0.6-0.9,0.9l0-0.4c0.5,0.2,0.8,0.5,1,1c0.2,0.4,0.4,0.9,0.4,1.4c0,0.5-0.1,1-0.4,1.4c-0.2,0.4-0.6,0.7-1,0.9
		C140.5,145.3,140,145.4,139.5,145.4z M139.5,144.2c0.5,0,0.8-0.1,1.1-0.4s0.4-0.6,0.4-1.1c0-0.5-0.1-0.9-0.4-1.1
		c-0.3-0.3-0.7-0.4-1.1-0.4c-0.5,0-0.8,0.1-1.1,0.4c-0.3,0.3-0.4,0.6-0.4,1.1c0,0.5,0.1,0.9,0.4,1.1
		C138.6,144.1,139,144.2,139.5,144.2z M139.5,140c0.4,0,0.7-0.1,1-0.3c0.2-0.2,0.4-0.5,0.4-0.9c0-0.4-0.1-0.7-0.4-0.9
		c-0.2-0.2-0.6-0.3-1-0.3c-0.4,0-0.7,0.1-1,0.3c-0.2,0.2-0.4,0.5-0.4,0.9c0,0.4,0.1,0.7,0.4,0.9C138.7,139.9,139.1,140,139.5,140z"
		/>
	<path class="st2" d="M146.9,145.4c-0.6,0-1.1-0.1-1.6-0.4s-0.8-0.6-1.1-1.1c-0.3-0.5-0.4-1-0.4-1.6v-3c0-0.6,0.1-1.1,0.4-1.6
		c0.3-0.5,0.6-0.8,1.1-1.1c0.5-0.3,1-0.4,1.6-0.4c0.6,0,1.1,0.1,1.6,0.4c0.5,0.3,0.8,0.6,1.1,1.1c0.3,0.5,0.4,1,0.4,1.6v3
		c0,0.6-0.1,1.1-0.4,1.6c-0.3,0.5-0.6,0.8-1.1,1.1S147.5,145.4,146.9,145.4z M146.9,144.2c0.3,0,0.6-0.1,0.9-0.2
		c0.3-0.2,0.5-0.4,0.6-0.6c0.2-0.3,0.2-0.6,0.2-0.9v-3.1c0-0.3-0.1-0.6-0.2-0.9c-0.2-0.3-0.4-0.5-0.6-0.6c-0.3-0.2-0.6-0.2-0.9-0.2
		c-0.3,0-0.6,0.1-0.9,0.2c-0.3,0.2-0.5,0.4-0.6,0.6c-0.2,0.3-0.2,0.6-0.2,0.9v3.1c0,0.3,0.1,0.6,0.2,0.9c0.2,0.3,0.4,0.5,0.6,0.6
		C146.3,144.2,146.6,144.2,146.9,144.2z"/>
	<path class="st2" d="M154.6,145.4c-0.6,0-1.1-0.1-1.6-0.4s-0.8-0.6-1.1-1.1c-0.3-0.5-0.4-1-0.4-1.6v-3c0-0.6,0.1-1.1,0.4-1.6
		c0.3-0.5,0.6-0.8,1.1-1.1c0.5-0.3,1-0.4,1.6-0.4c0.6,0,1.1,0.1,1.6,0.4c0.5,0.3,0.8,0.6,1.1,1.1c0.3,0.5,0.4,1,0.4,1.6v3
		c0,0.6-0.1,1.1-0.4,1.6c-0.3,0.5-0.6,0.8-1.1,1.1S155.2,145.4,154.6,145.4z M154.6,144.2c0.3,0,0.6-0.1,0.9-0.2
		c0.3-0.2,0.5-0.4,0.6-0.6c0.2-0.3,0.2-0.6,0.2-0.9v-3.1c0-0.3-0.1-0.6-0.2-0.9c-0.2-0.3-0.4-0.5-0.6-0.6c-0.3-0.2-0.6-0.2-0.9-0.2
		c-0.3,0-0.6,0.1-0.9,0.2c-0.3,0.2-0.5,0.4-0.6,0.6c-0.2,0.3-0.2,0.6-0.2,0.9v3.1c0,0.3,0.1,0.6,0.2,0.9c0.2,0.3,0.4,0.5,0.6,0.6
		C154,144.2,154.3,144.2,154.6,144.2z"/>
	<path class="st2" d="M162.3,145.4c-0.6,0-1.1-0.1-1.6-0.4s-0.8-0.6-1.1-1.1c-0.3-0.5-0.4-1-0.4-1.6v-3c0-0.6,0.1-1.1,0.4-1.6
		c0.3-0.5,0.6-0.8,1.1-1.1c0.5-0.3,1-0.4,1.6-0.4c0.6,0,1.1,0.1,1.6,0.4c0.5,0.3,0.8,0.6,1.1,1.1c0.3,0.5,0.4,1,0.4,1.6v3
		c0,0.6-0.1,1.1-0.4,1.6c-0.3,0.5-0.6,0.8-1.1,1.1S162.9,145.4,162.3,145.4z M162.3,144.2c0.3,0,0.6-0.1,0.9-0.2
		c0.3-0.2,0.5-0.4,0.6-0.6c0.2-0.3,0.2-0.6,0.2-0.9v-3.1c0-0.3-0.1-0.6-0.2-0.9c-0.2-0.3-0.4-0.5-0.6-0.6c-0.3-0.2-0.6-0.2-0.9-0.2
		c-0.3,0-0.6,0.1-0.9,0.2c-0.3,0.2-0.5,0.4-0.6,0.6c-0.2,0.3-0.2,0.6-0.2,0.9v3.1c0,0.3,0.1,0.6,0.2,0.9c0.2,0.3,0.4,0.5,0.6,0.6
		C161.7,144.2,162,144.2,162.3,144.2z"/>
	<path class="st2" d="M170,145.4c-0.6,0-1.1-0.1-1.6-0.4s-0.8-0.6-1.1-1.1c-0.3-0.5-0.4-1-0.4-1.6v-3c0-0.6,0.1-1.1,0.4-1.6
		c0.3-0.5,0.6-0.8,1.1-1.1c0.5-0.3,1-0.4,1.6-0.4c0.6,0,1.1,0.1,1.6,0.4c0.5,0.3,0.8,0.6,1.1,1.1c0.3,0.5,0.4,1,0.4,1.6v3
		c0,0.6-0.1,1.1-0.4,1.6c-0.3,0.5-0.6,0.8-1.1,1.1S170.6,145.4,170,145.4z M170,144.2c0.3,0,0.6-0.1,0.9-0.2
		c0.3-0.2,0.5-0.4,0.6-0.6c0.2-0.3,0.2-0.6,0.2-0.9v-3.1c0-0.3-0.1-0.6-0.2-0.9c-0.2-0.3-0.4-0.5-0.6-0.6c-0.3-0.2-0.6-0.2-0.9-0.2
		c-0.3,0-0.6,0.1-0.9,0.2c-0.3,0.2-0.5,0.4-0.6,0.6c-0.2,0.3-0.2,0.6-0.2,0.9v3.1c0,0.3,0.1,0.6,0.2,0.9c0.2,0.3,0.4,0.5,0.6,0.6
		C169.4,144.2,169.7,144.2,170,144.2z"/>
	<path class="st2" d="M179.3,145.3v-7.5h-2.9v-1.2h7v1.2h-2.9v7.5H179.3z"/>
	<path class="st2" d="M184.4,145.3v-8.6h3.5c0.1,0,0.2,0,0.3,0c0.1,0,0.2,0,0.4,0c0.5,0.1,0.9,0.2,1.2,0.5c0.3,0.3,0.6,0.6,0.7,1
		s0.2,0.8,0.2,1.3c0,0.7-0.2,1.3-0.5,1.8c-0.4,0.5-0.9,0.8-1.6,0.9l-0.5,0.1h-2.4v3.1H184.4z M185.6,141h2.2c0.1,0,0.2,0,0.3,0
		c0.1,0,0.2,0,0.3,0c0.3-0.1,0.5-0.2,0.6-0.3c0.2-0.2,0.3-0.3,0.3-0.6c0.1-0.2,0.1-0.4,0.1-0.6s0-0.4-0.1-0.6
		c-0.1-0.2-0.2-0.4-0.3-0.6c-0.2-0.2-0.4-0.3-0.6-0.3c-0.1,0-0.2,0-0.3,0c-0.1,0-0.2,0-0.3,0h-2.2V141z M189.4,145.3l-1.7-3.5
		l1.3-0.3l1.9,3.8H189.4z"/>
	<path class="st2" d="M191.4,145.3l2.9-4.4l-2.9-4.3h1.5l2.1,3.2l2.1-3.2h1.5l-2.9,4.3l2.9,4.4h-1.5l-2.2-3.3l-2.2,3.3H191.4z"/>
</g>
</svg>
