<?xml version="1.0" encoding="utf-8"?>
<!-- Generator: Adobe Illustrator 25.4.1, SVG Export Plug-In . SVG Version: 6.00 Build 0)  -->
<svg version="1.1" id="Слой_1" xmlns="http://www.w3.org/2000/svg" xmlns:xlink="http://www.w3.org/1999/xlink" x="0px" y="0px"
	 viewBox="0 0 461 431" style="enable-background:new 0 0 461 431;" xml:space="preserve">
<style type="text/css">
	.st0{fill:#FFFFFF;}
	.st1{fill:none;stroke:#EBEFF6;}
	.st2{fill:#67699D;}
	.st3{fill:#F0B90B;}
	.st4{fill:#F6F8FC;}
	.st5{fill-rule:evenodd;clip-rule:evenodd;fill:#009393;}
	.st6{clip-path:url(#SVGID_00000020388944243498938840000008938256272704728448_);}
	.st7{fill:#9197B3;}
	.st8{clip-path:url(#SVGID_00000150080867364157803250000005533584031079221125_);}
	.st9{clip-path:url(#SVGID_00000144298949668399898800000006573568568940308899_);}
	.st10{fill:#07E6A3;}
	.st11{fill:#988430;}
	.st12{fill:#BA9F33;}
	.st13{fill:#806638;}
	.st14{fill-rule:evenodd;clip-rule:evenodd;fill:#D8C47C;}
	.st15{fill-rule:evenodd;clip-rule:evenodd;fill:#E6DB9D;}
	.st16{fill-rule:evenodd;clip-rule:evenodd;fill:#CAAE5B;}
	.st17{fill:#CAAE5B;}
	.st18{fill-rule:evenodd;clip-rule:evenodd;fill:#B79947;}
	.st19{fill-rule:evenodd;clip-rule:evenodd;fill:#987938;}
	.st20{fill-rule:evenodd;clip-rule:evenodd;fill:#A88F33;}
	.st21{fill-rule:evenodd;clip-rule:evenodd;fill:#A67A2E;}
	.st22{fill-rule:evenodd;clip-rule:evenodd;fill:#806638;}
	.st23{fill-rule:evenodd;clip-rule:evenodd;fill:#483925;}
	.st24{fill-rule:evenodd;clip-rule:evenodd;fill:#62593C;}
	.st25{fill-rule:evenodd;clip-rule:evenodd;fill:#222014;}
	.st26{fill-rule:evenodd;clip-rule:evenodd;fill:#9F8E57;}
	.st27{fill-rule:evenodd;clip-rule:evenodd;fill:#FFFFFF;}
	.st28{fill:#222014;}
	.st29{fill:#B79947;}
	.st30{fill:#62593C;}
	.st31{fill-rule:evenodd;clip-rule:evenodd;fill:#7A6A2A;}
	.st32{opacity:0.8;fill-rule:evenodd;clip-rule:evenodd;fill:#FFFFFF;enable-background:new    ;}
	.st33{fill:#F3BA2F;}
	.st34{fill:#7E7E7E;}
</style>
<g>
	<path class="st0" d="M116,88h229c8.8,0,16,7.2,16,16v198.3c0,8.8-7.2,16-16,16H116c-8.8,0-16-7.2-16-16V104
		C100,95.2,107.2,88,116,88z"/>
</g>
<g>
	<path class="st0" d="M221,101h24c8.8,0,16,7.2,16,16v24c0,8.8-7.2,16-16,16h-24c-8.8,0-16-7.2-16-16v-24
		C205,108.2,212.2,101,221,101z"/>
	<path class="st1" d="M221,101h24c8.8,0,16,7.2,16,16v24c0,8.8-7.2,16-16,16h-24c-8.8,0-16-7.2-16-16v-24
		C205,108.2,212.2,101,221,101z"/>
</g>
<g>
	<path class="st2" d="M143,245h175c8.8,0,16,7.2,16,16v24c0,8.8-7.2,16-16,16H143c-8.8,0-16-7.2-16-16v-24
		C127,252.2,134.2,245,143,245z"/>
	<path class="st1" d="M143,245h175c8.8,0,16,7.2,16,16v24c0,8.8-7.2,16-16,16H143c-8.8,0-16-7.2-16-16v-24
		C127,252.2,134.2,245,143,245z"/>
</g>
<path class="st0" d="M208.3,266.4V278h-2.1v-9.6h-0.1l-2.7,1.7v-1.9l2.9-1.9L208.3,266.4L208.3,266.4z M215.2,278.2
	c-0.9,0-1.7-0.2-2.4-0.7s-1.2-1.2-1.5-2.1c-0.4-0.9-0.5-2-0.5-3.3s0.2-2.3,0.5-3.2c0.4-0.9,0.9-1.6,1.5-2c0.7-0.5,1.5-0.7,2.4-0.7
	s1.7,0.2,2.4,0.7s1.2,1.2,1.5,2c0.4,0.9,0.5,2,0.5,3.2c0,1.3-0.2,2.4-0.5,3.3c-0.4,0.9-0.9,1.6-1.5,2.1
	C217,278,216.2,278.2,215.2,278.2z M215.2,276.4c0.7,0,1.3-0.4,1.7-1.1s0.6-1.8,0.6-3.2c0-0.9-0.1-1.7-0.3-2.3
	c-0.2-0.6-0.5-1.1-0.8-1.4c-0.4-0.3-0.8-0.5-1.2-0.5c-0.7,0-1.3,0.4-1.7,1.1s-0.6,1.8-0.6,3.2c0,0.9,0.1,1.7,0.3,2.3
	c0.2,0.6,0.5,1.1,0.8,1.4C214.3,276.3,214.8,276.4,215.2,276.4z M221.1,275.8v-1.7l4.9-7.8h1.4v2.4h-0.9l-3.3,5.3v0.1h6.9v1.7H221.1
	z M226.6,278v-2.7v-0.8v-8.2h2V278H226.6z M231.6,278v-1.5l4-4c0.4-0.4,0.7-0.7,1-1s0.5-0.6,0.6-0.9s0.2-0.6,0.2-0.9
	c0-0.4-0.1-0.7-0.2-0.9c-0.2-0.3-0.4-0.5-0.7-0.6s-0.6-0.2-1-0.2s-0.7,0.1-1,0.2c-0.3,0.2-0.5,0.4-0.7,0.7c-0.2,0.3-0.2,0.6-0.2,1
	h-2c0-0.7,0.2-1.4,0.5-1.9s0.8-1,1.4-1.3c0.6-0.3,1.3-0.4,2-0.4c0.8,0,1.5,0.1,2.1,0.4s1.1,0.7,1.4,1.2c0.3,0.5,0.5,1.1,0.5,1.7
	c0,0.4-0.1,0.9-0.2,1.3c-0.2,0.4-0.5,0.9-0.9,1.4s-1,1.1-1.8,1.9l-2,2v0.1h5.1v1.8h-8.1V278z M245.3,278.2c-0.8,0-1.4-0.1-2-0.4
	s-1.1-0.7-1.4-1.2c-0.3-0.5-0.5-1.1-0.6-1.7h2c0,0.5,0.2,0.9,0.6,1.2c0.4,0.3,0.8,0.4,1.4,0.4c0.4,0,0.8-0.1,1.1-0.3
	c0.3-0.2,0.6-0.5,0.8-0.8s0.3-0.7,0.3-1.2c0-0.4-0.1-0.8-0.3-1.2c-0.2-0.3-0.4-0.6-0.8-0.8c-0.3-0.2-0.7-0.3-1.1-0.3
	c-0.3,0-0.7,0.1-1,0.2s-0.6,0.3-0.8,0.5l-1.9-0.3l0.6-6h6.8v1.8h-5l-0.3,3.1h0.1c0.2-0.3,0.5-0.5,0.9-0.6c0.4-0.2,0.8-0.3,1.3-0.3
	c0.7,0,1.3,0.2,1.9,0.5c0.6,0.3,1,0.8,1.3,1.4s0.5,1.2,0.5,2s-0.2,1.5-0.5,2.1c-0.4,0.6-0.8,1.1-1.5,1.4
	C246.8,278,246.1,278.2,245.3,278.2z M262.1,266.4h2.1v7.6c0,0.8-0.2,1.6-0.6,2.2s-0.9,1.1-1.6,1.5s-1.5,0.5-2.5,0.5
	s-1.8-0.2-2.5-0.5c-0.7-0.4-1.3-0.9-1.6-1.5c-0.4-0.6-0.6-1.4-0.6-2.2v-7.6h2.1v7.4c0,0.5,0.1,0.9,0.3,1.3c0.2,0.4,0.5,0.7,0.9,0.9
	c0.4,0.2,0.9,0.3,1.4,0.3s1-0.1,1.4-0.3c0.4-0.2,0.7-0.5,0.9-0.9c0.2-0.4,0.3-0.8,0.3-1.3L262.1,266.4L262.1,266.4z M272.5,269.6
	c-0.1-0.5-0.3-0.9-0.7-1.2c-0.4-0.3-0.9-0.4-1.5-0.4c-0.4,0-0.8,0.1-1.1,0.2c-0.3,0.1-0.6,0.3-0.7,0.5c-0.2,0.2-0.3,0.5-0.3,0.8
	c0,0.2,0.1,0.5,0.2,0.6c0.1,0.2,0.3,0.3,0.5,0.5c0.2,0.1,0.4,0.2,0.6,0.3c0.2,0.1,0.5,0.2,0.7,0.2l1.1,0.3c0.4,0.1,0.9,0.2,1.3,0.4
	c0.4,0.2,0.8,0.4,1.1,0.7c0.3,0.3,0.6,0.6,0.8,1c0.2,0.4,0.3,0.8,0.3,1.3c0,0.7-0.2,1.3-0.5,1.8s-0.9,0.9-1.5,1.2
	c-0.7,0.3-1.4,0.4-2.4,0.4c-0.9,0-1.7-0.1-2.4-0.4c-0.7-0.3-1.2-0.7-1.6-1.2s-0.6-1.2-0.6-2h2.1c0,0.4,0.2,0.7,0.4,1
	c0.2,0.3,0.5,0.5,0.9,0.6s0.8,0.2,1.2,0.2c0.5,0,0.9-0.1,1.2-0.2c0.3-0.1,0.6-0.3,0.8-0.6c0.2-0.2,0.3-0.5,0.3-0.9
	c0-0.3-0.1-0.6-0.3-0.8c-0.2-0.2-0.4-0.4-0.7-0.5c-0.3-0.1-0.7-0.3-1.1-0.4l-1.3-0.3c-1-0.2-1.7-0.6-2.3-1.1c-0.6-0.5-0.8-1.2-0.8-2
	c0-0.7,0.2-1.3,0.6-1.8s0.9-0.9,1.5-1.2c0.6-0.3,1.4-0.4,2.2-0.4c0.8,0,1.5,0.1,2.2,0.4c0.6,0.3,1.1,0.7,1.5,1.2s0.5,1.1,0.6,1.7
	L272.5,269.6L272.5,269.6z M280.2,278h-3.9v-11.6h4c1.2,0,2.1,0.2,3,0.7c0.8,0.5,1.5,1.1,1.9,2s0.7,1.9,0.7,3.1s-0.2,2.3-0.7,3.1
	c-0.4,0.9-1.1,1.5-1.9,2C282.4,277.8,281.4,278,280.2,278z M278.4,276.2h1.7c0.8,0,1.5-0.1,2-0.4s0.9-0.7,1.2-1.3
	c0.3-0.6,0.4-1.3,0.4-2.2c0-0.9-0.1-1.6-0.4-2.2s-0.7-1-1.2-1.3s-1.2-0.4-2-0.4h-1.8L278.4,276.2L278.4,276.2z M286.5,268.1v-1.8
	h9.3v1.8h-3.6v9.9h-2.1v-9.9H286.5z"/>
<g>
	<path class="st0" d="M297,155h24c8.8,0,16,7.2,16,16v24c0,8.8-7.2,16-16,16h-24c-8.8,0-16-7.2-16-16v-24
		C281,162.2,288.2,155,297,155z"/>
	<path class="st1" d="M297,155h24c8.8,0,16,7.2,16,16v24c0,8.8-7.2,16-16,16h-24c-8.8,0-16-7.2-16-16v-24
		C281,162.2,288.2,155,297,155z"/>
</g>
<g>
	<path class="st0" d="M143,155h24c8.8,0,16,7.2,16,16v24c0,8.8-7.2,16-16,16h-24c-8.8,0-16-7.2-16-16v-24
		C127,162.2,134.2,155,143,155z"/>
	<path class="st1" d="M143,155h24c8.8,0,16,7.2,16,16v24c0,8.8-7.2,16-16,16h-24c-8.8,0-16-7.2-16-16v-24
		C127,162.2,134.2,155,143,155z"/>
</g>
<path class="st3" d="M326.3,187.3c-2.4,9.5-12,15.3-21.5,13c-9.5-2.4-15.3-12-12.9-21.5s12-15.3,21.5-13
	C322.8,168.1,328.6,177.8,326.3,187.3z"/>
<path class="st0" d="M315.8,182.1v-3l0,0l-2.5-1.5l-4.3,2.5l-4.3-2.5l-2.5,1.5v3l4.3,2.5v5.1l2.5,1.5l2.5-1.5v-5.1L315.8,182.1z"/>
<path class="st0" d="M309,170.1l-6.8,4l2.5,1.5l4.3-2.5l4.3,2.5l2.5-1.5L309,170.1z"/>
<path class="st0" d="M300.4,188.2v-5.1l-2.5-1.5v8l6.8,4v-3L300.4,188.2z"/>
<path class="st0" d="M300.4,181.1v-2.9l2.5-1.5l-2.5-1.5l-2.5,1.5v2.9L300.4,181.1z"/>
<path class="st0" d="M309,175.2l-2.5,1.5l2.5,1.5l2.5-1.5L309,175.2z"/>
<path class="st0" d="M304.7,185.7l-2.5-1.5v3l2.5,1.5V185.7z"/>
<path class="st0" d="M309,193.3l-2.5-1.5v2.9l2.5,1.5l2.5-1.5v-2.9L309,193.3z"/>
<path class="st0" d="M317.6,175.2l-2.5,1.5l2.5,1.5v2.9l2.5-1.5v-2.9L317.6,175.2z"/>
<path class="st0" d="M320.1,181.7l-2.5,1.5v5.1l-4.3,2.5v3l6.8-4V181.7z"/>
<path class="st0" d="M315.8,187.2l-2.5,1.5v-2.9l2.5-1.5V187.2z"/>
<path class="st4" d="M174.4,187.8c-2.7,10.7-13.5,17.2-24.2,14.6c-10.7-2.7-17.2-13.5-14.6-24.2c2.7-10.7,13.5-17.2,24.2-14.6
	C170.5,166.2,177.1,177.1,174.4,187.8z"/>
<path class="st5" d="M147.6,174.6h15c0.4,0,0.7,0.2,0.9,0.5l4.4,7.4c0.2,0.4,0.2,0.9-0.2,1.2l-12,11.5c-0.4,0.4-1,0.4-1.4,0
	l-12-11.5c-0.3-0.3-0.4-0.8-0.1-1.2l4.7-7.4C147,174.8,147.3,174.6,147.6,174.6z M160.7,177.9v2.1h-4.3v1.4c3,0.2,5.2,0.8,5.3,1.5
	v1.6c0,0.8-2.3,1.4-5.3,1.5v3.5h-2.8V186c-3-0.2-5.2-0.8-5.3-1.5v-1.6c0-0.8,2.3-1.4,5.3-1.5V180h-4.3v-2.1H160.7z M155,184.9
	c3.2,0,5.9-0.5,6.5-1.2c-0.6-0.6-2.6-1.1-5.1-1.2v1.5c-0.5,0-0.9,0-1.4,0s-1,0-1.4,0v-1.5c-2.5,0.1-4.6,0.6-5.1,1.2
	C149.1,184.4,151.8,184.9,155,184.9z"/>
<g>
	<g>
		<defs>
			<rect id="SVGID_1_" x="287.7" y="116" width="26.8" height="26.8"/>
		</defs>
		<clipPath id="SVGID_00000054946643279698723990000013146573563069535113_">
			<use xlink:href="#SVGID_1_"  style="overflow:visible;"/>
		</clipPath>
		<g style="clip-path:url(#SVGID_00000054946643279698723990000013146573563069535113_);">
			<path class="st7" d="M307.6,139.6c0.1-1.9,0-3.7-0.4-5.5c-2.2-8.3-7.6-13.5-16-15.8c-0.8-0.2-1.6-0.3-2.4-0.4
				c-0.6-0.1-1.1-0.6-1-1c0.1-0.5,0.7-0.9,1.2-0.8c8.8,1.3,15.2,5.9,18.8,14c1.3,2.9,1.8,6,1.7,9.1c0,0.1,0,0.1,0,0.2
				c0.1-0.1,0.2-0.2,0.3-0.2c1-1.1,2-2.2,3-3.2c0.1-0.1,0.1-0.2,0.2-0.2c0.4-0.4,1-0.4,1.3-0.1s0.4,0.9,0,1.3
				c-0.4,0.5-0.8,0.9-1.3,1.4c-1.1,1.3-2.3,2.5-3.4,3.8c-0.2,0.3-0.6,0.5-0.9,0.7c-0.5,0.3-1,0.1-1.4-0.3c-1.6-1.9-3.2-3.8-4.7-5.6
				c-0.4-0.5-0.3-1,0.1-1.3c0.4-0.4,1-0.3,1.4,0.1c1.1,1.2,2.2,2.5,3.2,3.8C307.4,139.3,307.5,139.4,307.6,139.6z"/>
		</g>
	</g>
</g>
<g>
	<g>
		<defs>
			<rect id="SVGID_00000080917772413190983230000005351605766417386401_" x="228" y="206" width="27" height="27"/>
		</defs>
		<clipPath id="SVGID_00000012467721031417076390000007030230035750350743_">
			<use xlink:href="#SVGID_00000080917772413190983230000005351605766417386401_"  style="overflow:visible;"/>
		</clipPath>
		<g style="clip-path:url(#SVGID_00000012467721031417076390000007030230035750350743_);">
			<path class="st7" d="M235,229.7c-0.1-1.9,0-3.8,0.4-5.5c2.2-8.4,7.6-13.6,16.1-15.9c0.8-0.2,1.6-0.3,2.4-0.4c0.6-0.1,1.1-0.6,1-1
				c-0.1-0.5-0.7-0.9-1.2-0.8c-8.9,1.3-15.3,6-18.9,14.1c-1.3,2.9-1.8,6-1.7,9.2c0,0.1,0,0.1,0,0.2c-0.1-0.1-0.2-0.2-0.3-0.2
				c-1-1.1-2-2.2-3-3.3c-0.1-0.1-0.1-0.2-0.2-0.2c-0.4-0.4-1-0.4-1.3-0.1c-0.4,0.3-0.4,0.9,0,1.3c0.4,0.5,0.8,0.9,1.3,1.4
				c1.1,1.3,2.3,2.6,3.4,3.8c0.2,0.3,0.6,0.5,0.9,0.7c0.5,0.3,1.1,0.1,1.4-0.3c1.6-1.9,3.2-3.8,4.8-5.7c0.4-0.5,0.3-1-0.1-1.4
				c-0.4-0.4-1-0.3-1.4,0.1c-1.1,1.3-2.2,2.5-3.3,3.8C235.2,229.5,235.1,229.6,235,229.7z"/>
		</g>
	</g>
</g>
<g>
	<g>
		<defs>
			<rect id="SVGID_00000017505120863374967510000008642192186149601721_" x="153" y="116.7" width="26.8" height="26.8"/>
		</defs>
		<clipPath id="SVGID_00000011748546835452879680000008647476979945647751_">
			<use xlink:href="#SVGID_00000017505120863374967510000008642192186149601721_"  style="overflow:visible;"/>
		</clipPath>
		<g style="clip-path:url(#SVGID_00000011748546835452879680000008647476979945647751_);">
			<path class="st7" d="M176.6,123.7c-1.9-0.1-3.7,0-5.5,0.4c-8.3,2.2-13.5,7.6-15.8,16c-0.2,0.8-0.3,1.6-0.4,2.4
				c-0.1,0.6-0.6,1.1-1,1c-0.5-0.1-0.9-0.7-0.8-1.2c1.3-8.8,5.9-15.2,14-18.8c2.9-1.3,6-1.8,9.1-1.7c0.1,0,0.1,0,0.2,0
				c-0.1-0.1-0.2-0.2-0.2-0.3c-1.1-1-2.2-2-3.2-3c-0.1-0.1-0.2-0.1-0.2-0.2c-0.4-0.4-0.4-1-0.1-1.3c0.3-0.4,0.9-0.4,1.3,0
				c0.5,0.4,0.9,0.8,1.4,1.3c1.3,1.1,2.5,2.3,3.8,3.4c0.3,0.2,0.5,0.6,0.7,0.9c0.3,0.5,0.1,1-0.3,1.4c-1.9,1.6-3.8,3.2-5.6,4.7
				c-0.5,0.4-1,0.3-1.3-0.1c-0.4-0.4-0.3-1,0.1-1.4c1.2-1.1,2.5-2.2,3.8-3.2C176.3,123.9,176.4,123.8,176.6,123.7z"/>
		</g>
	</g>
</g>
<g>
	<path class="st0" d="M151,254h21c4.4,0,8,3.6,8,8v21c0,4.4-3.6,8-8,8h-21c-4.4,0-8-3.6-8-8v-21C143,257.6,146.6,254,151,254z"/>
	<path class="st1" d="M151,254h21c4.4,0,8,3.6,8,8v21c0,4.4-3.6,8-8,8h-21c-4.4,0-8-3.6-8-8v-21C143,257.6,146.6,254,151,254z"/>
</g>
<path class="st4" d="M177.5,276.5c-2.2,8.8-11.1,14.2-19.9,12c-8.8-2.2-14.2-11.1-12-19.9s11.1-14.2,19.9-12
	C174.3,258.7,179.7,267.7,177.5,276.5z"/>
<path class="st5" d="M155.5,265.6h12.3c0.3,0,0.6,0.2,0.7,0.4l3.6,6c0.2,0.3,0.1,0.7-0.1,1l-9.9,9.5c-0.3,0.3-0.8,0.3-1.2,0L151,273
	c-0.3-0.3-0.3-0.7-0.1-1l3.8-6.1C154.9,265.7,155.2,265.6,155.5,265.6z M166.2,268.3v1.7h-3.5v1.2c2.5,0.1,4.3,0.6,4.3,1.3v1.3
	c0,0.6-1.9,1.1-4.3,1.3v2.9h-2.3v-3c-2.5-0.1-4.3-0.6-4.3-1.3v-1.3c0-0.6,1.9-1.1,4.3-1.3V270h-3.5v-1.7H166.2z M161.5,274.1
	c2.6,0,4.8-0.4,5.4-1c-0.5-0.5-2.1-0.9-4.2-1v1.2c-0.4,0-0.8,0-1.2,0s-0.8,0-1.2,0v-1.2c-2.1,0.1-3.7,0.5-4.2,1
	C156.7,273.7,158.9,274.1,161.5,274.1z"/>
<path class="st10" d="M317.5,268.5c0-4.4,3.6-8,8-8h41c4.4,0,8,3.6,8,8v9c0,4.4-3.6,8-8,8h-41c-4.4,0-8-3.6-8-8V268.5z"/>
<path d="M326.9,275.6v-5.9h1.3v5.9H326.9z M324.6,273.3V272h5.9v1.3H324.6z M334.7,275.4v-1.3l3.7-5.9h1v1.8h-0.6l-2.5,4v0.1h5.2
	v1.3H334.7z M338.8,277v-2v-0.6v-6.2h1.5v8.7h-1.5V277z M343.3,277.1c-0.3,0-0.5-0.1-0.7-0.3c-0.2-0.2-0.3-0.4-0.3-0.7
	c0-0.3,0.1-0.5,0.3-0.7c0.2-0.2,0.4-0.3,0.7-0.3c0.2,0,0.5,0.1,0.7,0.3c0.2,0.2,0.3,0.4,0.3,0.7c0,0.2,0,0.3-0.1,0.5
	c-0.1,0.1-0.2,0.3-0.3,0.3C343.6,277.1,343.5,277.1,343.3,277.1z M345.6,277v-1.1l3-3c0.3-0.3,0.5-0.6,0.7-0.8
	c0.2-0.2,0.3-0.4,0.4-0.7c0.1-0.2,0.1-0.4,0.1-0.7c0-0.3-0.1-0.5-0.2-0.7s-0.3-0.4-0.5-0.5s-0.5-0.2-0.7-0.2c-0.3,0-0.5,0.1-0.8,0.2
	c-0.2,0.1-0.4,0.3-0.5,0.5s-0.2,0.5-0.2,0.8h-1.5c0-0.6,0.1-1,0.4-1.4s0.6-0.7,1-1c0.4-0.2,1-0.3,1.5-0.3c0.6,0,1.1,0.1,1.5,0.3
	c0.4,0.2,0.8,0.5,1,0.9s0.4,0.8,0.4,1.3c0,0.3-0.1,0.6-0.2,1c-0.1,0.3-0.3,0.7-0.7,1c-0.3,0.4-0.8,0.8-1.3,1.4l-1.5,1.5v0.1h3.8v1.3
	h-5.7V277z M355.8,277.1c-0.6,0-1.1-0.1-1.5-0.3c-0.4-0.2-0.8-0.5-1.1-0.9c-0.3-0.4-0.4-0.8-0.4-1.3h1.5c0,0.4,0.2,0.7,0.5,0.9
	c0.3,0.2,0.6,0.3,1,0.3c0.3,0,0.6-0.1,0.8-0.2c0.2-0.1,0.4-0.3,0.6-0.6c0.1-0.3,0.2-0.5,0.2-0.9c0-0.3-0.1-0.6-0.2-0.9
	s-0.3-0.5-0.6-0.6c-0.2-0.1-0.5-0.2-0.9-0.2c-0.3,0-0.5,0-0.8,0.1s-0.5,0.2-0.6,0.4l-1.4-0.2l0.5-4.5h5.1v1.3h-3.8l-0.3,2.3h0.1
	c0.2-0.2,0.4-0.3,0.7-0.5c0.3-0.1,0.6-0.2,1-0.2c0.5,0,1,0.1,1.4,0.4c0.4,0.2,0.7,0.6,1,1c0.2,0.4,0.4,0.9,0.4,1.5s-0.1,1.1-0.4,1.5
	s-0.6,0.8-1.1,1.1C357,277,356.5,277.1,355.8,277.1z M364.8,275.4v-0.5c0-0.3,0.1-0.6,0.2-0.9s0.4-0.5,0.6-0.7
	c0.3-0.2,0.6-0.3,1-0.3s0.7,0.1,1,0.3c0.3,0.2,0.5,0.4,0.6,0.7c0.1,0.3,0.2,0.6,0.2,0.9v0.5c0,0.3-0.1,0.6-0.2,0.9s-0.4,0.5-0.6,0.7
	c-0.3,0.2-0.6,0.3-1,0.3s-0.7-0.1-1-0.3c-0.3-0.2-0.5-0.4-0.6-0.7C364.9,276,364.8,275.7,364.8,275.4z M365.9,274.9v0.5
	c0,0.2,0.1,0.4,0.2,0.6s0.3,0.3,0.6,0.3c0.3,0,0.5-0.1,0.6-0.3c0.1-0.2,0.2-0.4,0.2-0.6v-0.5c0-0.2,0-0.4-0.1-0.6s-0.3-0.3-0.6-0.3
	c-0.3,0-0.5,0.1-0.6,0.3C366,274.5,365.9,274.7,365.9,274.9z M360.4,270.4v-0.5c0-0.3,0.1-0.7,0.2-0.9c0.1-0.3,0.4-0.5,0.6-0.7
	c0.3-0.2,0.6-0.3,1-0.3s0.7,0.1,1,0.3c0.3,0.2,0.5,0.4,0.6,0.7c0.1,0.3,0.2,0.6,0.2,0.9v0.5c0,0.3-0.1,0.7-0.2,0.9
	c-0.1,0.3-0.3,0.5-0.6,0.7c-0.3,0.2-0.6,0.3-1,0.3s-0.7-0.1-1-0.3c-0.3-0.2-0.5-0.4-0.6-0.7C360.5,271,360.4,270.7,360.4,270.4z
	 M361.5,269.9v0.5c0,0.2,0.1,0.4,0.2,0.6s0.3,0.3,0.6,0.3c0.3,0,0.5-0.1,0.6-0.3c0.1-0.2,0.2-0.4,0.2-0.6v-0.5c0-0.2,0-0.4-0.1-0.6
	s-0.3-0.3-0.6-0.3c-0.3,0-0.5,0.1-0.6,0.3S361.5,269.7,361.5,269.9z M360.9,277l6-8.7h1.1l-6,8.7H360.9z"/>
<path class="st11" d="M233.3,148c10.3,0,18.7-8.4,18.7-18.7s-8.4-18.7-18.7-18.7s-18.7,8.4-18.7,18.7S223,148,233.3,148z"/>
<path class="st12" d="M233.3,147c9.8,0,17.7-7.9,17.7-17.7s-7.9-17.7-17.7-17.7s-17.7,7.9-17.7,17.7S223.5,147,233.3,147z"/>
<path class="st13" d="M227,114.7c0.1-1,0.3-1,0.3-1s0.1,0,0,0.1s-0.1,0.5-0.1,1.1v0.1c0,0.2,0,0.5,0.1,0.8c0.1,0.4,0.1,1,0.1,1.6
	c-0.1,0.7-0.3,1.1-0.6,1.5l-0.1,0.1c-0.2,0.3-0.3,0.6-0.3,0.6l-0.8,0.5c0,0-0.8,0.1-1.4,0.6c-0.4,0.3-0.8,0.8-1.2,1.4
	c-0.2,0.3-0.4,0.8-0.5,1.1v0.1c-0.2,0.5-0.3,0.8-0.3,1.1c-0.1,0.3-0.1,0.5-0.2,0.8c-0.2,0.4-0.3,0.6-0.3,0.7
	c0.1-0.2,0.7-1.1,0.6-0.9c-0.1,0.2-0.2,0.6-0.4,1c-0.1,0.2-0.2,0.5-0.2,0.7s0,0.3-0.1,0.5c-0.1,0.3-0.2,0.7-0.3,1
	c-0.1,0.4-0.2,0.7-0.3,0.9c-0.1,0.3,0,0.7,0.1,1.3l0,0c0,0.2,0,0.4,0,0.6c0,0.2,0,0.4,0,0.6c0,0.3,0.1,0.5,0.2,0.6
	c0.1,0.2,0.2,0.4,0.2,0.6c0,0.1,0,0.1,0,0.2c0,0.1,0.1,0.2,0.1,0.3s0.1,0.1,0.1,0.2c0,0.1,0.1,0.3,0.1,0.4c0,0.1,0.1,0.3,0.1,0.4
	c0.1,0.2,0.1,0.4,0.2,0.6l0,0c0,0-0.6-1.2-0.9-2c-0.1-0.5-0.3-1.2-0.4-2.4c-0.1-1.2,0-2,0.2-2.9c0.1-0.6,0.4-1.2,0.5-1.5l0,0
	c0,0,0.5-3,1.1-4.1c0.4-0.7,0.8-1.3,1.2-1.6c0.1-0.1,0.3-0.2,0.4-0.3c0,0,0,0,0.1,0c0.2-0.1,0.7-0.2,0.9-0.2c0.1,0,0.1,0,0.2,0
	c0.1,0,0.6-0.2,0.9-0.5c0.2-0.2,0.4-0.5,0.5-0.7v-0.1c0.1-0.2,0.1-0.5,0.2-0.8c0-0.1,0-0.1,0-0.2s0-0.2,0.1-0.3
	c0-0.2,0.1-0.5,0.1-0.8c0-0.4,0.1-0.9,0.1-1.6l0,0C227,115,227,114.9,227,114.7z"/>
<path class="st13" d="M236.8,117.9c0.4,0,0.6-0.1,0.6-0.1h0.2l-0.3,0.6l-0.7,0.1l-3.7-0.1c0,0-1.4-0.1-1.1-0.1
	c0.2,0,0.9-0.1,1.7-0.2c1-0.1,2-0.3,2.5-0.3c0.3,0,0.4,0,0.5,0.1C236.5,117.9,236.6,117.9,236.8,117.9z"/>
<path class="st13" d="M246.2,135.2L246.2,135.2L246.2,135.2L246.2,135.2z"/>
<path class="st13" d="M246.2,135.2c0,0-0.1-0.3-0.2-0.6c0-0.1,0-0.2,0-0.3s0-0.2,0-0.4c-0.1-0.2-0.1-0.2-0.2-0.2l0,0
	c0,0-0.1-0.3,0-0.5c0-0.2,0-0.4,0-0.5c0,0-0.1-0.1-0.1-0.3l0,0l0,0c-0.1-0.2-0.1-0.3-0.1-0.3s0-0.1-0.1-0.1l-0.1-0.1
	c0-0.1,0.1-0.1,0.1-0.2c0,0,0,0,0-0.1c0,0,0,0-0.1,0l0,0v-0.1c0-0.1,0-0.1,0-0.1s0,0-0.1,0c0,0-0.1,0.1-0.1,0c0,0,0-0.1-0.1-0.3
	c0-0.1,0-0.3-0.1-0.4c0-0.1,0-0.2-0.1-0.3c0-0.1,0-0.2,0-0.2c0-0.1-0.4-1.2-0.5-1.5l0,0c-0.1-0.2-0.1-0.5-0.2-0.7c0-0.1,0-0.2,0-0.2
	c0-0.1,0-0.2,0-0.2s0,0,0,0.1v0.1c0,0,0-0.2-0.1-0.3c0-0.1,0-0.2,0-0.3v-0.1c0-0.1-0.1-0.3-0.1-0.4c0-0.2-0.1-0.6-0.1-1v-0.1
	c0-0.1,0-0.1,0-0.2c0-0.2,0-0.4,0-0.4c0-0.2,0-0.4,0-0.7c-0.1-0.4-0.2-0.8-0.3-1.1c0-0.1-0.1-0.3-0.2-0.5c-0.2-0.6-0.6-1.4-0.6-1.7
	c0-0.1,0.1,0,0.1,0s0.3,0.7,0.5,1.2s0.4,1,0.4,1s0.3,0.5,0.4,1.4c0.1,0.5,0.1,0.9,0.2,1.3c0,0.3,0.1,0.6,0.1,0.8v0.1
	c0,0.2,0.1,0.4,0.1,0.6c0.1,0.2,0.1,0.4,0.2,0.6c0,0.1,0.1,0.2,0.2,0.4c0.1,0.4,0.2,0.7,0.3,0.9c0,0.2,0.1,0.3,0.1,0.5
	c0,0.1,0,0.2,0,0.3v0.1c0,0.2,0.1,0.4,0.2,0.7c0.1,0.4,0.3,0.9,0.4,1.3c0.2,0.7,0.4,1.2,0.4,1.5
	C246.1,133.8,246.2,134.9,246.2,135.2z"/>
<path class="st14" d="M223.8,126.4c0-0.1,0.1-0.1,0.1-0.1c0.1,0,0.1,0,0.2,0.1H224c0.1,0,0.1,0.1,0.1,0.1s0,0,0.1,0c0,0,0,0,0.1,0
	c0,0,0,0,0,0.1c0,0,0,0,0,0.1c0,0,0,0,0,0.1c0,0,0,0.1,0.1,0.1c0,0,0,0,0.1,0h-0.3c0,0,0.1,0.1,0.2,0.1h0.1c0.1,0,0.3,0.2,0.4,0.3
	c0.1,0.1,1.9,0.9,1.9,0.9h0.3l-0.3,1.4l-0.3,1.4l0.6,1.4l1.2,0.5h1.3l0.3-1.5l0.7-0.9l-0.2,0.9l0.6,1.2l-0.7,1.1l-3.9-0.1l-2.2-0.7
	c0,0-0.2,0-0.2,0.1c0.2,0.2,0.2,0.3,0.3,0.6c0.1,0.1,0.1,0.3,0.3,0.5c0.1,0.2,0.2,0.3,0.3,0.5c0.1,0.1,0.1,0.2,0.2,0.3
	c0.1,0.1,0.2,0.3,0.2,0.4c0,0,0.6,0.4,0.8,0.5c-0.1,0-0.2,0.1-0.2,0.1l0,0c0.1,0.1,0.2,0,0.3,0s0.2,0,0.3,0s0.1,0.1,0.2,0.2
	c0.1,0.3,0.3,0.7,0.8,0.8c0.3,0.1,1.1-0.3,1.3-0.4c0.1,0,0.2-0.1,0.3-0.2l0.4,0.8l2.4,0.7l2.3,0.9l0.2,0.1h-0.2l-2.4,0.8l-2,1.8
	l-1.7,1.6c0,0-0.2,0.5-0.7,0.7l0.2-0.2l-0.1-2.8l-1-1l-1.5-1l-1-1l-0.8-1.5l-0.2-0.3l-0.3-0.9l0,0c0,1.7-0.6,2.2-0.6,2.2
	s0.1,0.1,0.2,0.2l0,0l0,0c0.1,0.1,0.2,0.3,0.2,0.5c0,0.1-0.1,0.3-0.2,0.5c-0.1,0.2-0.2,0.3-0.2,0.5s0,0.4,0,0.7v0.1
	c0,0.1,0,0.3-0.1,0.5c0,0.1-0.1,0.2-0.1,0.4s-0.1,0.5-0.1,0.8s0,0.6-0.1,1c0,0,0,0,0,0.1c1.2,1.1,2.5,2.1,3.9,2.9l0,0
	c1.8,1,3.7,1.6,5.6,1.9l8.8-1.3l6.3-3.3l0,0l0,0l0.1-3.9l-0.2-1.5l-1.4-0.1c0,0-1.2,0.4-2.3,0.7l0.1-0.1c0.5-0.6,1.6-1.4,1.8-1.6
	c0,0.1-0.1,0.3-0.2,0.6c0,0.1-0.1,0.2-0.1,0.3c0.1-0.1,0.3-0.3,0.4-0.5c0.1-0.1,0.6-0.4,0.9-0.5l0,0c0,0.1,0,0.2,0,0.3
	c0,0,0.2-0.5,0.4-0.8s0.3-0.9,0.3-0.9l0,0c0,0-0.1,0.2-0.2,0.2c-0.1-0.4-0.1-0.6,0-1c-0.2,0.4-0.4,0.4-0.6,0.5l0,0
	c-0.1-0.5-0.1-1.6-0.1-1.8c0,0.1-0.1,0.2-0.2,0.3l-0.1,0.1c0-0.1-0.1-0.1-0.2-0.2c0,0-0.1-0.1-0.1-0.2v-0.1
	c-0.3,0.2-0.4,0.2-0.4,0.2s0.4-0.2,0.6-0.9c0.2-0.7,0.2-1.1,0.1-1.4c0-0.1,0-0.2,0-0.3c-0.3,1.1-1,1.9-1,1.9s0-0.1,0-0.2
	c-0.1,0.1-0.1,0.2-0.1,0.3c-0.1,0.2-0.2,0.5-0.5,1.1c-0.4,0.7-0.8,0.8-1,0.7l0.1-0.4c0.6-1.1,1.2-2.8,1.2-4.1s-0.5-1.9-0.8-2.2
	l-0.4-2l-4.8-0.4l-2.2,2.1l-3,0.5l-0.3,0.7l0,0l0,0L232,127l-0.5-0.3l-0.4-0.4l-0.4,0.8l-0.1,0.1c0-0.1,0-0.3,0.1-0.4l-0.2-1.2
	l-0.7-0.9l-0.8,0.4l-0.7,0.1l-1.9,1.1l-0.2,0.1l0.8-0.7l-0.1-0.2l0.1-0.1l-0.9-1.1l-0.4-2.2l-0.1-1.2l-0.8-0.1l-0.7,0.8l-0.8,1.4
	l-0.4,1.4l-0.2,0.8l-0.3,1v0.1c-0.1,0.2-0.1,0.3-0.1,0.5c0,0,0,0.1,0,0.2c0.1-0.4,0.4-0.9,0.7-1.3c0.1-0.1,0.1-0.1,0.2-0.2
	c0.1-0.2,0.2-0.4,0.2-0.4V125c0-0.1,0-0.2,0-0.3c0,0,0.1-0.1,0.2-0.1c0.1,0,0.2-0.1,0.3-0.2s0.2-0.2,0.3-0.4
	c0.1-0.2,0.2-0.4,0.4-0.4c0.3-0.1,0.6,0,0.7,0.3c0,0.2-0.2,0.4-0.3,0.5s-0.2,0.1-0.2,0.2c-0.1,0.1-0.1,0.3-0.1,0.6
	c0,0.1,0,0.2,0,0.2C223.6,125.7,223.7,126.3,223.8,126.4z M228.3,127.3l-0.3-0.2c0.2,0,0.3-0.1,0.4,0l0,0c0.2,0.1,0.4,0.1,0.5,0.4
	c0.1,0.2,0.3,0.3,0.3,0.3l0,0h0.1c0,0-0.1,0.1-0.1,0.3v0.1c0,0.1,0.1,0.3,0,0.4c-0.1-0.1-0.2-0.2-0.3-0.2s-0.2-0.1-0.3-0.2
	c-0.1-0.1-0.2-0.3-0.2-0.4C228.5,127.6,228.4,127.4,228.3,127.3L228.3,127.3z"/>
<path class="st15" d="M221.6,125.7l-0.5,1.6l-0.4,1.9v1.5l0.1,0.4v0.1l0.1,0.7l0.2,0.9l0.2,0.6l0.2,0.7l0.2,0.5l0.2,0.4l0.1,0.8
	l0.7,0.7l0.4,0.2l0.2-0.1l2.1,1.9l4.3,1.1l2.5-0.7l3.2-1.3l0.8-0.8c0,0-0.5,0.2-1.3,0.2c0,0,0.1-0.1,0.2-0.2
	c0.1-0.1,0.2-0.3,0.4-0.4c0.1,0,0.1-0.1,0.2-0.1c0.1-0.1,0.3-0.1,0.4-0.3l0.1-0.1c0.1-0.2,0.2-0.3,0.6-0.4c0.6-0.2,0.2-0.6,0.2-0.6
	c0.1-0.1,0.1-0.1,0.2-0.2c0.1-0.1,0.3-0.2,0.3-0.5c0-0.4-0.1-1-0.4-1.3c0.1,0,0.3-0.1,0.5-0.1c0.3,0,0.6-0.1,0.8-0.1
	c0.4-0.1,0.6-0.3,0.6-0.3s-0.3-0.4,0.2-0.9c0.1-0.1,0.2-0.2,0.3-0.3c0.3-0.3,0.5-0.5,0.7-0.9h-0.1c-0.3,0-0.7-0.1-1.7,0.2
	c0.1,0,0.1,0.1,0.2,0.1c0,0-0.7,0.2-0.9,0.4c-0.2,0.1-0.3,0.3-0.4,0.4c-0.2,0.2-0.3,0.3-0.6,0.5c-0.2,0.1-0.5,0.2-0.7,0.2
	s-0.4,0.1-0.6,0.2c-0.2,0.1-0.4,0.2-0.4,0.3c-0.1,0-0.1,0.1-0.1,0.1s0,0,0,0.1v0.1l0,0c-0.1,0.1-0.3,0.4-0.5,0.4
	c0,0.1,0.2,0.1,0.2,0.1s-0.1,0.1-0.5,0.1c0,0,0,0,0.1,0.1c0.2,0.2,0.3,0.3,0.7,0.6c0,0,0,0,0,0.1c-0.1,0.1-0.1,0.2-0.1,0.3
	c0.1,0.1,0.2,0.3,0.9,0.5c-0.1,0-0.2,0-0.3,0c-0.3,0-0.6,0.1-1,0c-0.1,0-0.2,0-0.3,0c-0.3,0-0.5-0.1-0.7,0c0,0,0,0,0.1,0
	c0,0,0.1,0,0.2,0.1c0,0,0,0-0.1,0c-0.2,0-0.6,0-0.8,0.2c-0.2,0.3-0.3,0.7-0.3,1c-0.1,0-0.3,0-0.6,0.1s-0.5,0.1-0.8,0.2
	c-0.2,0-0.3,0-0.5,0.1c-0.3,0.1-0.5-0.1-0.7-0.3c-0.1-0.1-0.2-0.2-0.4-0.2c-0.3-0.1-0.7-0.4-0.7-0.4l-0.8-0.1l-1.7-0.7l-2-2l-0.2-1
	l-0.6-1.5l-1-1.3v-0.5l1.4-2.4l0.6-1.8l-2.1,0.2L221.6,125.7z M222.9,136l0.1,0.2L222.9,136C223,136.1,222.9,136.1,222.9,136z
	 M223.7,132.8L223.7,132.8C223.7,132.7,223.7,132.8,223.7,132.8z"/>
<path class="st16" d="M225.4,122.2L225.4,122.2c-0.2,0.2-0.2,0.3-0.3,0.4c-0.1,0.4-0.1,0.8-0.1,0.8v0.1c0,0-0.2,0.4-0.3,0.5
	c-0.5-0.5-0.4-1.3-0.4-1.4l0,0c-0.2,0.2-0.3,0.3-0.4,0.3c0,0,0,0-0.1-0.1c0,0,0,0,0-0.1c0,0-0.1,0-0.2,0.1c0,0-0.1,0-0.1,0.1
	c-0.2-1.3,0.4-1.7,0.5-1.8l0,0c-0.1-0.1-0.1-0.2-0.1-0.2s0,0,0-0.1c0.4-0.1,0.9-0.3,1.3-0.5c0.2-0.1,0.4-0.2,0.5-0.3
	c0.6-0.3,0.9-0.4,0.9-0.4v0.1c0.1-0.1,0.2-0.2,0.3-0.3c0.7-0.7,1-0.9,1-0.9l1.2-0.6l1.4,0.6l-0.7,2.8l-0.6,1.3h-0.1
	c0,0.1-0.1,0.2-0.1,0.3h0.1v0.8l-0.3,0.9c0,0,0,0.1-0.1,0.1l0.1-0.1l1.2-2l0.4-0.6l0,0l0.6-1.4l1.6-1.6l2.5-0.2l0.2,1.3l1.2,0.4
	l0.4,0.7l0.3-0.2l2.7,2.3l0.4,1.2l0,0l0.3,1c-0.1-0.1-0.3-0.1-0.4-0.1c-0.1,0-0.3,0-0.5,0c-0.3,0-0.6,0-0.7,0h-0.1
	c-0.2,0-0.5,0-0.9-0.1c-0.5,0-0.7-0.1-0.7-0.1s-0.1,0-0.3,0.1c-0.1,0-0.2,0-0.3,0s-0.3,0-0.5,0s-0.3,0.1-0.4,0.2l0,0
	c-0.1,0.1-0.1,0.1-0.2,0.1c0.1,0,0.2,0,0.3,0c0,0,0,0-0.1,0c0,0,0,0,0.1,0c-0.1,0-0.2,0.1-0.3,0.2l0,0c-0.1,0.1-0.1,0.2-0.2,0.3
	c0,0,0,0,0,0.1l0,0l-0.1,0.1c-0.2,0.3-0.3,0.5-0.4,0.5c-0.2,0.2-0.4,0.2-0.7,0.3h-0.1c-0.1,0.1-0.3,0.1-0.5,0.2
	c-0.4,0.2-0.8,0.4-1.2,0.4c-0.1,0-0.3,0-0.4-0.1c-0.1,0-0.2-0.1-0.3-0.1s-0.1,0-0.2,0.1l0,0c-0.1,0-0.1,0.1-0.2,0.1
	c-0.2,0.1-0.4,0.3-0.5,0.5c0-0.2-0.1-0.5-0.1-0.6c0,0,0,0-0.1,0l0,0c0-0.2-0.1-0.6-0.1-0.6v0.1c0-0.2-0.1-0.5-0.1-0.5l0,0V126
	l0.5-0.6l2.4-0.9l1.3-1.3l-0.3-1.1l-0.4,0.6l-0.5-0.1l0.1,0.3l-0.4,0.8l-0.8,0.4l-0.8,0.4c0,0-0.2,0.1-0.4,0.1
	c-0.1,0-0.1-0.2-0.1-0.3c0-0.1,0-0.1,0-0.2h-0.1c0,0,0,0-0.1,0l-0.4,0.6l-0.2,0.5L230,126v0.3h-0.1c0-0.1,0-0.1-0.1-0.2
	c0,0.1-0.1,0.3-0.1,0.4c-0.1,0.2-0.2,0.4-0.3,0.4s-0.1,0.1-0.2,0.1c0,0,0-0.1,0-0.3c0-0.1,0-0.2,0-0.2l0,0l0,0c0,0,0,0,0,0.1
	c-0.1-0.2-0.1-0.7-0.1-0.7l0,0v-0.1c0,0,0,0,0,0.1c-0.1-0.1-0.2-0.2-0.2-0.3l0,0l0,0v-0.1v-0.1v-0.1c0,0-0.1,0-0.1,0.1v-0.1
	c0-0.1,0-0.1,0-0.1c-0.3,0-0.3-0.2-0.3-0.2l0,0v-0.1v-0.1l0,0l0,0l0,0c-0.4,0.1-0.7,0.3-0.7,0.3l0,0l0,0c-0.1,0-0.1,0.1-0.1,0.1
	s-0.1,0-0.3,0.1c-0.1,0.1-0.1,0.1-0.2,0.2c-0.1,0.1-0.2,0.2-0.4,0.3c-0.1,0-0.1,0.1-0.1,0.2s-0.1,0.2-0.3,0.4
	c-0.4,0.2-0.7,0.2-0.8,0.2l0,0c-0.1,0-0.2-0.1-0.2-0.2c-0.1,0-0.2,0.1-0.4,0.1c-0.2,0.1-0.4,0.2-0.5,0.2c0.1,0,0.5-0.3,0.5-0.4
	s0.2-0.3,0.3-0.4s0.2-0.2,0.3-0.3l0.1-0.1c0,0,0-0.1-0.1-0.1c0.1-0.1,0.4-0.3,0.4-0.3l0,0l0.1-0.3l0.8-0.8l0,0c0,0,0-0.1,0.1-0.1
	c0.4-0.5,0.3-0.7,0.3-0.7c-0.2,0-0.3-0.1-0.4-0.2c0-0.1,0-0.1,0-0.2h0.1v-0.1l0,0c0,0,0,0-0.1,0l0,0l0,0c0,0,0,0-0.1,0h-0.1
	c0,0,0,0-0.1,0l0,0l0,0l0,0c-0.2,0.2-0.9,0.1-0.9,0.1l0,0c0.2-0.1,0.3-0.1,0.4-0.2c0.1,0,0.1-0.1,0.2-0.2c0,0,0.1,0,0.1-0.1
	L225.4,122.2z M227.7,122.3c0,0.3,0,0.7-0.1,1.1c0.1-0.1,0.2-0.3,0.5-0.6c0.1-0.1,0.3-0.2,0.4-0.3L227.7,122.3z"/>
<path class="st17" d="M229.2,146.1C229.2,146.1,229.2,146.2,229.2,146.1v0.1c0.1,0,0.2-0.1,0.2-0.1c0.1,0,0.1,0,0.1,0v0.1
	c0,0.1,0.1,0.3,0.3,0.4c0.2,0,0.4-0.1,0.7-0.3l0.1-0.1c0.2-0.2,0.4-0.3,0.5-0.4c0.1,0.1,0.1,0.3,0.2,0.4c0.1-0.1,0.2-0.2,0.2-0.3
	c0.3-0.3,0.6-0.8,1.1-0.7c0.2-0.4,0.5-0.8,0.9-1.1c0.6-0.4,1-0.4,1.4-0.4c0.2-0.2,0.4-0.4,0.7-0.6l0,0c0.1,0,0.3,0.1,0.5,0
	c0.1,0,0.2-0.1,0.3-0.3c0.2-0.2,0.4-0.4,0.6-0.4c0.2,0,0.4,0,0.6,0.1c0,0,1.1-1.1,1.9-1.5c0-0.1-0.1-0.4,0.8-1.2v0.1v0.1
	c0,0,0.2-0.1,0.5-0.3c0.4-0.3,0.8-0.5,1-0.6c0.5-0.1,1,0.1,1,0.1l0.1-0.1l0,0c0.1,0,0.2,0,0.3-0.1c0,0.1,0,0.1,0,0.2
	c0,0.1,0,0.3,0,0.5c0.1,0.1,0.2,0.1,0.3,0.1l0,0c-0.1,0.1-0.2,0.4-0.3,0.5c0.1,0,0.1,0.1,0.1,0.1c0.1,0,0.1,0.1,0.3,0.1
	c-0.1,0.1-0.2,0.3-0.3,0.5c0,0.1-0.1,0.2-0.2,0.4l0,0l0,0l0,0c-0.1,0.2-0.2,0.5-0.3,0.6c0,0.1-0.1,0.2-0.1,0.3
	c-0.1,0.2-0.1,0.3-0.2,0.4c0,0,0,0.1-0.1,0.1c-0.1,0.1-0.3,0.4-0.5,0.5c0.2-0.1,0.9-0.3,1.2-0.4c-0.1,0.1-0.6,0.8-1,1.5
	c-2.2,1.3-4.6,2.1-7.1,2.4c-2.5,0.3-5.1,0-7.5-0.7l0,0c-1.1-0.4-2.2-0.8-3.3-1.4l0,0c0,0,0,0,0.1-0.1l0,0l0,0c0,0,0.2-0.1,0.2,0h0.1
	c0.1,0,0.2,0.1,0.3,0.1s0.2,0,0.2,0c0.2,0,0.4-0.1,0.6-0.1c0.4,0.1,0.6,0.3,0.8,0.5c0.1,0.1,0.2,0.2,0.3,0.3
	c0.2,0.1,0.4,0.1,0.5,0.1l0,0h0.1l0,0l0.1-0.1c0.1,0,0.1,0,0.1,0.1c0,0,0,0,0.1,0s0.2,0,0.3,0s0.3,0,0.4,0c0.1,0,0.1,0,0.1,0.1
	l0.1,0.1C229.3,145.9,229.3,146,229.2,146.1L229.2,146.1z"/>
<path class="st17" d="M226.3,140.8c0,0-0.1-0.2-0.6-0.8c-0.1-0.1-0.1-0.1-0.2-0.2c-0.1-0.1-0.1-0.1-0.2-0.2
	c-0.2-0.2-0.3-0.3-0.4-0.3c-0.1,0-0.1-0.1-0.2-0.1c-0.2-0.1-0.4-0.2-0.5-0.3c-0.2-0.1-0.5-0.2-0.7-0.4c-0.3-0.4-0.7-1.1-1-1.8
	s-0.4-1-0.4-1s0.1-0.2,0.2-0.1c0.1,0,0.1,0.1,0.1,0.2v0.1c0,0.1,0.1,0.1,0.2,0.2c0,0,0,0,0.1,0.1c0.1,0.2,0.3,0.3,0.4,0.6
	c0-0.2-0.1-0.5-0.1-0.5s0.5,0.3,1,0.7c0.1,0.1,0.1,0.1,0.2,0.1l0,0c0.3,0.2,0.5,0.4,0.6,0.6c0,0.1,0.1,0.1,0.1,0.2
	c0.2,0.3,0.3,0.6,0.5,0.7c0.2,0.2,2.2,0.8,2.2,0.8l1,0.7l0.5,1.1l-0.4,0.6L228,142l-1.2-0.5L226.3,140.8z"/>
<path class="st17" d="M241.6,125.6c0.1,0.4,0.2,0.8,0.1,1.2l0.5,1.1v1.3l-1.4,4.5c0,0,0.7,4.1,0.5,4.4c-0.2,0.3-0.6,0.9-0.6,0.9l0,0
	c0.3-0.1,0.5-0.2,0.8-0.4s0.6-0.4,0.9-0.4c0.1,0,0.2,0,0.3,0c0.3,0,0.6-0.1,0.8-0.2c0.2-0.1,0.4-0.3,0.5-0.4l0,0l0.1-0.1
	c0.1-0.1,0.4-0.1,0.5-0.2h0.1c0.2,0,0.5,0,0.6,0.3c0.2,0.3,0.1,0.6,0.1,0.6l0.3,0.2c0,0,0.1-1,0.3-1.2s0.2-0.3,0.2-0.5l0,0l0,0
	c0-0.2,0-0.4,0-0.5c0,0,0,0,0-0.1l0,0c0,0,0-0.1,0-0.2c0-0.1,0-0.2-0.1-0.3l-0.1-1.4l-0.2-0.8l-0.3-1l-0.1-0.4l-0.1-0.4l-0.1-0.2
	l-0.2-0.9l-0.4-1.3l-0.4-1.2l-0.3-1.2c0,0-0.1-0.8-0.2-1.4l-0.1-0.6l-0.1-0.9l-0.5-1.2l-0.5-1.3l-0.3,0.3c0,0-0.6,0-0.7,0.7
	c-0.2,0.7-0.5,0.8-0.6,0.9l0,0c-0.1,0.1-0.1,0.1-0.1,0.5C241,123.8,241.4,124.9,241.6,125.6z"/>
<path class="st15" d="M223.7,125.7c0,0-0.3,0.1-0.4,0.2c-0.1,0.1-0.2,0.2-0.3,0.4c-0.2,0.2-0.2,0.4-0.3,0.7
	c-0.1,0.3-0.4,0.7-0.5,0.8c0,0.1-0.1,0.8-0.2,1.1c-0.1,0.3,0.1,0.7,0.1,0.7h0.2c0,0,0,0.2,0.2,0.4c0.2,0.1,0.2-0.5,0.2-0.5l0.6-2.2
	l1-0.7l0.1-0.5L223.7,125.7z"/>
<path class="st15" d="M224.2,126.7c0,0-0.5,0-0.7,0.2c-0.1,0.1-0.1,0.1-0.2,0.2c-0.2,0.1-0.4,0.3-0.4,0.5c-0.1,0.2-0.2,0.5-0.3,1
	c0,0.2,0,0.4-0.1,0.6c0,0.3-0.1,0.5-0.1,0.6c0,0.3,0.3,0.4,0.4,0.8l0.6-0.3l0.6-2.3l1.2-0.8l-0.7-0.8L224.2,126.7L224.2,126.7z"/>
<path class="st14" d="M227.1,127.2C227.2,127.2,227.2,127.2,227.1,127.2c0.1,0.1,0.1,0.1,0.2,0.1c0.3,0,0.5,0.1,0.6,0.2
	c0.2,0.2,0.7,0.9,0.7,0.9l1.1,0.4l0.1-1.4l-1.3-0.9L227.1,127.2L227.1,127.2L227.1,127.2L227.1,127.2z"/>
<path class="st18" d="M223.7,137.2c0,0,0.2,0.4,0.9,0.8c0.5,0.3,1.4,0.6,2.2,0.8c0.4,0.1,0.9,0.2,1.3,0.2c1.1,0,1.8-0.3,2.7-0.4
	c0.5-0.1,1.1-0.1,1.7-0.2c0.8-0.2,1.3-0.4,1.9-0.7c0.5-0.2,0.9-0.4,1.3-0.6c0.5-0.3,0.9-0.6,1.3-0.7c-0.1,0.1-0.1,0.4-0.5,0.7
	c0.2,0,0.5,0,0.5,0s-0.3,0.2-0.8,0.6c-0.3,0.2-0.7,0.6-1.2,0.9c-0.3,0.2-0.6,0.3-0.8,0.4c-0.5,0.3-0.7,0.4-1,0.7c0.1,0,0.1,0,0.1,0
	s-0.4,0.1-0.7,0.2c-0.1,0-0.2,0-0.3,0s-0.3,0.1-0.5,0.2c-0.3,0.1-0.4,0-0.4,0v0.1c0,0-0.4,0-0.5,0l0,0c0,0,0,0-0.1,0
	s-0.1,0.1-0.2,0.1h-0.1c0,0,0.1,0.2,0.2,0.4l-0.7,0.5c0,0,0,0.1,0.1,0.1c0,0.1,0,0.2,0.1,0.2c0.1,0.1,0.1,0.1,0.1,0.1
	s-0.1,0-0.2,0.1c-0.1,0-0.3,0.1-0.5,0.1c-0.1,0-0.1,0-0.2,0c0,0.1,0.2,0.3-0.1,0.6c-0.2,0.3-0.3,0.3-0.4,0.5l-0.1-0.1
	c-0.1,0-0.2-0.1-0.2-0.2c0,0.1-0.1,0.2-0.1,0.3c-0.1,0.2-0.2,0.4-0.2,0.6c-0.1-0.1-0.2-0.3-0.4-0.2c-0.2,0-0.4,0.3-0.4,0.4
	c0-0.1,0-0.1,0,0s-0.1,0.8-0.8,1.3c0-0.1,0-0.5,0-0.6c-0.1,0.1-0.1,0.1-0.6,0.3c-0.4,0.2-0.4,0.4-0.4,0.4s0-0.3,0.2-0.6
	s0.4-0.5,0.4-0.5s0,0,0-0.1l-0.1-0.1c0,0,0.4-0.2,0.4-0.5s-0.2-0.5-0.3-0.6c0,0,0.1-0.1,0.1-0.2l-0.2-0.2v-0.1c0-0.1,0-0.1,0-0.2
	c0-0.1-0.1-0.3-0.1-0.3h0.2c0,0-0.1-0.2-0.1-0.3s-0.1-0.3-0.1-0.4c0.1,0,0.2,0,0.2,0s-0.1-0.1-0.1-0.2c0,0,0.1,0,0.2,0.1
	c0-0.1-0.1-0.3-0.2-0.4c0.1,0,0.3-0.1,0.4,0c0.2,0.1,0.2,0.3,0.2,0.3s0.1,0.1,0.3,0.2c0.2,0.1,0.4,0.4,0.8,0.5c0.1,0,0.3,0,0.4,0
	c0.1,0,0.1,0,0.2-0.1c0,0,0,0,0.1,0c0-0.1-0.1-0.1-0.1-0.2c0.1,0,0.1,0,0.1,0s0-0.1-0.1-0.2l0.1-0.1c-0.1,0-0.1-0.1-0.2-0.1l0.1-0.1
	l-0.2-0.2c0,0,0.1,0,0.1-0.1l-0.3-0.1c-0.1-0.1-0.2-0.2-0.3-0.2s-0.2,0-0.3-0.1c0.1,0,0.1,0,0.2,0h0.1c0,0,0-0.1,0.1-0.1
	s0.1,0,0.2-0.1c0,0-0.1,0-0.2-0.1c-0.1-0.1-0.2-0.2-0.3-0.2s-0.2,0.1-0.3,0c-0.1,0-0.2-0.1-0.2-0.1s-0.4,0-1.3-0.5
	c-0.8-0.5-1.1-0.9-1.1-0.9c-0.1,0-0.1-0.1-0.2-0.1C224.1,137.9,223.7,137.6,223.7,137.2L223.7,137.2z"/>
<path class="st18" d="M234.8,118.9c0.1,0,0.1,0.1,0.2,0.1c0.1,0.2,0.2,0.5-0.1,0.8c0.1,0,0.2,0.1,0.3,0c-0.1,0.1-0.4,0.4-0.4,0.7
	c0,0.2,0.1,0.3,0.1,0.3s-0.2,0.2-0.2,0.6c0.1-0.1,0.2-0.2,0.3-0.3c0.2-0.2,0.5-0.4,0.7-0.5c0,0.1,0,0.1,0,0.2c0,0,0.4-0.3,0.7-0.2
	c0.1,0.1,0.1,0.3,0.1,0.3s0.2-0.1,0.3,0.1c0.1,0.1,0.3,0.5,0.4,0.7c0,0.1,0.2,0.2,0.3,0.4c0.2,0.3,0.3,0.6,0.4,0.9
	c0-0.2,0-0.4,0.5-0.2c0.4,0.2,1,0.5,1.4,1.1c0.4,0.7,0.5,1.4,0.8,1.7c0.2,0.3,0.4,0.7,0.5,0.9c0,0.2-0.1,0.8,0.4,2.4
	c0.1-0.5,0.3-1.6,0.3-1.6l0.1-1l0.1-3.1l-3.2-2.7l-2.5-1.8L234.8,118.9L234.8,118.9z"/>
<path class="st18" d="M240.8,123.5c0,0,0-0.3-0.8-0.8s-1.4-0.5-1.9-0.9c-0.4-0.3-0.9-1.1-1.1-1.4c-0.3-0.3-0.3-1-0.3-1l0.9-0.8
	l1.4-2l1.2-1.3l0.6,0.8l0.8,0.9l0.4,1.8l0.2,2.7L240.8,123.5L240.8,123.5z"/>
<path class="st18" d="M240.8,145.6L240.8,145.6c2.2-1,4.1-2.4,5.7-4.2c0-0.6,0-1.2-0.1-1.5c-0.1-0.5,0-1,0-1.3s-0.2-1.5-0.3-1.8
	s-0.2-0.5-0.3-0.5c0,0-0.1,0.6-0.1,0.7c0,0.1,0,0.5,0,0.6v-0.1c0,0.1-0.1,0.2-0.1,0.2s0-0.1,0-0.2c0,0-0.1,0-0.1-0.1v-0.1
	c0,0-0.1,0.1-0.2,0.5c-0.1,0.3-0.1,0.3-0.1,0.4l-0.1,0.2c0,0.1,0.1,0.2,0.1,0.2c0,0.1-0.1,0.4-0.1,0.6c0,0.2,0,0.5-0.1,0.7
	c0,0.2-0.1,0.2-0.2,0.3c0.1,0,0.1,0,0.1,0s0.1,0.4-0.2,0.8c-0.1,0.1-0.1,0.2-0.2,0.3c-0.2,0.2-0.4,0.5-0.4,0.6v-0.1
	c0,0-0.3,0.4-0.4,0.6c-0.2,0.3-0.4,0.3-0.5,0.3c-0.1,0.1-0.1,0.2-0.1,0.3c-0.1,0-0.2,0-0.2,0.3c0,0.1-0.1,0.2-0.3,0.3
	c-0.1,0.1-0.3,0.1-0.4,0.1c0.1,0,0.1,0,0.1,0c0,0.1-0.3,0.2-0.5,0.3s-0.3,0.4-0.4,0.5c-0.1,0.1-0.1,0.2-0.3,0.2
	c0.1,0,0.1,0.1,0.2,0.1c-0.1,0-0.2,0-0.4,0.2C240.9,145.5,240.9,145.5,240.8,145.6L240.8,145.6z"/>
<path class="st15" d="M236.6,147c0.1-0.1,0.2-0.1,0.4-0.2c0.5-0.2,1-0.2,1.2-0.3s0.3-0.1,0.6-0.2c0,0.1,0,0.1,0,0.2
	C238,146.7,237.3,146.8,236.6,147L236.6,147z"/>
<path class="st18" d="M238,122l-1.1-1.5l-0.7-0.6c0,0-0.5-1-0.6-1c0,0-0.5-0.1-0.9-0.1l0.1,0.1c0.1,0,0.1,0.1,0.2,0.1
	c0.1,0.2,0.2,0.5-0.1,0.8c0.1,0,0.2,0.1,0.3,0c-0.1,0.1-0.4,0.4-0.4,0.7c0,0.2,0.1,0.3,0.1,0.3s-0.2,0.2-0.2,0.6
	c0.1-0.1,0.2-0.2,0.3-0.3c0.2-0.2,0.5-0.4,0.7-0.5c0,0.1,0,0.1,0,0.2c0,0,0.4-0.3,0.7-0.2c0.1,0.1,0.1,0.3,0.1,0.3s0.2-0.1,0.3,0.1
	c0.1,0.1,0.3,0.5,0.4,0.7c0,0.1,0.2,0.2,0.3,0.4c0.2,0.3,0.3,0.6,0.4,0.9c0-0.1,0-0.3,0.2-0.3L238,122L238,122z"/>
<path class="st15" d="M222,126.4c0,0-0.1-0.2,0-0.6s0.2-0.5,0.2-1.1c0-0.5,0.4-1.2,0.4-1.2l1-0.4l0.7,0.2l0.2,0.9l-0.9,0.5
	c0,0,0,0.2-0.3,0.4c-0.2,0.2-0.6,0.3-0.7,0.5c0,0.1-0.1,0.2-0.1,0.3c0,0-0.2-0.1-0.4,0.1C222,126.1,222,126.3,222,126.4L222,126.4z"
	/>
<path class="st18" d="M231.1,121.1c0.1,0,0.2-0.1,0.3-0.1c0,0.1,0,0.2-0.2,0.4c-0.2,0.2-0.2,0.3-0.3,0.5s-0.1,0.6-0.3,0.8
	c0.1,0,0.1,0,0.2-0.1c0,0-0.1,0.1-0.2,0.2c-0.1,0.1-0.1,0.3-0.4,0.5c-0.2,0.1-0.5,0.2-0.8,0.6c-0.3,0.3-0.6,0.7-0.8,0.9
	c0.1-0.1,0.2-0.4,0.2-0.6s0-0.4,0-0.7c0.1-0.2,0.1-0.4,0.3-0.9c0.2-0.4,0.7-1.9,0.7-1.9l0.9-0.3L231.1,121.1L231.1,121.1z"/>
<path class="st18" d="M230.4,120.6c0,0-0.3,0.4-0.4,0.8c-0.1,0.4,0,0.3-0.1,0.5c0,0.1,0,0.2,0,0.3c0.1-0.2,0.2-0.3,0.4-0.4
	c0.3-0.2,0.5-0.3,0.6-0.4s0.2-0.4,0.5-0.6c-0.1,0-0.3-0.1-0.3-0.1c0.1-0.1,0.4-0.3,0.8-0.6c0.3-0.2,0.3-0.3,0.9-0.6
	c-0.2,0-0.3,0-0.4,0c0.1-0.1,0.3-0.2,0.5-0.4c0.2-0.2-0.1-0.5-0.1-0.5l-1.6,1L230.4,120.6L230.4,120.6z"/>
<path class="st16" d="M226.1,119.9v-0.3l0.5-0.7l0.5-1.3v-1.8v-1l0.1-0.7l0.1-0.2l0.1-0.1l0.4,0.2l0.5,0.7l0.1,1.4l-0.5,2.2
	l-1.5,1.6L226.1,119.9z"/>
<path class="st18" d="M227.3,118.5c0,0,0.4-0.9,0.5-1.7c0-0.2,0.1-0.3,0.1-0.4c0.1-0.7,0.1-1,0-1.5c-0.1-0.3-0.4-0.6-0.5-0.8
	c-0.1-0.2-0.2-0.3-0.2-0.3s0.1-0.1,0.3-0.1c0.1,0,0.2,0,0.4,0.1c0.1,0.1,0.2,0.1,0.3,0.2c0.2,0.3,0.4,1.2,0.4,1.2l0.2,1.2l0.5,1.5
	L227.3,118.5L227.3,118.5z"/>
<path class="st19" d="M230.7,117.6c0,0-0.1,0-0.2,0c0,0.1,0,0.1,0,0.1l-0.1,0.1c-0.1-0.1-1.3,0.1-1.3,0.1s-0.6-0.1-0.7-0.8
	c-0.1-0.5,0.1-1.2,0-1.6c-0.1-0.7-0.3-0.8-0.3-1s0-0.3,0-0.4c-0.1,0-0.1,0-0.2,0c0-0.1,0-0.1-0.1-0.2c0,0,0.3,0,0.6,0.3
	c0.2,0.2,0.2,0.3,0.3,0.4c0,0,0.4,0.4,0.6,0.7c0.2,0.3,0.5,1.3,0.5,1.5c0,0.1,0.1,0.1,0.2,0.3C230.1,117.1,230.4,117.5,230.7,117.6
	L230.7,117.6z"/>
<path class="st20" d="M228.7,114.5c0.2,0.3,0.3,0.6,0.5,0.9c0.2,0.4,0.3,0.7,0.5,1c-0.1-0.4-0.3-1-0.5-1.3
	C229.1,114.9,228.8,114.6,228.7,114.5z"/>
<path class="st14" d="M226.3,121.4l0.3-0.3v-0.2c0,0,0.3-0.1,0.6-0.4s0.8-1,1.2-0.9c0.4,0,0.4,0.9,0.5,1.1c0,0.2,0.1,0.8,0.1,1
	c0.1,0.3-1,1.4-1,1.4l-0.7,0.6L226.3,121.4z"/>
<path class="st18" d="M237.2,118.4c-0.4-0.1-0.7-0.2-1.1-0.2c-0.6,0-1.6,0-2.5,0c-1,0-1.9-0.3-3.1-0.4c-0.2-0.1-0.7-0.7-2.3,0.5
	c0.1,0,1.2-0.2,1.5,0.2c0.4,0.5,0.3,1.3,0.2,1.4c-0.1,0.4-0.4,1-0.5,1.5c-0.1,0.4-0.1,0.7-0.2,1c-0.1,0.3-0.3,0.4-0.2,0.8
	c0.2-0.1,0.2-0.1,0.5-0.7s0.2-1,0.6-1.5c0.4-0.5,1.1-1.2,1.4-1.4c0.3-0.2,2.4-1.3,4.7-0.2C236.8,119.3,237.2,118.4,237.2,118.4z"/>
<path class="st18" d="M229.1,118L229.1,118c0-0.1-0.1-0.2-0.1-0.2s-0.5-0.1-0.8-0.1c-0.5,0.1-0.9,0.6-1.1,0.9
	c-0.2,0.3-0.4,0.8-0.7,1c0,0,0,0,0-0.1c0,0,0,0,0,0.1c0,0,0,0,0,0.1l0,0c0,0,0.4-0.2,1-0.7c0.6-0.6,1.1-0.8,1.3-0.9
	C228.8,118.1,228.9,118,229.1,118z"/>
<path class="st19" d="M239.4,115.7c0,0-0.1,0.1-0.2,0.3c-0.3,0.3-0.6,0.6-0.9,0.9c-0.3,0.3-0.6,0.6-1,1s-0.8,0.9-0.9,1
	c-0.1,0.1-0.2,0.4-0.2,0.5c-0.1,0-0.1-0.1-0.1-0.1l0.1,0.1c0.1,0.1,0.2,0.2,0.3,0.3c0.1,0.1,0.1,0.2,0.2,0.3c0,0,0.3,0.1,0.6-0.4
	s0.7-1,0.7-1l0.6-0.9l0.4-0.8l0.5-0.9L239.4,115.7L239.4,115.7z"/>
<path class="st20" d="M240,115.1c0,0-0.4,0.3-0.5,0.5s-0.5,0.7-0.5,0.7h0.1l0.6-0.5l0.2-0.4L240,115.1L240,115.1z"/>
<path class="st21" d="M239.9,139.2c0,0,0-0.2,0.1-0.4c0.1-0.1,0.5-0.4,0.9-1.2s0.4-1,0.4-1s-0.6,0.5-1,0.7c0.1-0.2,0.1-0.3,0.2-0.4
	c-0.1,0-0.3-0.1-0.3-0.1c0.1-0.1,0.2-0.4,0.4-0.6c0.3-0.2,0.9-0.7,1.3-1c0.4-0.4,1.3-1.2,1.4-1.5c0.1,0.1,0.1,0.2,0.1,0.2
	s-0.4,0.6-0.7,0.9c-0.2,0.3-0.2,0.5-0.2,0.5l0.4-0.2c0,0,0.1,0.4-0.4,1.1c0.2-0.1,0.3,0,0.5-0.1c-0.2,0.1-0.5,0.3-0.8,0.9
	c-0.3,0.5-0.7,1.2-1.3,1.5C240.3,138.9,239.9,139.2,239.9,139.2L239.9,139.2z"/>
<path class="st22" d="M238.3,118.7c0,0-0.2,0.5-0.3,0.9c0,0.1,0,0.2,0,0.3c0,0.4,0,0.8-0.1,1c0-0.1,0-0.1-0.1-0.2
	c0,0.1-0.1,0.5-0.2,0.7c0-0.1-0.1-0.4-0.1-0.8s0-0.5,0-0.6c0,0.1-0.1,0.3-0.1,0.4c0-0.1-0.1-0.2-0.2-0.3c0,0.1-0.1,0.1-0.1,0.2
	c0,0,0-0.1,0-0.3c0-0.2,0-0.4,0-0.4c0-0.1,0.1-0.4,0.4-0.7c0.3-0.4,0.7-1,0.8-1.2s0.5-1.1,0.5-1.1h0.3l-0.5,1c0,0-0.3,0.6-0.4,0.8
	c-0.1,0.2-0.4,0.8-0.6,1c0.1-0.1,0.2-0.2,0.3-0.3C238,119.1,238.3,118.7,238.3,118.7L238.3,118.7z"/>
<path class="st18" d="M240.1,115.1c-0.1,0.2-0.1,0.3-0.2,0.4c-0.2,0.2-0.6,0.5-0.8,0.8c-0.2,0.2-0.5,0.9-0.4,1.6
	c0.1-0.2,0.2-0.5,0.5-0.9s0.6-0.8,0.8-1.1c0.2-0.3,0.2-0.6,0.2-0.6l0.1-0.1L240.1,115.1L240.1,115.1L240.1,115.1z"/>
<path class="st18" d="M240.1,115L240.1,115L240.1,115c0,0.2,0,0.3,0,0.3c0,0.1,0,0.2-0.1,0.3c0,0.1,0,0.3-0.2,0.7
	c-0.1,0.1-0.1,0.2-0.1,0.3c-0.1,0.2-0.1,0.2-0.2,0.3c0.1-0.1,0.5-0.3,0.7-0.3c-0.1,0.1-0.3,0.2-0.5,0.4c0,0,0.2,0,0.4,0
	c0.3-0.1,0.7-0.2,1-0.1c0.4,0,0.2-0.4,0.2-0.4l-0.4-0.9L240.1,115L240.1,115z"/>
<path class="st19" d="M242.1,121.9c0,0-0.4-0.4-0.5-1.6s-0.1-3-0.1-3l-0.3-0.7c0,0-0.1-0.5-0.2-0.6c-0.1-0.2-0.4-0.5-0.6-0.6
	c-0.1-0.1-0.3-0.3-0.4-0.4c0-0.1,0.2-0.5,1-0.5s1,0.4,1.1,0.6s0.4,0.8,0.6,2.1c0.1,1.3,0.1,1.4,0.1,1.8c0,0.2-0.1,0.8-0.2,1.4
	C242.5,121.1,242.4,121.6,242.1,121.9L242.1,121.9z"/>
<path class="st22" d="M241,122.9c0.1,0,0.2,0,0.3-0.1c0.1,0,0.5,0,0.8-0.4c0,0.1,0.1,0.3-0.1,0.6c0.1-0.1,0.2-0.1,0.2-0.1
	c0,0.1,0.1,0.5-0.3,1.3c0.1-0.1,0.3-0.1,0.4-0.1c0,0.2,0.1,0.7-0.1,1c-0.1,0.2-0.4,0.1-0.4,0.1v-0.1c0-0.1,0-0.2,0-0.2
	c-0.1-0.1-0.2-0.1-0.3-0.2c-0.3-0.2-0.6-0.7-0.6-1c0-0.4,0.3-0.4,0.3-0.4s0-0.1-0.1-0.1C241.1,123.1,241.1,123,241,122.9z"/>
<path class="st22" d="M238.7,119.1L238.7,119.1c-0.1,0-0.1-0.1-0.1-0.2s0.1-0.2,0.1-0.2c0,0.1-0.1,0.2-0.1,0.2s0.1-0.2,0.3-0.3
	c0.1-0.1,0.3-0.1,0.3-0.2c0.1-0.1,0.1-0.1,0.1-0.1s0.1-0.1,0.4-0.4l0.1-0.1c0.1,0,0.2-0.1,0.3-0.1c0.1-0.1,0.3-0.2,0.4-0.2
	c0.2-0.1,0.4-0.1,0.5-0.2c0.1,0,0.2-0.2,0.1-0.4c0.1,0,0.7,0.4,0.9,1.2c0.1,0.6-0.1,1.4-0.2,1.8c-0.1,0.4-0.1,0.7-0.3,0.9
	c-0.2,0.2-0.8,0.6-0.9,0.8c-0.1,0.1-0.5,0.5-0.5,0.8c0,0.2,0.3,0.3,0.3,0.3c0.1,0,0.1,0.1,0.1,0.1c0.1,0,0.1-0.1,0.2-0.1
	c0,0,0,0,0.1,0l0,0c0,0,0,0.3-0.7,0.4H240c0.1,0,0.1,0,0.2-0.1c-0.1,0-0.4,0-0.4-0.1c0,0,0.1-0.1,0.1-0.2c0.1,0,0-0.1-0.1,0
	s-0.2,0.1-0.2,0.2c-0.1,0.1-0.1,0.2-0.3,0.2c0-0.1,0-0.4,0.1-0.5c0,0-0.1,0.1-0.2,0.1c0-0.1,0-0.2,0-0.3c0-0.1,0.2-0.4,0.2-0.4
	l1-1.7l0.2-1.3L238.7,119.1z"/>
<path class="st19" d="M238.6,119.2c0,0-0.1,0,0.1,0.1l-0.1,0.1c-0.1,0.1-0.1,0.1-0.1,0.1c0,0.1-0.1,0.2-0.1,0.2s0,0.3-0.1,0.5
	c0,0.1-0.1,0.2-0.1,0.3c-0.1,0.1-0.1,0.2-0.2,0.3c0,0.1-0.1,0.4-0.1,0.4l0.1-0.1c0,0.1-0.1,0.2-0.1,0.2s0.1-0.1,0.3-0.3
	c0.2-0.2,0.6-0.6,1.1-0.8c-0.1,0.1-0.3,0.1-0.4,0.1c0.1-0.1,0.8-0.9,1.1-1v-0.1h-0.3l-0.6,0.1l-0.1-0.5L238.6,119.2L238.6,119.2z"/>
<path class="st23" d="M239.6,121.9c0,0-0.1,0.1-0.2,0.3c-0.1-0.1-0.1-0.1-0.1-0.2c-0.1-0.2-0.3-0.4-0.7-0.3c0-0.1,0-0.2,0-0.3
	c0.1,0,0.3-0.2,0.5-0.4c0.1-0.2,0.3-0.4,0.4-0.6c0.1,0,0.2-0.1,0.3-0.2c0.2-0.1,0.4-0.3,0.5-0.5c-0.1,0-0.3,0.1-0.6,0.1
	c0.1-0.1,0.3-0.1,0.3-0.3l0.1-0.1H240c0,0,0-0.1-0.1,0c-0.1,0-0.1,0-0.1,0h-0.1c-0.1,0-0.2,0.2-0.2,0.2l0.1-0.1c0,0-0.1,0-0.3,0.1
	s-0.4,0.2-0.6,0.3v-0.1h0.1v-0.1c0.1-0.1,0.1-0.3,0.2-0.4c0.1-0.1,0.1-0.3,0.1-0.3l0.5-0.2l1.3-0.3l0.8,0.1l-0.1,0.6l-0.5,1
	l-0.4,0.9l-0.5,0.6L239.6,121.9z"/>
<path class="st24" d="M241.7,119.4c0,0-0.5,0.6-0.7,0.7c0.1-0.2,0.7-1.3,0.9-1.7c0,0-0.1,0,0-0.6c-0.1,0.3-0.2,0.4-0.3,0.5
	s-0.1,0.1-0.2,0.1c0,0,0,0,0-0.1c0,0-0.4-0.1-0.7-0.1s-0.9,0.2-1.2,0.3c-0.3,0.1-0.4,0.1-0.5,0.2s-0.1,0.2-0.2,0.2l-0.2,0.1
	c0,0.1-0.1,0.1-0.1,0.1l0,0c0,0,0.1-0.1,0.3-0.1c0.2-0.1,0.4-0.2,0.5-0.3c0.4-0.2,0.6-0.1,0.8-0.2c0.2,0,0.5-0.1,0.7-0.1
	s0.6,0,0.6,0s-0.1,0.1-0.1,0.2c0,0,0,0.1-0.1,0.2c-0.1,0.2-0.3,0.7-0.4,0.9c-0.1,0.3-0.3,0.5-0.4,0.7c-0.1,0.1-0.2,0.5-0.4,0.7
	s-0.2,0.3-0.3,0.4c-0.1,0-0.4,0.3-0.4,0.4c0.1,0,0.5-0.2,0.8-0.5s0.4-0.6,0.6-0.7c0.2-0.2,0.4-0.5,0.5-0.8
	C241.6,119.7,241.6,119.6,241.7,119.4L241.7,119.4z"/>
<path class="st22" d="M230.7,124.1c0,0-0.1,0.3-0.2,0.4c-0.1,0.1-0.4,0.2-0.4,0.5c0,0.2,0.3,0.3,0.3,0.3s-0.2,0.3-0.2,0.5
	s0,0.2,0,0.4c0,0,0,0-0.1,0.1c0,0,0,0.2,0.2,0.3c0.1,0.1,0.3,0.2,0.4,0.2v0.1c0,0,0.1-0.3,0.2-0.5c0.1-0.3,0.1-0.2,0.2-0.6
	c0-0.3,0.4-0.9,0.4-0.9l0.2-0.5l-0.4-0.3H230.7z"/>
<path class="st23" d="M231.4,124.6c-0.1,0.1-0.1,0.2-0.2,0.2c-0.1,0.1-0.2,0.3-0.3,0.3c-0.1,0.1-0.2,0.1-0.2,0.2s0.1,0.2,0.2,0.3
	c0.1,0.1,0.1,0.2,0.1,0.3c0,0,0.1,0,0.2-0.2c0.1-0.2,0.6-1.2,0.6-1.2L231.4,124.6L231.4,124.6z"/>
<path class="st18" d="M232.8,124.1c0,0-0.1-0.2,0-0.4c0.2-0.2,0.4-0.3,0.5-0.4c0,0,0,0-0.1,0c0.1-0.1,0.2-0.2,0.3-0.2
	c0,0-0.1-0.1-0.2-0.1c-0.1,0-0.2,0.1-0.4,0.1c-0.1,0-0.1-0.1-0.1-0.1s0.2,0,0.2-0.1s-0.1-0.1-0.1-0.1s0.4-0.2,0.5-0.3
	c0.1-0.1,0.1-0.2,0.1-0.3c0.1,0,0.4-0.2,0.5-0.1s0,0.2,0,0.2s0.4-0.3,0.6-0.5c0.2,0,0.2-0.1,0.4-0.1c0.1,0,0.4,0.2,0.4,0.6
	c0,0.2,0.1,0.4,0,0.8c0,0.2,0,0.8,0.1,1s0.2,0.2,0.2,0.2c0,0.1-0.1,0.1-0.1,0.2c-0.1,0.1-0.1,0.3-0.1,0.4s0,0.1,0,0.2
	c0,0-0.1,0.1-0.1,0.2s-0.1,0.1-0.2,0.1c-0.1,0,0,0-0.1,0s-0.1,0-0.2,0c-0.1,0-0.1,0-0.1-0.2s-0.8-0.6-0.8-0.6L232.8,124.1
	L232.8,124.1z"/>
<path class="st24" d="M231.3,126.1c0,0,0.3,0.4,1.4,0.4c0.5,0,0.7-0.1,0.8-0.1s0.6-0.2,1-0.7s0.3-0.7,0.3-0.7h-0.2l-0.8,0.1l-2.3,1
	L231.3,126.1L231.3,126.1z"/>
<path class="st25" d="M232.2,126.1c0,0-1,0.2-1-0.4s0.6-1.2,0.8-1.4c0.2-0.1,0.5-0.2,0.5-0.2h0.9l0.2,0.5l-0.1,1L232.2,126.1z"/>
<path class="st14" d="M233.1,124.3c0,0-0.2-0.2-0.6,0.1c-0.4,0.2-0.8,0.7-0.8,1.2c0,0.4,0.3,0.7,0.9,0.7c0.4,0,0.6,0,0.8-0.1
	l-0.2-0.2L233.1,124.3z"/>
<path class="st15" d="M232.9,124.4c0,0,0,0-0.2,0c-0.1,0.1-0.3,0.2-0.4,0.3c-0.1,0.1-0.1,0.1-0.2,0.1c-0.2,0.2-0.3,0.6-0.3,0.8
	c0.1,0.2,0.4,0.4,1.2,0.2L232.9,124.4L232.9,124.4z"/>
<path class="st25" d="M232.6,124.8c0,0-0.1,0.2-0.1,0.5s0.2,0.8,0.8,0.8c0.5,0,0.8-0.7,1.2-1c0.3-0.2,0.4-0.2,0.4-0.2
	s-0.3-0.3-1-0.7c-0.7-0.4-1.5-0.4-2,0.2c0.2,0,0.9-0.2,0.9-0.2l0.3,0.1L232.6,124.8z"/>
<path class="st24" d="M233.6,125.2c0,0,0-0.1,0.1-0.1s0.1,0,0.2,0.1c0,0.1,0.1,0.1,0,0.1C233.8,125.3,233.7,125.3,233.6,125.2z
	 M233.5,124.8C233.5,124.8,233.4,124.8,233.5,124.8c0-0.1,0-0.2,0.1-0.1c0.1,0,0.1,0.1,0.1,0.2C233.6,124.8,233.5,124.9,233.5,124.8
	L233.5,124.8L233.5,124.8C233.4,124.8,233.4,124.8,233.5,124.8C233.4,124.8,233.4,124.8,233.5,124.8L233.5,124.8z"/>
<path class="st26" d="M225.2,125c0,0,0.2,0.2,0.5,0.2s0.6-0.3,0.8-0.5c0.1-0.1,0.2-0.2,0.3-0.3c0.1-0.1,0.1-0.1,0.2-0.2
	c0.1-0.1,0.1-0.2,0.1-0.2c-0.1,0.1-0.2,0.1-0.3,0.2s-0.3,0.2-0.4,0.2c-0.1,0-0.9,0.5-0.9,0.5L225.2,125z"/>
<path class="st26" d="M225.6,122.7c0,0,0.1-0.1,0.4-0.1c0.2-0.1,0.7-0.1,0.7-0.1l0.4,0.2l0.2,0.6l-0.3,0.6l-0.4,0.2l-0.4-0.7
	L225.6,122.7L225.6,122.7z"/>
<path class="st14" d="M225.1,123.3l-0.1,0.1c0,0,0-0.1,0.1-0.3c0-0.2,0.2-0.7,0.4-1s0.2-0.3,0.2-0.3s0,0-0.1,0s0,0-0.1,0
	c0-0.1,0.2-0.3,0.4-0.4s0.3-0.2,0.5-0.1s0.3,0.1,0.4,0.1c0.1,0,0.3-0.2,0.3-0.2s0,0.1-0.1,0.3c-0.1,0.2-0.6,0.7-0.6,0.7l-0.9,0.6
	L225.1,123.3L225.1,123.3z"/>
<path class="st24" d="M224.9,123.5c0,0-0.1,0.1-0.2,0.4c-0.1,0.3,0.1,0.6,0.1,0.8c0.1,0.1,0.2,0.4,0.6,0.4c0.1,0,0.2,0,0.2-0.1
	c0.1-0.1,0.2-0.1,0.3-0.2s0.3-0.2,0.3-0.2l-0.9-0.7l-0.3-0.4L224.9,123.5z"/>
<path class="st23" d="M225.8,124.7c0,0,0.2,0,0.3-0.1s-0.6-0.8-0.6-0.8l0.1,0.8L225.8,124.7z"/>
<path class="st19" d="M225,123.4l-0.1,0.2c0,0.1,0,0.6,0.1,0.8c0,0.2,0.2,0.4,0.5,0.4c0.2,0,0.4-0.1,0.4-0.1s-0.2-0.1-0.3-0.2
	c0-0.1-0.1-0.2-0.1-0.4c0-0.1,0-0.2,0-0.2c0.1-0.1,0.1-0.4,0.1-0.4l0.3-0.5h-0.4L225,123.4L225,123.4z"/>
<path class="st25" d="M224.9,123.6c0,0,0.3-0.4,0.6-0.5s0.4,0,0.4,0l-0.2,0.4l-0.2,0.2v0.1c0,0,0,0.3,0.2,0.6
	c0.2,0.2,0.4,0.2,0.5,0.2s0.4-0.1,0.5-0.4s0.2-0.7,0-1.1s-0.7-0.4-0.8-0.4S225.1,122.7,224.9,123.6L224.9,123.6z"/>
<path class="st27" d="M232.6,124.9c-0.1-0.1,0-0.4,0.1-0.5s0.3-0.2,0.5-0.2c0.1,0,0.2,0.1,0.2,0.1c0,0.1-0.2,0.3-0.3,0.4
	C232.9,124.9,232.7,125,232.6,124.9z"/>
<path class="st27" d="M226.5,123.2c0.1,0,0.2,0.1,0.2,0.1c0,0.1-0.1,0.3-0.2,0.3c-0.1,0-0.2-0.2-0.2-0.2v-0.1
	C226.4,123.3,226.4,123.2,226.5,123.2z"/>
<path class="st14" d="M225.3,123.3c0,0-0.2,0.1-0.3,0.3c-0.1,0.1-0.1,0.3-0.1,0.5c0,0.1,0.1,0.3,0.1,0.3c0.1,0.1,0.1,0.1,0.2,0.1
	c0.1,0,0.2-0.1,0.2-0.2s0-0.4,0.1-0.6C225.6,123.5,225.3,123.3,225.3,123.3L225.3,123.3z"/>
<path class="st15" d="M225.4,123.3C225.3,123.3,225.3,123.3,225.4,123.3c-0.1,0.1,0.1,0.2,0.1,0.2c0.1,0.1,0.1,0.2,0,0.2
	c0,0,0.1,0,0.1-0.1c0.1-0.1,0.1-0.2,0.2-0.2h0.1c0.1,0,0.1,0,0.1-0.1s-0.1-0.2-0.2-0.2c0-0.1,0-0.1,0-0.2c-0.1-0.1-0.3,0-0.3,0.1
	C225.5,123.2,225.4,123.3,225.4,123.3z"/>
<path class="st16" d="M230.2,129.6l0.4-0.1l0.1,0.1c0,0,0.1,0.2,0.2,0.2c0,0.1-0.2,0.2-0.2,0.2c0,0.1,0.1,0.1,0.1,0.1
	s-0.4,0.7,0.4,1.3c-0.2,0.1-0.4,0.2-0.6,0.2c0.1,0,0.3,0.1,0.4,0.1c0.1,0.1,0.1,0.1,0.2,0.1s0.1,0.1,0.1,0.1c-0.1,0-0.2-0.1-0.3,0
	s-0.7,0.1-0.7,0.1l-1.2,0.2c0,0,0-0.1-0.1-0.2c-0.1-0.1-0.3,0-0.5-0.1c-0.3-0.2-0.3-0.4-0.3-0.5c0.1-0.1,0.2-0.1,0.6-0.2
	c0,0-0.1-0.1,0-0.2c0-0.1,0.2-0.2,0.1-0.3c0.1,0,0.1,0,0.3-0.2s0.3-0.3,0.4-0.3c0.1,0,0.2,0,0.4-0.2c0.2-0.1,0.1-0.3,0.1-0.3
	S230.2,129.8,230.2,129.6z"/>
<path class="st16" d="M225.5,134.3C225.5,134.3,225.6,134.4,225.5,134.3c0.2,0.1,0.3,0.2,0.3,0.3c0,0,0.1-0.1,0.2,0
	c0.1,0.1,0.3,0,0.4,0.1c0.1,0,0.1,0.1,0.1,0.1s0.1-0.1,0.2-0.1c0.1,0,0.2-0.1,0.3-0.1s0.2-0.1,0.3-0.1s0.3,0.3,1.3-0.1
	c0.9-0.4,1.1-0.4,1.3-0.3c0,0,0-0.1,0.3-0.1c0-0.1-0.2-0.4-0.2-0.4l-1.1-0.4h-0.6l-1.8,0.3l-1,0.6V134.3L225.5,134.3z"/>
<path class="st19" d="M224.9,133.7c0,0,0,0.2,0.3,0.3c0.2,0.2,0.3,0.3,0.3,0.3s0-0.1,0.1-0.1c0-0.1,0.1-0.1,0.1-0.2
	c0.1-0.1,0.4,0,0.5,0s0-0.1,0.1-0.1s0.2,0.1,0.3,0.1s0.2,0,0.2,0s0-0.3,0.2-0.4c0.2-0.1,0.4-0.1,0.5,0c0,0,0,0.2,0.1,0.2
	s0.1,0,0.2,0c0.1,0,0.2,0,0.3,0.2c0.1,0,0.2,0,0.1-0.2c0.1,0,0.1-0.1,0.2-0.3c0,0,0.1-0.1,0.1-0.2c0.1,0,0.2,0,0.4,0.1
	c-0.1,0-0.1,0.1-0.1,0.1l0.1,0.1c0,0.1,0.1,0.1,0.1,0.1c0.1,0,0.3,0,0.6,0c0.2,0,0.4,0.1,0.5,0.1c0,0,0,0,0.1,0s0.1,0,0.1-0.1
	c0,0,0.1,0.1,0.1,0c0,0,0.1-0.1,0.2-0.1c0.1,0,0.2,0,0.2-0.1c0.1-0.2-0.2-0.2-0.2-0.2s0.1-0.1,0.2-0.2c0.1-0.1,0.3-0.3,0.3-0.5
	c0.1-0.4-0.3-0.4-0.3-0.4l-1.9,0.6l-2.3-0.1L224.9,133.7L224.9,133.7z"/>
<path class="st24" d="M223.3,128.3c0,0-0.1,0.1-0.1,0.3s0,0.2-0.1,0.3c0,0.1-0.4,1.4-0.3,1.8c0.1,0.4,0.4,0.6,0.5,0.9
	c0,0.1,0.1,0.1,0.1,0.2c0.1,0.2,0,0.4,0.1,0.6c0,0.1,0.1,0.2,0.2,0.3c0.2,0.2,0.5,0.4,0.6,0.5c0.2,0.2,0.4,0.6,0.8,0.6
	c0.2,0,0.4-0.1,0.6-0.2c0.2-0.1,0.3-0.3,0.5-0.4c0.1-0.1,0.3-0.1,0.4-0.1c0.3-0.1,0.5-0.1,0.6,0c0.2,0,0.7,0.2,1,0.2
	c0.2,0,0.4,0,0.7-0.1c0.4-0.1,1-0.3,1.3-0.4c0.2-0.1,0.4-0.1,0.5-0.1c0.3-0.1,0.5-0.2,0.7-0.3c-0.1-0.1-0.2-0.3-0.8-0.3
	c-0.7,0-1.5,0.4-1.9,0.5s-0.6,0.1-1,0c-0.4-0.2-0.4-0.3-0.4-0.3s-0.4-0.3-0.6-1.1s0-1.4,0.5-1.9c0.1-0.1,0.1-0.3,0.1-0.3
	s0.3-0.4,0.2-0.8c-0.1-0.4-0.7-0.3-0.7-0.3L223.3,128.3z"/>
<path class="st28" d="M223.4,127.7L223.4,127.7c0-0.2,0.2-0.4,0.6-0.6c0.4-0.2,1.1-0.2,1.9,0c0.8,0.2,1.4,0.5,1.4,1
	c0,0.2-0.1,0.3-0.2,0.4c-0.1,0.1-0.1,0.1-0.2,0.2c-0.1,0.1-0.3,0.3-0.4,0.5c0,0.1-0.1,0.1-0.1,0.2c-0.1,0.2-0.3,0.3-0.4,0.4
	c0.2,0,0.3,0,0.3,0s-0.1,0.1-0.2,0.1c-0.2,0.1-0.5,0.2-0.5,0.3c0,0,0.2,0.1,0.4,0.2c0.2,0.1,0.4,0.1,0.4,0.2c0,0,0.1,0.1,0.1,0.2
	c0,0.1,0,0.2-0.1,0.3s-0.2,0-0.4-0.1l0,0c-0.2-0.1-0.5-0.4-0.5-0.4c-0.1,0-0.1,0.1-0.2,0.1c-0.1,0-0.1,0-0.2,0.1
	c0,0-0.2-0.5-0.4-0.4s-0.2,0.1-0.2,0.1l0,0l0,0c0,0,0,0.1-0.2-0.1c-0.2-0.2-0.3-0.3-0.3-0.4v-0.1c-0.2-0.2-0.4-0.5-0.5-0.8
	C223.1,128.3,223.3,127.8,223.4,127.7L223.4,127.7z"/>
<path class="st24" d="M227.2,131.4L227.2,131.4C227.2,131.5,227.2,131.5,227.2,131.4C227.2,131.5,227.2,131.5,227.2,131.4
	C227.2,131.5,227.2,131.4,227.2,131.4z"/>
<path class="st24" d="M226.8,131.2h0.1c0,0,0.1,0,0,0.1l-0.1,0.1c-0.1,0-0.1,0-0.1-0.1c0,0,0,0,0-0.1
	C226.7,131.3,226.7,131.3,226.8,131.2C226.7,131.2,226.7,131.2,226.8,131.2z"/>
<path class="st25" d="M223.3,131.5L223.3,131.5c0.1,0,0.6-0.2,1.1-0.1c0.4,0,0.7,0.1,1.1,0.2c0.6,0.2,1.4,0.5,1.9,0.7
	c0.1,0.1,0.3,0.1,0.4,0.2c0.4,0.1,0.4,0.1,0.6,0.2c0.3,0,0.5-0.1,0.8-0.1c0.3-0.1,0.9-0.1,1.5-0.2c0.2,0,0.3-0.1,0.5-0.1
	c0,0-0.4,0.4-1.4,0.6c-0.4,0.1-0.8,0.1-1.2,0c-0.3,0-0.5-0.1-0.7-0.1c-0.2-0.1-0.5-0.2-1-0.3c-0.3-0.1-0.7-0.1-1.1-0.2
	C224.7,131.9,223.7,131.7,223.3,131.5L223.3,131.5z"/>
<path class="st29" d="M222.6,127.4l0.1,0.1c-0.1-0.1-0.2-0.2-0.3-0.3c-0.1-0.1-0.2-0.2-0.3-0.3l-0.3-0.3l-0.1-0.1c0,0-0.1,0-0.1-0.1
	l-0.1-0.1c-0.4-0.4-0.8-0.8-1.3-1.2c0.3,0.3,0.6,0.6,1,0.9l0,0c0.1,0.1,0.2,0.2,0.3,0.3l0.1,0.1c0,0,0.1,0,0.1,0.1l0.1,0.1
	c0,0,0.1,0,0.1,0.1l0.3,0.3C222.3,127.1,222.4,127.2,222.6,127.4C222.5,127.3,222.6,127.3,222.6,127.4z"/>
<path class="st18" d="M222,128.1C222,128.1,221.9,128.1,222,128.1c-0.2,0-0.2,0-0.3-0.1l-0.6-0.1l-1.3-0.2h-0.1c-0.1,0-0.1,0-0.2,0
	h-0.3c-0.1,0-0.2,0-0.3,0s-0.2,0-0.4,0c-0.4,0-0.8-0.1-1.3-0.1l0,0l0,0l0,0c0.4,0.1,0.8,0.1,1.2,0.2l2.2,0.3l0.5,0.1l0.6,0.1
	c0.2,0,0.4,0.1,0.6,0.1c-0.1,0-0.1,0-0.2,0h0.2C222.3,128.1,222.2,128.1,222,128.1z M217.2,127.4L217.2,127.4L217.2,127.4
	L217.2,127.4z M222,128.1c-0.6-0.1-2-0.3-2.5-0.4c-0.7-0.1-2.1-0.2-2.3-0.3l0,0l1.2,0.2h0.1c0.1,0,0.2,0,0.2,0c0.1,0,0.3,0,0.4,0
	h0.3c0.1,0,0.1,0,0.2,0c0.1,0,0.1,0,0.2,0l0.8,0.1l1.6,0.2C222.1,128.1,222,128.1,222,128.1z"/>
<path class="st29" d="M222.2,128.5L222.2,128.5L222.2,128.5c-0.4,0.1-0.7,0.2-1.1,0.3l-0.2,0.1l-1.7,0.5c-0.1,0-0.2,0.1-0.3,0.1
	l-0.5,0.1c-0.1,0-0.2,0-0.3,0.1l-0.3,0.1c0,0,0,0,0.1,0h-0.1l0,0c0.2-0.1,0.3-0.1,0.5-0.2l0.5-0.2c0.2-0.1,0.4-0.1,0.5-0.2
	c0.2-0.1,0.4-0.1,0.5-0.2c0.2,0,0.3-0.1,0.5-0.1c0.2-0.1,0.4-0.1,0.6-0.2C221.4,128.7,221.8,128.6,222.2,128.5L222.2,128.5
	L222.2,128.5L222.2,128.5L222.2,128.5z"/>
<path class="st18" d="M218,130.7L218,130.7c0.1,0,0.1-0.1,0.2-0.1c0.1,0,0.1,0,0.2-0.1c0.2-0.1,0.4-0.2,0.5-0.2l0.9-0.4
	c0.1,0,0.2-0.1,0.2-0.1c0.2-0.1,0.5-0.2,0.7-0.3c0.1-0.1,0.3-0.1,0.4-0.2c0.2-0.1,0.3-0.1,0.5-0.2h-0.1h0.1c0,0-0.1,0-0.2,0.1l0,0
	l-0.2,0.1c-0.2,0.1-0.3,0.1-0.5,0.2c-0.2,0.1-0.4,0.2-0.6,0.3c-0.1,0.1-0.2,0.1-0.3,0.2l-0.9,0.4l-0.4,0.2c-0.1,0-0.1,0.1-0.2,0.1
	H218z M218.4,130.6L218.4,130.6L218.4,130.6L218.4,130.6c0,0-0.1,0-0.1,0.1c0,0-0.1,0-0.1,0.1C218.2,130.7,218.3,130.6,218.4,130.6z
	"/>
<path class="st29" d="M218.2,131.6l1-0.5l0.5-0.3c0.2-0.1,0.3-0.2,0.5-0.3c0.1-0.1,0.2-0.1,0.3-0.2c0.1,0,0.1-0.1,0.2-0.1
	c0.1,0,0.2-0.1,0.2-0.1c0.1,0,0.2-0.1,0.2-0.1l0.1-0.1c0.3-0.2,0.6-0.3,0.8-0.5c-0.3,0.1-0.6,0.3-0.9,0.4H221l-0.3,0.1
	c-0.1,0-0.2,0.1-0.2,0.1c-0.1,0.1-0.3,0.1-0.4,0.2c0,0-0.1,0-0.1,0.1c0,0-0.1,0-0.1,0.1l0,0c-0.1,0.1-0.3,0.1-0.4,0.2l-0.5,0.3
	c-0.3,0.2-0.5,0.3-0.8,0.5l0,0C218.4,131.5,218.3,131.5,218.2,131.6L218.2,131.6z"/>
<path class="st29" d="M222.1,129.7L222.1,129.7L222.1,129.7c-0.2,0.1-0.3,0.2-0.5,0.3c-0.1,0.1-0.2,0.1-0.3,0.2l-0.5,0.4l-0.6,0.5
	l-0.1,0.1l0,0c-0.1,0.1-0.2,0.1-0.3,0.2c-0.2,0.2-0.5,0.4-0.7,0.6l0,0l0,0l0,0c0.3-0.2,0.5-0.4,0.8-0.5c0.1-0.1,0.3-0.2,0.4-0.3
	c0.1-0.1,0.3-0.2,0.4-0.3l0.8-0.6C221.7,130,221.9,129.8,222.1,129.7C222.2,129.6,222.2,129.6,222.1,129.7z"/>
<path class="st29" d="M228.9,129.7c0,0,0,0,0.2,0c0.1,0,0.6,0,0.9-0.1c0.2,0,0.4,0,0.5,0c0.3,0,1.3,0,1.8,0.1s1,0.2,1.2,0.3
	s0.3,0.1,0.3,0.1l-0.1,0.1c0,0-0.1,0-0.2,0c-0.3-0.1-0.7-0.2-0.9-0.3s-1.1-0.2-1.6-0.2c-0.1,0-0.2,0-0.3,0c-0.3,0-0.4,0-0.7,0
	c-0.4,0-1,0.1-1.2,0.1C228.9,129.7,228.9,129.7,228.9,129.7L228.9,129.7L228.9,129.7z"/>
<path class="st29" d="M220.8,131.8L220.8,131.8c0.1-0.1,0.2-0.1,0.3-0.2c0.1-0.1,0.1-0.1,0.2-0.2c0.1-0.1,0.1-0.1,0.2-0.2
	c0.1-0.1,0.1-0.1,0.2-0.2c0.1-0.1,0.2-0.2,0.3-0.2s0.1-0.1,0.2-0.1c0,0,0.1,0,0.1-0.1l0.1-0.1l0,0c0,0,0,0,0.1-0.1l0,0l0,0l0,0l0,0
	l0,0l0,0h-0.1l0,0l-0.1,0.1c-0.1,0.1-0.1,0.1-0.2,0.2c-0.1,0.1-0.1,0.1-0.2,0.2c-0.1,0.1-0.1,0.2-0.2,0.2c-0.1,0.1-0.1,0.1-0.2,0.2
	l0,0l-0.2,0.2C221.1,131.5,221,131.6,220.8,131.8L220.8,131.8z"/>
<path class="st29" d="M222.6,130.6L222.6,130.6c-0.1,0.1-0.2,0.2-0.3,0.3l0,0l-0.4,0.4c-0.1,0-0.1,0.1-0.2,0.1l-0.1,0.1l-0.2,0.1
	l0,0l0,0c0.1-0.1,0.2-0.1,0.2-0.2c0,0,0.1,0,0.1-0.1c0.1-0.1,0.1-0.1,0.2-0.2l0.1-0.1l0.3-0.3C222.5,130.8,222.6,130.7,222.6,130.6z
	"/>
<path class="st29" d="M221.6,133.3L221.6,133.3c0.1-0.2,0.2-0.3,0.2-0.5c0,0,0,0,0-0.1c0,0,0,0,0-0.1l0.4-0.8c0,0,0,0,0-0.1
	s0.1-0.1,0.1-0.2v-0.1c0-0.1,0.1-0.1,0.1-0.2c0,0,0,0,0-0.1s0.1-0.1,0.1-0.2c0,0.1,0,0.2-0.1,0.3c0,0.1-0.1,0.2-0.1,0.3
	s-0.1,0.2-0.1,0.3c0,0,0,0.1-0.1,0.1c0,0.1-0.1,0.1-0.1,0.2l-0.3,0.5c0,0,0,0.1-0.1,0.1C221.7,133,221.7,133.2,221.6,133.3
	L221.6,133.3L221.6,133.3z"/>
<path class="st29" d="M223.5,134.5c0-0.5,0.3-0.9,0.3-0.9c-0.1,0.1-0.1,0.4-0.2,0.6C223.6,134.2,223.5,134.4,223.5,134.5z"/>
<path class="st29" d="M223.9,135.6c0.1-0.5,0.2-1.6,0.2-1.6c0,0.9-0.1,1-0.1,1.4C223.9,135.4,223.9,135.5,223.9,135.6z"/>
<path class="st29" d="M226,135.7C226,135.6,226,135.6,226,135.7L226,135.7C226,135.6,226,135.7,226,135.7z"/>
<path class="st29" d="M226,135.7c-0.1,0.2-0.4,1.3-0.5,1.7c0-0.1,0-0.1,0.1-0.2C225.7,136.7,225.9,136.1,226,135.7z"/>
<path class="st29" d="M227.1,133.5c0,0,0.7,1.2,1.3,2.2C228.2,135.2,227.9,134.2,227.1,133.5z"/>
<path class="st29" d="M229.1,135.3c0.4,0.7,0.8,1.4,1.1,2.2C230.1,136.9,229.9,136,229.1,135.3z"/>
<path class="st30" d="M226.7,129.5C226.6,129.5,226.6,129.6,226.7,129.5L226.7,129.5c0,0.1,0.2,0.3,0.3,0.3h0.1l0,0l-0.1-0.1h0.1
	v-0.1l0,0l0,0l0,0l0,0l0,0l0,0H227l0,0C226.8,129.6,226.8,129.6,226.7,129.5C226.7,129.6,226.7,129.6,226.7,129.5L226.7,129.5z"/>
<path class="st24" d="M227.1,128.7c0,0-0.2,0.3-0.2,0.4l0,0h-0.1c0,0,0.1,0.2,0.1,0.3c0,0,0,0,0,0.1c0.1,0.1,0.1,0.1,0.1,0.2
	c0,0,0,0,0.1,0l0,0c0,0,0-0.1,0-0.4C227.3,128.9,227.2,128.7,227.1,128.7C227.2,128.7,227.2,128.7,227.1,128.7z"/>
<path class="st30" d="M227.2,130.2C227.2,130.2,227.2,130.1,227.2,130.2C227.2,130.1,227.2,130.1,227.2,130.2c0-0.1,0.1-0.1,0.1-0.1
	l0,0l0,0C227.4,130.2,227.4,130.2,227.2,130.2C227.3,130.3,227.3,130.3,227.2,130.2C227.2,130.3,227.2,130.2,227.2,130.2
	L227.2,130.2z"/>
<path class="st30" d="M227.8,129.8L227.8,129.8c0.1,0,0.1,0,0.1,0l0,0l0,0l0,0v0.1c0,0-0.1,0.1-0.1,0
	C227.8,130,227.8,129.9,227.8,129.8z"/>
<path class="st30" d="M226.6,130.1c0.1,0,0.2-0.1,0.2-0.1s0-0.1-0.1-0.1h-0.1c-0.1,0-0.2,0-0.2,0.1c-0.1,0.1,0,0.2,0,0.2l0,0
	c0,0,0,0,0.1,0C226.5,130.2,226.5,130.2,226.6,130.1c-0.1,0.1,0,0.1,0,0.1l0.1,0.1c0,0,0,0,0,0.1l0,0c0,0,0.1,0,0.2,0l0,0
	c0.1,0,0.1-0.1,0.1-0.1l0,0C227,130.3,226.8,130.2,226.6,130.1L226.6,130.1C226.6,130.2,226.6,130.2,226.6,130.1
	C226.6,130.2,226.6,130.1,226.6,130.1z"/>
<path class="st30" d="M224.5,130.1c-0.1,0.8,0.1,1,0.1,1c0.2-0.3,0.1-0.9,0.1-0.9C224.6,130.1,224.5,130.1,224.5,130.1z"/>
<path class="st30" d="M226,131.2L226,131.2L226,131.2c-0.1,0,0,0.1,0.1,0.1s0.1-0.1,0.1-0.1s0-0.2-0.1-0.2S226,131.2,226,131.2z"/>
<path class="st30" d="M225.6,130.3c0,0,0.1,0,0.1,0.1c0,0,0,0,0.1,0s0.3,0,0.3,0c0.1,0.1,0.1,0.1,0.1,0.1s-0.3,0.1-0.5,0
	C225.6,130.4,225.6,130.3,225.6,130.3z"/>
<path class="st30" d="M225.5,130.9c0,0,0-0.2,0.2-0.2s0.2,0.2,0.2,0.2l-0.1,0.1C225.8,131,225.7,130.9,225.5,130.9L225.5,130.9z"/>
<path class="st30" d="M226.7,130.6c0,0-0.1-0.1-0.2,0c-0.1,0-0.1,0.2-0.1,0.2s0,0,0.1,0c0,0,0,0,0.1,0
	C226.6,130.8,226.7,130.7,226.7,130.6z"/>
<path class="st30" d="M226.9,130.8L226.9,130.8L226.9,130.8c0,0.1,0,0.1,0,0.1c0,0.1,0,0.1,0.1,0.1s0.1-0.1,0.1-0.2l-0.1-0.1l0,0
	C226.9,130.7,226.9,130.7,226.9,130.8C226.9,130.7,226.9,130.7,226.9,130.8C226.9,130.7,226.8,130.8,226.9,130.8
	C226.8,130.8,226.8,130.8,226.9,130.8z"/>
<path class="st30" d="M227.4,130.8h0.1l0,0c0,0,0,0.1,0.1,0.1s0.2,0,0.2-0.1v-0.1l0,0l0,0h-0.1l0,0
	C227.5,130.7,227.5,130.7,227.4,130.8C227.4,130.7,227.4,130.7,227.4,130.8z"/>
<path class="st30" d="M228.2,130.7C228.2,130.7,228.2,130.6,228.2,130.7C228.2,130.6,228.3,130.6,228.2,130.7c0.1-0.1,0.1-0.1,0-0.1
	H228l0,0l0,0l-0.1,0.1c0,0,0,0,0.1,0C228,130.7,228,130.7,228.2,130.7L228.2,130.7z"/>
<path class="st30" d="M228.3,129.8C228.4,129.8,228.4,129.7,228.3,129.8L228.3,129.8c0.1-0.1,0.2-0.1,0.2-0.1l0.1-0.1c0,0,0,0-0.1,0
	h-0.1c0,0-0.1,0-0.1,0.1l0,0C228.3,129.7,228.3,129.7,228.3,129.8C228.3,129.7,228.3,129.8,228.3,129.8L228.3,129.8z"/>
<path class="st30" d="M227.6,131.5C227.6,131.5,227.7,131.5,227.6,131.5L227.6,131.5C227.7,131.5,227.7,131.5,227.6,131.5
	C227.7,131.5,227.7,131.5,227.6,131.5c0-0.1,0-0.1,0.1-0.1s0.1,0,0.1,0s0,0,0.1,0c0,0,0.1,0,0.1,0.1c0,0,0,0-0.1,0.1h-0.1
	C227.7,131.6,227.7,131.6,227.6,131.5C227.7,131.5,227.7,131.5,227.6,131.5C227.7,131.5,227.7,131.5,227.6,131.5
	C227.7,131.6,227.6,131.6,227.6,131.5z"/>
<path class="st30" d="M227.5,131.8C227.4,131.8,227.4,131.8,227.5,131.8L227.5,131.8C227.4,131.8,227.4,131.8,227.5,131.8
	c-0.1,0.1-0.1,0.1-0.1,0.1l0,0l0,0l0.1,0.1c0,0,0.1,0,0.1-0.1C227.5,131.9,227.5,131.8,227.5,131.8z"/>
<path class="st30" d="M227.1,131.4L227.1,131.4L227.1,131.4c-0.1,0.1-0.1,0.2-0.1,0.2s0.1,0,0.2,0c0.1,0,0.1-0.1,0.1-0.1l0,0
	c0,0,0,0,0-0.1C227.3,131.4,227.3,131.4,227.1,131.4C227.2,131.3,227.2,131.3,227.1,131.4C227.2,131.3,227.2,131.3,227.1,131.4
	C227.2,131.3,227.2,131.3,227.1,131.4C227.2,131.3,227.2,131.3,227.1,131.4C227.2,131.3,227.1,131.3,227.1,131.4z"/>
<path class="st30" d="M226.7,131.3l-0.1,0.1l0,0c-0.1,0.1-0.2,0.2-0.2,0.2s0-0.1,0.1-0.1c-0.1,0-0.1,0.1-0.1,0.2
	c0,0.1,0.2,0.2,0.3,0.2l0,0c0.2,0,0.2,0.1,0.2,0.1c-0.1-0.1-0.1-0.2-0.1-0.3v-0.1c0-0.1,0-0.1,0-0.1S226.8,131.5,226.7,131.3
	C226.8,131.4,226.8,131.4,226.7,131.3C226.8,131.3,226.7,131.3,226.7,131.3z"/>
<path class="st31" d="M251.4,129.3c0,10-8.1,18.1-18.1,18.1s-18.1-8.1-18.1-18.1s8.1-18.1,18.1-18.1S251.4,119.3,251.4,129.3z
	 M251,129.3c0,9.8-7.9,17.7-17.7,17.7s-17.7-7.9-17.7-17.7s7.9-17.7,17.7-17.7C243.1,111.6,251,119.5,251,129.3z"/>
<path class="st32" d="M243.6,124.7c-1.9-4.9-6.6-5.8-6.6-5.8h-13.3l0.1,5h2.7V135h-2.7v5h12.9c3.1,0,5.6-3.1,5.6-3.1
	C246.3,131.1,243.6,124.7,243.6,124.7L243.6,124.7z M236.7,133.5c0,0-1,1.5-2.1,1.5h-2.2l-0.1-11h2.8c0,0,1.3,0.3,2.2,2.9
	C237.4,126.8,238.6,130.5,236.7,133.5z"/>
<polygon class="st33" points="196.9,185.7 199.9,182.7 202.9,185.7 204.7,183.9 199.9,179.1 195.1,183.9 "/>
<rect x="192.7" y="185.7" transform="matrix(0.7071 -0.7071 0.7071 0.7071 -75.3503 191.8958)" class="st33" width="2.5" height="2.5"/>
<polygon class="st33" points="196.9,188.1 199.9,191.2 202.9,188.1 204.7,189.9 204.7,189.9 199.9,194.7 195.1,189.9 195.1,189.9 
	"/>
<rect x="204.7" y="185.7" transform="matrix(0.7071 -0.7071 0.7071 0.7071 -71.8456 200.3904)" class="st33" width="2.5" height="2.5"/>
<polygon class="st33" points="201.7,186.9 201.7,186.9 199.9,185.1 198.6,186.4 198.6,186.4 198.4,186.6 198.1,186.9 198.1,186.9 
	198.1,186.9 198.1,186.9 199.9,188.7 201.7,186.9 "/>
<path class="st33" d="M210.4,182.9h3.8c0.9,0,1.7,0.2,2.1,0.7c0.4,0.4,0.6,0.8,0.6,1.4l0,0c0,0.2,0,0.4-0.1,0.6
	c-0.1,0.2-0.1,0.3-0.2,0.5c-0.1,0.1-0.2,0.3-0.3,0.4c-0.1,0.1-0.3,0.2-0.4,0.3c0.5,0.2,0.9,0.4,1.1,0.7c0.3,0.3,0.4,0.7,0.4,1.3l0,0
	c0,0.4-0.1,0.7-0.2,1c-0.1,0.3-0.4,0.5-0.6,0.7c-0.3,0.2-0.6,0.3-1,0.4c-0.4,0.1-0.8,0.1-1.3,0.1h-3.9L210.4,182.9L210.4,182.9z
	 M213.9,186.2c0.4,0,0.7-0.1,1-0.2c0.2-0.1,0.4-0.4,0.4-0.7l0,0c0-0.3-0.1-0.5-0.3-0.6s-0.5-0.2-0.9-0.2h-1.8v1.7
	C212.2,186.2,213.9,186.2,213.9,186.2z M214.3,189.6c0.4,0,0.7-0.1,0.9-0.2c0.2-0.1,0.3-0.4,0.3-0.7l0,0c0-0.3-0.1-0.5-0.3-0.7
	s-0.6-0.2-1-0.2h-2.1v1.8L214.3,189.6L214.3,189.6z"/>
<path class="st33" d="M219.7,182.9h1.8v8.2h-1.8V182.9z"/>
<path class="st33" d="M224.2,182.9h1.7l3.9,5.1v-5.1h1.8v8.2H230l-4-5.2v5.2h-1.8V182.9z"/>
<path class="st33" d="M237,182.8h1.7l3.5,8.3h-1.9l-0.8-1.8H236l-0.8,1.8h-1.8L237,182.8z M239,187.7l-1.1-2.7l-1.1,2.7H239z"/>
<path class="st33" d="M244.2,182.9h1.7l3.9,5.1v-5.1h1.8v8.2H250l-4-5.2v5.2h-1.8V182.9z"/>
<path class="st33" d="M258,191.3c-0.6,0-1.2-0.1-1.7-0.3s-1-0.5-1.3-0.9c-0.4-0.4-0.7-0.8-0.9-1.3s-0.3-1.1-0.3-1.7l0,0
	c0-0.6,0.1-1.1,0.3-1.7c0.2-0.5,0.5-1,0.9-1.4s0.8-0.7,1.4-0.9c0.5-0.2,1.1-0.3,1.7-0.3c0.4,0,0.7,0,1.1,0.1
	c0.3,0.1,0.6,0.1,0.9,0.3c0.3,0.1,0.5,0.2,0.7,0.4s0.4,0.3,0.6,0.5l-1.2,1.3c-0.3-0.3-0.6-0.5-1-0.7c-0.3-0.2-0.7-0.2-1.1-0.2
	c-0.3,0-0.7,0.1-1,0.2c-0.3,0.1-0.5,0.3-0.8,0.6c-0.2,0.2-0.4,0.5-0.5,0.8s-0.2,0.6-0.2,1l0,0c0,0.4,0.1,0.7,0.2,1
	c0.1,0.3,0.3,0.6,0.5,0.8s0.5,0.4,0.8,0.6c0.3,0.1,0.6,0.2,1,0.2c0.5,0,0.9-0.1,1.2-0.3c0.3-0.2,0.6-0.4,1-0.7l1.2,1.2
	c-0.2,0.2-0.4,0.4-0.7,0.6c-0.2,0.2-0.5,0.3-0.7,0.5c-0.3,0.1-0.6,0.2-0.9,0.3C258.8,191.2,258.4,191.3,258,191.3z"/>
<path class="st33" d="M263.6,182.9h6.2v1.6h-4.4v1.7h3.9v1.6h-3.9v1.7h4.5v1.6h-6.3L263.6,182.9L263.6,182.9z"/>
<g>
	<path class="st34" d="M194.7,172.2v-7.9l-1.8,1.1v-1.5l1.8-1.1h1.4v9.4H194.7z"/>
	<path class="st34" d="M198.3,172.2l0-1.2l4.1-3.7c0.3-0.3,0.6-0.6,0.7-0.8c0.1-0.3,0.2-0.5,0.2-0.8c0-0.3-0.1-0.6-0.2-0.9
		c-0.1-0.3-0.4-0.5-0.6-0.6c-0.3-0.2-0.6-0.2-0.9-0.2c-0.3,0-0.7,0.1-0.9,0.2c-0.3,0.2-0.5,0.4-0.6,0.6c-0.2,0.3-0.2,0.6-0.2,0.9
		h-1.4c0-0.6,0.1-1.1,0.4-1.6s0.7-0.8,1.1-1.1c0.5-0.3,1-0.4,1.7-0.4c0.6,0,1.1,0.1,1.6,0.4c0.5,0.3,0.8,0.6,1.1,1.1
		c0.3,0.5,0.4,1,0.4,1.6c0,0.4-0.1,0.8-0.2,1.1c-0.1,0.3-0.3,0.6-0.5,0.8c-0.2,0.3-0.5,0.5-0.8,0.8l-3.1,2.8l-0.1-0.4h4.8v1.3H198.3
		z"/>
	<path class="st34" d="M209,172.4c-0.5,0-0.9-0.1-1.3-0.3c-0.4-0.2-0.8-0.5-1.1-0.8c-0.3-0.3-0.5-0.8-0.6-1.2l1.3-0.4
		c0.1,0.3,0.2,0.5,0.4,0.7c0.2,0.2,0.4,0.4,0.6,0.5c0.2,0.1,0.5,0.2,0.8,0.2c0.3,0,0.7-0.1,0.9-0.2c0.3-0.2,0.5-0.4,0.7-0.7
		s0.2-0.6,0.2-0.9c0-0.3-0.1-0.7-0.2-0.9c-0.2-0.3-0.4-0.5-0.7-0.7c-0.3-0.2-0.6-0.2-0.9-0.2c-0.4,0-0.7,0.1-1,0.2
		c-0.3,0.2-0.5,0.3-0.6,0.5l-1.2-0.4l0.3-4.9h5.1v1.3h-4.4l0.6-0.5l-0.2,3.7l-0.3-0.3c0.2-0.2,0.5-0.4,0.9-0.6s0.7-0.2,1-0.2
		c0.6,0,1.1,0.1,1.6,0.4s0.8,0.6,1.1,1.1c0.3,0.5,0.4,1,0.4,1.6c0,0.6-0.1,1.1-0.4,1.6s-0.7,0.9-1.2,1.1
		C210.1,172.3,209.6,172.4,209,172.4z"/>
	<path class="st34" d="M216.4,172.4c-0.5,0-0.9-0.1-1.3-0.3c-0.4-0.2-0.8-0.4-1.1-0.8c-0.3-0.3-0.5-0.7-0.6-1.2l1.3-0.4
		c0.1,0.4,0.3,0.7,0.7,0.9c0.3,0.2,0.7,0.3,1,0.3c0.3,0,0.6-0.1,0.9-0.2c0.3-0.2,0.5-0.4,0.6-0.6s0.2-0.6,0.2-0.9
		c0-0.5-0.2-0.9-0.5-1.3c-0.3-0.3-0.7-0.5-1.3-0.5c-0.1,0-0.3,0-0.5,0.1c-0.2,0-0.3,0.1-0.4,0.2l-0.6-1.1l3.3-2.9l0.1,0.4h-4.5v-1.3
		h5.6v1.3l-2.7,2.6l0-0.4c0.6,0,1.1,0.1,1.5,0.4c0.4,0.3,0.8,0.6,1,1.1c0.2,0.4,0.4,1,0.4,1.5c0,0.6-0.1,1.1-0.4,1.6
		c-0.3,0.5-0.7,0.8-1.1,1.1C217.5,172.2,217,172.4,216.4,172.4z"/>
	<path class="st34" d="M221.7,172.2l3.3-8.1h-4.2v-1.3h5.6v1.3l-3.3,8.1H221.7z"/>
	<path class="st34" d="M231.3,172.4c-0.6,0-1.2-0.1-1.7-0.4c-0.5-0.3-0.9-0.7-1.2-1.2s-0.4-1.1-0.4-1.7v-3.2c0-0.6,0.1-1.2,0.4-1.7
		s0.7-0.9,1.2-1.2c0.5-0.3,1.1-0.4,1.7-0.4c0.6,0,1.2,0.1,1.7,0.4c0.5,0.3,0.9,0.7,1.2,1.2s0.4,1.1,0.4,1.7v3.2
		c0,0.6-0.1,1.2-0.4,1.7s-0.7,0.9-1.2,1.2C232.5,172.3,231.9,172.4,231.3,172.4z M231.3,171.1c0.3,0,0.7-0.1,0.9-0.3
		c0.3-0.2,0.5-0.4,0.7-0.7s0.3-0.6,0.3-1v-3.4c0-0.3-0.1-0.7-0.3-0.9c-0.2-0.3-0.4-0.5-0.7-0.7c-0.3-0.2-0.6-0.3-0.9-0.3
		c-0.3,0-0.7,0.1-0.9,0.3c-0.3,0.2-0.5,0.4-0.7,0.7c-0.2,0.3-0.3,0.6-0.3,0.9v3.4c0,0.4,0.1,0.7,0.3,1s0.4,0.5,0.7,0.7
		C230.6,171,231,171.1,231.3,171.1z"/>
	<path class="st34" d="M239,172.2v-9.4h2.9c0.1,0,0.2,0,0.5,0c0.2,0,0.5,0,0.7,0.1c0.7,0.1,1.3,0.4,1.8,0.8c0.5,0.4,0.9,1,1.1,1.6
		s0.4,1.4,0.4,2.2c0,0.8-0.1,1.5-0.4,2.2c-0.3,0.7-0.6,1.2-1.1,1.6c-0.5,0.4-1.1,0.7-1.8,0.8c-0.2,0-0.4,0-0.7,0.1
		c-0.2,0-0.4,0-0.5,0H239z M240.4,170.9h1.5c0.1,0,0.3,0,0.5,0c0.2,0,0.4,0,0.5-0.1c0.5-0.1,0.9-0.3,1.2-0.6
		c0.3-0.3,0.5-0.7,0.7-1.2s0.2-1,0.2-1.5c0-0.6-0.1-1.1-0.2-1.5c-0.1-0.5-0.4-0.9-0.7-1.2c-0.3-0.3-0.7-0.5-1.1-0.6
		c-0.2,0-0.3,0-0.5-0.1c-0.2,0-0.4,0-0.5,0h-1.5V170.9z"/>
	<path class="st34" d="M251.9,172.4c-0.9,0-1.7-0.2-2.4-0.6c-0.7-0.4-1.2-1-1.5-1.7s-0.5-1.6-0.5-2.5s0.2-1.8,0.5-2.5
		s0.9-1.3,1.5-1.7c0.7-0.4,1.5-0.6,2.4-0.6c0.9,0,1.7,0.2,2.4,0.6c0.7,0.4,1.2,1,1.5,1.7s0.5,1.6,0.5,2.5s-0.2,1.8-0.5,2.5
		s-0.9,1.3-1.5,1.7C253.6,172.2,252.8,172.4,251.9,172.4z M251.9,171.1c0.7,0,1.2-0.1,1.7-0.4s0.8-0.7,1-1.3s0.3-1.2,0.3-1.9
		c0-0.7-0.1-1.3-0.3-1.9s-0.6-1-1-1.3c-0.4-0.3-1-0.5-1.7-0.5c-0.7,0-1.2,0.1-1.7,0.4c-0.4,0.3-0.8,0.7-1,1.3s-0.3,1.2-0.3,1.9
		c0,0.7,0.1,1.3,0.3,1.9c0.2,0.5,0.6,1,1,1.3C250.7,170.9,251.2,171.1,251.9,171.1z"/>
	<path class="st34" d="M261.4,172.4c-0.6,0-1.2-0.1-1.7-0.3s-1-0.5-1.4-1c-0.4-0.4-0.7-0.9-0.9-1.5c-0.2-0.6-0.3-1.3-0.3-2.1
		c0-1,0.2-1.9,0.6-2.6s0.9-1.3,1.5-1.7c0.7-0.4,1.4-0.6,2.3-0.6c1.1,0,2,0.3,2.6,0.8c0.7,0.5,1.1,1.2,1.3,2.1l-1.4,0.2
		c-0.2-0.6-0.5-1-0.9-1.3c-0.4-0.3-1-0.5-1.6-0.5c-0.7,0-1.2,0.1-1.7,0.4c-0.4,0.3-0.8,0.7-1,1.3c-0.2,0.5-0.3,1.2-0.3,1.9
		c0,0.7,0.1,1.3,0.3,1.9c0.2,0.5,0.6,1,1,1.3c0.4,0.3,1,0.5,1.7,0.5c0.5,0,1-0.1,1.4-0.3c0.4-0.2,0.7-0.5,0.9-0.9
		c0.2-0.4,0.4-0.9,0.4-1.5h-1.8v-1.1h3.3c0,0.1,0,0.2,0,0.3c0,0.1,0,0.2,0,0.2c0,0.9-0.2,1.6-0.5,2.3c-0.3,0.7-0.8,1.2-1.5,1.6
		C263.1,172.2,262.3,172.4,261.4,172.4z"/>
	<path class="st34" d="M267,172.2v-9.4h6v1.3h-4.6v2.6h3.8v1.3h-3.8v2.9h4.6v1.3H267z"/>
</g>
<g>
	<path class="st34" d="M286.6,227.2v-1.6h-4.2v-1.3l3-6.4h1.6l-3,6.4h2.7v-2.5h1.4v2.5h0.9v1.3H288v1.6H286.6z"/>
	<path class="st34" d="M293.1,227.4c-0.5,0-0.9-0.1-1.3-0.3c-0.4-0.2-0.8-0.4-1.1-0.8s-0.5-0.7-0.6-1.2l1.3-0.4
		c0.1,0.4,0.3,0.7,0.7,0.9c0.3,0.2,0.7,0.3,1,0.3c0.3,0,0.6-0.1,0.9-0.2c0.3-0.2,0.5-0.4,0.6-0.6s0.2-0.6,0.2-0.9
		c0-0.5-0.2-0.9-0.5-1.3c-0.3-0.3-0.7-0.5-1.3-0.5c-0.1,0-0.3,0-0.5,0.1c-0.2,0-0.3,0.1-0.4,0.2l-0.6-1.1l3.3-2.9l0.1,0.4h-4.5v-1.3
		h5.6v1.3l-2.7,2.6l0-0.4c0.6,0,1.1,0.1,1.5,0.4c0.4,0.3,0.8,0.6,1,1.1c0.2,0.4,0.4,1,0.4,1.5c0,0.6-0.1,1.1-0.4,1.6
		c-0.3,0.5-0.7,0.8-1.1,1.1C294.2,227.2,293.6,227.4,293.1,227.4z"/>
	<path class="st34" d="M298.1,227.2v-1.4h1.4v1.4H298.1z"/>
	<path class="st34" d="M301.3,227.2l0-1.2l4.1-3.7c0.3-0.3,0.6-0.6,0.7-0.8c0.1-0.3,0.2-0.5,0.2-0.8c0-0.3-0.1-0.6-0.2-0.9
		c-0.1-0.3-0.4-0.5-0.6-0.6c-0.3-0.2-0.6-0.2-0.9-0.2c-0.3,0-0.7,0.1-0.9,0.2c-0.3,0.2-0.5,0.4-0.6,0.6c-0.2,0.3-0.2,0.6-0.2,0.9
		h-1.4c0-0.6,0.1-1.1,0.4-1.6c0.3-0.5,0.7-0.8,1.1-1.1c0.5-0.3,1-0.4,1.7-0.4c0.6,0,1.1,0.1,1.6,0.4c0.5,0.3,0.8,0.6,1.1,1.1
		c0.3,0.5,0.4,1,0.4,1.6c0,0.4-0.1,0.8-0.2,1.1c-0.1,0.3-0.3,0.6-0.5,0.8c-0.2,0.3-0.5,0.5-0.8,0.8l-3.1,2.8l-0.2-0.4h4.8v1.3H301.3
		z"/>
	<path class="st34" d="M311.8,227.2v-9.4h3.7c0.6,0,1.1,0.1,1.5,0.4c0.4,0.2,0.7,0.6,0.9,0.9c0.2,0.4,0.3,0.8,0.3,1.2
		c0,0.5-0.1,1-0.4,1.3c-0.3,0.4-0.6,0.6-1,0.8l0-0.3c0.6,0.1,1.1,0.4,1.4,0.9c0.3,0.4,0.5,0.9,0.5,1.5c0,0.6-0.1,1-0.3,1.4
		s-0.5,0.7-1,1c-0.4,0.2-0.9,0.3-1.5,0.3H311.8z M313.2,221.7h2.3c0.3,0,0.5-0.1,0.7-0.2c0.2-0.1,0.4-0.2,0.5-0.4
		c0.1-0.2,0.2-0.4,0.2-0.7c0-0.4-0.1-0.7-0.4-0.9c-0.2-0.2-0.6-0.4-1-0.4h-2.3V221.7z M313.2,225.9h2.4c0.3,0,0.6-0.1,0.8-0.2
		c0.2-0.1,0.4-0.3,0.6-0.5c0.1-0.2,0.2-0.5,0.2-0.8c0-0.3-0.1-0.5-0.2-0.8c-0.1-0.2-0.3-0.4-0.5-0.5c-0.2-0.1-0.5-0.2-0.8-0.2h-2.5
		V225.9z"/>
	<path class="st34" d="M320,227.2v-9.4h1.4l4.6,7v-7h1.4v9.4h-1.4l-4.6-7v7H320z"/>
	<path class="st34" d="M329.1,227.2v-9.4h3.7c0.6,0,1.1,0.1,1.5,0.4c0.4,0.2,0.7,0.6,0.9,0.9c0.2,0.4,0.3,0.8,0.3,1.2
		c0,0.5-0.1,1-0.4,1.3c-0.3,0.4-0.6,0.6-1,0.8l0-0.3c0.6,0.1,1.1,0.4,1.4,0.9c0.3,0.4,0.5,0.9,0.5,1.5c0,0.6-0.1,1-0.3,1.4
		s-0.5,0.7-1,1c-0.4,0.2-0.9,0.3-1.5,0.3H329.1z M330.5,221.7h2.3c0.3,0,0.5-0.1,0.7-0.2c0.2-0.1,0.4-0.2,0.5-0.4
		c0.1-0.2,0.2-0.4,0.2-0.7c0-0.4-0.1-0.7-0.4-0.9c-0.2-0.2-0.6-0.4-1-0.4h-2.3V221.7z M330.5,225.9h2.4c0.3,0,0.6-0.1,0.8-0.2
		c0.2-0.1,0.4-0.3,0.6-0.5c0.1-0.2,0.2-0.5,0.2-0.8c0-0.3-0.1-0.5-0.2-0.8c-0.1-0.2-0.3-0.4-0.5-0.5c-0.2-0.1-0.5-0.2-0.8-0.2h-2.5
		V225.9z"/>
</g>
<g>
	<path class="st34" d="M119.8,227.2v-7.9l-1.8,1.1v-1.5l1.8-1.1h1.4v9.4H119.8z"/>
	<path class="st34" d="M126.9,227.4c-0.6,0-1.2-0.1-1.7-0.4c-0.5-0.3-0.9-0.7-1.2-1.2c-0.3-0.5-0.4-1.1-0.4-1.7v-3.2
		c0-0.6,0.1-1.2,0.4-1.7c0.3-0.5,0.7-0.9,1.2-1.2s1.1-0.4,1.7-0.4c0.6,0,1.2,0.1,1.7,0.4s0.9,0.7,1.2,1.2c0.3,0.5,0.4,1.1,0.4,1.7
		v3.2c0,0.6-0.1,1.2-0.4,1.7c-0.3,0.5-0.7,0.9-1.2,1.2C128.1,227.3,127.5,227.4,126.9,227.4z M126.9,226.1c0.3,0,0.7-0.1,0.9-0.3
		c0.3-0.2,0.5-0.4,0.7-0.7c0.2-0.3,0.3-0.6,0.3-1v-3.4c0-0.3-0.1-0.7-0.3-0.9s-0.4-0.5-0.7-0.7s-0.6-0.3-0.9-0.3s-0.7,0.1-0.9,0.3
		c-0.3,0.2-0.5,0.4-0.7,0.7s-0.3,0.6-0.3,0.9v3.4c0,0.4,0.1,0.7,0.3,1c0.2,0.3,0.4,0.5,0.7,0.7C126.2,226,126.5,226.1,126.9,226.1z"
		/>
	<path class="st34" d="M135.2,227.4c-0.6,0-1.2-0.1-1.7-0.4c-0.5-0.3-0.9-0.7-1.2-1.2c-0.3-0.5-0.4-1.1-0.4-1.7v-3.2
		c0-0.6,0.1-1.2,0.4-1.7c0.3-0.5,0.7-0.9,1.2-1.2s1.1-0.4,1.7-0.4c0.6,0,1.2,0.1,1.7,0.4c0.5,0.3,0.9,0.7,1.2,1.2
		c0.3,0.5,0.4,1.1,0.4,1.7v3.2c0,0.6-0.1,1.2-0.4,1.7c-0.3,0.5-0.7,0.9-1.2,1.2C136.4,227.3,135.9,227.4,135.2,227.4z M135.2,226.1
		c0.3,0,0.7-0.1,0.9-0.3c0.3-0.2,0.5-0.4,0.7-0.7c0.2-0.3,0.3-0.6,0.3-1v-3.4c0-0.3-0.1-0.7-0.3-0.9s-0.4-0.5-0.7-0.7
		c-0.3-0.2-0.6-0.3-0.9-0.3s-0.7,0.1-0.9,0.3c-0.3,0.2-0.5,0.4-0.7,0.7s-0.3,0.6-0.3,0.9v3.4c0,0.4,0.1,0.7,0.3,1
		c0.2,0.3,0.4,0.5,0.7,0.7C134.6,226,134.9,226.1,135.2,226.1z"/>
	<path class="st34" d="M143.6,227.4c-0.6,0-1.2-0.1-1.7-0.4c-0.5-0.3-0.9-0.7-1.2-1.2c-0.3-0.5-0.4-1.1-0.4-1.7v-3.2
		c0-0.6,0.1-1.2,0.4-1.7c0.3-0.5,0.7-0.9,1.2-1.2c0.5-0.3,1.1-0.4,1.7-0.4s1.2,0.1,1.7,0.4c0.5,0.3,0.9,0.7,1.2,1.2
		c0.3,0.5,0.4,1.1,0.4,1.7v3.2c0,0.6-0.1,1.2-0.4,1.7c-0.3,0.5-0.7,0.9-1.2,1.2C144.8,227.3,144.2,227.4,143.6,227.4z M143.6,226.1
		c0.3,0,0.7-0.1,0.9-0.3c0.3-0.2,0.5-0.4,0.7-0.7c0.2-0.3,0.3-0.6,0.3-1v-3.4c0-0.3-0.1-0.7-0.3-0.9s-0.4-0.5-0.7-0.7
		c-0.3-0.2-0.6-0.3-0.9-0.3s-0.7,0.1-0.9,0.3c-0.3,0.2-0.5,0.4-0.7,0.7s-0.3,0.6-0.3,0.9v3.4c0,0.4,0.1,0.7,0.3,1
		c0.2,0.3,0.4,0.5,0.7,0.7C142.9,226,143.2,226.1,143.6,226.1z"/>
	<path class="st34" d="M151.9,227.4c-0.6,0-1.2-0.1-1.7-0.4c-0.5-0.3-0.9-0.7-1.2-1.2c-0.3-0.5-0.4-1.1-0.4-1.7v-3.2
		c0-0.6,0.1-1.2,0.4-1.7c0.3-0.5,0.7-0.9,1.2-1.2c0.5-0.3,1.1-0.4,1.7-0.4s1.2,0.1,1.7,0.4c0.5,0.3,0.9,0.7,1.2,1.2
		c0.3,0.5,0.4,1.1,0.4,1.7v3.2c0,0.6-0.1,1.2-0.4,1.7c-0.3,0.5-0.7,0.9-1.2,1.2C153.1,227.3,152.5,227.4,151.9,227.4z M151.9,226.1
		c0.3,0,0.7-0.1,0.9-0.3c0.3-0.2,0.5-0.4,0.7-0.7c0.2-0.3,0.3-0.6,0.3-1v-3.4c0-0.3-0.1-0.7-0.3-0.9s-0.4-0.5-0.7-0.7
		c-0.3-0.2-0.6-0.3-0.9-0.3s-0.7,0.1-0.9,0.3c-0.3,0.2-0.5,0.4-0.7,0.7s-0.3,0.6-0.3,0.9v3.4c0,0.4,0.1,0.7,0.3,1
		c0.2,0.3,0.4,0.5,0.7,0.7C151.2,226,151.6,226.1,151.9,226.1z"/>
	<path class="st34" d="M163.3,227.4c-0.7,0-1.4-0.2-1.9-0.5c-0.6-0.3-1-0.7-1.3-1.3c-0.3-0.5-0.5-1.2-0.5-1.9v-5.9l1.4,0v5.8
		c0,0.4,0.1,0.8,0.2,1.1c0.1,0.3,0.3,0.6,0.5,0.8c0.2,0.2,0.5,0.4,0.8,0.5c0.3,0.1,0.6,0.2,0.9,0.2c0.3,0,0.6-0.1,0.9-0.2
		c0.3-0.1,0.5-0.3,0.8-0.5c0.2-0.2,0.4-0.5,0.5-0.8c0.1-0.3,0.2-0.7,0.2-1v-5.8h1.4v5.9c0,0.7-0.2,1.4-0.5,1.9s-0.8,1-1.3,1.3
		C164.7,227.2,164.1,227.4,163.3,227.4z"/>
	<path class="st34" d="M171.9,227.4c-0.7,0-1.3-0.1-1.8-0.3c-0.5-0.2-1-0.6-1.3-1c-0.3-0.4-0.6-0.9-0.7-1.5l1.4-0.2
		c0.1,0.6,0.4,1,0.9,1.3c0.5,0.3,1,0.5,1.6,0.5c0.4,0,0.7-0.1,1-0.2s0.6-0.3,0.8-0.5c0.2-0.2,0.3-0.5,0.3-0.8c0-0.2,0-0.3-0.1-0.4
		c-0.1-0.1-0.1-0.2-0.2-0.3s-0.2-0.2-0.4-0.3c-0.1-0.1-0.3-0.1-0.5-0.2l-2.4-0.7c-0.2-0.1-0.5-0.2-0.7-0.3c-0.2-0.1-0.5-0.3-0.7-0.4
		c-0.2-0.2-0.4-0.4-0.5-0.7c-0.1-0.3-0.2-0.6-0.2-1c0-0.6,0.1-1.1,0.4-1.5c0.3-0.4,0.7-0.7,1.2-0.9s1.1-0.3,1.7-0.3
		c0.6,0,1.2,0.1,1.7,0.3c0.5,0.2,0.9,0.5,1.2,0.9c0.3,0.4,0.6,0.9,0.7,1.5l-1.5,0.2c-0.1-0.4-0.2-0.7-0.4-0.9
		c-0.2-0.3-0.5-0.4-0.8-0.6s-0.6-0.2-1-0.2c-0.3,0-0.7,0-1,0.2c-0.3,0.1-0.5,0.3-0.7,0.5c-0.2,0.2-0.3,0.4-0.3,0.7
		c0,0.3,0.1,0.5,0.2,0.6c0.2,0.2,0.3,0.3,0.6,0.4c0.2,0.1,0.4,0.2,0.7,0.2l1.7,0.5c0.2,0.1,0.5,0.1,0.7,0.2c0.3,0.1,0.5,0.2,0.8,0.4
		s0.5,0.4,0.6,0.7c0.2,0.3,0.3,0.7,0.3,1.1c0,0.5-0.1,0.9-0.3,1.2c-0.2,0.4-0.5,0.7-0.8,0.9c-0.3,0.2-0.7,0.4-1.1,0.5
		C172.8,227.3,172.4,227.4,171.9,227.4z"/>
	<path class="st34" d="M176.8,227.2v-9.4h2.9c0.1,0,0.2,0,0.5,0c0.2,0,0.5,0,0.7,0.1c0.7,0.1,1.3,0.4,1.8,0.8c0.5,0.4,0.9,1,1.1,1.6
		s0.4,1.4,0.4,2.2c0,0.8-0.1,1.5-0.4,2.2c-0.3,0.7-0.6,1.2-1.1,1.6c-0.5,0.4-1.1,0.7-1.8,0.8c-0.2,0-0.4,0-0.7,0.1
		c-0.2,0-0.4,0-0.5,0H176.8z M178.2,225.9h1.5c0.1,0,0.3,0,0.5,0c0.2,0,0.4,0,0.5-0.1c0.5-0.1,0.9-0.3,1.2-0.6
		c0.3-0.3,0.5-0.7,0.7-1.2c0.1-0.5,0.2-1,0.2-1.5c0-0.6-0.1-1.1-0.2-1.5c-0.1-0.5-0.4-0.9-0.7-1.2s-0.7-0.5-1.1-0.6
		c-0.2,0-0.3,0-0.5-0.1c-0.2,0-0.4,0-0.5,0h-1.5V225.9z"/>
	<path class="st34" d="M187.9,227.2v-8.1h-3.1v-1.3h7.6v1.3h-3.1v8.1H187.9z"/>
</g>
</svg>
