<?xml version="1.0" encoding="utf-8"?>
<!-- Generator: Adobe Illustrator 25.4.1, SVG Export Plug-In . SVG Version: 6.00 Build 0)  -->
<svg version="1.1" id="Слой_1" xmlns="http://www.w3.org/2000/svg" xmlns:xlink="http://www.w3.org/1999/xlink" x="0px" y="0px"
	 viewBox="0 0 74.7 74.7" style="enable-background:new 0 0 74.7 74.7;" xml:space="preserve">
<style type="text/css">
	.st0{fill:#F7931A;}
	.st1{fill:#FFFFFF;}
</style>
<path class="st0" d="M73.6,46.3c-5,20-25.2,32.2-45.3,27.2c-20-5-32.2-25.2-27.2-45.2c5-20,25.2-32.2,45.2-27.2
	C66.3,6,78.5,26.3,73.6,46.3z"/>
<path class="st1" d="M55,32.4c0.7-5-3.1-7.6-8.3-9.3l1.6-6.7l-4.1-1L42.7,22c-1.1-0.3-2.2-0.5-3.3-0.7l1.6-6.6l-4.1-1l-1.6,6.7
	c-0.9-0.2-1.8-0.4-2.6-0.6l-5.6-1.4l-1,4.4c0,0,3.1,0.7,3,0.7c1.7,0.4,2,1.5,1.9,2.3l-1.8,7.7c0.1,0,0.3,0,0.4,0.2
	c-0.2,0-0.3,0-0.4-0.1l-2.5,10.7c-0.2,0.5-0.7,1.2-1.9,1c0,0-3-0.7-3-0.7l-1.9,4.7l5.3,1.2c1,0.3,2,0.5,2.9,0.7l-1.6,6.8l4.1,1
	l1.6-6.7c1.1,0.3,2.2,0.6,3.3,0.8l-1.6,6.7l4.1,1l1.6-6.8c7,1.2,12.2,0.7,14.4-5.7c1.7-5.1-0.2-8-3.9-9.9
	C52.5,37.8,54.5,36.1,55,32.4z M45.8,45.6c-1.2,5.1-9.8,2.4-12.6,1.8l2.1-9C38.2,39.1,47,40.3,45.8,45.6z M46.9,32.4
	c-1.1,4.6-8.2,2.4-10.6,1.8l2-8.2C40.6,26.6,48.1,27.6,46.9,32.4z"/>
</svg>
