<?xml version="1.0" encoding="utf-8"?>
<!-- Generator: Adobe Illustrator 25.4.1, SVG Export Plug-In . SVG Version: 6.00 Build 0)  -->
<svg version="1.1" id="Слой_1" xmlns="http://www.w3.org/2000/svg" xmlns:xlink="http://www.w3.org/1999/xlink" x="0px" y="0px"
	 viewBox="0 0 74.7 74.7" style="enable-background:new 0 0 74.7 74.7;" xml:space="preserve">
<style type="text/css">
	.st0{fill:#ECEFF0;}
	.st1{fill:#343535;}
	.st2{fill:#2F3030;}
	.st3{fill:#828384;}
	.st4{fill:#131313;}
	.st5{fill:#393939;}
</style>
<path class="st0" d="M73.6,46.3c-5,20-25.2,32.2-45.3,27.2c-20-5-32.2-25.2-27.2-45.2c5-20,25.2-32.2,45.2-27.2
	C66.3,6,78.5,26.3,73.6,46.3z"/>
<path class="st1" d="M37.8,46.4c-0.1,0-0.2-0.1-0.3-0.1c-4.8-2.9-9.7-5.7-14.5-8.6c0,0-0.1,0-0.1-0.1v-0.1l0.1,0
	c0.1,0,0.2-0.1,0.4-0.1l11.4-5.2c1-0.5,2-0.9,3-1.4h0.1c0,0.1,0,0.3,0,0.4C37.8,36.3,37.8,41.3,37.8,46.4z"/>
<path class="st2" d="M37.8,30.8L37.8,30.8c-0.1-0.1-0.1-0.3-0.1-0.4c0-5.7,0-11.3,0-17c0-0.1,0-0.3,0-0.4h0c0.6,0.9,1.1,1.8,1.7,2.7
	c4.3,7.2,8.7,14.4,13,21.6c0,0.1,0.1,0.1,0.1,0.2c-0.1,0-0.2-0.1-0.4-0.1c-0.8-0.4-1.6-0.7-2.4-1.1c-1.2-0.6-2.5-1.1-3.7-1.7l-6-2.7
	C39.4,31.6,38.6,31.2,37.8,30.8z"/>
<path class="st3" d="M37.8,13c0,0.1,0,0.3,0,0.4c0,5.7,0,11.3,0,17c0,0.1,0,0.3,0,0.4c-1,0.5-2,0.9-3,1.4l-11.4,5.2
	c-0.1,0-0.2,0.1-0.4,0.1c0.3-0.7,0.8-1.3,1.1-2c4.5-7.5,9-15,13.6-22.5C37.7,13,37.7,12.9,37.8,13L37.8,13z"/>
<path class="st4" d="M37.8,30.8c0.8,0.4,1.6,0.7,2.4,1.1l6,2.7c1.2,0.6,2.5,1.1,3.7,1.7c0.8,0.4,1.6,0.7,2.4,1.1
	c0.1,0,0.2,0.1,0.4,0.1c0.1,0.2-0.1,0.2-0.1,0.2c-1.2,0.7-2.5,1.5-3.7,2.2c-3.6,2.1-7.1,4.2-10.7,6.3c-0.1,0.1-0.2,0.1-0.3,0.1
	c0-5,0-10.1,0-15.1C37.8,31.1,37.8,31,37.8,30.8z"/>
<path class="st2" d="M37.7,49.3l9.3-5.5c1.8-1.1,3.6-2.1,5.3-3.2l0.2-0.1c0,0.1-0.1,0.2-0.1,0.3c-4.1,5.7-8.1,11.4-12.2,17.2
	c-0.8,1.1-1.5,2.2-2.3,3.3c0,0.1-0.1,0.3-0.2,0c0.1-0.1,0.1-0.2,0.1-0.3C37.7,57.1,37.7,53.2,37.7,49.3z"/>
<path class="st3" d="M37.7,49.3c0,3.9,0,7.8,0,11.7c0,0.1,0,0.2-0.1,0.3c-0.2-0.1-0.3-0.3-0.4-0.5c-4.7-6.6-9.4-13.3-14.1-19.9
	c-0.1-0.1-0.1-0.2-0.2-0.3c0.1-0.1,0.2,0,0.3,0.1c4.8,2.8,9.5,5.6,14.3,8.4C37.6,49.1,37.6,49.2,37.7,49.3z"/>
<path class="st5" d="M37.8,13L37.8,13C37.8,12.9,37.8,12.9,37.8,13L37.8,13z"/>
</svg>
