<?xml version="1.0" encoding="utf-8"?>
<!-- Generator: Adobe Illustrator 25.4.1, SVG Export Plug-In . SVG Version: 6.00 Build 0)  -->
<svg version="1.1" id="Слой_1" xmlns="http://www.w3.org/2000/svg" xmlns:xlink="http://www.w3.org/1999/xlink" x="0px" y="0px"
	 viewBox="0 0 74.7 74.7" style="enable-background:new 0 0 74.7 74.7;" xml:space="preserve">
<style type="text/css">
	.st0{fill:#345D9D;}
	.st1{fill:#FFFFFF;}
</style>
<path class="st0" d="M73.6,46.3c-5,20-25.2,32.2-45.3,27.2c-20-5-32.2-25.2-27.2-45.2c5-20,25.2-32.2,45.2-27.2
	C66.3,6,78.5,26.3,73.6,46.3z"/>
<path class="st1" d="M33.4,53.5l4-13.4l6.2-1.8l1.3-4.4l-6.1,1.9l6.5-22v-0.4c0-0.1,0-0.3-0.1-0.4c-0.1-0.1-0.1-0.2-0.2-0.3
	c-0.1-0.1-0.2-0.2-0.4-0.2c-0.1,0-0.3-0.1-0.4-0.1h-8.2c-0.3,0-0.6,0.1-0.9,0.3c-0.3,0.2-0.4,0.4-0.5,0.7l-7.7,26.1l-6.1,1.9
	l-1.4,4.3l6.1-1.9l-5.5,18.6h32.6c0.3,0,0.6-0.1,0.9-0.3c0.3-0.2,0.4-0.5,0.5-0.8l1.9-6.4v-0.4c0-0.1,0-0.3-0.1-0.4
	c-0.1-0.1-0.1-0.2-0.2-0.3c-0.1-0.1-0.2-0.2-0.4-0.2c-0.1,0-0.3-0.1-0.4-0.1H33.4z"/>
</svg>
