<?xml version="1.0" encoding="utf-8"?>
<!-- Generator: Adobe Illustrator 25.4.1, SVG Export Plug-In . SVG Version: 6.00 Build 0)  -->
<svg version="1.1" id="katman_1" xmlns="http://www.w3.org/2000/svg" xmlns:xlink="http://www.w3.org/1999/xlink" x="0px" y="0px"
	 viewBox="0 0 522 500.2" style="enable-background:new 0 0 522 500.2;" xml:space="preserve">
<style type="text/css">
	.st0{fill:#FF060A;}
	.st1{fill:#FFFFFF;}
</style>
<path class="st0" d="M261,500.2c144.2,0,261-112,261-250.1S405.2,0,261,0S0,112,0,250.1S116.9,500.2,261,500.2z"/>
<path class="st1" d="M407.8,205.2c-14.4-12.8-34.4-32.3-50.6-46.1l-1-0.6c-1.6-1.2-3.4-2.2-5.3-2.9l0,0
	c-39.2-7-221.6-39.7-225.1-39.3c-1,0.1-2,0.5-2.8,1l-0.9,0.7c-1.1,1.1-2,2.4-2.5,3.9l-0.2,0.6v3.3v0.5
	C139.9,181.1,221,360.5,237,402.7c1,2.9,2.8,8.3,6.2,8.6h0.8c1.8,0,9.6-9.9,9.6-9.9s139.3-161.8,153.4-179c1.8-2.1,3.4-4.4,4.8-6.8
	c0.4-1.9,0.2-3.8-0.5-5.6S409.3,206.5,407.8,205.2L407.8,205.2z M289.2,224.1l59.4-47.2l34.9,30.8L289.2,224.1z M266.1,221
	l-102.3-80.4l165.6,29.3L266.1,221z M275.3,242L380,225.8L260.3,364.1L275.3,242z M149.9,148.7l107.7,87.5l-15.6,128L149.9,148.7z"
	/>
</svg>
