<?xml version="1.0" encoding="utf-8"?>
<!-- Generator: Adobe Illustrator 25.4.1, SVG Export Plug-In . SVG Version: 6.00 Build 0)  -->
<svg version="1.1" id="Слой_1" xmlns="http://www.w3.org/2000/svg" xmlns:xlink="http://www.w3.org/1999/xlink" x="0px" y="0px"
	 viewBox="0 0 78 62.4" style="enable-background:new 0 0 78 62.4;" xml:space="preserve">
<style type="text/css">
	.st0{fill-rule:evenodd;clip-rule:evenodd;fill:#009393;}
</style>
<path class="st0" d="M17,0h44.9C63,0,64,0.6,64.5,1.5l13.1,22.1c0.7,1.1,0.5,2.6-0.5,3.5l-36,34.5c-1.2,1.1-3,1.1-4.2,0l-36-34.5
	c-1-0.9-1.2-2.4-0.4-3.6l14-22.1C15,0.5,15.9,0,17,0z M56.1,9.9V16H43.3v4.3c9,0.5,15.7,2.3,15.8,4.6l0,4.7c0,2.3-6.8,4.1-15.8,4.6
	v10.5h-8.5V34.2c-9-0.5-15.7-2.3-15.8-4.6l0-4.7c0-2.3,6.8-4.1,15.8-4.6V16H22V9.9H56.1z M39.1,31c9.6,0,17.6-1.6,19.6-3.7
	c-1.7-1.8-7.7-3.2-15.3-3.6v4.5c-1.4,0.1-2.8,0.1-4.2,0.1c-1.5,0-2.9,0-4.2-0.1v-4.5c-7.6,0.4-13.7,1.8-15.3,3.6
	C21.5,29.4,29.5,31,39.1,31z"/>
</svg>
