<?xml version="1.0" encoding="utf-8"?><svg xmlns="http://www.w3.org/2000/svg" xmlns:xlink="http://www.w3.org/1999/xlink"><symbol viewBox="0 0 612 612" style="enable-background:new 0 0 612 612" xml:space="preserve" id="alert" xmlns="http://www.w3.org/2000/svg"><path d="m605.2 501.6-255-442C341.4 44.3 324.9 34 306 34s-35.4 10.3-44.2 25.6l-255 442C2.5 509 0 517.7 0 527c0 28.2 22.8 51 51 51h510c28.2 0 51-22.8 51-51 0-9.3-2.5-18-6.8-25.4zM51 527.1 305.9 85h.1v.1L561 527l-510 .1zM306 408c-18.8 0-34 15.2-34 34s15.2 34 34 34 34-15.2 34-34-15.2-34-34-34zm-34-153c0 1.9.2 3.9.5 5.7l16.7 99.1c1.4 8 8.4 14.1 16.8 14.1s15.4-6.1 16.8-14.1l16.7-99.1c.3-1.9.5-3.8.5-5.7 0-18.8-15.2-34-34-34s-34 15.2-34 34z"/></symbol><symbol viewBox="0 0 16 25" style="enable-background:new 0 0 16 25" xml:space="preserve" id="arrow" xmlns="http://www.w3.org/2000/svg"><path d="M2 24.5c-.4 0-.8-.2-1.1-.5-.5-.6-.5-1.6.1-2.1l10.7-9.4L1 3.1C.4 2.6.3 1.6.9 1S2.4.3 3 .9l12 10.5c.3.3.5.7.5 1.1s-.2.8-.5 1.1L3 24.1c-.3.3-.6.4-1 .4z"/></symbol><symbol viewBox="0 0 25 14" style="enable-background:new 0 0 25 14" xml:space="preserve" id="arrow-bottom" xmlns="http://www.w3.org/2000/svg"><path d="M12.5 13.5c-.4 0-.7-.1-1-.4L1 3.1C.4 2.5.3 1.6.9 1 1.5.4 2.4.3 3 .9l9.5 9 9.5-9c.6-.6 1.5-.5 2.1.1.6.6.5 1.5-.1 2.1l-10.5 10c-.3.3-.6.4-1 .4z"/></symbol><symbol viewBox="0 0 20 20" style="enable-background:new 0 0 20 20" xml:space="preserve" id="arrow-bottom-select" xmlns="http://www.w3.org/2000/svg"><path d="M14 8.2c-.4-.4-1-.4-1.4 0L10 10.8 7.4 8.2c-.4-.4-1-.4-1.4 0s-.4 1 0 1.4l3.3 3.3c.2.2.5.3.7.3s.5-.1.7-.3L14 9.6c.4-.4.4-1 0-1.4z"/></symbol><symbol viewBox="0 0 10.7 11.6" style="enable-background:new 0 0 10.7 11.6" xml:space="preserve" id="arrow-long" xmlns="http://www.w3.org/2000/svg"><path d="M10.4 4.7 6.1.3c-.4-.4-1-.4-1.4 0L.3 4.7c-.4.4-.4 1 0 1.4s1 .4 1.4 0l2.7-2.7v7.2c0 .6.4 1 1 1s1-.4 1-1V3.4L9 6.1c.2.2.5.3.7.3s.5-.1.7-.3c.4-.4.4-1.1 0-1.4z"/></symbol><symbol viewBox="0 0 22 21.8" style="enable-background:new 0 0 22 21.8" xml:space="preserve" id="arrow-right-circle" xmlns="http://www.w3.org/2000/svg"><path d="M16.5 10.5c-.1-.1-.1-.2-.2-.3L14 7.9c-.4-.4-1-.4-1.4 0-.4.4-.4 1 0 1.4l.6.6H6.4c-.6 0-1 .4-1 1s.4 1 1 1h6.8l-.6.6c-.4.4-.4 1 0 1.4.2.2.5.3.7.3.3 0 .5-.1.7-.3l2.3-2.3c.1-.1.2-.2.2-.3.1-.1.1-.3.1-.4 0-.2 0-.3-.1-.4z"/><path d="M11 0C4.9 0 0 4.9 0 10.9s4.9 10.9 11 10.9 11-4.9 11-10.9S17.1 0 11 0zm0 19.8c-5 0-9-4-9-8.9S6 2 11 2s9 4 9 8.9-4 8.9-9 8.9z"/></symbol><symbol viewBox="0 0 18.2 18.2" style="enable-background:new 0 0 18.2 18.2" xml:space="preserve" id="banners" xmlns="http://www.w3.org/2000/svg"><path d="M13.1 11V2c0-1.1-.9-2-2-2H2C.9 0 0 .9 0 2v9c0 1.1.9 2 2 2h9c1.2.1 2.1-.8 2.1-2zM2 1.5h9c.3 0 .5.2.5.5v6.3h-10V2c0-.3.2-.5.5-.5zM1.5 11V9.9h10.1V11c0 .3-.2.5-.5.5H2c-.3.1-.5-.2-.5-.5z"/><path d="M18 6.8c-.1-.2-.3-.5-.5-.6-.2-.2-.5-.4-.7-.4l-1-.3c-.4-.1-.8.1-.9.5-.1.4.1.8.5.9l1 .3c.1 0 .1.1.2.1s.1.1.1.2.1.1.1.2v.2L14 16.4c0 .1-.1.2-.3.3-.1.1-.3.1-.4 0l-5.7-1.9c-.4-.1-.8.1-.9.5-.1.4.1.8.5.9l5.7 1.9c.2.1.4.1.6.1.3 0 .6-.1.9-.2.5-.2.8-.7 1-1.2l2.8-8.5c.1-.3.1-.5.1-.8-.1-.2-.2-.5-.3-.7z"/></symbol><symbol viewBox="0 0 19 19" style="enable-background:new 0 0 19 19" xml:space="preserve" id="calendar" xmlns="http://www.w3.org/2000/svg"><path d="M4.2 11.9h1.2c.7 0 1.2-.5 1.2-1.2V9.5c0-.7-.5-1.2-1.2-1.2H4.2c-.7 0-1.2.5-1.2 1.2v1.2c0 .6.5 1.2 1.2 1.2zm0-2.4h1.2v1.2H4.2V9.5zm9.5 7.1h1.2c.7 0 1.2-.5 1.2-1.2v-1.2c0-.7-.5-1.2-1.2-1.2h-1.2c-.7 0-1.2.5-1.2 1.2v1.2c0 .7.5 1.2 1.2 1.2zm0-2.4h1.2v1.2h-1.2v-1.2zm0-2.3h1.2c.7 0 1.2-.5 1.2-1.2V9.5c0-.7-.5-1.2-1.2-1.2h-1.2c-.7 0-1.2.5-1.2 1.2v1.2c0 .6.5 1.2 1.2 1.2zm0-2.4h1.2v1.2h-1.2V9.5zM16 1.2h-2.4V.6c0-.3-.3-.6-.6-.6s-.6.3-.6.6v.6H6.5V.6c0-.3-.2-.6-.6-.6-.3 0-.6.3-.6.6v.6H3C1.7 1.2.6 2.3.6 3.6v13.1C.6 17.9 1.7 19 3 19h13c1.3 0 2.4-1.1 2.4-2.4v-13c0-1.3-1.1-2.4-2.4-2.4zm1.2 15.4c0 .7-.5 1.2-1.2 1.2H3c-.7 0-1.2-.5-1.2-1.2V5.9h15.4v10.7zm0-11.9H1.8V3.6c0-.7.5-1.2 1.2-1.2h2.4V3c0 .3.3.6.6.6s.6-.3.6-.6v-.6h5.9V3c0 .3.3.6.6.6s.6-.3.6-.6v-.6H16c.7 0 1.2.5 1.2 1.2v1.1zM8.9 16.6h1.2c.7 0 1.2-.5 1.2-1.2v-1.2c0-.7-.5-1.2-1.2-1.2H8.9c-.7 0-1.2.5-1.2 1.2v1.2c0 .7.6 1.2 1.2 1.2zm0-2.4h1.2v1.2H8.9v-1.2zm0-2.3h1.2c.7 0 1.2-.5 1.2-1.2V9.5c0-.7-.5-1.2-1.2-1.2H8.9c-.7 0-1.2.5-1.2 1.2v1.2c0 .6.6 1.2 1.2 1.2zm0-2.4h1.2v1.2H8.9V9.5zm-4.7 7.1h1.2c.7 0 1.2-.5 1.2-1.2v-1.2c0-.7-.5-1.2-1.2-1.2H4.2c-.7 0-1.2.5-1.2 1.2v1.2c0 .7.5 1.2 1.2 1.2zm0-2.4h1.2v1.2H4.2v-1.2z"/></symbol><symbol fill="none" viewBox="0 0 74 72" id="chart" xmlns="http://www.w3.org/2000/svg"><path d="M12.576 32.442 61.338 10.38M52.222 6.963l9.116 3.417-3.392 9.07M63.501 61.843h-10.6V32.315c0-.56.223-1.096.62-1.492a2.125 2.125 0 0 1 1.5-.617h6.36c.562 0 1.101.222 1.499.617.398.396.621.932.621 1.492v29.528ZM42.3 61.843H31.7v-23.2c0-.56.224-1.097.621-1.492a2.126 2.126 0 0 1 1.5-.618h6.36c.562 0 1.101.222 1.499.618.397.395.62.932.62 1.491v23.2ZM21.1 61.843H10.5V44.97c0-.56.223-1.096.62-1.492a2.125 2.125 0 0 1 1.5-.618h6.36c.562 0 1.101.223 1.499.618.397.396.62.932.62 1.492v16.873Z" stroke="#67699D" stroke-width="4" stroke-linecap="round" stroke-linejoin="round"/></symbol><symbol fill="none" viewBox="0 0 73 72" id="chart-down" xmlns="http://www.w3.org/2000/svg"><path d="M15.001 8 63.104 30.06M54.111 33.478l8.994-3.416-3.347-9.07M10.357 61.843h10.458V32.315c0-.56-.22-1.096-.613-1.492a2.082 2.082 0 0 0-1.479-.617H12.45c-.555 0-1.087.222-1.479.617a2.118 2.118 0 0 0-.613 1.492v29.528ZM31.271 61.843H41.73v-23.2c0-.56-.22-1.097-.613-1.492a2.083 2.083 0 0 0-1.479-.618h-6.274c-.555 0-1.087.222-1.479.618a2.118 2.118 0 0 0-.613 1.491v23.2ZM52.187 61.843h10.457V44.97c0-.56-.22-1.096-.613-1.492a2.082 2.082 0 0 0-1.479-.618h-6.274c-.555 0-1.087.223-1.479.618a2.118 2.118 0 0 0-.612 1.492v16.873Z" stroke="#67699D" stroke-width="4" stroke-linecap="round" stroke-linejoin="round"/></symbol><symbol viewBox="0 0 18 13" style="enable-background:new 0 0 18 13" xml:space="preserve" id="check" xmlns="http://www.w3.org/2000/svg"><path d="M6 13c-.3 0-.5-.1-.7-.3l-5-5c-.4-.4-.4-1 0-1.4s1-.4 1.4 0L6 10.6 16.3.3c.4-.4 1-.4 1.4 0s.4 1 0 1.4l-11 11c-.2.2-.4.3-.7.3z"/></symbol><symbol xml:space="preserve" viewBox="0 0 42 42" id="checkmark" xmlns="http://www.w3.org/2000/svg"><path d="m39.04 7.604-2.398-1.93c-1.182-.95-1.869-.939-2.881.311L16.332 27.494l-8.111-6.739c-1.119-.94-1.819-.89-2.739.26l-1.851 2.41c-.939 1.182-.819 1.853.291 2.78l11.56 9.562c1.19 1 1.86.897 2.78-.222l21.079-25.061c.99-1.19.93-1.901-.301-2.88z"/></symbol><symbol fill="none" viewBox="0 0 39 38" id="chip" xmlns="http://www.w3.org/2000/svg"><g clip-path="url(#ama)" stroke="#9197B3" stroke-width="2" stroke-linecap="round" stroke-linejoin="round"><path d="M27.856 8.144H11.142c-1.538 0-2.786 1.215-2.786 2.714v16.286c0 1.499 1.248 2.714 2.786 2.714h16.714c1.539 0 2.786-1.215 2.786-2.714V10.858c0-1.5-1.247-2.714-2.786-2.714ZM13.929 8.143V1.357M25.071 8.143V1.357M8.357 24.429H1.393M8.357 13.571H1.393M25.071 29.857v6.786M13.929 29.857v6.786M30.643 13.571h6.964M30.643 24.429h6.964M23.678 20.357h-5.572"/></g><defs><clipPath id="ama"><path fill="#fff" d="M0 0h39v38H0z"/></clipPath></defs></symbol><symbol viewBox="0 0 48 48" style="enable-background:new 0 0 48 48" xml:space="preserve" id="clock" xmlns="http://www.w3.org/2000/svg"><path d="M24 0C10.8 0 0 10.8 0 24s10.8 24 24 24 24-10.8 24-24S37.2 0 24 0zm0 46C11.9 46 2 36.1 2 24S11.9 2 24 2s22 9.9 22 22-9.9 22-22 22z"/><path d="M25 22.3V6h-2v16.3c-.6.3-1 1-1 1.7 0 .2 0 .3.1.5l-8.8 8.8 1.4 1.4 8.8-8.8c.2 0 .3.1.5.1 1.1 0 2-.9 2-2 0-.7-.4-1.4-1-1.7z"/></symbol><symbol viewBox="0 0 512 512" style="enable-background:new 0 0 512 512" xml:space="preserve" id="close" xmlns="http://www.w3.org/2000/svg"><path d="M437.019 74.981C388.667 26.629 324.38 0 256 0S123.333 26.63 74.981 74.981 0 187.62 0 256s26.629 132.667 74.981 181.019C123.332 485.371 187.62 512 256 512s132.667-26.629 181.019-74.981C485.371 388.667 512 324.38 512 256s-26.629-132.668-74.981-181.019zM256 470.636C137.65 470.636 41.364 374.35 41.364 256S137.65 41.364 256 41.364 470.636 137.65 470.636 256 374.35 470.636 256 470.636z"/><path d="M341.22 170.781c-8.077-8.077-21.172-8.077-29.249 0L170.78 311.971c-8.077 8.077-8.077 21.172 0 29.249 4.038 4.039 9.332 6.058 14.625 6.058s10.587-2.019 14.625-6.058l141.19-141.191c8.076-8.076 8.076-21.171 0-29.248z"/><path d="m341.22 311.971-141.191-141.19c-8.076-8.077-21.172-8.077-29.248 0-8.077 8.076-8.077 21.171 0 29.248l141.19 141.191a20.616 20.616 0 0 0 14.625 6.058 20.618 20.618 0 0 0 14.625-6.058c8.075-8.077 8.075-21.172-.001-29.249z"/></symbol><symbol viewBox="0 0 23.5 20.7" style="enable-background:new 0 0 23.5 20.7" xml:space="preserve" id="coin-check" xmlns="http://www.w3.org/2000/svg"><path d="M10.4 1.2c1.2.8 1.9 1.9 1.9 3.1v12.2c0 1.2-.7 2.3-1.9 3.1-2.4 1.6-6.2 1.6-8.5 0-1.2-.9-1.9-2-1.9-3.2V4.2c0-1.2.7-2.3 1.9-3 2.4-1.6 6.2-1.6 8.5 0zm4.8 9.5c-.4-.6.5-1.3 1-.7l.9 1.3 3.3-4.2c.5-.6 1.4.1.9.7l-3.8 4.8c-.2.3-.7.3-.9 0l-1.4-1.9zm-1.5-6h9.2c.3 0 .6.3.6.6v9.2c0 .3-.3.6-.6.6h-9.2c-.3 0-.6-.3-.6-.6V5.3c0-.3.3-.6.6-.6zm8.6 1.2h-8.1V14h8.1V5.9zm-11.1.9c-.2.2-.5.4-.7.6C8.1 9 4.3 9 2 7.4c-.4-.2-.6-.4-.8-.6v1.5c0 .8.5 1.5 1.4 2.1 2 1.3 5.3 1.3 7.2 0 .8-.6 1.4-1.3 1.4-2.1V6.8zm-10 4v1.5c0 .8.5 1.5 1.4 2.1 2 1.3 5.3 1.3 7.2 0 .8-.6 1.4-1.3 1.4-2.1v-1.5c-.2.2-.5.4-.7.6C8.1 13 4.3 13 2 11.4c-.4-.2-.6-.4-.8-.6zm0 4.1v1.5c0 .8.5 1.5 1.4 2.1 2 1.3 5.3 1.3 7.2 0 .8-.6 1.4-1.3 1.4-2.1v-1.5c-.2.2-.5.4-.7.6-2.4 1.6-6.2 1.6-8.5 0-.4-.2-.6-.4-.8-.6zM9.8 2.2C7.8.9 4.5.9 2.6 2.2c-.9.5-1.4 1.2-1.4 2s.5 1.5 1.4 2.1c2 1.3 5.3 1.3 7.2 0 .8-.6 1.4-1.3 1.4-2.1s-.6-1.5-1.4-2z"/></symbol><symbol viewBox="0 0 20 24" style="enable-background:new 0 0 20 24" xml:space="preserve" id="coins" xmlns="http://www.w3.org/2000/svg"><path d="M12.8 6C9 6 6 7.6 6 9.6V19c0 2 3 3.6 6.9 3.6 3.8 0 6.9-1.6 6.9-3.6V9.6c-.1-2-3.1-3.6-7-3.6zm5.9 8.4c0 1.3-2.4 2.6-5.9 2.6C9.4 17 7 15.6 7 14.4v-2.8c1.2 1 3.3 1.7 5.9 1.7 2.5 0 4.7-.7 5.9-1.7v2.8zM12.8 7c3.5 0 5.9 1.4 5.9 2.6s-2.4 2.6-5.9 2.6C9.4 12.3 7 10.9 7 9.6S9.4 7 12.8 7zm0 14.7c-3.5 0-5.9-1.4-5.9-2.6v-2.8c1.2 1 3.3 1.7 5.9 1.7 2.5 0 4.7-.7 5.9-1.7v2.8c0 1.2-2.4 2.6-5.9 2.6z"/><path d="M3.1 16.3C2 15.7 1.3 15 1.3 14.4v-2.8c.4.3.8.6 1.4.9h.2c.2 0 .4-.1.5-.3.1-.3 0-.5-.2-.7C2 11 1.3 10.3 1.3 9.6V6.8c.4.3.8.6 1.4.9h.2c.2 0 .4-.1.5-.3.1-.3 0-.5-.2-.7C2 6.3 1.3 5.6 1.3 4.9c0-1.3 2.4-2.6 5.9-2.6 1.8-.1 3.6.4 5.2 1.5.2.2.5.1.7-.1.2-.2.1-.5-.1-.7-1.8-1.2-3.8-1.8-5.8-1.7C3.4 1.3.3 2.9.3 4.9v9.4c0 1.1.9 2.1 2.4 2.8h.2c.2 0 .4-.1.5-.3.1-.1 0-.4-.3-.5z"/></symbol><symbol fill="none" viewBox="0 0 32 32" id="comp" xmlns="http://www.w3.org/2000/svg"><path d="M28.571 2.286H3.428a2.286 2.286 0 0 0-2.285 2.286v9.143A2.286 2.286 0 0 0 3.428 16h25.143a2.286 2.286 0 0 0 2.286-2.285V4.572a2.286 2.286 0 0 0-2.286-2.286Z" stroke="#9197B3" stroke-width="2" stroke-linecap="round" stroke-linejoin="round"/><path d="M8 10.286A1.143 1.143 0 1 0 8 8a1.143 1.143 0 0 0 0 2.286ZM17.143 9.144h8M3.428 16a2.286 2.286 0 0 0-2.285 2.286v9.143a2.286 2.286 0 0 0 2.285 2.285h25.143a2.286 2.286 0 0 0 2.286-2.285v-9.143A2.286 2.286 0 0 0 28.57 16" stroke="#9197B3" stroke-width="2" stroke-linecap="round" stroke-linejoin="round"/><path d="M8 24a1.143 1.143 0 1 0 0-2.285A1.143 1.143 0 0 0 8 24ZM17.143 22.857h8" stroke="#9197B3" stroke-width="2" stroke-linecap="round" stroke-linejoin="round"/></symbol><symbol id="copy" viewBox="0 0 483.7 483.7" style="enable-background:new 0 0 483.7 483.7" xml:space="preserve" xmlns="http://www.w3.org/2000/svg"><style>.asst0{fill-rule:evenodd;clip-rule:evenodd}</style><g id="asIcon"><path class="asst0" d="M483.7 241.8c0-31.3-12.4-61.2-34.5-83.3S397.1 124 365.8 124h-124c-31.3 0-61.2 12.4-83.3 34.5S124 210.6 124 241.8v124c0 31.3 12.4 61.2 34.5 83.3 22.1 22.1 52.1 34.5 83.3 34.5h124c31.3 0 61.2-12.4 83.3-34.5 22.1-22.1 34.5-52.1 34.5-83.3v-124zm-37.2 0v124c0 21.4-8.5 41.9-23.6 57a80.607 80.607 0 0 1-57 23.6h-124c-21.4 0-41.9-8.5-57-23.6a80.607 80.607 0 0 1-23.6-57v-124c0-21.4 8.5-41.9 23.6-57 15.1-15.1 35.6-23.6 57-23.6h124c21.4 0 41.9 8.5 57 23.6 15.1 15.1 23.6 35.7 23.6 57z"/><path class="asst0" d="M351.1 73.6C333.6 30.5 291.3 0 241.8 0h-124C86.6 0 56.6 12.4 34.5 34.5S0 86.6 0 117.8v124c0 49.4 30.5 91.8 73.6 109.2 9.5 3.9 20.4-.7 24.2-10.2 3.9-9.5-.7-20.4-10.3-24.2-29.5-12-50.4-40.9-50.4-74.8v-124c0-21.4 8.5-41.9 23.6-57 15.1-15.1 35.6-23.6 57-23.6h124c33.8 0 62.8 20.8 74.8 50.4 3.8 9.5 14.7 14.1 24.2 10.3 9.6-3.9 14.2-14.8 10.4-24.3z"/></g></symbol><symbol viewBox="0 0 311 311.077" id="cross" xmlns="http://www.w3.org/2000/svg"><path d="M16.035 311.078c-4.097 0-8.195-1.558-11.308-4.695-6.25-6.25-6.25-16.383 0-22.633L283.789 4.687c6.25-6.25 16.383-6.25 22.633 0s6.25 16.383 0 22.637L27.363 306.383a16.045 16.045 0 0 1-11.328 4.695zm0 0"/><path d="M295.117 311.078a15.879 15.879 0 0 1-11.308-4.695L4.727 27.324c-6.25-6.254-6.25-16.386 0-22.636s16.382-6.25 22.636 0L306.422 283.75c6.25 6.25 6.25 16.383 0 22.633-3.137 3.117-7.23 4.695-11.305 4.695zm0 0"/></symbol><symbol viewBox="0 0 21.6 21.6" style="enable-background:new 0 0 21.6 21.6" xml:space="preserve" id="dashboard" xmlns="http://www.w3.org/2000/svg"><path d="M13.8 0h-6C2.4 0 0 2.4 0 7.8v6c0 5.4 2.3 7.8 7.8 7.8h6c5.4 0 7.8-2.3 7.8-7.8v-6c0-5.4-2.4-7.8-7.8-7.8zM20 13.8c0 4.6-1.6 6.2-6.2 6.2h-6c-4.6 0-6.2-1.6-6.2-6.2v-6c0-4.6 1.6-6.2 6.2-6.2h6c4.6 0 6.2 1.6 6.2 6.2v6z"/><path d="M8.7 6C7.5 7.2 7 8.9 7.4 10.5L5 12.8c-.3.4-.5 1-.5 1.4l.2 1.2c.1.8.8 1.4 1.5 1.5l1.2.2h.2c.5 0 1-.2 1.2-.5l2.3-2.3c1.6.3 3.3-.1 4.5-1.3.9-.9 1.4-2.2 1.4-3.5S16.5 7 15.6 6c-1.9-1.9-5-1.9-6.9 0zm5.8 5.9c-.9.9-2.2 1.2-3.4.8-.3-.1-.6 0-.8.2L9.2 14l-.3-.3c-.3-.3-.8-.3-1.1 0s-.3.8 0 1.1l.3.3-.3.4s-.1.1-.2.1l-1.2-.2c-.1 0-.2-.1-.2-.2L6 14c0-.1 0-.2.1-.2l2.6-2.6c.2-.2.3-.5.2-.8-.4-1.2-.1-2.5.8-3.4.7-.7 1.5-1 2.4-1s1.8.3 2.4 1c.6.6 1 1.5 1 2.4 0 1-.3 1.8-1 2.5z"/><path d="M12.2 8.5c-.6 0-1 .4-1 1s.5 1 1 1c.6 0 1-.4 1-1s-.4-1-1-1z"/></symbol><symbol viewBox="0 0 18 19" style="enable-background:new 0 0 18 19" xml:space="preserve" id="deposits" xmlns="http://www.w3.org/2000/svg"><path d="M17 7.6c0-.1-.1-.2-.1-.3L11 .8c-.1-.1-.1-.1-.2-.1H2.4c-.5 0-.9.2-1.2.5-.3.3-.5.7-.5 1.2v14.4c0 .5.2.9.5 1.3.3.3.8.5 1.2.5h12.9c.5 0 .9-.2 1.2-.5.3-.3.5-.8.5-1.3V7.6zm-5.9-5.2 3.1 3.4 1.2 1.3h-4.2V2.4zm4.7 15c-.1.1-.3.2-.5.2H2.4c-.2 0-.3-.1-.5-.2-.1-.2-.2-.4-.2-.6V2.4c0-.2.1-.4.2-.6.1-.1.3-.2.5-.2h7.7V7c0 .3.1.6.3.8.2.2.5.4.8.4H16v8.7c0 .1-.1.4-.2.5z"/><path d="M5.9 6.8c.6 0 1.3.3 1.3.8 0 .3.2.5.5.5s.5-.2.5-.5c0-.9-.7-1.6-1.8-1.8V4.4c0-.3-.2-.5-.5-.5s-.5.2-.5.5v1.5c-.9 0-1.8.3-1.8 1.8 0 1.3 1.1 1.9 2 2.4.9.5 1.5.9 1.5 1.5 0 .8-.2.8-1.3.8-1.3 0-1.3-.6-1.3-.8 0-.3-.2-.5-.5-.5s-.5.2-.5.5c0 .5.2 1.6 1.8 1.8v1.5c0 .3.2.5.5.5s.5-.2.5-.5v-1.5c.9 0 1.8-.3 1.8-1.8 0-1.3-1.1-1.9-2-2.4-.9-.6-1.5-.9-1.5-1.6 0-.7.2-.8 1.3-.8zM14.2 12.4h-3.5c-.3 0-.5.2-.5.5s.2.5.5.5h3.5c.3 0 .5-.2.5-.5s-.3-.5-.5-.5z"/></symbol><symbol viewBox="0 0 71.8 61.9" style="enable-background:new 0 0 71.8 61.9" xml:space="preserve" id="diamond" xmlns="http://www.w3.org/2000/svg"><path d="M70.4 16.6 61 3.4c-.7-1-1.6-1.8-2.6-2.4-1-.6-2.2-.9-3.4-.9h-.1L39.2 0H16.8c-1.2 0-2.4.4-3.4.9-1 .6-1.9 1.4-2.6 2.3L1.4 16.7c-1 1.4-1.4 3-1.4 4.7.1 1.7.7 3.3 1.8 4.6l28.4 33.2c.7.9 1.5 1.6 2.5 2 1 .5 2.1.7 3.2.7s2.2-.3 3.2-.7c1-.5 1.8-1.2 2.5-2L70 25.9c1.1-1.3 1.7-2.9 1.8-4.6.1-1.6-.4-3.3-1.4-4.7zm-14-12.1c.5.3.9.7 1.3 1.2L67.2 19c.2.3.4.7.5 1H52.5L42.4 4h12.4c.6.1 1.1.2 1.6.5zm-20.5 50L23.5 24h25L35.9 54.5zM24.1 20 34.3 4h3.4l10.1 16H24.1zm-10-14.4c.3-.5.7-.9 1.2-1.1.5-.3 1-.4 1.5-.4h12.6L19.4 20H4.2c.1-.4.3-.7.5-1l9.4-13.4zM5.4 24h13.7l12.5 30.7L5.4 24zm34.8 30.6L52.8 24h13.6L40.2 54.6z"/></symbol><symbol fill="none" viewBox="0 0 37 37" id="download" xmlns="http://www.w3.org/2000/svg"><g clip-path="url(#aya)" stroke="#9197B3" stroke-width="2" stroke-linecap="round" stroke-linejoin="round"><path d="M18.5 10.571v15.857M14.535 22.464l3.964 3.964 3.965-3.964"/><path d="M18.5 35.678c9.487 0 17.178-7.69 17.178-17.178S27.988 1.32 18.5 1.32 1.32 9.012 1.32 18.5c0 9.487 7.691 17.178 17.179 17.178Z"/></g><defs><clipPath id="aya"><path fill="#fff" d="M0 0h37v37H0z"/></clipPath></defs></symbol><symbol viewBox="0 0 24 24" style="enable-background:new 0 0 24 24" xml:space="preserve" id="download-icon" xmlns="http://www.w3.org/2000/svg"><path d="m12 16 4-5h-3V4h-2v7H8l4 5z"/><path d="M20 18H4v-7H2v7c0 1.1.9 2 2 2h16c1.1 0 2-.9 2-2v-7h-2v7z"/></symbol><symbol viewBox="0 0 28.1 28.1" style="enable-background:new 0 0 28.1 28.1" xml:space="preserve" id="earn" xmlns="http://www.w3.org/2000/svg"><path d="M15 8.2c0-.5-.4-1-1-1-.5 0-1 .4-1 1v.3h-.4c-1.6 0-2.9 1.3-2.9 3 0 1.9 1.1 2.5 2 2.8l1.3.5v2.9c-.7 0-1.2-.6-1.2-1.3 0-.5-.4-1-1-1-.5 0-1 .4-1 1 0 1.8 1.4 3.3 3.2 3.3h.1v.3c0 .5.4 1 1 1 .5 0 1-.4 1-1v-.3h.4c1.6 0 2.9-1.3 2.9-3 0-1.9-1.1-2.5-2-2.8l-1.4-.5v-2.9h.1c.7 0 1.2.6 1.2 1.3 0 .5.4 1 1 1 .5 0 1-.4 1-1 0-1.8-1.4-3.3-3.2-3.3H15v-.3zm.7 7.5c.4.2.6.3.6 1 0 .6-.4 1-.9 1H15v-2.2l.7.2zm-2.6-3-.7-.2c-.4-.2-.6-.3-.6-1 0-.6.4-1 .9-1h.4v2.2z"/><path d="M27.1 13.1c-.5 0-1 .4-1 1 0 6.7-5.4 12.1-12.1 12.1S2 20.7 2 14.1C2 7.4 7.4 2 14.1 2c.5 0 1-.4 1-1s-.4-1-1-1C6.3 0 0 6.3 0 14.1s6.3 14.1 14.1 14.1 14.1-6.3 14.1-14.1c-.1-.6-.5-1-1.1-1z"/><path d="M19.7 7.9c0 .1.1.1.1.1 0 .1.1.1.1.2.1.1.2.1.3.2.1.1.2.1.4.1h5.2c.5 0 1-.4 1-1s-.4-1-1-1H23l4.9-4.9c.4-.4.4-1 0-1.4-.4-.4-1-.4-1.4 0l-4.9 4.9V2.3c0-.5-.4-1-1-1-.5 0-1 .4-1 1v5.4c.1.1.1.1.1.2z"/></symbol><symbol fill="none" viewBox="0 0 12 12" id="earth" xmlns="http://www.w3.org/2000/svg"><g clip-path="url(#baa)" fill="#9197B3"><path d="M3.78 8.75C4.2 10.68 5.03 12 6 12c.97 0 1.8-1.32 2.22-3.25H3.78ZM9.24 3.25h2.09A5.958 5.958 0 0 0 8.19.42c.48.75.83 1.74 1.05 2.83ZM8.39 4.25H3.61a13.926 13.926 0 0 0 0 3.5h4.78a13.926 13.926 0 0 0 0-3.5ZM9.5 6c0 .59-.04 1.18-.11 1.75h2.34c.17-.55.26-1.14.26-1.75 0-.61-.09-1.2-.26-1.75H9.39c.07.57.11 1.16.11 1.75ZM8.22 3.25C7.8 1.32 6.97 0 6 0c-.97 0-1.8 1.32-2.22 3.25h4.44ZM2.76 8.75H.67c.66 1.29 1.78 2.3 3.14 2.83-.48-.75-.83-1.74-1.05-2.83ZM2.5 6c0-.59.04-1.18.11-1.75H.26C.09 4.8 0 5.39 0 6c0 .61.09 1.2.26 1.75H2.6c-.07-.57-.11-1.16-.11-1.75h.01ZM9.24 8.75c-.22 1.1-.57 2.08-1.05 2.83a6.036 6.036 0 0 0 3.14-2.83H9.24ZM2.76 3.25c.22-1.1.57-2.08 1.05-2.83A5.995 5.995 0 0 0 .67 3.25h2.09Z"/></g><defs><clipPath id="baa"><path fill="#fff" d="M0 0h12v12H0z"/></clipPath></defs></symbol><symbol viewBox="0 0 32 32" style="enable-background:new 0 0 32 32" xml:space="preserve" id="email" xmlns="http://www.w3.org/2000/svg"><path d="M25 4H7C4.2 4 2 6.2 2 9v14c0 2.8 2.2 5 5 5h18c2.8 0 5-2.2 5-5V9c0-2.8-2.2-5-5-5zM7 6h18c1.7 0 3 1.3 3 3v.4l-12 7.4L4 9.4V9c0-1.7 1.3-3 3-3zm18 20H7c-1.7 0-3-1.3-3-3V11.8l11.5 7.1c.1.1.3.1.5.1s.4 0 .5-.1L28 11.8V23c0 1.7-1.3 3-3 3z"/></symbol><symbol viewBox="0 0 80 80" style="enable-background:new 0 0 80 80" xml:space="preserve" id="exchange" xmlns="http://www.w3.org/2000/svg"><path d="M11 34c1.1 0 2-.9 2-2v-7c0-6.6 5.4-12 12-12h2.2l-2.6 2.6c-.8.8-.8 2 0 2.8.4.4.9.6 1.4.6s1-.2 1.4-.6l6-6 .3-.3s.1-.1.1-.2.1-.1.1-.2 0-.1.1-.2c0-.1 0-.1.1-.2.1-.3.1-.5 0-.8 0-.1 0-.1-.1-.2 0-.1 0-.1-.1-.2 0-.1-.1-.1-.1-.2s-.1-.1-.1-.2l-.3-.3-6-6c-.8-.8-2-.8-2.8 0-.8.8-.8 2 0 2.8L27.2 9H25C16.2 9 9 16.2 9 25v7c0 1.1.9 2 2 2zM69 46c-1.1 0-2 .9-2 2v7c0 6.6-5.4 12-12 12h-2.2l2.6-2.6c.8-.8.8-2 0-2.8s-2-.8-2.8 0l-6 6-.3.3-.1.1c0 .1-.1.1-.1.2s0 .1-.1.2c0 .1 0 .1-.1.2-.1.3-.1.5 0 .8 0 .1 0 .1.1.2 0 .1 0 .1.1.2 0 .1.1.1.1.2 0 0 0 .1.1.1l.3.3 6 6c.4.4.9.6 1.4.6s1-.2 1.4-.6c.8-.8.8-2 0-2.8L52.8 71H55c8.8 0 16-7.2 16-16v-7c0-1.1-.9-2-2-2zM69.3 16.8c-3.3-4.9-8.2-8.2-14-9.3-11.9-2.4-23.5 5.4-25.8 17.3-.2 1.1.5 2.1 1.6 2.4 1.1.2 2.1-.5 2.4-1.6 1.9-9.7 11.4-16.1 21.2-14.2 9.7 1.9 16.1 11.4 14.2 21.1-1.4 7.2-7 12.7-14.2 14.2-1.1.2-1.8 1.3-1.6 2.3.2 1 1 1.6 2 1.6h.4c8.8-1.7 15.6-8.5 17.3-17.3.9-5.8-.2-11.7-3.5-16.5z"/><path d="M29 29C16.9 29 7 38.9 7 51s9.9 22 22 22 22-9.9 22-22-9.9-22-22-22zm0 40c-9.9 0-18-8.1-18-18s8.1-18 18-18 18 8.1 18 18-8.1 18-18 18z"/><path d="m41.6 58.5-11.7-20c-.1-.1-.2-.3-.4-.4-.5-.3-1.1-.1-1.4.4l-11.8 20c-.1.2-.1.3-.1.5 0 .6.4 1 1 1h23.5c.2 0 .4 0 .5-.1.5-.3.7-.9.4-1.4zM34.8 56H23.2c-.1 0-.1 0-.2-.1-.2-.1-.3-.4-.1-.5l5.8-9.9c0-.1.1-.1.1-.1.2-.1.4 0 .5.1l5.8 9.9c0 .1.1.1.1.2 0 .2-.2.4-.4.4z"/></symbol><symbol viewBox="0 0 14.9 23.4" style="enable-background:new 0 0 14.9 23.4" xml:space="preserve" id="flash" xmlns="http://www.w3.org/2000/svg"><path d="M2.7 23.4c-.1 0-.3 0-.4-.1-.4-.2-.6-.7-.5-1.1L4 11.9H1.6c-.3 0-.6-.1-.9-.3-.2-.2-.4-.4-.5-.6-.1-.3-.2-.5-.2-.8 0-.3 0-.5.1-.8L3 .7c.1-.4.5-.7.9-.7H11c.3 0 .6.2.8.4.2.3.2.6.1.9l-2 5.2h3.4c.4 0 .7.1 1 .4.2.2.4.5.5.8.1.3.1.6.1.9-.1.3-.2.6-.4.9L3.4 23c-.2.2-.5.4-.7.4zM5.2 9.9c.3 0 .6.1.8.4.2.2.3.5.2.8l-1.7 7.4 8.2-9.9H8.4c-.3 0-.6-.2-.8-.4-.2-.3-.2-.7-.1-1l2-5.2H4.7L2.1 9.9h3.1z"/></symbol><symbol viewBox="0 0 23.5 23.5" style="enable-background:new 0 0 23.5 23.5" xml:space="preserve" id="graph" xmlns="http://www.w3.org/2000/svg"><path d="M21.1 1.9H15c-.5 0-.9.4-.9.9v4.9H8.5c-.5 0-.9.4-.9.9V12H2.4c-.5 0-.9.4-.9.9v8.7c0 .5.4.9.9.9h18.7c.5 0 .9-.4.9-.9V2.8c0-.5-.4-.9-.9-.9zM3.2 13.8h4.4v6.9H3.2v-6.9zm6.2-4.3h4.8v11.3H9.4V9.5zm10.9 11.2h-4.4v-17h4.4v17z"/></symbol><symbol viewBox="0 0 16.3 16.3" style="enable-background:new 0 0 16.3 16.3" xml:space="preserve" id="history" xmlns="http://www.w3.org/2000/svg"><path d="M14.4 10.5H1.8c-1 0-1.8-.8-1.8-1.8V1.8C0 .8.8 0 1.8 0h12.6c1 0 1.8.8 1.8 1.8v6.9c.1 1-.8 1.8-1.8 1.8zM1.8 1.4c-.2 0-.4.2-.4.4v6.9c0 .2.2.4.4.4h12.6c.2 0 .4-.2.4-.4V1.8c0-.2-.2-.4-.4-.4H1.8z"/><path d="M8.1 7.7c-1.3 0-2.4-1.1-2.4-2.4s1.1-2.4 2.4-2.4c1.3 0 2.4 1.1 2.4 2.4s-1 2.4-2.4 2.4zm0-3.4c-.6 0-1 .5-1 1s.5 1 1 1 1-.5 1-1-.4-1-1-1zM14.4 13.4H1.8c-.4 0-.7-.3-.7-.7s.4-.7.7-.7h12.6c.4 0 .7.3.7.7s-.3.7-.7.7zM13.3 16.3H3c-.4 0-.7-.3-.7-.7s.3-.7.7-.7h10.3c.4 0 .7.3.7.7s-.3.7-.7.7z"/></symbol><symbol viewBox="0 0 21.5 21.5" style="enable-background:new 0 0 21.5 21.5" xml:space="preserve" id="investments" xmlns="http://www.w3.org/2000/svg"><path d="M13.8 0h-6C2.3 0 0 2.3 0 7.8v6c0 4.2 1.4 6.5 4.4 7.3.9.3 2 .4 3.3.4h6c1.3 0 2.4-.1 3.3-.4 3-.9 4.4-3.2 4.4-7.3v-6c.1-5.5-2.2-7.8-7.6-7.8zm-6 20c-.9 0-1.6-.1-2.3-.2v-.1c0-.1.1-.2.1-.3.1-.1.1-.3.2-.4.1-.1.1-.2.2-.3.1-.1.2-.3.3-.4l.2-.2c.1-.1.2-.2.4-.3.1-.1.2-.1.3-.2.1-.1.3-.2.5-.3.1-.1.2-.1.3-.2.2-.1.3-.1.5-.2.1 0 .2-.1.3-.1.2-.1.4-.1.6-.1.1 0 .2-.1.3-.1.3 0 .6-.1 1-.1.3 0 .7 0 1 .1.1 0 .2 0 .3.1.2 0 .4.1.6.1.1 0 .2.1.3.1.2.1.4.1.5.2.1.1.2.1.3.2.2.1.3.2.5.3.1.1.2.1.3.2.1.1.3.2.4.4l.2.2c.1.1.2.3.3.4.1.1.1.2.2.3.1.1.2.3.2.5 0 .1.1.2.1.3v.1c-.7.1-1.4.2-2.3.2H7.8zM20 13.8c0 3.1-.8 4.8-2.5 5.6-.1-.3-.2-.5-.3-.8 0 0 0-.1-.1-.1-.1-.3-.3-.5-.5-.7l-.1-.1c-.2-.2-.4-.5-.6-.7-.2-.2-.5-.4-.8-.6H15c-.3-.2-.6-.3-.9-.5 0 0-.1 0-.1-.1l-.9-.3h-.2c-.3-.1-.7-.2-1-.2h-.1c-.4 0-.7-.1-1.1-.1-.4 0-.7 0-1.1.1h-.1c-.3.1-.7.1-1 .2-.1 0-.1 0-.2.1l-.9.3c-.1 0-.1.1-.2.1-.2-.1-.4 0-.7.2 0 0-.1 0-.1.1-.3.2-.5.4-.7.6l-.1.1c-.2.2-.4.4-.6.7l-.1.1c-.2.2-.3.5-.5.7 0 0 0 .1-.1.1-.1.3-.2.5-.3.8-1.8-.8-2.5-2.6-2.5-5.6v-6c0-4.6 1.6-6.2 6.2-6.2h6c4.6 0 6.2 1.6 6.2 6.2v6z"/><path d="M10.8 5C8.4 5 6.4 6.9 6.4 9.3v.1c0 .2 0 .5.1.7.2 1.1.9 2 1.7 2.7l.1.1c.1.1.3.2.5.2.1 0 .2.1.3.2.1 0 .2.1.3.1.4.2.9.3 1.4.3.3 0 .5 0 .8-.1h.1c.1 0 .2-.1.3-.1.2 0 .3-.1.5-.2h.1c1.5-.7 2.6-2.2 2.6-4 0-.3 0-.5-.1-.8-.5-2-2.2-3.5-4.3-3.5zm0 7.2C9.2 12.2 8 10.9 8 9.4v-.3c.1-1.2 1-2.2 2.2-2.5.2 0 .4-.1.6-.1 1.6 0 2.8 1.3 2.8 2.8 0 .2 0 .4-.1.6-.2 1.3-1.4 2.3-2.7 2.3z"/></symbol><symbol fill="none" viewBox="0 0 66 66" id="known" xmlns="http://www.w3.org/2000/svg"><g clip-path="url(#bha)" stroke="#67699D" stroke-width="4" stroke-linecap="round" stroke-linejoin="round"><path d="M49.5 2.357h-33C8.69 2.357 2.357 8.69 2.357 16.5v33c0 7.811 6.332 14.143 14.143 14.143h33c7.811 0 14.143-6.332 14.143-14.143v-33c0-7.81-6.332-14.143-14.143-14.143Z"/><path d="m18.857 37.715 9.665 7.731a2.265 2.265 0 0 0 1.885.471 2.357 2.357 0 0 0 1.603-1.131l15.133-25.929"/></g><defs><clipPath id="bha"><path fill="#fff" d="M0 0h66v66H0z"/></clipPath></defs></symbol><symbol id="lock" viewBox="0 0 15.7 15.6" style="enable-background:new 0 0 15.7 15.6" xml:space="preserve" xmlns="http://www.w3.org/2000/svg"><style>.bist0{fill:#67699d}</style><path class="bist0" d="M15.1.6c-.4-.4-.9-.6-1.5-.6H2.1C1.5 0 1 .2.6.6S0 1.5 0 2.1v3.1c0 2.2.7 4.4 1.9 6.3 1.3 1.9 3.1 3.3 5.2 4.1.2.1.5.1.7.1.2 0 .5 0 .7-.1 2.1-.8 3.9-2.2 5.2-4.1 1.3-1.9 1.9-4 1.9-6.3V2.1c.1-.6-.1-1.1-.5-1.5zm-1.4 4.5c0 1.8-.6 3.6-1.6 5.1-1 1.5-2.5 2.7-4.2 3.3l.4.9-.4-.9c-1.7-.7-3.2-1.8-4.2-3.3C2.6 8.7 2 7 2 5.1L2.1 2l11.6.1v3z"/><path class="bist0" d="M6.8 8.1v1.8c0 .6.4 1 1 1s1-.4 1-1V8.1c.9-.4 1.6-1.3 1.6-2.4 0-1.4-1.2-2.6-2.6-2.6-1.4 0-2.6 1.2-2.6 2.6.1 1.1.7 2 1.6 2.4zm1-2.9c.3 0 .6.3.6.6s-.3.6-.6.6-.6-.3-.6-.6c.1-.4.3-.6.6-.6z"/></symbol><symbol viewBox="0 0 35 35" id="logout" xmlns="http://www.w3.org/2000/svg"><path stroke="#67699D" d="M17.54 34.75a17.25 17.25 0 0 1 0-34.5 1.25 1.25 0 0 1 0 2.5 14.75 14.75 0 0 0 0 29.5 1.25 1.25 0 0 1 0 2.5Z"/><path stroke="#67699D" d="M32.927 18.75H15.25a1.25 1.25 0 0 1 0-2.5h17.677a1.25 1.25 0 0 1 0 2.5Z"/><path d="M26.536 26.438a1.25 1.25 0 0 1-.884-2.134l6.384-6.385a.6.6 0 0 0 0-.839l-6.384-6.38a1.25 1.25 0 1 1 1.768-1.771l6.38 6.384a3.1 3.1 0 0 1 0 4.374l-6.38 6.385a1.246 1.246 0 0 1-.884.366Z"/></symbol><symbol fill="none" viewBox="0 0 13 10" id="mail" xmlns="http://www.w3.org/2000/svg"><g clip-path="url(#bka)" fill="#9197B3"><path d="M12.823.419a1.035 1.035 0 0 0-.84-.419H1.016C.674 0 .373.16.188.405l6.33 4.966L12.824.419Z"/><path d="M0 1.993v7.051C0 9.57.457 10 1.016 10h10.968C12.543 10 13 9.57 13 9.044V2.018l-6.48 5.09L0 1.993Z"/></g><defs><clipPath id="bka"><path fill="#fff" d="M0 0h13v10H0z"/></clipPath></defs></symbol><symbol fill="none" viewBox="0 0 83 77" id="money" xmlns="http://www.w3.org/2000/svg"><path d="M57.65 12.513H15.945c-2.71 0-4.906 2.216-4.906 4.95v29.7c0 2.734 2.197 4.95 4.906 4.95H57.65c2.71 0 4.906-2.216 4.906-4.95v-29.7c0-2.734-2.196-4.95-4.906-4.95Z" stroke="#67699D" stroke-width="4" stroke-linecap="round" stroke-linejoin="round"/><path d="M36.798 39.739c4.065 0 7.36-3.325 7.36-7.425 0-4.101-3.295-7.425-7.36-7.425s-7.36 3.324-7.36 7.425c0 4.1 3.296 7.425 7.36 7.425ZM25.758 64.487h44.157c1.302 0 2.55-.521 3.47-1.45a4.973 4.973 0 0 0 1.437-3.5v-24.75" stroke="#67699D" stroke-width="4" stroke-linecap="round" stroke-linejoin="round"/></symbol><symbol viewBox="0 0 42.8 42.2" style="enable-background:new 0 0 42.8 42.2" xml:space="preserve" id="params" xmlns="http://www.w3.org/2000/svg"><path d="M6.1 12.1c2.8 0 5.2-1.9 5.9-4.5h29.3c.8 0 1.5-.7 1.5-1.5s-.7-1.5-1.5-1.5H12C11.3 1.9 8.9 0 6.1 0 2.7 0 0 2.7 0 6s2.7 6.1 6.1 6.1zm0-9.1c1.7 0 3.1 1.4 3.1 3S7.8 9 6.1 9C4.4 9.1 3 7.7 3 6s1.4-3 3.1-3zM41.3 19.6h-14c-.7-2.6-3.1-4.5-5.9-4.5s-5.2 1.9-5.9 4.5h-14c-.8 0-1.5.7-1.5 1.5s.7 1.5 1.5 1.5h14c.7 2.6 3.1 4.5 5.9 4.5s5.2-1.9 5.9-4.5h14c.8 0 1.5-.7 1.5-1.5s-.6-1.5-1.5-1.5zm-19.9 4.5c-1.7 0-3.1-1.4-3.1-3 0-1.7 1.4-3 3.1-3 1.7 0 3.1 1.4 3.1 3 0 1.7-1.4 3-3.1 3zM36.7 30.2c-2.8 0-5.2 1.9-5.9 4.5H1.5c-.8 0-1.5.7-1.5 1.5s.7 1.5 1.5 1.5h29.3c.7 2.6 3.1 4.5 5.9 4.5 3.4 0 6.1-2.7 6.1-6s-2.7-6-6.1-6zm0 9c-1.7 0-3.1-1.4-3.1-3s1.4-3 3.1-3c1.7 0 3.1 1.4 3.1 3s-1.3 3-3.1 3z"/></symbol><symbol viewBox="0 0 18.2 16.9" style="enable-background:new 0 0 18.2 16.9" xml:space="preserve" id="partners" xmlns="http://www.w3.org/2000/svg"><path d="M6.5 7.3c-2 0-3.6-1.6-3.6-3.6S4.5.1 6.5.1s3.6 1.6 3.6 3.6c.1 2-1.6 3.6-3.6 3.6zm0-5.8c-1.2 0-2.1 1-2.1 2.1s1 2.1 2.1 2.1 2.1-1 2.1-2.1-.9-2.1-2.1-2.1zM12.3 16.9H.8c-.4 0-.8-.3-.8-.8v-1.3c0-1.7.7-3.4 1.9-4.6s2.9-1.9 4.6-1.9c1.7 0 3.4.7 4.6 1.9s1.9 2.9 1.9 4.6v1.3c.1.5-.3.8-.7.8zM1.5 15.4h10.1v-.5c0-1.3-.5-2.6-1.5-3.6S7.9 9.9 6.5 9.9s-2.6.5-3.5 1.4-1.5 2.2-1.5 3.6v.5zM11.7 7.3c-.4 0-.8-.3-.8-.8s.3-.8.8-.8c.6 0 1.1-.2 1.5-.6.4-.4.6-.9.6-1.5s-.2-1.1-.6-1.5c-.4-.4-.9-.6-1.5-.6-.4 0-.8-.3-.8-.8s.4-.7.8-.7c1 0 1.9.4 2.6 1.1.7.7 1.1 1.6 1.1 2.6s-.4 1.9-1.1 2.6c-.7.6-1.6 1-2.6 1zM17.5 16.9h-1.9c-.4 0-.8-.3-.8-.8s.3-.8.8-.8h1.2v-.7c0-1-.3-2-.9-2.9-.6-.8-1.4-1.5-2.4-1.8-.4-.1-.6-.6-.4-1 .1-.4.6-.6 1-.4 1.2.5 2.3 1.3 3.1 2.4.8 1.1 1.2 2.4 1.2 3.7V16c-.2.6-.5.9-.9.9z"/></symbol><symbol viewBox="0 0 20.5 20.5" style="enable-background:new 0 0 20.5 20.5" xml:space="preserve" id="partners-check" xmlns="http://www.w3.org/2000/svg"><path d="M9.8 19H8.5l-2.3-.2-2.2-.2-2.3-.4-.1-.1-.1-.1v-.1l.1-.4.1-.8.3-.9.2-.3.3-.3.3-.2 1.5-.6 1.3-.4 1.4-.2.3-.1.2-.1.2-.1.2-.2.2-.2.1-.2.1-.2.1-.3.1-.2v-.3l-.1-.3-.1-.2-.1-.2-.3-.4-.6-1.2L7 8.5l-.3-1.1-.2-1V4.6l.2-.6.3-.6.4-.6.4-.4.6-.4.5-.3.7-.1.6-.1h.4l.6.1.6.2.6.4.5.4.2.2.4.6.3.6.2.6V6.3l-.2 1.1-.3 1.1-.3 1-.5 1-.4.7-.1.2-.1.3-.1.2v.3l.1.2.1.3.1.2.1.2.2.2.2.2.2.1.3.1 1.5.3 1.2.3 1.2-1.1-2-.6-1.4-.3-.2-.1-.1-.2.3-.4.2-.4.6-1.1.4-1.2.3-1.2.2-1.2V4.4l-.2-.8-.2-.4-.4-.7-.2-.3-.5-.7-.3-.3-.7-.4-.7-.4-.4-.1-.4-.2-.8-.1h-.9L9 .1l-.4.2-.4.1-.4.2-.3.2-.7.5-.3.2-.5.7-.2.3-.3.4-.1.3-.3.8-.1.4v2.1l.1.6.3 1.3.3 1.1.3.6.5 1.2.2.3.2.3.1.1-.1.1v.1l-1.6.4-1.4.4-1.4.5-.3.1-.3.2-.3.2-.2.2-.3.2-.2.3-.1.3-.3.8-.3.9-.2 1.1v.4l.2.5.2.4.4.3.4.2 1.4.3 1.2.2 2.3.2 2.4.2h2.8l-1.4-1.4z"/><path d="M20.4 13.5c-.1-.3-.4-.5-.7-.5-.2 0-.4.1-.5.2l-5.5 5.5-2.5-2.5c-.2-.2-.5-.3-.7-.2-.3.1-.5.3-.6.6-.1.3 0 .5.2.7l3 3c.1.1.3.2.5.2s.4-.1.5-.2l6-6c.4-.2.5-.6.3-.8z"/></symbol><symbol viewBox="0 0 54 60" style="enable-background:new 0 0 54 60" xml:space="preserve" id="percent" xmlns="http://www.w3.org/2000/svg"><path d="M41 36c0-7.7-6.3-14-14-14s-14 6.3-14 14 6.3 14 14 14 14-6.3 14-14zm-26 0c0-6.6 5.4-12 12-12s12 5.4 12 12-5.4 12-12 12-12-5.4-12-12z"/><path d="M26 32c0-1.7-1.3-3-3-3s-3 1.3-3 3 1.3 3 3 3 3-1.3 3-3zm-4 0c0-.6.4-1 1-1s1 .4 1 1-.4 1-1 1-1-.4-1-1zM28 40c0 1.7 1.3 3 3 3s3-1.3 3-3-1.3-3-3-3-3 1.3-3 3zm4 0c0 .6-.4 1-1 1s-1-.4-1-1 .4-1 1-1 1 .4 1 1zM32.7 30.3c-.4-.4-1-.4-1.4 0l-10 10c-.4.4-.4 1 0 1.4.4.4 1 .4 1.4 0l10-10c.4-.4.4-1 0-1.4zM45.3 23.3l-3 3c-.4.4-.4 1 0 1.4.4.4 1 .4 1.4 0l3-3c.4-.4.4-1 0-1.4-.4-.4-1-.4-1.4 0zM43 36c0 .6.4 1 1 1h4c.6 0 1-.4 1-1s-.4-1-1-1h-4c-.6 0-1 .4-1 1zM11.7 26.3l-3-3c-.4-.4-1-.4-1.4 0-.4.4-.4 1 0 1.4l3 3c.4.4 1 .4 1.4 0 .4-.4.4-1 0-1.4zM10.3 44.3l-3 3c-.4.4-.4 1 0 1.4.4.4 1 .4 1.4 0l3-3c.4-.4.4-1 0-1.4-.4-.4-1-.4-1.4 0z"/><path d="M49 4h-3v-.5C46 1.6 44.4 0 42.5 0S39 1.6 39 3.5V4h-8.5v-.5C30.5 1.6 28.9 0 27 0s-3.5 1.6-3.5 3.5V4H15v-.5C15 1.6 13.4 0 11.5 0S8 1.6 8 3.5V4H5C2.2 4 0 6.2 0 9v31c0 .6.4 1 1 1s1-.4 1-1V18h50v24c0 .6-.4 1-1 1h-5c-2.8 0-5 2.2-5 5v5c0 .6-.4 1-1 1l-35-.1c-1.7 0-3-1.3-3-3V48c0-.6-.4-1-1-1s-1 .4-1 1v7c0 2.8 2.2 5 5 5h44c2.8 0 5-2.2 5-5V9c0-2.8-2.2-5-5-5zm-6 44c0-1.7 1.3-3 3-3h4.6L43 52.6V48zm9 7c0 1.7-1.3 3-3 3H5c-1.7 0-3-1.3-3-3v-.1c.9.7 1.9 1 3 1l35.3.1c1.3 0 2.6-.5 3.5-1.5l8.1-8.1V55zM41 3.5c0-.8.7-1.5 1.5-1.5s1.5.7 1.5 1.5v4c0 .8-.7 1.5-1.5 1.5S41 8.3 41 7.5v-4zm-15.5 0c0-.8.7-1.5 1.5-1.5s1.5.7 1.5 1.5v4c0 .8-.7 1.5-1.5 1.5s-1.5-.7-1.5-1.5v-4zM10 3.5c0-.8.7-1.5 1.5-1.5s1.5.7 1.5 1.5v4c0 .8-.7 1.5-1.5 1.5S10 8.3 10 7.5v-4zM52 16H2V9c0-1.7 1.3-3 3-3h3v1.5C8 9.4 9.6 11 11.5 11S15 9.4 15 7.5V6h8.5v1.5c0 1.9 1.6 3.5 3.5 3.5s3.5-1.6 3.5-3.5V6H39v1.5c0 1.9 1.6 3.5 3.5 3.5S46 9.4 46 7.5V6h3c1.7 0 3 1.3 3 3v7z"/><circle cx="1" cy="44" r="1"/><path d="M5 36c0 .6.4 1 1 1h4c.6 0 1-.4 1-1s-.4-1-1-1H6c-.6 0-1 .4-1 1z"/></symbol><symbol viewBox="0 0 26 26" style="enable-background:new 0 0 26 26" xml:space="preserve" id="period" xmlns="http://www.w3.org/2000/svg"><path d="M20 3.4h-1.7v-.8c0-.5-.4-.9-.9-.9s-.9.4-.9.9v.9h-7v-.9c0-.5-.4-.9-.9-.9s-.9.4-.9.9v.9H6c-2.4 0-4.3 1.9-4.3 4.3V20c0 2.4 1.9 4.3 4.3 4.3h14c2.4 0 4.3-1.9 4.3-4.3V7.8c0-2.4-1.9-4.4-4.3-4.4zM6 5.2h1.7V6c0 .5.4.9.9.9s.9-.4.9-.9v-.8h7V6c0 .5.4.9.9.9s.9-.4.9-.9v-.8H20c1.4 0 2.6 1.2 2.6 2.6v.9H3.4v-.9c0-1.5 1.2-2.6 2.6-2.6zm14 17.4H6c-1.4 0-2.6-1.2-2.6-2.6v-9.6h19.1V20c.1 1.4-1.1 2.6-2.5 2.6z"/><path d="M20 15.6h-3.5c-.5 0-.9.4-.9.9V20c0 .5.4.9.9.9H20c.5 0 .9-.4.9-.9v-3.5c-.1-.5-.5-.9-.9-.9zm-.9 3.5h-1.7v-1.7h1.7v1.7z"/></symbol><symbol fill="none" viewBox="0 0 37 37" id="pie" xmlns="http://www.w3.org/2000/svg"><g clip-path="url(#bra)" stroke="#9197B3" stroke-width="2" stroke-linecap="round" stroke-linejoin="round"><path d="M18.5 35.678c9.487 0 17.178-7.69 17.178-17.178S27.988 1.32 18.5 1.32 1.32 9.012 1.32 18.5c0 9.487 7.691 17.178 17.179 17.178Z"/><path d="M18.5 1.321V18.5l12.157 12.157"/></g><defs><clipPath id="bra"><path fill="#fff" d="M0 0h37v37H0z"/></clipPath></defs></symbol><symbol viewBox="0 0 21.5 21.5" style="enable-background:new 0 0 21.5 21.5" xml:space="preserve" id="plans" xmlns="http://www.w3.org/2000/svg"><path d="M13.8 0h-6C2.3 0 0 2.3 0 7.8v6c0 5.4 2.3 7.8 7.8 7.8h6c5.4 0 7.8-2.3 7.8-7.8v-6C21.5 2.3 19.2 0 13.8 0zM20 13.8c0 4.6-1.6 6.2-6.2 6.2h-6c-4.6 0-6.2-1.6-6.2-6.2v-6c0-4.6 1.6-6.2 6.2-6.2h6c4.6 0 6.2 1.6 6.2 6.2v6z"/><path d="m15.6 6.1-3.2-1.8c-.9-.5-2.3-.5-3.2 0L5.9 6.1C5 6.7 4.2 8 4.2 9v3.4c0 1.1.7 2.4 1.7 2.9l3.2 1.8c.5.2 1 .4 1.6.4.6 0 1.2-.1 1.6-.4l3.2-1.8c1-.5 1.7-1.8 1.7-2.9V9c.1-1.1-.7-2.3-1.6-2.9zm-5.7-.4c.2-.1.6-.2.9-.2.3 0 .7.1.9.2l3.2 1.8c.1.1.2.1.3.2l-4.4 2.5-4.4-2.5c.1-.1.2-.2.3-.2l3.2-1.8zM6.7 14c-.5-.3-.9-1-.9-1.6V9.1l4.3 2.5v4.3H10L6.7 14zm9.1-1.6c0 .5-.4 1.3-.9 1.6l-3.2 1.8h-.1v-4.3L15.8 9v3.4z"/></symbol><symbol viewBox="0 0 91.8 74.9" style="enable-background:new 0 0 91.8 74.9" xml:space="preserve" id="pm" xmlns="http://www.w3.org/2000/svg"><path d="M12.2 7.5h58.1v3.7H12.2zM30.9 15h39.3v3.7H30.9z"/><path d="M86.2 37.5v-1.9c0-8.6-7.5-13.1-15-13.1H15c-5.6 0-11.2-3.2-11.2-9.4S9.4 3.7 15 3.7h58.4c5.6 0 9 3.6 9 9.4v9.4h3.7v-9.4C86.2 5.2 80.9 0 73.4 0H15C7.5 0 0 4.5 0 13.1v48.3c0 8.3 5.1 13.5 13.1 13.5H73c7.7 0 13.1-5.6 13.1-13.5v-1.5c3.2 0 5.6-2.4 5.6-5.6V43.1c.1-3.2-2.4-5.6-5.5-5.6zm-3.8 23.9c0 5.8-3.7 9.7-9.4 9.7H13.1c-6 0-9.4-3.5-9.4-9.7V22.1c2.9 2.7 7.1 4.1 11.2 4.1h56.2c5.6 0 11.2 3.2 11.2 9.4v1.9h-7.5c-6.2 0-11.2 5.1-11.2 11.2 0 6.2 5.1 11.2 11.2 11.2h7.5v1.5zm5.6-7.1c0 1.1-.7 1.9-1.9 1.9H74.9c-4.1 0-7.5-3.4-7.5-7.5s3.4-7.5 7.5-7.5h11.2c1.1 0 1.9.7 1.9 1.9v11.2z"/><path d="M76.8 43.1c-3.2 0-5.6 2.4-5.6 5.6 0 3.2 2.4 5.6 5.6 5.6s5.6-2.4 5.6-5.6c0-3.2-2.4-5.6-5.6-5.6zm0 7.5c-1.1 0-1.9-.7-1.9-1.9 0-1.1.7-1.9 1.9-1.9s1.9.7 1.9 1.9c0 1.1-.8 1.9-1.9 1.9z"/></symbol><symbol viewBox="0 0 55 57" style="enable-background:new 0 0 55 57" xml:space="preserve" id="profit" xmlns="http://www.w3.org/2000/svg"><path d="M54 55h-4.6V24.7h2.8c.6 0 1-.4 1-1 0-.2-.1-.4-.2-.6L46.7 15c-.4-.4-1-.5-1.5-.1l-.1.1-6.3 8.1c-.3.4-.3 1.1.2 1.4.2.1.4.2.6.2h2.8V55H32.3V33.8h2.8c.4 0 .7-.2.9-.6.2-.3.1-.8-.1-1.1L29.6 24c-.4-.4-1-.5-1.5-.1l-.1.1-6.3 8.1c-.3.4-.3 1.1.2 1.4.2.1.4.2.6.2h2.8V55h-9.1V42.9H19c.4 0 .7-.2.9-.6.2-.3.1-.7-.1-1l-6.3-8.1c-.4-.4-1-.5-1.4-.1l-.1.1-6.3 8.1c-.2.3-.3.7-.1 1 .2.3.5.6.9.6h2.8V55H2V3.5c0-.6-.4-1-1-1s-1 .4-1 1V56c0 .6.4 1 1 1h53c.6 0 1-.4 1-1s-.4-1-1-1zM14.1 41.9V55h-3V41.9c0-.6-.4-1-1-1H8.4l4.3-5.5 4.3 5.5h-1.7c-.7 0-1.2.4-1.2 1zm16.2-9.1V55h-3V32.8c0-.6-.4-1-1-1h-1.7l4.3-5.5 4.3 5.5h-1.7c-.7 0-1.2.4-1.2 1zm17.2-9.1V55h-3V23.7c0-.5-.4-1-1-1h-1.7l4.3-5.5 4.3 5.5h-1.7c-.8 0-1.2.4-1.2 1z"/><path d="M11.6 22.2c.2.1.3.2.5.3.5.3.9.5 1.4.7v.8c0 .6.4 1 1 1s1-.4 1-1v-.6c1.1-.2 1.9-1 2.2-2 .3-1-.1-2.1-1.1-2.7L14 16.9c-.1-.1-.2-.2-.3-.4 0-.1 0-.2.1-.3.4-.4 1-.5 1.5-.2l1.1.7c.5.3 1.1.2 1.4-.3.3-.5.2-1.1-.3-1.4l-1.1-.7c-.3-.2-.6-.3-.9-.4v-.8c0-.6-.4-1-1-1s-1 .4-1 1v.9c-.5.2-.9.5-1.2.9-.4.5-.6 1.2-.5 1.9.1.7.5 1.4 1.2 1.7l2.6 1.8c.3.2.3.4.2.5-.1.4-.5.7-1 .6-.6-.1-1.2-.3-1.7-.7-.2-.1-.4-.2-.6-.4-.5-.3-1.1-.1-1.4.4-.2.7 0 1.3.5 1.5z"/><path d="M14.5 28.2c5.3 0 9.5-4.3 9.5-9.5 0-5.3-4.3-9.5-9.5-9.5C9.2 9.1 5 13.4 5 18.6c0 5.3 4.2 9.6 9.5 9.6zm0-17.1c4.2 0 7.5 3.4 7.5 7.5 0 4.2-3.4 7.5-7.5 7.5-4.2 0-7.5-3.4-7.5-7.5s3.3-7.5 7.5-7.5zM31.8 13.1c.2.1.3.2.5.3.4.3.9.5 1.4.7v.9c0 .6.4 1 1 1s1-.4 1-1v-.6c1.1-.2 1.9-1 2.2-2 .3-1-.1-2.2-1.1-2.7l-2.6-1.8c-.1-.1-.2-.2-.3-.4 0-.1 0-.2.1-.3.4-.4 1-.5 1.5-.2l1.1.7c.4.3 1.1.2 1.4-.3.3-.5.2-1.1-.3-1.4l-1.1-.7c-.3-.2-.6-.3-.9-.4v-.8c0-.6-.4-1-1-1s-1 .4-1 1V5c-.5.2-.9.5-1.2.9-.4.5-.6 1.2-.5 1.9.1.7.5 1.3 1.2 1.7l2.6 1.8c.3.2.3.4.3.5-.1.4-.5.7-1 .7-.6-.1-1.2-.3-1.7-.7-.2-.1-.4-.2-.6-.4-.5-.3-1.1-.1-1.4.4-.3.5-.1 1.1.4 1.3z"/><path d="M34.7 19.1c5.3 0 9.5-4.3 9.5-9.5C44.2 4.3 40 0 34.7 0s-9.5 4.3-9.5 9.6c0 5.2 4.2 9.5 9.5 9.5zm0-17.1c4.2 0 7.5 3.4 7.5 7.5 0 4.2-3.4 7.5-7.6 7.5-4.2 0-7.5-3.4-7.5-7.6.1-4 3.4-7.4 7.6-7.4z"/></symbol><symbol viewBox="0 0 24 24" id="security" xmlns="http://www.w3.org/2000/svg"><g data-name="49. Lock"><path d="M18 8V6A6 6 0 0 0 6 6v2a3 3 0 0 0-3 3v7a6.006 6.006 0 0 0 6 6h6a6.006 6.006 0 0 0 6-6v-7a3 3 0 0 0-3-3ZM8 6a4 4 0 0 1 8 0v2H8Zm11 12a4 4 0 0 1-4 4H9a4 4 0 0 1-4-4v-7a1 1 0 0 1 1-1h12a1 1 0 0 1 1 1Z"/><path d="M12 14a1 1 0 0 0-1 1v2a1 1 0 0 0 2 0v-2a1 1 0 0 0-1-1Z"/></g></symbol><symbol viewBox="0 0 23 23.2" style="enable-background:new 0 0 23 23.2" xml:space="preserve" id="setting" xmlns="http://www.w3.org/2000/svg"><path d="M20.4 0H2.6C1.2 0 0 1.2 0 2.6v18c0 1.5 1.2 2.6 2.6 2.6h17.7c1.4 0 2.6-1.2 2.6-2.6v-18C23 1.2 21.8 0 20.4 0zm.6 20.6c0 .3-.3.6-.6.6H2.6c-.3 0-.6-.3-.6-.6v-18c0-.3.3-.6.6-.6h17.7c.4 0 .7.3.7.6v18z"/><path d="M7.5 4.1C5.6 4.1 4 5.6 4 7.5c0 1.5 1 2.8 2.4 3.3v7.3c0 .6.4 1 1 1s1-.4 1-1v-7.3c1.4-.4 2.4-1.7 2.4-3.3.1-1.9-1.5-3.4-3.3-3.4zm0 4.9C6.7 9 6 8.3 6 7.5S6.6 6 7.4 6s1.4.7 1.4 1.5c.1.8-.6 1.5-1.3 1.5zM16.5 9.2V5.1c0-.6-.4-1-1-1s-1 .4-1 1v4.1c-1.4.4-2.4 1.7-2.4 3.3s1 2.8 2.4 3.3v2.4c0 .6.4 1 1 1s1-.4 1-1v-2.4c1.4-.4 2.4-1.7 2.4-3.3s-1-2.9-2.4-3.3zm-1 4.7c-.8 0-1.4-.7-1.4-1.4 0-.8.6-1.5 1.4-1.5s1.4.7 1.4 1.5c0 .7-.6 1.4-1.4 1.4z"/></symbol><symbol viewBox="0 0 17.7 19.1" style="enable-background:new 0 0 17.7 19.1" xml:space="preserve" id="settings" xmlns="http://www.w3.org/2000/svg"><path d="m17.2 11.5-.9-1.1V8.7l.8-1.1c.3-.3.4-.7.5-1.2 0-.4-.1-.8-.3-1.2l-.5-1c-.2-.4-.5-.7-.9-.8-.4-.2-.8-.3-1.2-.2l-1.3.2-1.5-.9-.5-1.3c-.2-.4-.4-.7-.8-1-.4-.1-.8-.2-1.2-.2H8.3c-.4 0-.8.1-1.2.4-.3.2-.6.6-.8.9l-.5 1.3-1.5.9-1.4-.2c-.4-.1-.8 0-1.2.2-.3.2-.7.4-.9.8l-.5 1C.1 5.6 0 6 0 6.5c0 .4.2.8.5 1.2l.9 1.1v1.8l-.8 1.1c-.3.3-.4.7-.5 1.2 0 .4.1.8.3 1.2l.5 1c.2.4.5.7.9.8s.8.3 1.2.2l1.3-.2 1.5.9.5 1.3c.2.4.4.7.8 1 .4.2.8.4 1.2.4h1.1c.4 0 .8-.1 1.2-.4.4-.2.6-.6.8-1l.5-1.3 1.5-.9 1.4.2c.4.1.8 0 1.2-.2.4-.2.7-.5.9-.8l.5-.9c.2-.4.3-.8.3-1.2s-.2-1.2-.5-1.5zm-1.1 1.6-.5.9c-.1.1-.1.2-.3.2-.1.1-.2.1-.3.1l-1.6-.2c-.2 0-.3 0-.5.1l-2 1.1c-.1.1-.3.2-.3.4l-.6 1.6c0 .1-.1.2-.2.3-.1.1-.2.1-.3.1H8.3c-.1 0-.2 0-.3-.1-.1-.1-.2-.2-.2-.3l-.6-1.5c-.1-.2-.2-.3-.3-.4l-2-1.1c-.1-.1-.2-.1-.4-.1h-.1l-1.6.2c-.1 0-.2 0-.3-.1-.1-.1-.2-.1-.3-.2l-.5-1c-.1-.1-.1-.2-.1-.4 0-.1.1-.2.1-.3l1-1.3c.1-.1.2-.3.2-.5V8.4c0-.2-.1-.3-.2-.5l-1-1.3c-.1 0-.2-.1-.2-.2s0-.2.1-.4l.5-.9.3-.3c.1-.1.2-.1.3-.1l1.6.3c.2 0 .3 0 .5-.1l2-1.1c.2-.1.3-.2.3-.4l.6-1.5c0-.1.1-.2.2-.3.1-.1.2-.1.3-.1h1.1c.1 0 .2 0 .3.1.2.1.3.2.4.3l.6 1.5c.1.2.2.3.3.4l2 1.1c.1.1.3.1.4.1l1.6-.2c.1 0 .2 0 .3.1s.2.1.3.2l.5 1c.1.1.1.2.1.4 0 .1-.1.2-.1.3L15 8c-.1.1-.2.3-.2.5v2.3c0 .2.1.3.2.5l1 1.3c.1.1.1.2.1.3.1 0 .1.1 0 .2z"/><path d="M10.8 6.7c-1.4-.9-3.3-.7-4.4.4-.7.7-1 1.5-1 2.4 0 .7.2 1.4.6 1.9.4.6.9 1 1.6 1.3.3.2.8.3 1.2.3.2 0 .5 0 .7-.1.7-.1 1.3-.5 1.8-.9.5-.5.8-1.1.9-1.8.1-.7.1-1.4-.2-2-.2-.6-.7-1.1-1.2-1.5zm0 3.3c-.1.4-.3.7-.5 1-.3.3-.6.5-1 .5-.4.1-.8 0-1.1-.1-.4-.1-.7-.4-.9-.7s-.4-.7-.4-1.1c0-.5.2-1 .6-1.4.4-.4.9-.6 1.4-.6.4 0 .8.1 1.1.3.3.2.6.5.7.9.1.4.2.8.1 1.2z"/></symbol><symbol fill="none" viewBox="0 0 64 63" id="shield" xmlns="http://www.w3.org/2000/svg"><path d="m36.206 59.445-2.698 1.035a4.36 4.36 0 0 1-3.017 0l-2.697-1.035c-6.832-2.636-12.7-7.235-16.841-13.198A35.608 35.608 0 0 1 4.571 26.01V13.5a29.498 29.498 0 0 0 15.285-1.915A29.014 29.014 0 0 0 32 2.25c5.714 8.19 15.177 12.06 27.428 11.25v12.51a35.607 35.607 0 0 1-6.381 20.237c-4.142 5.963-10.01 10.562-16.841 13.198v0Z" stroke="#67699D" stroke-width="4" stroke-linecap="round" stroke-linejoin="round"/></symbol><symbol fill="none" viewBox="0 0 65 65" id="speed" xmlns="http://www.w3.org/2000/svg"><path d="M32.5 62.679c14.103 0 25.535-11.433 25.535-25.536 0-14.103-11.432-25.536-25.535-25.536S6.964 23.04 6.964 37.143c0 14.103 11.433 25.536 25.536 25.536ZM25.535 2.321h13.929M32.5 2.321v9.286" stroke="#67699D" stroke-width="4" stroke-linecap="round" stroke-linejoin="round"/><path d="m25.535 27.857 6.964 9.286h11.608M55.714 9.285l4.643 4.643M9.285 9.285l-4.642 4.643" stroke="#67699D" stroke-width="4" stroke-linecap="round" stroke-linejoin="round"/></symbol><symbol viewBox="0 0 18.6 18.6" style="enable-background:new 0 0 18.6 18.6" xml:space="preserve" id="star" xmlns="http://www.w3.org/2000/svg"><path d="M7.9.8c.1-.3.3-.5.6-.6.2-.1.5-.2.8-.2.3 0 .6.1.8.2.2.1.5.3.6.6l2.8 4.4 3.6.4c.3 0 .6.1.8.3.2.2.4.4.5.7.1.3.1.6.1.9-.1.3-.2.6-.4.8l-3 3.5 1 4.8c.1.3 0 .6-.1.9-.1.3-.3.6-.6.7-.3.2-.6.3-.9.3-.3 0-.6-.1-.9-.2L9.3 16l-4.4 2.4c-.3.2-.6.2-.9.2-.3 0-.6-.1-.9-.3-.3-.2-.5-.4-.6-.7-.1-.3-.1-.6-.1-.9l1-4.8-3-3.5c-.2-.3-.3-.6-.4-.9 0-.3 0-.6.1-.8.1-.3.3-.6.5-.7.2-.2.5-.3.8-.3L5 5.3 7.9.8z"/></symbol><symbol viewBox="0 0 256 256" style="enable-background:new 0 0 256 256" xml:space="preserve" id="swap" xmlns="http://www.w3.org/2000/svg"><path d="M208 34H96c-7.7 0-14 6.3-14 14v8c0 3.3 2.7 6 6 6s6-2.7 6-6v-8c0-1.1.9-2 2-2h112c1.1 0 2 .9 2 2v104c0 1.1-.9 2-2 2H94.5l13.8-13.8c2.3-2.3 2.3-6.1 0-8.5-2.3-2.3-6.1-2.3-8.5 0l-24 24c-.3.3-.5.6-.8.9v.1c-.2.3-.4.6-.5 1v.1c-.1.3-.2.7-.3 1v.1c-.1.4-.1.7-.1 1.1 0 .4 0 .7.1 1.1v.1c.1.4.2.7.3 1v.1c.1.3.3.7.5 1v.1c.2.3.5.6.8.9l24 24c1.2 1.2 2.7 1.8 4.2 1.8s3.1-.6 4.2-1.8c2.3-2.3 2.3-6.1 0-8.5L94.5 166H208c7.7 0 14-6.3 14-14V48c0-7.7-6.3-14-14-14z"/><path d="M168 194c-3.3 0-6 2.7-6 6v8c0 1.1-.9 2-2 2H48c-1.1 0-2-.9-2-2V104c0-1.1.9-2 2-2h113.5l-13.8 13.8c-2.3 2.3-2.3 6.1 0 8.5 1.2 1.2 2.7 1.8 4.2 1.8s3.1-.6 4.2-1.8l24-24c.3-.3.5-.6.8-.9v-.1c.2-.3.4-.6.5-1v-.1c.1-.3.2-.7.3-1v-.1c.1-.4.1-.7.1-1.1s0-.7-.1-1.1v-.1c-.1-.4-.2-.7-.3-1v-.1c-.1-.3-.3-.7-.5-1v-.1c-.2-.3-.5-.6-.8-.9l-24-24c-2.3-2.3-6.1-2.3-8.5 0-2.3 2.3-2.3 6.1 0 8.5L161.5 90H48c-7.7 0-14 6.3-14 14v104c0 7.7 6.3 14 14 14h112c7.7 0 14-6.3 14-14v-8c0-3.3-2.7-6-6-6z"/></symbol><symbol viewBox="0 0 21 17" style="enable-background:new 0 0 21 17" xml:space="preserve" id="telegram" xmlns="http://www.w3.org/2000/svg"><path d="M8.2 11.2 7.9 16c.5 0 .7-.2 1-.5l2.3-2.2 4.8 3.4c.9.5 1.5.2 1.7-.8l3.2-14.4c.3-1.3-.5-1.8-1.3-1.5L1 7C-.3 7.5-.3 8.2.8 8.5l4.8 1.4 11.1-6.7c.5-.3 1-.2.6.2l-9.1 7.8z"/></symbol><symbol fill="none" viewBox="0 0 73 73" id="time" xmlns="http://www.w3.org/2000/svg"><path d="M22.317 27.375A23.463 23.463 0 1 1 63.667 45" stroke="#67699D" stroke-width="4" stroke-linecap="round" stroke-linejoin="round"/><path d="M45.625 19.554v10.428h7.821M3.911 40.411h20.857a13.035 13.035 0 0 1 13.036 13.036v0M22.161 53.447h26.072A10.429 10.429 0 0 1 58.66 63.876a2.607 2.607 0 0 1-2.607 2.607H3.911" stroke="#67699D" stroke-width="4" stroke-linecap="round" stroke-linejoin="round"/></symbol><symbol fill="none" viewBox="0 0 39 39" id="wallet" xmlns="http://www.w3.org/2000/svg"><g clip-path="url(#cea)" stroke="#9197B3" stroke-width="2" stroke-linecap="round" stroke-linejoin="round"><path d="M33.428 20.893v-5.571a2.786 2.786 0 0 0-2.785-2.786H4.178a2.785 2.785 0 0 0-2.785 2.786v19.5a2.786 2.786 0 0 0 2.785 2.786h26.465a2.785 2.785 0 0 0 2.785-2.786v-6.964M10.697 5.571 26.492 1.45a1.365 1.365 0 0 1 1.7 1.002l.78 3.12"/><path d="M36.214 20.893h-6.965c-.769 0-1.393.623-1.393 1.392v4.179c0 .77.624 1.393 1.393 1.393h6.965c.769 0 1.392-.624 1.392-1.393v-4.179c0-.769-.623-1.392-1.392-1.392Z"/></g><defs><clipPath id="cea"><path fill="#fff" d="M0 0h39v39H0z"/></clipPath></defs></symbol><symbol viewBox="0 0 18.2 15" style="enable-background:new 0 0 18.2 15" xml:space="preserve" id="wallets" xmlns="http://www.w3.org/2000/svg"><path d="M13 11.8H2c-1.1 0-2-.9-2-2V2C0 .9.9 0 2 0h11c1.1 0 2 .9 2 2v7.7c0 1.2-.9 2.1-2 2.1zM2 1.5c-.3 0-.5.2-.5.5v7.7c0 .3.2.5.5.5h11c.3 0 .5-.2.5-.5V2c0-.3-.2-.5-.5-.5H2z"/><path d="M7.5 8.6C6 8.6 4.8 7.4 4.8 5.9c0-1.5 1.2-2.7 2.7-2.7 1.5 0 2.7 1.2 2.7 2.7 0 1.5-1.2 2.7-2.7 2.7zm0-3.9c-.6 0-1.2.5-1.2 1.2s.5 1.2 1.2 1.2 1.2-.5 1.2-1.2-.6-1.2-1.2-1.2zM16.2 15H4.6c-.4 0-.8-.3-.8-.8s.3-.8.8-.8h11.6c.1 0 .3-.1.4-.2.1-.1.2-.2.2-.4V6.5c0-.4.3-.8.8-.8s.8.3.8.8V13c0 .5-.2 1.1-.6 1.4-.6.4-1.1.6-1.6.6z"/></symbol><symbol viewBox="0 0 21.5 20" style="enable-background:new 0 0 21.5 20" xml:space="preserve" id="withdraw" xmlns="http://www.w3.org/2000/svg"><path d="M5.9 7.5c-.8 0-1.6.2-2.3.6 0 0-.1 0-.1.1 0 0-.1 0-.1.1-.2 0-.3.2-.5.3-.8.7-1.3 1.7-1.3 2.8V16.2c0 2.1 1.9 3.9 4.3 3.9s4.3-1.7 4.3-3.9v-4.8c0-1.1-.5-2-1.3-2.8-.8-.7-1.8-1.1-3-1.1zM4 9.7c.1-.1.2-.2.4-.3.1-.1.3-.1.4-.2.4-.1.7-.2 1.1-.2.8 0 1.5.3 2.1.7.5.4.8 1 .8 1.6 0 .3-.1.7-.3 1-.5.8-1.5 1.2-2.6 1.2s-2.1-.5-2.6-1.2c-.2-.3-.2-.6-.3-.9v-.1c.1-.6.4-1.2 1-1.6-.1 0 0 0 0 0zm4.7 4.5c0 1.2-1.2 2.1-2.8 2.1-1.6 0-2.8-.9-2.8-2.1.8.5 1.8.8 2.8.8 1.1 0 2.1-.3 2.8-.8zm-2.8 4.3c-1.1 0-2.1-.6-2.6-1.4.3.2.6.3.9.4.2.1.5.1.7.2H5c.3 0 .6.1.8.1.3 0 .6 0 .8-.1h.2c.2 0 .4-.1.6-.1.1 0 .1 0 .2-.1.2-.1.3-.1.5-.2.1 0 .1-.1.2-.1h.1c-.3.7-1.3 1.3-2.5 1.3z"/><path d="M20.5 6.6v-.8c0-3.1-1.9-5.3-4.9-5.7-.3-.1-.6-.1-.8-.1h-9c-.4 0-.7 0-1 .1C1.9.4 0 2.7 0 5.8v2c0 .4.3.8.8.8s.8-.3.8-.8v-2c0-2.3 1.4-3.9 3.6-4.2.2 0 .5-.1.7-.1h9.7c2 .3 3.4 1.9 3.4 4.3v.7h-1.3c-.8 0-1.5.3-2 .8-.6.6-.9 1.4-.8 2.2.1 1.4 1.4 2.6 2.9 2.6H19v.7c0 2.6-1.7 4.2-4.2 4.2h-2.5c-.4 0-.8.3-.8.8s.3.8.8.8h2.5c3.4 0 5.8-2.3 5.8-5.8v-.9c.6-.3 1-.9 1-1.6V8.2c-.1-.7-.5-1.3-1.1-1.6zm-2.7 3.9c-.7 0-1.4-.5-1.4-1.2V9c0-.2.1-.3.2-.5v-.1l.1-.1.1-.1c.2-.1.5-.2.9-.2h2.1c.1 0 .2.1.2.2v2.1c0 .1-.1.3-.2.3h-2z"/></symbol></svg>